<svg width="148" height="148" viewBox="0 0 148 148" fill="none" xmlns="http://www.w3.org/2000/svg">
<g clip-path="url(#clip0_178_2)">
<path d="M86.3515 14.057C86.3515 15.0314 85.8828 15.5 84.6557 15.4445C81.6155 15.3952 80.0923 15.3397 77.1138 15.3397V11.948C79.9813 11.9974 81.4305 11.948 84.2487 12.0529C85.7102 12.1022 86.3515 12.3612 86.3515 13.5452C86.4098 13.7108 86.4098 13.8914 86.3515 14.057ZM59.3353 17.0417C60.507 14.9327 61.0312 13.8535 62.2028 11.7445C63.3745 13.8535 64.0158 14.8834 65.1875 16.9924C62.8503 16.9924 61.6787 16.9924 59.3415 17.0417M46.3915 19.3049C43.117 19.3542 41.4582 19.4097 38.2083 19.459V17.4549L46.3915 17.1959C47.3843 17.1959 48.0318 17.35 48.0318 18.275C48.0318 19.0459 47.4152 19.3049 46.3915 19.3049ZM38.1467 12.8237C41.3595 12.6202 42.9998 12.5154 46.2188 12.3612C47.039 12.3119 47.5632 12.5647 47.5632 13.3355C47.5632 14.1064 47.0945 14.4147 46.2188 14.4147C42.9998 14.5195 41.3657 14.6182 38.1467 14.7724C38.2022 14.0509 38.1467 13.65 38.1467 12.8237ZM20.0783 18.2689C21.25 16.6224 21.7742 15.7467 22.9458 13.9522C24.1175 15.4939 24.7588 16.3202 25.9305 17.9605C23.5933 18.1147 22.4155 18.164 20.0783 18.2689ZM124.104 12.0467V15.9564C120.91 15.6585 117.713 15.3851 114.515 15.1362V10.9182C106.539 10.0946 98.5445 9.45924 90.5387 9.0127V11.0724C90.0145 9.7342 88.8428 8.91404 86.3885 8.8092C81.7697 8.6057 77.1385 8.50087 72.5875 8.45154V21.0994L65.2183 8.45154C62.8195 8.50087 61.654 8.50087 59.2552 8.55637C57.0907 12.3612 54.8707 16.2215 52.7062 20.0264C52.7769 19.6521 52.8161 19.2725 52.8233 18.8917C52.8233 16.832 52.0648 15.8577 50.073 15.7035V15.6542C51.3618 15.2965 52.293 14.834 52.2375 12.466C52.2375 9.7897 50.4245 8.96954 46.7985 9.17304C42.4119 9.43204 38.0274 9.79176 33.645 10.2522C33.645 14.8772 33.7005 17.1959 33.7005 21.8209C31.2338 18.1702 28.6747 14.5689 25.9243 11.0724L20.0167 11.8432C17.4926 15.5163 14.8181 19.0836 12 22.5362H17.0875C17.6117 21.8147 17.9077 21.457 18.4318 20.6862C22.1318 20.5814 23.9818 20.532 27.6818 20.4827C28.2677 21.3029 28.5575 21.716 29.0878 22.5424H48.2045C49.411 22.6359 50.6165 22.3491 51.6517 21.7222C51.5099 22.0153 51.3339 22.2906 51.1275 22.5424H56.215L57.5593 20.0757C61.2593 20.0757 63.1093 20.0264 66.8093 20.0264C67.3952 21.0007 67.685 21.5187 68.2153 22.493H77.1015V18.8424C79.969 18.8424 81.4182 18.8424 84.2918 18.8917C85.6978 18.8917 86.1418 19.4035 86.1418 20.8465V22.493H90.7052V20.1682C90.7618 19.804 90.7413 19.432 90.645 19.0762C90.5487 18.7204 90.3789 18.3888 90.1464 18.1028C89.9138 17.8168 89.6239 17.5828 89.2952 17.416C88.9666 17.2491 88.6066 17.1531 88.2385 17.1342V17.0849C90.3413 16.6717 90.81 15.6419 90.81 13.7919V12.2502C93.2767 12.355 94.51 12.4044 96.9767 12.5585C96.9767 16.5175 96.9767 18.4724 96.9212 22.4252H101.485C101.485 18.571 101.485 16.6655 101.54 12.8114C104.932 13.0149 106.566 13.1197 109.958 13.428C109.958 17.0294 109.958 18.83 109.902 22.4252H114.465V18.1085C118.326 18.2627 120.256 18.3675 124.055 18.571V22.4252H128.618V12.8114C126.984 12.5524 125.929 12.2995 124.116 12.0405" fill="#8690B1"/>
<path d="M144.565 27.0625C138.215 22.1539 134.026 14.9655 132.885 7.02087L114.089 0.07104C114.089 0.07104 113.806 -0.0337933 113.75 0.01554C113.695 0.0648733 113.695 0.175873 113.578 0.231373C108.564 5.09687 90.909 1.51404 72.7358 1.51404H71.9403C53.7672 1.51404 36.112 5.09687 31.043 0.231373C30.932 0.12654 30.932 0.07104 30.8703 0.01554C30.8087 -0.03996 30.5312 0.07104 30.5312 0.07104L11.7167 7.02087C10.5839 14.9772 6.37747 22.1724 0 27.0625C2.59934 28.4973 4.80595 30.5492 6.42547 33.0376C8.04498 35.526 9.02768 38.3745 9.287 41.3322C9.287 46.9439 2.849 64.525 2.849 79.2264C2.849 119.149 36.4018 134.381 57.0787 139.247C62.547 141.134 67.5965 144.066 71.9465 147.88C72.0534 147.983 72.1959 148.04 72.3442 148.04C72.4926 148.04 72.6351 147.983 72.742 147.88C77.0698 144.036 82.1258 141.1 87.6098 139.247C108.287 134.381 141.839 119.149 141.839 79.2264C141.839 64.4757 135.402 46.8945 135.402 41.3322C135.629 38.3811 136.585 35.5326 138.184 33.0421C139.784 30.5516 141.976 28.497 144.565 27.0625ZM5.92 27.007C10.3409 22.5439 13.4713 16.9673 14.9788 10.8689C15.1182 10.2919 15.1763 9.69827 15.1515 9.10521L30.303 3.86971C30.303 3.86971 30.414 6.75571 46.3363 6.05887C46.9037 6.05887 49.8082 5.95404 50.6098 5.89854C57.3211 5.4132 64.0463 5.14584 70.7748 5.09687H73.6238C80.4565 5.09687 87.1905 5.52237 93.7888 5.89854C94.5843 5.95404 97.4888 6.05887 98.0623 6.05887C113.954 6.75571 114.096 3.86971 114.096 3.86971L129.247 9.10521C129.222 9.69827 129.28 10.2919 129.42 10.8689C130.927 16.9674 134.057 22.5441 138.479 27.007H5.92ZM137.887 80.1822C137.887 82.322 137.776 84.3509 137.603 86.3489C136.725 95.9287 132.904 105.002 126.663 112.323C116.336 124.607 102.059 132.919 86.2778 135.836C81.147 137.455 76.3859 140.071 72.2672 143.532C68.1083 140.13 63.3591 137.521 58.2565 135.836C42.5081 132.923 28.256 124.642 17.9265 112.403C17.0361 111.289 16.1805 110.148 15.3612 108.981L14.504 107.747C10.2485 101.362 7.66376 94.0108 6.98683 86.3674C6.77416 84.319 6.67945 82.26 6.70317 80.2007C7.03163 69.4423 8.8326 58.7797 12.0558 48.5102C12.7682 46.1506 13.1521 43.7041 13.1967 41.2397C13.252 38.0411 12.3594 34.8977 10.6313 32.2055H134.008C132.28 34.8977 131.387 38.0411 131.443 41.2397C131.491 43.7038 131.875 46.1498 132.583 48.5102C132.984 49.7929 133.323 51.0755 133.662 52.3582L134.063 53.8567C136.387 62.4478 137.676 71.2854 137.905 80.1822H137.887Z" fill="#8690B1"/>
<path d="M82.4727 105.731L87.258 105.219L91.5747 102.136V115.147L85.149 115.813L82.4727 114.167" fill="#8690B1"/>
<path d="M82.0106 114.938L84.8904 116.738L91.3716 116.171L81.3939 127.536L77.5397 124.194L76.6641 121.517" fill="#8690B1"/>
<path d="M75.9485 121.931L76.7687 124.656L80.4687 128.048L68.6904 130.619L67.457 127.228L68.4314 124.915" fill="#8690B1"/>
<path d="M67.6111 124.965L66.6367 127.228L67.7652 130.983L54.8584 120.389L57.8431 119.156" fill="#8690B1"/>
<path d="M62.5727 78.6837L44.1652 92.3614L39.9472 83.8761L48.4326 82.2789L58.0464 66.4922L47.8159 72.5602L53.7297 51.0632L33.1084 71.6352L38.8681 100.279L68.0796 85.8802" fill="#8690B1"/>
<path d="M82.3192 68.9095L104.377 62.5825L100.215 54.1465L93.3761 60.2638L75.0672 58.309L86.4324 53.4743L65.7617 45.1L94.6094 41.2458L113.893 63.2053L84.6811 77.6538" fill="#8690B1"/>
<path d="M77.0218 70.4019L73.1676 75.2365L67.001 75.3907L68.592 85.5719L84.1751 77.9129" fill="#8690B1"/>
<path d="M99.9552 94.7787L98.6725 96.2217L90.1378 96.7891L89.2622 93.7057L98.3642 92.8301L98.6725 88.8217L97.3898 90.2586L88.442 90.8752L87.6218 87.9461L96.9273 87.1752L97.4392 83.0127L96.1565 84.4557L86.851 85.0724L86.0308 82.1926L95.4412 81.3724L96.1072 77.2099L94.8738 78.6467L85.1058 78.5419L68.3942 86.8237L62.6838 94.5382L60.7783 94.6924L64.4783 96.6472L70.8547 89.6542L72.6553 92.0716L66.4887 99.1139L64.5832 99.2187L68.1845 101.328L74.456 94.4396L76.306 96.9062L70.3922 103.591L68.4867 103.745L71.829 105.959L78.0512 99.2742L80.006 101.796L74.2957 108.278L72.3902 108.382L75.8373 110.541L81.7512 104.164L82.3185 104.886L86.999 104.269L91.4205 101.032L90.9087 99.6936L99.6222 98.7747" fill="#8690B1"/>
<path d="M57.1221 118.126L49.2041 121.363L54.7048 101.1" fill="#8690B1"/>
</g>
<defs>
<clipPath id="clip0_178_2">
<rect width="148" height="148" fill="white"/>
</clipPath>
</defs>
</svg>
