<svg width="147" height="148" viewBox="0 0 147 148" fill="none" xmlns="http://www.w3.org/2000/svg">
<g clip-path="url(#clip0_178_14)">
<path d="M70.0176 10.5889L70.0483 14.1707L76.0438 14.1097C77.082 14.1097 77.7208 13.4214 77.7147 12.3371C77.7024 11.2589 77.039 10.534 76.0622 10.534L70.0176 10.595V10.5889ZM66.9154 9.47413C66.8656 8.96985 66.6717 8.49014 66.3564 8.09137H66.9031V8.08528L76.3448 8C79.0047 8 80.737 9.76043 80.7616 12.4711C80.7739 14.195 80.0244 15.5595 78.6976 16.2113L78.3781 16.3697L80.9889 19.9271L77.5365 19.9636L75.2637 16.656L70.0729 16.7047L70.0975 20.0245L67.0014 20.055L66.9154 9.47413ZM92.943 14.0305C91.266 14.0305 90.0865 14.8224 89.6074 16.2661C88.9071 18.3494 90.1725 20.3352 92.8263 21.322C93.5941 21.6083 94.3436 21.7484 95.05 21.7484C96.7147 21.7484 97.9003 20.9565 98.3856 19.5068C99.0798 17.4296 97.8082 15.4499 95.1421 14.457C94.4406 14.1858 93.6958 14.0414 92.943 14.0305ZM95.4739 24.5261C94.3374 24.5261 93.1641 24.3008 91.9847 23.8683C87.7092 22.2845 85.4486 18.6113 86.6096 15.1453C87.4205 12.7209 89.6442 11.2711 92.5437 11.2711C93.6801 11.2711 94.835 11.4843 95.9837 11.9168C97.9863 12.6539 99.6388 13.9148 100.64 15.4499C101.153 16.1999 101.486 17.0565 101.614 17.954C101.742 18.8514 101.661 19.766 101.377 20.6276C100.56 23.0642 98.3549 24.5261 95.48 24.5261H95.4739ZM42.227 24.6114L46.4964 22.0774L42.0858 19.1291L42.227 24.6114ZM39.4443 19.4641V19.4519C39.4048 19.2207 39.3145 19.0009 39.1796 18.8083C39.0448 18.6156 38.8688 18.4548 38.6642 18.3372L42.5403 16.059L53.444 23.3261L50.7411 24.9282L48.7938 23.6246L42.2885 27.4805L42.3499 29.911L39.647 31.513L39.4443 19.4641ZM113.565 38.5304L118.203 32.0491L109.756 34.0958L109.621 33.9557L110.727 24.8612L105.137 30.4349L102.852 28.2297L110.149 20.92C110.503 20.5121 110.705 19.9959 110.721 19.458L111.052 19.7748L113.798 22.4124L112.895 30.3313L120.267 28.6257L122.877 31.1415L115.838 40.7233L113.565 38.5304ZM23.4359 34.5831L23.4236 34.571C23.038 34.2788 22.5746 34.1052 22.0906 34.0715L31.0899 23.9901L32.8407 25.7201L26.3537 32.9872L28.4362 35.0522L32.9451 30.0024L34.6958 31.7384L30.1869 36.7822L32.8898 39.4563L30.7582 41.832L23.4359 34.5831ZM14.1416 50.689C13.6705 50.4984 13.1522 50.4538 12.655 50.5611L14.3259 47.1133L22.4223 51.487L26.3845 43.3731L28.5529 44.5488L23.184 55.5743L14.1416 50.689ZM118.074 44.366L126.864 39.4502C127.313 39.1688 127.663 38.7558 127.865 38.2685L134.008 50.4514L131.889 51.6331L127.448 42.8249L125.648 43.83L128.732 49.9519L126.612 51.1336L123.529 45.0117L121.649 46.0716L126.293 55.2819L124.174 56.4637L118.074 44.366ZM11.7397 65.077L15.9784 68.3786L16.7155 63.3592L11.7397 65.077ZM10.3514 67.4283L10.333 67.4161C10.1323 67.3012 9.90731 67.2342 9.67593 67.2205C9.44456 67.2067 9.21314 67.2466 9 67.3369L9.68801 62.7927L21.9923 58.5287L21.5254 61.7023L19.314 62.4638L18.1898 70.1146L20.0695 71.5766L19.6027 74.7624L10.3514 67.4283ZM131.68 61.9155C131.497 61.9163 131.314 61.9326 131.134 61.9643C129.057 62.3298 128.019 64.4618 128.492 67.3857C128.91 70.0233 130.31 71.6619 132.135 71.6619C132.32 71.6613 132.505 71.645 132.688 71.6131C134.764 71.2477 135.796 69.1096 135.323 66.1796C134.905 63.5846 133.48 61.9155 131.68 61.9155ZM132.307 75C129.211 75 126.661 72.1187 125.973 67.8364C125.212 63.1338 127.159 59.2718 130.605 58.6566C130.906 58.6018 131.213 58.5774 131.502 58.5774C134.555 58.5774 137.154 61.5135 137.835 65.7288C138.597 70.4375 136.656 74.3056 133.228 74.9147C132.924 74.9705 132.616 74.999 132.307 75Z" fill="#8690B1"/>
<path d="M72.0954 33.9057C72.4466 33.9057 72.7834 33.7677 73.0317 33.5218C73.2801 33.276 73.4196 32.9426 73.4196 32.595C73.4196 32.2474 73.2801 31.914 73.0317 31.6682C72.7834 31.4223 72.4466 31.2843 72.0954 31.2843C71.7443 31.2843 71.4075 31.4223 71.1591 31.6682C70.9108 31.914 70.7713 32.2474 70.7713 32.595C70.7713 32.9426 70.9108 33.276 71.1591 33.5218C71.4075 33.7677 71.7443 33.9057 72.0954 33.9057ZM71.6499 37.2132H83.3319C83.5666 37.2132 83.7917 37.121 83.9576 36.9567C84.1235 36.7925 84.2168 36.5697 84.2168 36.3374C84.2168 36.1051 84.1235 35.8823 83.9576 35.718C83.7917 35.5538 83.5666 35.4615 83.3319 35.4615H71.6499C71.4158 35.4631 71.1917 35.5559 71.0261 35.7198C70.8605 35.8837 70.7667 36.1056 70.7651 36.3374C70.7651 36.8274 71.1673 37.2132 71.6499 37.2132ZM92.7803 116.391L92.6132 116.477L92.6256 116.465L92.7803 116.391C94.3983 115.629 95.7064 114.344 96.4899 112.749C97.2734 111.154 97.4859 109.342 97.0923 107.611C96.6988 105.881 95.7227 104.334 94.3241 103.225C92.9256 102.116 91.1877 101.51 89.3957 101.507L81.0735 101.501C80.8036 101.501 80.5447 101.395 80.3538 101.206C80.1629 101.017 80.0557 100.761 80.0557 100.494C80.0557 100.226 80.1629 99.9702 80.3538 99.7812C80.5447 99.5923 80.8036 99.4861 81.0735 99.4861H95.1191C96.7238 99.5372 98.3225 99.2684 99.8202 98.6958C101.318 98.1232 102.684 97.2584 103.837 96.1528C104.991 95.0472 105.908 93.7234 106.534 92.26C107.16 90.7966 107.483 89.2235 107.483 87.6342C107.483 86.045 107.16 84.4719 106.534 83.0085C105.908 81.5451 104.991 80.2213 103.837 79.1157C102.684 78.0101 101.318 77.1453 99.8202 76.5727C98.3225 76.0001 96.7238 75.7313 95.1191 75.7824H81.5623C81.2924 75.7824 81.0335 75.6762 80.8426 75.4873C80.6517 75.2983 80.5445 75.042 80.5445 74.7748C80.5445 74.5076 80.6517 74.2513 80.8426 74.0624C81.0335 73.8734 81.2924 73.7672 81.5623 73.7672L91.9202 73.755C95.4936 73.7561 99.0007 72.7996 102.069 70.987C105.138 69.1743 107.654 66.5732 109.349 63.4595C111.045 60.3458 111.858 56.8358 111.701 53.3018C111.545 49.7679 110.424 46.3418 108.459 43.3872L108.404 43.3199C108.387 43.2945 108.378 43.2646 108.379 43.2341C108.379 43.1545 108.441 43.0932 108.521 43.0932C108.571 43.0932 108.589 43.0994 108.62 43.1361L108.633 43.1545C113.52 48.6083 117.042 55.1234 118.917 62.1736C120.791 69.2238 120.963 76.6115 119.421 83.74C117.879 90.8686 114.664 97.5381 110.038 103.21C105.411 108.882 99.4951 113.397 92.7803 116.391ZM88.6037 118.026C83.7391 119.659 78.6365 120.489 73.5 120.483C66.4463 120.483 59.7638 118.945 53.7619 116.183V79.5554H67.065C66.4371 77.6824 66.1947 75.704 66.352 73.7368C66.5093 71.7696 67.0631 69.8535 67.9807 68.1016H53.7557V31.8171C59.7576 29.0609 66.4401 27.5174 73.4938 27.5174C81.6922 27.5174 89.3957 29.5999 96.1091 33.2504C96.7358 33.6433 97.2167 34.2269 97.4798 34.9134C97.7429 35.6 97.7739 36.3524 97.5682 37.0579C97.3625 37.7634 96.9311 38.3838 96.3389 38.826C95.7467 39.2681 95.0256 39.5082 94.2838 39.5101H88.4428C86.7969 39.5101 85.8936 39.9879 85.3305 40.4779C83.697 41.8744 84.2539 43.5343 80.9126 43.5343H71.6871C72.9369 46.3824 75.8018 48.4343 76.5133 48.9181H87.8426C88.3067 48.9181 88.6965 49.1999 88.8574 49.598C88.9407 49.7825 88.9624 49.9885 88.9192 50.186C88.8769 50.4386 88.7455 50.6683 88.5484 50.8342C88.3514 51.0001 88.1013 51.0916 87.8426 51.0925H76.3091C73.9973 52.3634 72.2689 54.467 71.4829 56.9664H92.31C92.941 56.9977 93.5356 57.2679 93.971 57.7211C94.4064 58.1742 94.6492 58.7757 94.6492 59.4011C94.6492 60.0264 94.4064 60.6279 93.971 61.0811C93.5356 61.5342 92.941 61.8044 92.31 61.8357H81.7603C78.2698 61.8357 74.9223 63.2083 72.4542 65.6515C69.9861 68.0947 68.5995 71.4084 68.5995 74.8636C68.5995 78.3188 69.9861 81.6325 72.4542 84.0757C74.9223 86.5189 78.2698 87.8915 81.7603 87.8915H94.9149C95.4718 87.8915 95.9297 88.357 95.9297 88.9144C95.9297 89.4656 95.4718 89.9066 94.9149 89.9066H81.4448C78.8872 89.9066 76.4344 90.9123 74.626 92.7025C72.8175 94.4927 71.8015 96.9207 71.8015 99.4524C71.8015 101.984 72.8175 104.412 74.626 106.202C76.4344 107.993 78.8872 108.998 81.4448 108.998L86.5309 109.017C89.1049 109.017 91.221 111.148 91.221 113.672C91.221 115.742 89.9587 117.2 88.5975 118.026H88.6037ZM42.1974 68.1078H26.9081C28.3337 57.0117 33.7613 46.7992 42.1913 39.3509V68.1016L42.1974 68.1078ZM42.1974 108.649C33.6807 101.123 28.2329 90.777 26.8772 79.5554H42.1913L42.1974 108.649ZM73.5 25C60.3718 25 47.7813 30.1625 38.4982 39.3518C29.2152 48.5411 24 61.0044 24 74C24 86.9956 29.2152 99.459 38.4982 108.648C47.7813 117.838 60.3718 123 73.5 123C86.6282 123 99.2187 117.838 108.502 108.648C117.785 99.459 123 86.9956 123 74C123 61.0044 117.785 48.5411 108.502 39.3518C99.2187 30.1625 86.6282 25 73.5 25ZM73.9331 50.0329L74.094 49.8736L73.9269 49.7144C71.3406 47.8524 70.1959 45.5494 69.5091 43.7731C69.0264 42.5481 68.4881 41.5375 67.7147 40.7964C66.8979 40.0307 66.3039 39.6265 65.1345 39.6265C64.6828 39.6265 64.2064 39.6877 63.7238 39.8041L63.4391 39.8654L63.6124 40.19C63.8723 40.6678 64.3549 41.5498 65.1964 41.8009C65.2582 41.8254 65.3325 41.8315 65.4129 41.8315L65.6171 41.8192L65.778 41.8131H65.8584C66.7618 42.3399 67.2444 46.1741 67.2444 48.0851C67.2444 48.4159 67.1021 48.5568 66.7989 48.5568C66.45 48.5388 66.1179 48.4025 65.8584 48.1709C65.5849 47.8853 65.2545 47.6589 64.8882 47.5061C64.5218 47.3532 64.1275 47.2772 63.7299 47.2828C62.3625 47.2828 60.9146 48.1954 60.8589 49.7144V50.0268C60.9146 51.5519 62.3625 52.4645 63.7299 52.4645C64.1275 52.4701 64.5218 52.394 64.8882 52.2412C65.2545 52.0883 65.5849 51.8619 65.8584 51.5764C66.1173 51.3429 66.4493 51.2045 66.7989 51.1844C67.1083 51.1844 67.2444 51.3314 67.2444 51.656C67.2444 53.567 66.7618 57.4074 65.8584 57.928H65.778C65.7244 57.9307 65.6707 57.9307 65.6171 57.928L65.4129 57.9157C65.3399 57.9131 65.2669 57.9214 65.1964 57.9403C64.3549 58.1975 63.8723 59.0795 63.6124 59.5573L63.4391 59.8758L63.7238 59.937C64.2064 60.0595 64.6828 60.1208 65.1345 60.1208C66.3101 60.1208 66.8979 59.7165 67.7085 58.9447C68.4881 58.2097 69.0264 57.1991 69.5029 55.9741C70.1959 54.1918 71.3467 51.8887 73.9331 50.0329ZM77.5466 33.9057C77.7209 33.9062 77.8936 33.8726 78.0548 33.8069C78.2159 33.7413 78.3625 33.6448 78.486 33.5231C78.6095 33.4014 78.7077 33.2568 78.7747 33.0975C78.8418 32.9383 78.8765 32.7675 78.8769 32.595C78.8773 32.4225 78.8434 32.2515 78.7771 32.092C78.7108 31.9324 78.6133 31.7874 78.4904 31.6651C78.3674 31.5428 78.2213 31.4457 78.0605 31.3793C77.8996 31.3129 77.7271 31.2785 77.5528 31.2781C77.2008 31.2781 76.8632 31.4165 76.6143 31.6629C76.3654 31.9093 76.2256 32.2435 76.2256 32.5919C76.2256 32.9404 76.3654 33.2746 76.6143 33.5209C76.8632 33.7673 77.1946 33.9057 77.5466 33.9057ZM82.8926 33.9057C83.2446 33.9057 83.5822 33.7673 83.8311 33.5209C84.08 33.2746 84.2198 32.9404 84.2198 32.5919C84.2198 32.2435 84.08 31.9093 83.8311 31.6629C83.5822 31.4165 83.2446 31.2781 82.8926 31.2781C82.5406 31.2781 82.203 31.4165 81.9541 31.6629C81.7052 31.9093 81.5654 32.2435 81.5654 32.5919C81.5654 32.9404 81.7052 33.2746 81.9541 33.5209C82.203 33.7673 82.5406 33.9057 82.8926 33.9057Z" fill="#8690B1"/>
<path d="M73.5 145.04C34.5328 145.04 2.94 113.238 2.94 74C2.94 34.7677 34.5328 2.96 73.5 2.96C112.467 2.96 144.06 34.7677 144.06 74C144.06 113.238 112.467 145.04 73.5 145.04ZM73.5 0C32.9096 0 0 33.1335 0 74C0 114.866 32.9096 148 73.5 148C114.09 148 147 114.866 147 74C147 33.1335 114.09 0 73.5 0Z" fill="#8690B1"/>
</g>
<defs>
<clipPath id="clip0_178_14">
<rect width="147" height="148" fill="white"/>
</clipPath>
</defs>
</svg>
