<svg width="148" height="148" viewBox="0 0 148 148" fill="none" xmlns="http://www.w3.org/2000/svg">
<g clip-path="url(#clip0_178_20)">
<path d="M19.9549 104.476L21.7186 100.332L23.5192 104.476H19.9549ZM21.9282 98.2165L16.8716 109.52C17.0593 109.49 17.2489 109.474 17.4389 109.471C17.6362 109.471 17.8151 109.495 18.0432 109.52C18.4934 107.997 19.0731 106.572 19.6466 105.154H23.7597C24.4072 106.622 24.9931 108.176 25.4556 109.52C25.7424 109.49 26.0305 109.474 26.3189 109.471C26.5902 109.471 26.8554 109.495 27.1576 109.52L22.2982 98.2165H21.9282ZM29.3652 100.794C29.3652 99.6472 30.2902 98.9072 31.4126 98.9072C32.3622 98.9072 33.0714 99.4375 33.4106 100.326H33.5771C33.7004 99.863 33.8176 99.4067 34.0087 98.9935C33.3513 98.4743 32.5338 98.1996 31.6962 98.2165C29.7537 98.2165 28.1011 99.234 28.1011 101.318C28.1011 104.981 33.1701 103.649 33.1701 106.653C33.1701 107.929 32.2327 109.014 30.9192 109.014C29.6551 109.014 28.9274 108.373 28.2984 107.337H28.1319C28.0702 107.818 27.9839 108.305 27.8236 108.774C28.3786 109.378 29.6736 109.705 30.4629 109.705C32.6644 109.705 34.4651 108.336 34.4651 106.024C34.4651 102.576 29.3652 103.773 29.3652 100.794ZM43.5054 98.9442C43.5054 98.7839 43.5362 98.6297 43.5486 98.4632H35.1927C35.2112 98.6297 35.2482 98.7839 35.2482 98.9442C35.2482 99.1045 35.2112 99.2649 35.1866 99.4314C36.1116 99.3265 37.0982 99.2402 38.7447 99.2402V109.557C38.9667 109.539 39.2072 109.495 39.4539 109.495C39.6821 109.495 39.9102 109.539 40.1692 109.557V99.2402C41.6122 99.2402 42.7407 99.3265 43.5486 99.4252C43.5362 99.2649 43.5054 99.1045 43.5054 98.9442ZM49.5179 109.181C47.1129 109.181 45.1026 107.473 45.1026 104.18C45.1026 100.899 46.8231 98.753 49.6659 98.753C50.9609 98.753 52.2251 99.2957 53.0391 100.319C53.8839 101.399 54.0566 102.533 54.0566 103.878C54.1737 105.66 52.9404 109.181 49.5241 109.181M49.5117 98.2227C46.1509 98.2227 43.5177 100.443 43.5177 103.982C43.5177 107.454 45.8981 109.711 49.4747 109.711C53.0884 109.711 55.6414 107.349 55.6414 103.742C55.6414 99.8569 52.5519 98.2227 49.5117 98.2227ZM66.0261 98.457V106.782H65.8596L58.1697 98.457H57.5346V109.514C57.6764 109.495 57.8182 109.465 57.9847 109.465C58.1266 109.465 58.2746 109.495 58.4411 109.514V100.8H58.6014L65.6006 108.54C65.9336 108.91 66.2604 109.298 66.4331 109.52H66.9264V98.457C66.7599 98.4755 66.6181 98.5125 66.4701 98.5125C66.3036 98.5125 66.1618 98.4755 66.0199 98.4632M84.7666 98.457C83.1263 101.355 81.6401 104.167 80.0984 106.93C78.3717 104.063 76.8116 101.035 75.5166 98.4632H75.0973C74.6405 102.155 74.1225 105.839 73.5432 109.514C73.7282 109.495 73.9132 109.465 74.1229 109.465C74.3018 109.465 74.4867 109.495 74.6902 109.514C74.6902 107.528 75.1342 104.328 75.4857 101.164C76.5834 103.267 77.7181 105.376 78.7541 107.516L79.6482 109.341H79.8209C80.7952 107.103 82.1889 104.519 84.0697 101.164C84.2917 102.768 84.6247 106.27 84.8961 109.514C85.1366 109.495 85.3894 109.465 85.6607 109.465C85.8951 109.465 86.1232 109.495 86.4193 109.514C85.9814 106.431 85.5312 102.447 85.0996 98.457H84.7666ZM90.2302 104.476L92.0001 100.332L93.7946 104.476H90.2302ZM92.2036 98.2165L87.1531 109.52C87.3381 109.495 87.5107 109.471 87.7204 109.471C87.9177 109.471 88.0904 109.495 88.3186 109.52C88.7749 107.997 89.3546 106.572 89.9281 105.154H94.0351C94.6887 106.622 95.2684 108.176 95.7432 109.52C96.0301 109.49 96.3182 109.473 96.6066 109.471C96.8717 109.471 97.1307 109.495 97.4391 109.52L92.5797 98.2165H92.2097H92.2036ZM99.9859 103.501V99.0552C100.664 99.0182 101.774 98.9812 102.366 99.0675C103.581 99.2649 104.142 99.9925 104.142 101.103C104.142 102.367 103.26 103.181 102.076 103.421C101.385 103.53 100.683 103.556 99.9859 103.501ZM105.61 108.213L102.28 103.989C103.908 103.699 105.591 102.792 105.591 100.905C105.591 99.2834 104.488 98.4632 101.996 98.4632H98.5676V109.526C98.7896 109.502 99.0301 109.465 99.2706 109.465C99.4987 109.465 99.7269 109.502 99.9859 109.526V104.124H100.603L101.898 105.635L103.809 108.102L104.827 109.52C105.123 109.502 105.443 109.471 105.752 109.471C106.06 109.471 106.35 109.502 106.689 109.526L106.387 109.113L105.61 108.213ZM106.708 98.457C106.726 98.6235 106.757 98.7839 106.757 98.9442C106.757 99.0984 106.726 99.2587 106.708 99.4252C107.633 99.3327 108.619 99.2402 110.253 99.2402V109.551C110.488 109.532 110.722 109.495 110.963 109.495C111.197 109.495 111.425 109.532 111.684 109.557V99.2402C113.121 99.2402 114.256 99.3327 115.063 99.4252C115.051 99.2587 115.02 99.0984 115.02 98.938C115.02 98.7777 115.051 98.6297 115.063 98.457H106.708ZM116.87 98.457V109.514C117.098 109.495 117.345 109.465 117.586 109.465C117.808 109.465 118.036 109.495 118.295 109.514V98.457C118.036 98.4755 117.808 98.5125 117.586 98.5125C117.345 98.5125 117.098 98.4755 116.87 98.4632M129.154 98.457V106.782H128.994L121.304 98.457H120.669V109.514C120.811 109.495 120.959 109.465 121.119 109.465C121.267 109.465 121.409 109.495 121.575 109.514V100.8H121.73L128.735 108.54C129.074 108.91 129.401 109.298 129.574 109.52H130.061V98.457C129.9 98.4755 129.752 98.5125 129.611 98.5125C129.444 98.5125 129.296 98.4755 129.154 98.4632M146.674 45.695L145.601 47.4834C145.397 47.8102 145.274 47.9582 144.454 48.0137H111.894C112.264 47.397 112.572 46.842 112.831 46.3487C112.843 46.3364 114.003 44.2829 116.044 44.2829H145.866C146.174 44.289 146.587 44.326 146.803 44.6837C146.828 44.7269 146.89 44.8255 146.89 45.0044C146.873 45.2484 146.799 45.4852 146.674 45.695ZM142.69 49.2347L141.555 51.2265C141.446 51.4682 141.287 51.684 141.088 51.8594C140.89 52.0348 140.656 52.166 140.402 52.244C139.627 52.3493 138.841 52.3493 138.065 52.244L110.377 50.4064C110.715 49.9045 111.044 49.3967 111.363 48.8832H142.937C142.845 48.9936 142.763 49.1112 142.69 49.2347ZM137.985 53.6315L136.665 55.9564C136.616 56.0242 136.301 56.3634 135.284 56.2277L108.755 52.6695C109.113 52.1947 109.458 51.726 109.785 51.2697L137.966 53.1382L138.299 53.1752C138.177 53.3133 138.074 53.4667 137.991 53.6315H137.985ZM128.858 58.7807C127.859 59.0397 125.904 58.7437 125.226 58.6019L106.991 54.8587C107.398 54.3839 107.781 53.9214 108.138 53.465L134.784 57.0417L128.858 58.7807ZM119.818 61.4324C118.541 61.7777 116.87 61.2165 116.858 61.2165L116.833 61.2042L104.623 57.4425C105.228 56.832 105.801 56.2215 106.338 55.6049L125.06 59.4467C125.09 59.459 125.479 59.5392 126.015 59.607L119.818 61.4324ZM110.29 64.2259C109.427 64.4725 108.144 63.9669 107.725 63.751L101.102 60.6554C102.107 59.829 103.051 58.9904 103.926 58.1332L116.58 62.0367C116.605 62.0429 116.839 62.123 117.197 62.2032L110.29 64.2259ZM108.336 66.1375C107.966 67.0872 107.583 68.0554 104.987 69.0359C103.914 69.3627 102.644 68.4192 102.625 68.4192C102.625 68.4069 99.7331 66.341 96.4401 63.9854C97.7844 63.159 99.0918 62.2587 100.35 61.2597L107.343 64.528C107.38 64.5527 108.101 64.9165 108.977 65.083C108.702 65.3932 108.484 65.7504 108.336 66.1375ZM98.5553 70.8674L97.5809 71.1325C96.7607 71.3299 95.7617 70.5159 95.4349 70.1767L91.8459 66.4335C93.1409 65.8477 94.4051 65.2002 95.6322 64.4664L102.113 69.1037C102.405 69.3194 102.722 69.4995 103.057 69.6402C101.614 70.0287 98.5553 70.8735 98.5553 70.8735V70.8674ZM89.9836 73.2107C89.3052 73.3155 88.5036 72.187 88.2754 71.7739L86.3206 68.4624C87.9141 68.0022 89.479 67.4483 91.0072 66.8035L94.8121 70.7749C94.8491 70.8119 95.2684 71.2497 95.8789 71.595L89.9836 73.2107ZM83.4962 74.9744C83.299 75.0296 83.0926 75.045 82.8893 75.0195C82.6861 74.9941 82.4899 74.9285 82.3122 74.8264C81.6031 74.3947 81.3564 73.3834 81.3441 73.3217L80.3574 69.7265C82.0902 69.486 83.7984 69.1407 85.4572 68.7029L87.5293 72.1994C87.8174 72.7182 88.1953 73.1817 88.6454 73.5684L83.4962 74.9744ZM79.2906 73.667L75.5906 70.1274C76.9041 70.0842 78.1991 69.9855 79.4817 69.8375L80.4992 73.5129C80.6417 74.0918 80.916 74.63 81.3009 75.0854C80.5177 74.8634 80.2772 74.6352 79.2906 73.667ZM74.4312 69.2887V58.09H76.2196L79.2412 68.9927C77.6749 69.1777 76.0654 69.2764 74.4312 69.301V69.2887ZM95.5952 58.0839H102.73C101.923 58.8321 101.09 59.5519 100.233 60.2422C98.4936 59.4405 96.8039 58.645 95.5952 58.0839ZM88.1952 58.0839H93.5602L99.4679 60.8465C98.2525 61.7791 96.9864 62.6438 95.6754 63.4365C92.8264 61.3892 89.8171 59.2432 88.1952 58.0839ZM83.8354 58.0839H86.7091L94.8614 63.9175C93.6712 64.5959 92.4564 65.2187 91.2046 65.7675L83.8354 58.09V58.0839ZM85.0071 67.9197C83.4099 68.339 81.7757 68.6597 80.1169 68.8817L77.1137 58.09H79.1857L85.0071 67.9197ZM80.1971 58.0839H82.6329L90.3597 66.1314C88.8957 66.7403 87.3966 67.2613 85.8704 67.6915L80.1971 58.0839ZM44.3687 57.2205C44.3687 57.2082 44.3564 57.202 44.3502 57.1959V48.8832H103.637V57.2144H44.3749L44.3687 57.2205ZM73.5679 69.2825C71.9604 69.2718 70.3546 69.173 68.7579 68.9865L71.7796 58.0839H73.5679V69.2825ZM67.9562 74.3824C67.6041 74.7206 67.1709 74.9627 66.6982 75.0854C67.0846 74.631 67.3592 74.0925 67.4999 73.5129L68.5112 69.8375C69.7939 69.9855 71.1012 70.0842 72.4147 70.1274L67.9562 74.3824ZM65.6807 74.8264C65.5039 74.9305 65.3077 74.9973 65.104 75.0227C64.9004 75.0482 64.6938 75.0317 64.4967 74.9744L59.3476 73.5684C59.8018 73.1792 60.182 72.7112 60.4699 72.187L62.5357 68.7029C64.2007 69.1407 65.9027 69.486 67.6541 69.7265L66.6489 73.3155C66.6489 73.3279 66.4146 74.3824 65.6807 74.8264ZM58.0094 73.2045L52.1202 71.6012C52.5113 71.3777 52.8685 71.0994 53.1809 70.7749L57.0042 66.8035C58.5151 67.4449 60.0752 68.006 61.6724 68.4685L59.7237 71.7615C59.4832 72.1932 58.6877 73.3155 58.0094 73.2045ZM44.9361 69.6402C45.2732 69.498 45.5921 69.3158 45.8857 69.0975L52.3607 64.4725C53.5941 65.1879 54.8582 65.8477 56.1471 66.4335L52.5581 70.1767C52.2374 70.5159 51.2322 71.3237 50.4121 71.1325L44.9361 69.6402ZM42.9997 69.0359C40.4159 68.0615 40.0397 67.0934 39.6697 66.1437C39.518 65.7534 39.2965 65.394 39.0161 65.083C39.5885 64.9699 40.144 64.7833 40.6687 64.528L47.6432 61.2597C48.9074 62.2525 50.2086 63.159 51.5529 63.9792L45.3739 68.4069C45.3492 68.4192 44.0789 69.3689 42.9997 69.0359ZM47.7666 60.2422C46.917 59.5403 46.0823 58.8207 45.2629 58.0839H52.3916L47.7666 60.2422ZM52.3176 63.4304C51.0068 62.6396 49.7407 61.777 48.5251 60.8465L54.4451 58.0839H59.7977L52.3176 63.4304ZM56.7884 65.7614C55.5389 65.2137 54.3202 64.5981 53.1377 63.9175L61.2839 58.0839H64.1637L56.7946 65.7614H56.7884ZM68.8134 58.0839H70.8731L67.8822 68.8817C66.2342 68.663 64.6011 68.3438 62.9921 67.9259C65.1751 64.2382 68.0796 59.311 68.8134 58.0839ZM62.1287 67.7039C60.6016 67.2694 59.1024 66.7421 57.6394 66.1252L65.3662 58.09H67.8144L62.1411 67.71L62.1287 67.7039ZM37.7087 64.2259L30.8082 62.2032C31.0172 62.1586 31.2232 62.101 31.4249 62.0305L44.0666 58.1332C44.9484 58.9842 45.8857 59.829 46.8909 60.6615L40.2926 63.7449C39.8486 63.9669 38.5721 64.4602 37.7087 64.2259ZM28.1812 61.4324C26.1462 60.8404 24.0002 60.2052 21.9776 59.607C22.5141 59.5454 22.9026 59.459 22.9457 59.4467L41.6554 55.6049C42.1981 56.2215 42.7654 56.8382 43.3821 57.4425L31.1597 61.2104C31.1289 61.2165 29.4639 61.7715 28.1812 61.4324ZM19.1471 58.7807C16.3967 57.979 14.1644 57.3192 13.2086 57.0355L39.8547 53.4589C40.2247 53.9214 40.6009 54.3839 41.0017 54.8587L22.7669 58.6019C22.0886 58.7437 20.1461 59.0397 19.1471 58.7869V58.7807ZM11.3277 55.9564L10.0019 53.6192C9.91884 53.4584 9.81519 53.3092 9.69358 53.1752C9.86624 53.1505 38.2144 51.2697 38.2144 51.2697C38.5412 51.726 38.8804 52.1947 39.2504 52.6695L12.7091 56.2277C11.7039 56.3634 11.3894 56.0304 11.3277 55.9564ZM7.59074 52.244C6.83224 51.985 6.59174 51.5225 6.43758 51.2265C5.98124 50.4434 5.36458 49.2594 5.06241 48.8832H36.6357C36.9317 49.3642 37.2586 49.8699 37.6224 50.4064L9.93408 52.244C9.15655 52.3498 8.36827 52.3498 7.59074 52.244ZM3.55774 48.0137C2.79308 47.9582 2.63274 47.8719 2.39224 47.4834L1.32541 45.695C1.19111 45.4891 1.11641 45.2501 1.10958 45.0044C1.12808 44.6035 1.39941 44.289 2.12708 44.2767L31.9491 44.2829C33.9717 44.2829 35.1619 46.3487 35.1619 46.3487C35.4209 46.842 35.7354 47.397 36.0992 48.0137H3.55774ZM38.6276 50.3385C38.2936 49.8596 37.9688 49.3744 37.6532 48.8832H43.4869V50.0179L38.6276 50.3385ZM40.2309 52.54C39.8905 52.0996 39.5574 51.6534 39.2319 51.2019L43.4869 50.9182V52.1022L40.2309 52.54ZM43.4869 55.2287V56.3202C43.1971 56.0119 42.9072 55.7097 42.6359 55.4014C42.9812 55.3397 43.2587 55.278 43.4869 55.2287ZM41.9699 54.6552C41.5925 54.2195 41.2224 53.7775 40.8599 53.3294L43.4869 52.9779V54.3407L41.9699 54.6552ZM61.9376 44.2767C63.3251 44.2767 64.4289 44.6837 65.2244 45.4792C65.8253 46.1063 66.2359 46.8911 66.4084 47.7424C66.4084 47.7424 66.4516 47.9027 66.5071 48.0137H37.1106C36.6604 47.2799 35.9204 45.9417 35.9204 45.9417C35.5462 45.2931 35.0449 44.7268 34.4466 44.2767H61.9376ZM104.506 50.0179V48.8832H110.346C110.05 49.3457 109.717 49.8329 109.372 50.3385L104.506 50.0179ZM104.506 52.1022V50.912L108.767 51.2019C108.459 51.6335 108.12 52.0837 107.762 52.54L104.506 52.1022ZM105.369 55.4014C105.086 55.7159 104.796 56.018 104.506 56.3264V55.2287L105.369 55.4014ZM104.506 54.3407V52.984L107.139 53.3294C106.779 53.779 106.408 54.2211 106.029 54.6552L104.506 54.3407ZM81.5846 47.7424C81.7571 46.8911 82.1676 46.1063 82.7686 45.4792C83.5702 44.6837 84.6802 44.2767 86.0554 44.2767H113.546C112.603 44.9859 112.11 45.88 112.073 45.9417C111.752 46.5399 111.357 47.2367 110.882 48.0137H81.4921C81.5537 47.9089 81.5846 47.7424 81.5846 47.7424ZM147.753 44.1164C147.235 43.2407 146.298 43.1914 145.884 43.1605H86.0554C84.3657 43.1605 82.9967 43.6785 81.9854 44.6899C81.235 45.4652 80.7216 46.4386 80.5054 47.4957C80.4931 47.5389 80.4129 47.7609 79.9072 47.7609H68.0796C67.5739 47.7609 67.5061 47.5265 67.4999 47.5019C67.284 46.4402 66.7658 45.4637 66.0076 44.6899C64.9962 43.6785 63.6272 43.1605 61.9376 43.1605H2.10241C1.72008 43.179 0.758076 43.2407 0.240076 44.104C-0.00659036 44.5357 -0.19159 45.2325 0.34491 46.2254L1.44258 48.0507C1.88658 48.7907 2.39841 49.0559 3.47758 49.1237C3.48991 49.1237 3.98941 49.173 4.34091 49.7897L5.45091 51.7445C5.69758 52.1947 6.25258 53.2492 8.13341 53.5082C8.17041 53.5082 8.71924 53.5699 9.02141 54.1495L10.3966 56.573C10.8036 57.35 11.3647 57.6399 12.3884 57.9544L37.4127 65.305C38.2576 65.5579 38.6091 66.5075 38.6091 66.5075C39.2072 68.0554 39.9842 69.3319 43.8939 70.5035L64.3672 76.0905C64.6139 76.1769 66.9634 76.8922 68.7271 75.1779L73.5371 70.6022C73.5371 70.6022 73.7282 70.3925 73.9934 70.3925C74.2647 70.3925 74.4682 70.6022 74.4744 70.6022L79.2659 75.184C81.0357 76.886 83.3852 76.1769 83.6442 76.0844L104.118 70.5035C108.009 69.3319 108.817 68.0369 109.384 66.5137C109.409 66.452 109.754 65.5517 110.58 65.305L135.605 57.9544C136.628 57.646 137.189 57.35 137.596 56.573L138.959 54.168C139.043 53.9961 139.167 53.8465 139.321 53.7318C139.474 53.6171 139.652 53.5405 139.841 53.5082C141.753 53.2492 142.308 52.1947 142.542 51.7445L143.658 49.7897C144.004 49.173 144.509 49.1237 144.528 49.1237C145.601 49.062 146.113 48.7845 146.55 48.0569L147.648 46.2254C147.863 45.8576 147.984 45.4424 148 45.0167C148.004 44.7012 147.919 44.3909 147.753 44.1225V44.1164Z" fill="#8690B1"/>
<path d="M47.1816 53.2985C47.2309 53.1752 47.8969 51.615 47.9833 51.4362L48.7849 53.2985H47.1816ZM48.0449 50.2152L45.5166 55.8824H46.2011L46.2073 55.8515C46.4108 55.1609 46.6759 54.4949 46.9349 53.8659L46.9843 53.7302H48.9453C49.2166 54.3345 49.4818 55.0252 49.7716 55.8515L49.7839 55.8885H50.7336L48.2916 50.2152H48.0449ZM53.0338 52.6634C52.4294 52.429 51.8744 52.207 51.8744 51.5349C51.8744 51.023 52.2753 50.653 52.8241 50.653C53.2681 50.653 53.6011 50.8874 53.7738 51.3129L53.7799 51.3499H53.9279L54.1746 50.6345L54.1438 50.6099C53.81 50.3478 53.3964 50.2085 52.9721 50.2152C51.8621 50.2152 51.1468 50.8319 51.1468 51.7939C51.1468 52.7805 51.8744 53.0519 52.5158 53.3047C53.1016 53.539 53.6504 53.7549 53.6504 54.4209C53.6554 54.5641 53.6317 54.7069 53.5808 54.8409C53.53 54.975 53.4529 55.0975 53.3542 55.2014C53.2555 55.3053 53.137 55.3885 53.0058 55.4461C52.8745 55.5038 52.7331 55.5347 52.5898 55.537C52.0471 55.537 51.6833 55.3027 51.3379 54.7354L51.3194 54.7107H51.1714L51.0049 55.4754L51.0234 55.5C51.3318 55.8269 52.0101 55.981 52.3678 55.981C53.5579 55.981 54.3843 55.2164 54.3843 54.1125C54.3843 53.1999 53.6936 52.9224 53.0276 52.6634M58.9106 50.9182V50.3385H54.6926V50.9182L54.7481 50.912C55.2229 50.8627 55.6854 50.8195 56.4378 50.8195V55.907H57.2394V50.8134C57.8068 50.8134 58.3494 50.8442 58.8551 50.9059H58.9106V50.9182ZM63.2088 54.9882C63.0215 55.1912 62.7933 55.3522 62.5393 55.4607C62.2852 55.5691 62.0111 55.6224 61.7349 55.6172C60.4461 55.6172 59.6074 54.6675 59.6074 53.1999C59.6074 51.5842 60.4523 50.5729 61.8089 50.5729C62.4441 50.5729 63.0546 50.8565 63.4308 51.3314C63.8439 51.8555 63.9241 52.3982 63.9241 53.058V53.169C63.9114 53.8416 63.6576 54.4872 63.2088 54.9882ZM61.7288 50.2152C59.9589 50.2152 58.7256 51.3992 58.7256 53.1135C58.7256 54.8279 59.9281 55.981 61.7103 55.981C63.5603 55.981 64.8059 54.7724 64.8059 52.9902C64.8059 51.0785 63.2643 50.2152 61.7288 50.2152ZM69.8564 50.3324V54.4394C69.8194 54.4085 66.0578 50.3324 66.0578 50.3324H65.6754V55.8824H66.2181V51.5904H66.2304L69.6653 55.3829L70.0969 55.8762L70.1154 55.8824H70.4053V50.3324H69.8626H69.8564ZM79.3778 50.3817L79.3716 50.3324H79.1311L77.7868 52.7682L76.8556 54.4579C76.0293 53.0765 75.2831 51.6212 74.6479 50.357L74.6294 50.3324H74.3519L74.3458 50.3755C74.2656 51.1957 73.7908 54.538 73.5811 55.8269L73.5688 55.8885H74.2409V55.833C74.2409 55.0499 74.3766 53.8844 74.5246 52.6449L74.6171 51.8864C74.7096 52.0714 75.7579 54.0447 76.1588 54.871L76.6089 55.796H76.7569L76.7754 55.7652C77.2318 54.6984 77.8854 53.4835 78.7858 51.8802C78.9091 52.8299 79.0818 54.7415 79.1743 55.833V55.8947H80.0253L80.0191 55.833C79.8341 54.4825 79.6244 52.7004 79.3778 50.3755M82.0171 53.2985L82.8126 51.4362C82.8989 51.615 83.5649 53.1752 83.6143 53.2985H82.0109H82.0171ZM83.0963 50.2152H82.8866L80.3459 55.8885H81.0366L81.0489 55.8515C81.2524 55.1547 81.5176 54.4887 81.7766 53.8535L81.8259 53.7302H83.7869C84.0521 54.3469 84.3296 55.056 84.6071 55.8515L84.6194 55.8885H85.5691L83.1333 50.2152H83.0963ZM86.8456 52.8237V50.727C87.1724 50.7147 87.6843 50.69 87.9556 50.7394C88.5106 50.8257 88.8004 51.1525 88.8004 51.689C88.8004 52.244 88.4304 52.6572 87.8138 52.7867C87.4936 52.8367 87.1687 52.8491 86.8456 52.8237ZM89.6083 51.5904C89.6083 50.7517 89.0101 50.3385 87.7829 50.3385H86.0439V55.8885H86.8456V53.2184H87.0738L87.6966 53.9522L88.6401 55.167L89.1581 55.8824H90.2003L88.0049 53.132C89.0101 52.9409 89.6083 52.3674 89.6083 51.5904ZM90.0584 50.3324V50.912H90.1139C90.5888 50.8565 91.0574 50.8134 91.8098 50.8134V55.9009H92.6114V50.8134C93.1664 50.8134 93.7153 50.8442 94.2148 50.9059L94.2764 50.912V50.3324H90.0584ZM94.9363 55.8885H95.6886V50.3385H94.9363V55.8885ZM101.054 54.4394L97.2549 50.3324H96.8726V55.8824H97.4153V51.5904H97.4276L100.856 55.3829L101.288 55.8762L101.596 55.8885V50.3324H101.054V54.4394Z" fill="#8690B1"/>
</g>
<defs>
<clipPath id="clip0_178_20">
<rect width="148" height="148" fill="white"/>
</clipPath>
</defs>
</svg>
