<svg width="148" height="148" viewBox="0 0 148 148" fill="none" xmlns="http://www.w3.org/2000/svg">
<path d="M122.124 48.1C116.062 48.1 110.494 50.1844 106.085 53.6747C101.523 50.0561 95.8684 48.0909 90.0453 48.1C83.9835 48.1 78.4088 50.1844 73.9996 53.6747C69.4362 50.0539 63.7793 48.0885 57.9539 48.1C51.8921 48.1 46.3236 50.1844 41.9083 53.6747C38.6703 51.1172 34.8676 49.3714 30.8175 48.5829C26.7674 47.7944 22.5874 47.9862 18.6265 49.1422C14.6656 50.2982 11.0387 52.3848 8.04848 55.228C5.05828 58.0712 2.79154 61.5884 1.4375 65.486C0.083448 69.3837 -0.318632 73.5487 0.26482 77.6334C0.848272 81.718 2.40033 85.6039 4.79143 88.9666C7.18254 92.3293 10.3433 95.0712 14.0099 96.9635C17.6766 98.8559 21.7426 99.8437 25.8688 99.8445C31.9306 99.8445 37.5053 97.7602 41.9083 94.2699C46.3236 97.7602 51.8983 99.8445 57.9539 99.8445C64.0158 99.8445 69.5843 97.7602 73.9873 94.2699C78.4088 97.7602 83.9835 99.8445 90.0453 99.8445C95.8701 99.8526 101.526 97.8876 106.091 94.2699C109.329 96.8273 113.132 98.5732 117.182 99.3616C121.232 100.15 125.412 99.9584 129.373 98.8024C133.334 97.6464 136.961 95.5597 139.951 92.7165C142.941 89.8733 145.208 86.3561 146.562 82.4585C147.916 78.5609 148.318 74.3959 147.734 70.3112C147.151 66.2265 145.599 62.3407 143.208 58.978C140.817 55.6153 137.656 52.8733 133.989 50.981C130.323 49.0887 126.25 48.1009 122.124 48.1ZM37.678 90.0457C34.7076 92.234 31.1881 93.5549 27.5114 93.8612C23.8347 94.1676 20.1451 93.4474 16.8535 91.7808C13.5619 90.1143 10.7975 87.5667 8.86815 84.422C6.93879 81.2772 5.92019 77.6586 5.92579 73.9692C5.92019 70.2798 6.93879 66.6612 8.86815 63.5164C10.7975 60.3716 13.5619 57.8241 16.8535 56.1576C20.1451 54.491 23.8347 53.7708 27.5114 54.0771C31.1881 54.3835 34.7076 55.7044 37.678 57.8927C34.0554 62.4659 32.0843 68.1289 32.0843 73.963C32.0843 79.7971 34.0554 85.4601 37.678 90.0334V90.0457ZM41.9145 85.8277C39.3684 82.3989 37.9972 78.2399 38.0048 73.9692C38.0048 69.523 39.4416 65.4407 41.9145 62.123C44.3688 65.4407 45.8056 69.523 45.8056 73.9692C45.8163 78.2375 44.4471 82.3949 41.9021 85.8215H41.9145V85.8277ZM69.7508 90.0457C66.4393 92.4815 62.3508 93.9122 57.9293 93.9122C53.6843 93.9208 49.5488 92.5653 46.1325 90.0457C49.7717 85.4796 51.7549 79.8144 51.7583 73.9755C51.7617 68.1366 49.7849 62.4691 46.151 57.8989C49.5679 55.3804 53.703 54.0251 57.9478 54.0324C62.3755 54.0324 66.4578 55.463 69.7693 57.8989C66.2543 62.3142 64.1638 67.8889 64.1638 73.9692C64.1655 79.8059 66.1385 85.4709 69.7631 90.0457H69.7508ZM73.9934 85.8277C71.4505 82.4001 70.0815 78.2433 70.09 73.9754C70.09 69.5292 71.5391 65.4407 73.9934 62.123C76.4539 65.4407 77.9031 69.523 77.9031 73.9692C77.912 78.2382 76.5406 82.3957 73.9934 85.8215V85.8277ZM101.842 90.0457C98.5306 92.4815 94.4421 93.9122 90.0206 93.9122C85.7756 93.9208 81.6401 92.5653 78.2238 90.0457C81.8541 85.4747 83.8301 79.8095 83.8301 73.9723C83.8301 68.1351 81.8541 62.4698 78.2238 57.8989C81.6424 55.3791 85.7799 54.0238 90.0268 54.0324C94.4483 54.0324 98.5368 55.463 101.848 57.8989C98.2112 62.4644 96.2364 68.132 96.2489 73.9692C96.2489 79.8051 98.2197 85.47 101.842 90.0457ZM106.079 85.8277C103.543 82.3968 102.176 78.2418 102.181 73.9754C102.181 69.5292 103.63 65.4407 106.091 62.123C108.545 65.4407 109.994 69.523 109.994 73.9692C110.003 78.2382 108.632 82.3957 106.085 85.8215L106.079 85.8277ZM122.13 93.9184C117.74 93.9184 113.62 92.4384 110.321 90.0334C113.941 85.4588 115.91 79.7963 115.91 73.963C115.91 68.1298 113.941 62.4673 110.321 57.8927C113.293 55.7091 116.812 54.3922 120.487 54.0882C124.162 53.7843 127.849 54.5052 131.139 56.171C134.429 57.8367 137.193 60.382 139.123 63.5239C141.053 66.6659 142.075 70.2816 142.073 73.9692C142.073 76.5881 141.558 79.1814 140.555 81.601C139.553 84.0206 138.084 86.2191 136.232 88.071C134.38 89.9229 132.182 91.3919 129.762 92.3941C127.343 93.3963 124.749 93.9184 122.13 93.9184Z" fill="#8690B1"/>
</svg>
