<svg width="147" height="148" viewBox="0 0 147 148" fill="none" xmlns="http://www.w3.org/2000/svg">
<g clip-path="url(#clip0_178_25)">
<path fill-rule="evenodd" clip-rule="evenodd" d="M13.5359 110.877C13.6584 106.005 13.6584 101.01 13.5359 96.0767H21.4984C24.5609 96.0767 26.1534 97.9267 26.1534 99.7767C26.1534 101.133 25.5409 102.428 24.4996 102.983C25.2968 103.205 25.9965 103.691 26.4855 104.362C26.9746 105.033 27.2244 105.851 27.1946 106.683C27.1946 109.52 25.1121 110.877 22.6009 110.877H13.4746H13.5359ZM21.7434 104.463C23.5196 104.525 24.3771 105.265 24.3771 106.437C24.3771 107.67 23.5809 108.287 21.8046 108.41H16.4759C16.4074 107.095 16.4074 105.778 16.4759 104.463H21.7434ZM21.4984 98.4817C22.7846 98.5433 23.3359 99.2217 23.3359 100.208C23.3359 101.01 22.9071 101.812 21.7434 101.873H16.4759V98.4817H21.4984ZM96.4071 108.287V110.877H84.1571C84.2796 105.943 84.2796 101.01 84.1571 96.0767H87.0359C86.9134 100.147 86.9134 104.217 87.0359 108.287H96.4071ZM51.3271 96.0767C54.0834 99.345 56.9009 102.675 59.9021 105.943V96.0767H62.3521V110.877H60.2084C57.3296 107.423 54.3896 103.908 51.2659 100.393C51.1434 103.908 51.1434 107.423 51.2659 110.877H48.6934C48.8159 105.943 48.8159 101.01 48.6934 96.0767H51.3271ZM44.0996 98.6667H34.4834V101.997H41.0371V104.587H34.4221V108.287H44.2834V110.877H31.6046V96.0767H44.1609V98.6667M123.786 110.877V104.525C121.642 101.688 119.376 98.8517 117.048 96.0767H120.478C121.948 97.9267 123.541 99.9 125.195 101.812C126.848 99.9 128.441 97.9883 129.911 96.0767H133.402C131.075 98.8517 128.808 101.688 126.665 104.525C126.542 106.622 126.542 108.78 126.665 110.877H123.786ZM112.883 98.6667H103.145V101.997H109.821V104.587H103.145V108.287H113.067V110.877C108.841 110.806 104.614 110.806 100.388 110.877V96.0767H112.883V98.6667ZM72.0909 110.877C72.2134 106.868 72.2134 102.798 72.0909 98.6667C70.3358 98.5906 68.5784 98.5906 66.8234 98.6667V96.0767H80.2371V98.6667H74.9084V110.877H72.0909Z" fill="#8690B1"/>
<path d="M55.4313 51.985C55.615 50.0117 58.065 47.7917 57.6975 45.8183C57.4525 44.2767 55.4925 42.92 53.5325 42.6117C50.1786 42.2077 46.8041 42.0018 43.4263 41.995H39.7512C39.1387 41.995 38.2812 41.995 37.3013 41.7483C36.3273 41.5892 35.3654 41.3625 34.4225 41.07C33.3812 40.7617 32.585 40.4533 31.7275 40.2683C29.8411 39.8236 27.9071 39.6164 25.97 39.6517H21.4375L17.2725 39.8367H15.4963C15.19 39.8367 15.2513 40.0217 15.1287 40.0217H12.3725C12.3725 40.0217 12.3725 40.145 12.495 40.145L13.23 40.2683L14.8225 40.3917H16.2313L17.885 40.4533H21.0088L23.765 40.515C26.0706 40.6219 28.3643 40.9105 30.625 41.3783C31.85 41.625 33.2588 42.0567 33.9325 42.3033L36.0762 42.92C36.5662 42.92 36.995 42.9817 37.1175 43.105C37.24 43.2283 37.24 43.3517 37.1175 43.475L36.995 43.845L36.8725 44.0917H36.4437L36.505 43.9683C36.505 43.845 36.26 43.66 36.015 43.66L34.1775 43.4133C33.81 43.4133 32.585 43.2283 31.9113 43.29H18.375L15.3125 43.1667H11.9438L9.6775 43.0433H6.43125L4.9 42.92L3.00125 41.9333L1.3475 41.1317L0.735 40.7617L0.245 41.1933C0.18375 41.3167 0 41.1933 0 41.1933L1.40875 39.6517L2.02125 38.9733H3.0625L5.69625 39.1583L8.14625 39.2817H11.3925C12.0662 39.3433 14.2713 39.405 14.8837 39.3433L17.9463 39.1583L21.07 38.9733L24.1325 38.9117H31.0538L35.5863 39.1583L41.0988 39.405H43.9775C47.2021 39.2788 50.4282 39.1966 53.655 39.1583C54.6963 39.1583 57.2687 39.405 58.1262 39.5283L60.0863 39.8983C60.3313 39.8983 60.6988 39.8983 60.8213 40.0217C61.005 40.145 61.1275 40.4533 61.4338 40.6383C61.6175 40.7617 62.0463 40.8233 62.1075 41.0083C62.2913 41.1933 62.2913 41.5017 62.3525 41.625C62.4138 41.81 62.72 42.3033 62.7812 42.6117C62.7812 42.9817 62.7812 43.5367 62.5363 43.845C62.3525 44.2767 61.985 44.7083 61.6175 45.0783C61.25 45.51 60.6375 45.9417 60.0863 46.3733C59.5963 46.805 58.7388 47.545 58.2488 48.1617C57.8477 48.6399 57.5738 49.2128 57.4525 49.8267C57.33 50.4433 57.4525 50.8133 57.3913 50.9367L57.085 51.43C56.4036 52.2562 55.7696 53.121 55.1863 54.02L55.0025 53.7733L55.37 53.28C55.4925 53.095 55.4313 52.6633 55.4925 51.9233L55.4313 51.985ZM4.2875 44.585L4.34875 44.215H5.7575L8.75875 44.3383H12.0662L16.1088 44.4C20.3963 44.3681 24.6842 44.3886 28.9713 44.4617H36.505C36.5662 44.4 36.8113 44.2767 36.9338 44.3383L37.1788 44.6467L37.485 44.8933L37.7913 45.14L38.0363 45.3867C38.1587 45.51 38.22 45.5717 38.1587 45.6333L37.7913 46.1267L37.6075 46.4967H37.24C37.24 46.4967 37.4238 46.435 37.4238 46.3117C37.3625 46.1267 37.1175 45.88 36.6887 45.8183L34.6063 45.9417L30.135 46.3733L24.1325 46.805L18.9875 47.175L14.7 47.4217L11.025 47.545L8.575 47.6067C8.27837 47.5688 7.98921 47.4856 7.7175 47.36L6.0025 46.5583L4.96125 46.065V45.51C4.96125 45.325 4.96125 45.14 4.71625 44.955L4.2875 44.6467V44.585ZM7.9625 49.21V48.9017H8.75875L10.78 48.7783L15.0675 48.5933L20.5187 48.285L27.0725 47.7917L32.7075 47.36L36.3825 46.99C37.1175 46.9283 37.24 46.805 37.3625 46.805C37.485 46.805 37.6075 46.7433 37.73 46.8667C37.8902 47.0924 38.0751 47.2992 38.2812 47.4833C38.4038 47.4833 38.8937 47.8533 38.8937 48.0383L38.71 48.5317L38.6488 48.9633L38.1587 49.0867V48.9017C38.1587 48.7783 38.1587 48.5933 37.9137 48.5317C37.6254 48.4032 37.3067 48.3604 36.995 48.4083C36.6888 48.5317 35.0962 48.7783 34.4225 48.9017L29.155 49.765C25.6091 50.3053 22.0563 50.7987 18.4975 51.245L15.19 51.5533C14.3938 51.5533 13.5975 51.6767 13.0463 51.5533C12.4338 51.5533 11.2087 51.1217 10.5963 50.9983C10.0878 50.8959 9.59402 50.7302 9.12625 50.505C8.99665 50.3695 8.91119 50.1974 8.88125 50.0117C8.79897 49.7695 8.65033 49.5557 8.4525 49.395C8.30827 49.3365 8.16532 49.2748 8.02375 49.21H7.9625ZM12.6788 52.91C12.6788 52.91 12.8625 52.9717 13.1075 52.91L13.8425 52.7867H15.3737L17.5787 52.54C23.6909 52.0024 29.7656 51.0963 35.77 49.8267L37.8525 49.4567C38.1587 49.395 38.465 49.21 38.5875 49.2717L39.2 49.58L40.0575 49.8883L40.4863 50.135C40.4863 50.2583 40.4863 50.5667 40.3638 50.69C40.2983 50.8256 40.2568 50.9717 40.2413 51.1217L40.18 51.43L39.69 51.615V51.3067C39.6287 51.1833 39.3838 50.9983 39.2 50.9983C39.0775 50.9983 38.8937 50.9983 38.6488 51.1217L35.1575 52.17L31.7275 53.095C29.053 53.7993 26.3566 54.4163 23.6425 54.945L19.6 55.4383H18.375C17.1007 55.3481 15.8328 55.1834 14.5775 54.945C14.3325 54.8833 14.0875 54.8217 13.965 54.575C13.9037 54.2667 13.965 54.02 13.72 53.835C13.5625 53.66 13.376 53.5139 13.1688 53.4033C13.0463 53.3417 12.8012 53.3417 12.74 53.2183V53.0333L12.6788 52.91ZM18.3137 56.795L20.7025 56.5483L24.745 55.9317C27.7121 55.2403 30.6726 54.5208 33.6262 53.7733L37.1175 52.7867L39.69 51.985C39.8737 51.8617 40.1187 51.7383 40.3025 51.7383L41.2825 52.0467C41.4662 52.0467 42.0175 52.17 42.14 52.2933C42.2625 52.355 42.2625 52.4783 42.2625 52.6017V53.65L42.4462 53.8967L41.9562 54.0817L41.65 54.205V53.8967C41.5252 53.786 41.3793 53.7021 41.2212 53.65L40.8538 53.7117L39.7512 54.205L37.3013 55.1917C34.8697 56.1265 32.4192 57.0106 29.9513 57.8433L26.95 58.7067C26.46 58.83 26.2763 58.8917 25.9088 58.8917C24.2175 58.8676 22.5337 58.6608 20.8863 58.275C20.6753 58.2321 20.4827 58.1243 20.335 57.9667C20.1981 57.8114 20.0314 57.6855 19.845 57.5967C19.6269 57.4618 19.402 57.3383 19.1713 57.2267L18.7425 57.1033L18.4363 56.98L18.3137 56.795ZM26.2762 60.1867L27.0725 59.94L28.5425 59.4467L30.5025 58.8917L33.565 57.8433L37.24 56.4867L41.0375 54.8833C41.4662 54.6983 41.895 54.575 42.0175 54.4517C42.2891 54.2973 42.5766 54.1732 42.875 54.0817L43.7325 53.9583L44.1613 54.02C44.2837 54.1433 44.2837 54.2667 44.2837 54.39C44.2837 54.575 44.2837 55.0067 44.5288 55.13L45.2637 55.4383C45.506 55.4944 45.7515 55.5356 45.9988 55.5617H46.1825L45.3862 55.9933L44.6512 56.425L44.5288 56.24H43.9163C41.5303 57.5189 39.1207 58.7524 36.6887 59.94C36.26 60.0633 34.2388 61.05 33.9325 61.1733C33.6263 61.3583 33.4425 61.4817 33.1362 61.5433C31.8517 61.6379 30.562 61.6379 29.2775 61.5433C28.91 61.5433 28.3587 61.5433 28.0525 61.42C27.7463 61.2967 27.685 61.1117 27.5625 60.9267C27.3594 60.7063 27.1076 60.5373 26.8275 60.4333C26.666 60.3983 26.499 60.3983 26.3375 60.4333L26.2762 60.1867ZM33.5037 62.715L36.26 61.3583C38.9889 59.9847 41.6847 58.5454 44.345 57.0417L45.8762 56.24C45.9987 56.1167 46.06 55.9933 46.2438 55.9317H46.4888L46.8563 56.3633C46.9788 56.4867 47.2238 56.795 47.5913 56.8567C47.7946 56.8825 48.0004 56.8825 48.2038 56.8567L48.8162 56.7333L47.775 57.72L45.325 59.8167L43.2425 61.4817L41.65 62.5917L40.5475 63.0233C39.0247 63.355 37.4928 63.6429 35.9538 63.8867C35.7087 63.8867 35.3412 63.8867 35.1575 63.7017C34.9125 63.455 34.79 63.1467 34.545 63.0233C34.2388 62.9 34.055 62.7767 33.9325 62.8383C33.5037 62.8383 33.5037 62.715 33.5037 62.715ZM40.4863 64.1333L42.0788 62.9L43.855 61.5433C45.5799 60.075 47.295 58.595 49 57.1033C49 57.1033 49 57.35 49.1225 57.4733C49.245 57.5967 49.4287 57.7817 49.735 57.905C49.98 58.0283 50.3475 58.0283 50.5925 58.0283H51.205C51.3887 58.0283 51.5112 58.0283 51.5112 58.2133V58.5833L51.5725 58.7683L49.6737 60.9267L47.8363 62.9L46.4888 64.3183C46.3662 64.38 46.06 64.3183 45.8762 64.195C45.6312 64.0717 45.4475 64.195 45.1413 64.2567L43.9163 64.565L42.63 64.8117C42.385 64.8117 42.14 64.8117 42.0175 64.6883C41.8428 64.4551 41.6366 64.2476 41.405 64.0717C41.2213 64.0717 41.0375 64.01 40.9762 64.0717C40.8538 64.0717 40.5475 64.3183 40.4863 64.1333ZM46.8563 64.565L48.3875 62.9C49.5613 61.6556 50.7251 60.4017 51.8787 59.1383C51.94 59.1383 52.3075 59.1383 52.5525 59.015C52.8587 59.015 53.2875 58.8917 53.41 58.9533C53.5325 58.9533 53.5325 59.015 53.5325 59.1383V61.6667L52.5525 63.5783L51.94 64.935C51.9005 65.0316 51.8373 65.1164 51.7562 65.1817C51.695 65.2433 51.5725 65.0583 51.3888 64.8733C51.205 64.565 50.96 64.6267 50.715 64.6883C50.47 64.6883 49.1225 65.12 48.8775 65.1817L47.9587 65.305C47.775 65.2433 47.6525 65.12 47.53 64.935C47.4075 64.75 47.285 64.6267 47.1625 64.6267H46.8563V64.565ZM52.9812 63.64L53.41 62.715L53.5938 62.345C53.5938 62.345 53.655 62.7767 53.7775 62.9617C53.7775 63.1467 54.0225 63.3317 54.0837 63.5783L54.4513 64.6267C54.5125 64.75 54.635 64.935 54.5737 65.0583V65.3667C54.635 65.49 54.6963 65.6133 54.5737 65.6133L54.2063 65.86C54.2063 65.86 53.9613 65.86 53.8387 65.7367C53.8387 65.6133 53.5325 65.6133 53.3488 65.4283C53.1038 65.2433 53.165 65.12 53.165 64.9967V64.01L53.0425 63.64H52.9812ZM46.6113 66.23C46.6113 66.23 46.9788 66.7233 47.2238 66.7233C47.53 66.7233 47.5913 66.6 47.7137 66.6H48.1425C48.2038 66.6 48.3875 66.8467 48.3262 66.97L48.5712 67.71C49.2854 69.2307 50.1471 70.6766 51.1438 72.0267L53.165 74.185L55.86 76.3433C57.5094 77.4409 59.2515 78.3901 61.0662 79.18C61.3725 79.3033 61.5563 79.3033 61.6175 79.4267L61.74 79.6117L61.4338 80.105L61.1275 80.5983L60.8825 80.475C60.8825 80.475 61.0662 80.29 61.005 80.1667C60.9313 80.0024 60.8007 79.8708 60.6375 79.7967L59.2288 79.18C57.3461 78.171 55.544 77.0164 53.8387 75.7267L51.205 73.1367C50.5521 72.3672 49.9388 71.5644 49.3675 70.7317C49 70.3 48.1425 68.635 47.9587 68.2033C47.775 67.7717 47.6525 67.4633 47.4688 67.34L47.1625 67.0933H46.9175L46.7337 66.6617C46.7337 66.415 46.6113 66.23 46.6113 66.23ZM48.4487 66.5383C48.4487 66.5383 48.8162 66.5383 49.0613 66.415L50.47 65.9833L51.3275 65.675C51.45 65.675 51.5725 65.5517 51.695 65.6133L51.94 65.7983L52.3075 66.415C52.4912 66.5383 52.675 66.7233 52.92 66.6617C53.2875 66.6617 53.5325 66.6617 53.7775 66.5383L54.635 66.045L54.88 65.9217L55.125 66.1067L55.3088 66.2917C56.0053 67.3004 56.7838 68.2493 57.6362 69.1283C58.844 70.2413 60.1569 71.2327 61.5563 72.0883L63.2712 72.9517L64.4962 73.445L64.8638 73.6917L64.9862 74L64.1288 75.4183L63.2712 76.8983L62.475 78.255L61.9237 79.18H61.8013L61.9237 78.7483C61.9106 78.5215 61.8246 78.3051 61.6787 78.1317C58.7286 76.8892 56.0298 75.1126 53.7163 72.89C52.5127 71.6451 51.4638 70.2578 50.5925 68.7583L49.7962 67.2783C49.6738 67.155 49.49 66.97 49.245 66.9083L48.755 66.785C48.6325 66.785 48.4487 66.785 48.4487 66.6617V66.5383ZM37.73 43.1667H42.7525L43.2425 43.29H43.4263V43.5367L43.2425 43.9683L43.1813 44.215C43.0391 44.2406 42.8961 44.2612 42.7525 44.2767V44.0917C42.571 43.9704 42.3578 43.9061 42.14 43.9067L40.67 44.0917C40.0362 44.1181 39.4031 44.1592 38.7712 44.215C38.404 44.0713 38.0545 43.885 37.73 43.66H37.5462L37.6075 43.3517L37.73 43.1667ZM38.3425 46.0033L38.5875 45.6333L39.3225 45.3867L40.7925 45.0167L42.3237 44.7083L43.12 44.4617C43.2425 44.4617 43.4263 44.5233 43.5488 44.6467L43.9775 44.955C44.1 45.0783 44.2225 45.2633 44.1613 45.325L44.0387 45.5717L43.9775 45.7567V46.0033L43.61 46.1267H43.4263C43.4263 46.1267 43.5488 45.9417 43.4263 45.88C43.4263 45.88 43.1813 45.695 42.9363 45.695C42.5602 45.7319 42.1899 45.8147 41.8337 45.9417C41.5887 45.9417 40.7925 46.25 40.425 46.3117L39.6287 46.5583C39.3706 46.5231 39.1213 46.4395 38.8937 46.3117L38.5262 46.1267L38.3425 46.0033ZM39.2 48.2233C39.2 48.2233 39.2 48.0383 39.3225 47.9767L39.7512 47.7917L40.67 47.4217C41.5756 47.0928 42.4952 46.8047 43.4263 46.5583C43.61 46.4967 43.7938 46.3733 44.0387 46.3733L44.6512 46.4967C44.8962 46.62 45.08 46.6817 45.1413 46.805L45.0187 47.2367L44.8962 47.545V47.73L44.59 47.915H44.4062L44.345 47.6683C44.2225 47.6067 43.9775 47.4833 43.7325 47.545L42.63 47.9767L41.405 48.5933L40.67 48.7167C40.425 48.7167 40.2412 48.655 40.0575 48.5317L39.445 48.285L39.2 48.2233ZM40.7925 50.0733L41.7113 49.6417L43.5488 48.7783L44.59 48.285L45.0187 48.1L45.6312 48.2233C45.8762 48.2233 46.1213 48.285 46.2438 48.4083C46.2438 48.5317 46.305 48.7783 46.2438 48.84L46.1825 49.3333V49.6417L45.9375 49.765L45.6312 49.95C45.6312 49.95 45.6313 49.765 45.4475 49.7033C45.3792 49.6489 45.3002 49.6097 45.2157 49.5885C45.1312 49.5672 45.0432 49.5643 44.9575 49.58C44.2474 49.9275 43.5708 50.3403 42.9363 50.8133C42.8138 50.8133 42.6912 50.9983 42.385 50.9983C42.1721 50.9708 41.9652 50.9083 41.7725 50.8133C41.5594 50.7056 41.3547 50.5819 41.16 50.4433L40.7925 50.2583V50.135V50.0733ZM42.4462 52.2933L43.7938 51.43L45.5087 50.4433C45.8762 50.2583 46.1825 49.95 46.3663 49.95H47.285C47.53 49.95 47.7137 49.95 47.7137 50.0733V50.875L45.8762 52.2933L44.835 53.1567C44.835 53.1567 44.59 52.9717 44.2837 52.91L43.6712 52.725C43.5228 52.6772 43.3792 52.6153 43.2425 52.54L42.875 52.4167L42.5075 52.4783V52.355L42.4462 52.2933ZM44.6512 53.835L45.4475 53.2183L46.9788 51.9233L47.9587 51.1217L48.265 50.9983H48.8162C48.9387 50.9983 49.1838 50.9367 49.1838 51.1217L49.3063 51.7383V52.0467L49.4287 52.17L49.1225 52.4783C48.503 53.0879 47.8905 53.7046 47.285 54.3283L46.795 54.76L46.55 54.39C46.3662 54.205 45.9375 54.1433 45.7537 54.1433C45.5087 54.1433 45.2637 53.8967 45.1413 53.8967H44.8962H44.6512V53.835ZM46.9788 55.1917L48.2038 53.9583L49.4287 52.725C49.6737 52.6017 49.7962 52.355 50.0413 52.2933C50.225 52.17 50.47 52.0467 50.6538 52.1083L50.8375 52.4783C50.8988 52.6633 51.0825 52.91 51.3888 52.9717C51.6338 53.095 51.8175 53.095 52.0012 53.095H52.185L51.7562 53.5267L50.8375 54.39L49.6125 55.6233L49.1838 55.9933C49.1838 55.9933 49.1838 55.8083 49 55.685C48.8162 55.5 48.5713 55.5 48.3875 55.5C48.0812 55.5 47.9588 55.5 47.775 55.315L47.53 55.13L47.2238 55.1917H46.9788ZM49.4287 56.3633L50.47 55.3767L51.7562 54.1433L52.5525 53.3417L52.92 53.5267H54.145C54.2077 53.4429 54.2926 53.3788 54.39 53.3417L54.0225 53.835L53.0425 55.1917L52.0012 56.7333L51.6338 57.4117L51.45 57.6583C51.45 57.6583 51.45 57.4733 51.2663 57.165C51.1437 56.8567 51.0213 56.8567 50.8988 56.795L50.47 56.6717C50.225 56.61 50.1025 56.3633 49.98 56.3017H49.735C49.5513 56.425 49.49 56.3017 49.49 56.3017L49.4287 56.3633ZM54.5125 53.8967L54.6963 54.1433C54.8188 54.205 54.88 54.3283 54.88 54.4517L54.39 55.5C54.1371 56.2255 53.9325 56.9671 53.7775 57.72L53.5325 58.09V58.3367L53.2875 58.46L53.0425 58.5217V58.3367L52.8587 57.9667C52.7954 57.8785 52.7564 57.775 52.7456 57.6666C52.7348 57.5583 52.7527 57.4491 52.7975 57.35L53.1038 56.4867L53.4712 55.6233C53.6005 55.2588 53.7646 54.9077 53.9613 54.575L54.3288 54.02L54.5125 53.8967ZM43.855 43.3517H47.1012L48.3262 43.475H49.6125C50.225 43.475 51.3275 43.475 52.0625 43.5983L54.0225 44.03C54.635 44.215 55.6762 44.7083 56.0437 45.14C56.4112 45.51 56.6562 45.88 56.6562 46.3733C56.595 46.99 56.35 47.4833 56.1663 47.8533L55.5537 49.025L54.5737 50.0117L53.165 51.5533L52.4912 52.4167C52.4006 52.5119 52.3187 52.6151 52.2463 52.725H52.0625L52.185 52.355C52.185 52.17 52.0013 51.9233 51.8175 51.8C51.695 51.7383 51.6338 51.6767 51.5112 51.7383L51.2663 51.8617H51.1438L51.695 51.245L52.4912 50.505C52.6137 50.32 52.7975 50.2583 52.8587 50.2583H53.3488C53.5325 50.1967 53.8388 49.8267 53.9 49.6417C53.9151 49.5264 53.9005 49.4091 53.8576 49.3011C53.8147 49.1931 53.7449 49.098 53.655 49.025C53.4771 48.8961 53.2615 48.831 53.0425 48.84C52.8933 48.8544 52.748 48.8962 52.6138 48.9633C52.5362 48.998 52.4533 49.0188 52.3688 49.025V48.7167C52.43 48.5933 52.3687 48.4083 52.2463 48.2233C52.1895 48.1413 52.1168 48.0716 52.0326 48.0187C51.9484 47.9657 51.8544 47.9304 51.7562 47.915H51.3275C51.205 47.8533 51.3275 47.73 51.205 47.545C51.1437 47.36 51.0212 47.1133 50.7762 47.0517C50.6193 46.988 50.4544 46.9465 50.2863 46.9283C50.1637 46.9283 50.1637 46.805 50.1637 46.6817C50.1637 46.4967 50.1637 46.1267 50.0413 46.065C49.8998 45.9306 49.7332 45.8258 49.5513 45.7567C49.3675 45.7567 49.3063 45.695 49.3063 45.6333L49.3675 45.2017C49.3675 45.0167 49.3675 44.77 49.1225 44.585L48.6325 44.2767C48.5723 44.1583 48.489 44.0534 48.3875 43.9683H48.02L47.4075 44.0917H46.9175L46.3663 44.03H45.5087C45.2637 44.0917 44.9575 44.1533 44.7738 44.0917C44.5288 44.0917 44.345 44.0917 44.1613 43.9683C44.0538 43.9162 43.9513 43.8543 43.855 43.7833C43.7325 43.7833 43.6712 43.66 43.6712 43.66L43.7325 43.5367L43.7938 43.3517H43.855ZM44.4062 45.325L45.3862 44.955C45.815 44.77 46.6113 44.585 46.9788 44.5233C47.285 44.4617 47.5913 44.3383 47.7137 44.4H48.265C48.265 44.4 48.3875 44.5233 48.265 44.5233L48.1425 44.7083L47.775 45.0783L46.9788 45.2633L45.8762 45.6333H45.2637C44.9575 45.6333 44.8963 45.5717 44.7125 45.51L44.5288 45.5717H44.4062V45.4483V45.325ZM45.4475 46.805L46.4888 46.3117L48.1425 45.695C48.3263 45.695 48.51 45.5717 48.6325 45.695C48.755 45.695 48.8775 45.8183 48.8162 45.88C48.8162 46.0033 48.6325 46.1883 48.51 46.3117L47.4688 46.805C47.2238 46.9283 46.6725 47.2367 46.4888 47.2367L45.9988 47.175L45.6925 47.0517H45.325V46.9283V46.805H45.4475ZM46.4888 48.4083L47.3462 47.915L48.5712 47.2983C48.8162 47.175 49.1838 46.99 49.3063 47.0517L49.6737 47.175C49.6882 47.3293 49.6445 47.4834 49.5513 47.6067C49.5513 47.73 49.4287 47.8533 49.245 48.1L48.6325 48.5933C48.4744 48.7516 48.2871 48.8772 48.0812 48.9633L47.6525 48.84C47.4842 48.7925 47.3203 48.7306 47.1625 48.655C47.0735 48.5865 46.9676 48.5438 46.8563 48.5317C46.7321 48.5678 46.6095 48.6089 46.4888 48.655V48.4083ZM48.2038 49.8267L48.8162 49.21L49.7962 48.5317C49.9446 48.4065 50.1095 48.3027 50.2863 48.2233L50.47 48.285C50.5312 48.3467 50.715 48.3467 50.715 48.47V48.7783L50.96 48.9017V49.0867L50.225 49.7033L49.6125 50.1967L49.1225 50.0117C48.9052 49.9258 48.6793 49.8638 48.4487 49.8267H48.2038ZM49.6737 50.8133L50.2863 50.1967L50.96 49.58L51.5112 49.21L51.6338 49.2717C51.6338 49.395 51.695 49.395 51.8175 49.395H52.1238C52.1238 49.395 52.2463 49.395 52.2463 49.58V49.765L52.43 49.8267V49.95L51.6338 50.7517L50.8988 51.4917V51.615C50.8988 51.615 50.7762 51.3683 50.5312 51.1833L50.0413 50.875L49.6737 50.8133ZM53.1038 52.2933L53.7163 51.5533L54.5125 50.7517L54.6963 50.4433L54.4513 51.1833L54.39 51.9233L54.2675 52.54V52.9717L53.9613 53.095L53.7163 53.28C53.7163 53.28 53.7163 52.91 53.5938 52.7867C53.5219 52.6574 53.4159 52.5507 53.2875 52.4783C53.2093 52.4457 53.1267 52.4249 53.0425 52.4167L53.1038 52.2933ZM60.8213 39.8983L61.8013 39.5283C63.8778 38.7747 66.007 38.177 68.1712 37.74C72.2496 37.1877 76.3913 37.3337 80.4212 38.1717C81.9357 38.5395 83.4284 38.9924 84.8925 39.5283L85.505 39.8367C85.6275 39.8983 85.6275 40.0217 85.8112 40.0833L86.3013 40.2683L86.0563 40.4533L85.5663 40.7L85.1987 40.8233V40.5767C84.2427 40.1279 83.2609 39.7366 82.2588 39.405C81.4625 39.22 80.2375 38.7883 79.38 38.665L76.8688 38.295C74.4232 38.0853 71.9643 38.0853 69.5188 38.295C68.5387 38.4183 67.0687 38.665 66.15 38.9117L63.6388 39.5283L62.4137 39.96H61.4338C61.3725 39.96 61.1275 40.0833 61.0662 40.0217L60.8213 39.8983ZM89.7312 52.0467L89.425 51.6767C89.3025 51.5533 89.2412 50.9983 89.1188 50.69C88.8504 50.2166 88.5208 49.7812 88.1388 49.395C86.6094 48.0036 84.8465 46.8969 82.9325 46.1267C77.3297 44.0431 71.2103 43.8269 65.4762 45.51C63.9832 46.0168 62.5463 46.6781 61.1887 47.4833L59.7188 48.47C59.3512 48.7167 59.29 48.9017 59.045 48.84C58.9493 48.8175 58.8604 48.7721 58.7857 48.7077C58.7111 48.6433 58.653 48.5618 58.6162 48.47C58.6162 48.47 58.8612 48.1 59.1675 47.8533C60.0286 46.968 60.9495 46.1438 61.9237 45.3867L62.4137 44.8317C62.4137 44.8317 62.5363 45.0783 62.7812 45.0167C63.0832 44.8918 63.3398 44.6765 63.5163 44.4C63.8232 43.9015 63.9727 43.3209 63.945 42.735C63.945 42.1183 63.8225 41.6867 63.6388 41.5017C63.455 41.44 63.21 41.1933 63.0262 41.1933H62.5975L62.3525 41.0083L63.0262 40.7C64.3509 40.1695 65.726 39.7769 67.13 39.5283C70.2186 38.9459 73.3728 38.8006 76.5013 39.0967C78.5343 39.3286 80.543 39.7414 82.5038 40.33L84.0962 40.9467L84.4025 41.1933L84.6475 41.3167L84.035 42.1183C83.4225 43.2283 84.2188 44.7083 85.26 45.51C86.6687 46.5583 89.2412 48.1617 89.67 50.505L89.7312 52.0467ZM90.65 50.8133C90.521 50.011 90.2062 49.2505 89.7312 48.5933L88.69 46.7433C88.2612 46.065 87.0975 45.325 86.3625 44.8317C85.75 44.4 85.015 43.475 85.015 42.7967C85.015 42.4267 84.8312 41.9333 84.4025 42.18C84.5163 41.9561 84.685 41.7651 84.8925 41.625C85.26 41.3167 85.995 40.885 86.6075 40.6383C88.6236 39.9951 90.6945 39.5409 92.7937 39.2817C94.6906 39.1594 96.5932 39.1594 98.49 39.2817L101.859 39.7133H107.739C110.437 39.6448 113.133 39.5008 115.824 39.2817C118.826 39.2286 121.828 39.2698 124.827 39.405L128.441 39.59L130.891 39.7133H133.709C135.753 39.6793 137.796 39.5765 139.834 39.405L143.141 39.0967C143.754 39.035 144.366 38.9117 144.611 38.9733C144.918 38.9733 145.224 39.22 145.285 39.3433C145.689 39.8406 146.097 40.334 146.51 40.8233C146.633 40.885 146.755 41.1317 146.755 41.255C146.755 41.3167 146.694 41.5017 146.571 41.5017L146.081 41.7483C146.081 41.7483 146.081 41.5633 145.897 41.5017C145.714 41.5017 145.469 41.3783 145.285 41.44C144.892 41.5929 144.504 41.7574 144.121 41.9333C143.754 42.0567 143.202 42.365 142.896 42.365L140.875 42.55H137.139L132.545 42.6117L128.135 42.6733H123.97L118.764 42.7967C116.824 42.7898 114.884 42.8103 112.945 42.8583L110.74 43.105L109.821 42.9817L109.576 42.92L109.209 42.8583V42.735L109.821 42.6117L110.863 42.3033L113.312 41.81C113.925 41.7483 116.743 41.1933 117.6 41.1317L121.275 40.7L124.95 40.4533L127.768 40.33L130.217 40.3917H131.075L131.197 40.0833L130.034 40.0217C128.401 39.9501 126.766 39.9501 125.134 40.0217L122.99 39.8983C120.593 39.8403 118.196 39.9847 115.824 40.33L111.597 40.9467L108.045 41.625L105.289 42.1183L101.859 42.2417L98.1838 42.18C97.1425 42.18 95.4888 42.18 94.5088 42.3033C93.5288 42.4267 92.6712 42.6117 92.1813 42.7967C91.7055 42.9373 91.2518 43.1449 90.8337 43.4133C90.4662 43.66 90.2825 43.9067 90.3438 44.03V44.1533L90.5888 44.2767L90.2212 44.585C90.036 44.7705 89.9084 45.0061 89.8538 45.2633L89.7312 46.3733V46.99L90.3438 48.2233L91.0788 49.395L91.5687 50.135L92.0587 51.1217V53.7117L91.8138 53.9583L91.7525 54.5133L91.5687 54.945L91.385 54.575C91.385 54.5133 91.5075 54.205 91.4463 53.835C91.4463 53.4033 90.8337 52.17 90.65 50.8133ZM90.2825 45.0783L90.895 44.5233C91.2625 44.2767 91.875 44.03 92.3037 43.9067C92.6712 43.7833 94.0188 43.475 94.6925 43.4133L97.5713 43.3517H102.9C103.084 43.3517 103.268 43.4133 103.329 43.5367V43.7833L103.268 44.0917V44.1533L103.145 44.2767L102.716 44.5233L102.655 44.3383C102.594 44.1533 102.349 44.0917 102.226 44.03C101.921 43.9966 101.614 43.976 101.308 43.9683H100.266L99.8375 43.845C99.7762 43.845 99.6538 43.845 99.5925 43.9683L99.4087 44.0917H99.225C99.225 44.0917 99.1025 44.0917 99.225 44.2767C99.47 44.4617 99.715 44.4617 100.021 44.5233C100.308 44.5809 100.594 44.6425 100.879 44.7083L101.798 44.8317L102.349 44.955C102.41 44.955 102.594 44.955 102.594 45.0783L102.533 45.325C102.516 45.4064 102.516 45.4903 102.533 45.5717L102.41 45.7567L102.042 45.9417H101.859V45.7567C101.771 45.6313 101.64 45.5433 101.491 45.51C101.168 45.4162 100.841 45.3339 100.511 45.2633L99.5925 45.0783C99.2863 45.0167 99.1025 44.955 98.98 45.0167L98.8575 45.14H98.6738C98.6125 45.2017 98.5513 45.2633 98.6125 45.325L99.0413 45.5717L100.083 45.9417L101.124 46.25C101.369 46.25 101.614 46.3733 101.675 46.4967V46.8667L101.491 47.1133L101.43 47.36L101.124 47.4833L100.879 47.6067C100.879 47.6067 101.001 47.4833 100.879 47.2983C100.879 47.1133 100.634 47.0517 100.327 46.8667C99.9863 46.7271 99.6389 46.6036 99.2862 46.4967L98.245 46.065C98.1225 46.065 97.9388 45.9417 97.755 46.0033C97.6325 46.0033 97.5713 46.1267 97.5713 46.1883L97.755 46.3733V46.5583H97.6325L98.245 46.9283L99.2862 47.4833L100.021 47.8533C100.144 47.9767 100.389 48.1 100.327 48.2233L100.266 48.5933C100.266 48.5933 100.266 48.7167 100.144 48.7167L99.6538 48.9017V48.7167L99.3475 48.47C98.4334 47.9298 97.493 47.4358 96.53 46.99C96.4075 47.0517 96.4075 47.2983 96.4688 47.36L96.6525 47.545L96.53 47.6683L97.1425 48.1617L98.245 48.9017L98.8575 49.395C98.98 49.4567 99.0412 49.58 98.9187 49.6417L98.8575 49.8267V50.135L98.6125 50.2583C98.5105 50.262 98.4083 50.262 98.3062 50.2583V50.0733L98 49.8267L97.02 49.1483L96.1625 48.5317L95.7337 47.915C95.6113 47.915 95.4888 47.73 95.305 47.7917L94.9987 48.1L95.06 48.4083L95.2438 48.5933C95.2438 48.5933 95.1212 48.5933 95.1825 48.7167L95.795 49.3333L96.8975 50.135C97.02 50.32 97.3875 50.5667 97.3875 50.7517C97.4487 50.875 97.3875 51.1217 97.3875 51.1833L97.02 51.3067H96.7138V51.1833L96.2237 50.7517L95.06 49.8267C94.8211 49.6594 94.6137 49.4506 94.4475 49.21C94.4475 48.9633 94.2638 48.7167 94.0188 48.7167C93.835 48.7167 93.59 48.7167 93.4675 48.9633C93.345 49.0867 93.345 49.2717 93.4675 49.3333C93.5288 49.4567 93.7125 49.5183 93.6513 49.58L93.4675 49.7033L93.9575 50.0117L94.9375 50.875L95.55 51.4917C95.6517 51.59 95.7166 51.7207 95.7337 51.8617L95.6725 52.2933C95.6725 52.2933 95.6725 52.4167 95.55 52.4783H95.06L95.2438 52.2933C95.1449 52.1306 95.0208 51.9849 94.8763 51.8617L93.7125 50.875C93.4202 50.6318 93.1715 50.3397 92.9775 50.0117C92.9163 49.765 92.9162 49.5183 92.7937 49.3333L92.1813 48.7167L91.385 47.36C91.2012 46.9283 90.9563 46.5583 90.895 46.1883L90.8337 45.51C90.7725 45.3867 90.65 45.2017 90.5275 45.2017H90.2212L90.2825 45.0783ZM91.9975 50.3817L92.7325 51.1833L93.2837 51.5533L93.835 52.1083C93.8962 52.2317 94.1413 52.4167 94.1413 52.54L93.9575 53.1567L93.59 53.3417H93.345C93.345 53.3417 93.5288 53.28 93.5288 53.1567C93.5288 53.095 93.5287 52.9717 93.345 52.8483C93.0658 52.5467 92.8195 52.2159 92.61 51.8617H92.365L92.2425 51.245L92.12 50.7517L91.9975 50.3817ZM91.9362 55.1917L92.12 54.6983L92.1813 54.2667V54.0817L92.61 54.575C92.6712 54.6983 92.9775 54.8833 93.0387 55.0683L93.835 56.1167L94.6925 57.2883C94.815 57.4117 95.1212 57.905 95.1212 58.0283C95.1212 58.1517 95.1213 58.275 94.9987 58.3983C94.9987 58.5217 94.8762 58.7067 94.815 58.7067H94.4475L94.5088 58.5217C94.5088 58.46 94.3863 58.2133 94.2025 58.1517C94.0188 58.0283 93.6512 57.8433 93.59 57.72L93.1 56.6717C92.9349 56.3326 92.7509 56.0031 92.5487 55.685L92.2425 55.1917H91.875H91.9362ZM92.4263 53.5883C92.4263 53.5883 92.7937 53.7733 93.0387 53.7733H93.4675C93.4675 53.7733 93.59 53.5267 93.835 53.465C94.08 53.465 94.2637 53.465 94.4475 53.65C94.6925 53.7733 95.7337 54.8833 95.9175 55.0067L96.9587 55.9933L97.5713 56.6717V57.0417L97.4487 57.2267C97.4487 57.35 97.4488 57.535 97.3263 57.5967C97.3263 57.6583 97.2038 57.7817 97.0813 57.7817H96.775C96.775 57.7817 96.9587 57.6583 96.9587 57.535C96.9587 57.4117 96.8975 57.2883 96.7138 57.2267C96.5522 57.121 96.3888 57.0182 96.2237 56.9183C95.994 56.8153 95.786 56.6688 95.6112 56.4867L94.9987 55.5617L94.1413 54.6367C93.9774 54.442 93.7665 54.2933 93.5288 54.205C93.3882 54.1703 93.2446 54.1497 93.1 54.1433L92.9775 54.3283C92.9775 54.39 92.855 54.3283 92.7937 54.1433L92.4263 53.5883ZM94.3862 53.095L94.4475 52.9717C94.4475 52.8483 94.4475 52.725 94.57 52.725L95.06 52.8483H95.2438C95.2438 52.8483 95.305 52.6633 95.55 52.6017H95.9175C95.9788 52.6017 96.1012 52.54 96.3462 52.6017L97.4487 53.465C97.6937 53.65 98.6737 54.39 98.9187 54.6983C99.225 54.8833 99.5312 55.0683 99.5925 55.1917C99.715 55.1917 99.96 55.5 99.8988 55.6233C99.8988 55.7467 99.715 55.87 99.6538 55.9933V56.3633C99.6538 56.4867 99.47 56.4867 99.3475 56.4867H99.1025L99.225 56.3017C99.225 56.24 99.225 56.1167 99.1025 56.055C98.9313 55.9137 98.7466 55.7898 98.5513 55.685C97.5937 54.9733 96.6737 54.2117 95.795 53.4033L95.1825 53.28C95.0601 53.2588 94.9376 53.2383 94.815 53.2183L94.6925 53.3417H94.6312L94.57 53.28L94.3862 53.095ZM96.2237 52.0467V51.8617H96.53C96.6525 51.8617 96.8363 51.8617 97.02 51.7383C97.265 51.6767 97.265 51.7383 97.3875 51.615L97.6937 51.43L97.9388 51.1833H98.3062L99.225 51.8617L100.879 52.91L101.981 53.5267C102.165 53.7117 102.226 53.835 102.226 53.9583L102.042 54.3283L101.981 54.6367L101.859 54.8217L101.43 54.945L101.552 54.6983C101.552 54.575 101.43 54.4517 101.246 54.39C101.063 54.2667 100.818 54.2667 100.634 54.205C100.325 54.0578 100.037 53.8712 99.7763 53.65C99.5925 53.5267 99.0413 53.0333 98.735 52.91L97.9388 52.2933C97.7008 52.2174 97.4533 52.1758 97.2038 52.17H96.7138C96.7138 52.17 96.5913 52.355 96.53 52.2933L96.285 52.17L96.1625 52.0467H96.2237ZM98.7962 50.5667C98.7962 50.5667 99.1025 50.5667 99.1637 50.4433L99.225 49.8883L99.2862 49.7033L99.5925 49.765C99.7763 49.765 99.8988 49.765 100.144 49.8883L101.798 50.7517L103.635 51.615C103.88 51.6767 104.431 51.9233 104.493 52.0467C104.554 52.17 104.615 52.2933 104.493 52.4783C104.493 52.6017 104.37 52.6633 104.431 52.7867V53.0333L104.064 53.1567H103.819C103.819 53.1567 103.941 53.1567 103.941 52.9717C103.941 52.8483 103.819 52.725 103.574 52.6633L102.9 52.54C102.662 52.4697 102.435 52.3659 102.226 52.2317L101.001 51.4917C100.586 51.2997 100.178 51.094 99.7763 50.875L99.4087 50.6283C99.3083 50.6022 99.2029 50.6022 99.1025 50.6283H98.7962V50.5667ZM100.634 48.9017V48.5317L100.695 48.2233H101.369L102.165 48.5933L104.002 49.21L105.472 49.8267L106.085 50.0117C106.161 50.0691 106.223 50.1436 106.265 50.2292C106.308 50.3148 106.33 50.4093 106.33 50.505L106.269 50.875L106.146 51.06V51.3067L105.84 51.43H105.534C105.534 51.43 105.717 51.3067 105.534 51.1833C105.411 50.9983 105.35 50.9367 105.044 50.8133L103.941 50.3817C103.696 50.2583 102.655 49.765 102.349 49.7033C101.973 49.5578 101.605 49.3931 101.246 49.21C101.001 49.0867 100.94 49.0867 100.879 48.9633L100.573 48.9017H100.634ZM101.859 47.0517L101.92 46.5583H102.349L102.961 46.6817L105.044 47.175L106.698 47.545C107.126 47.6067 107.432 47.6067 107.555 47.7917L107.616 48.4083V49.025L107.188 49.3333C107.125 49.3725 107.064 49.4137 107.004 49.4567V49.0867C106.881 48.9633 106.391 48.7783 106.146 48.7167L104.676 48.285L103.268 47.7917C103.023 47.7917 102.777 47.6683 102.594 47.545L102.165 47.2367L101.92 47.175L101.859 47.0517ZM102.839 45.2017V45.0167L103.145 44.77H103.635C104.908 44.8719 106.175 45.0365 107.433 45.2633H108.474C108.78 45.3867 108.719 45.6333 108.719 45.8183V46.3733L108.413 46.6817C108.277 46.794 108.133 46.897 107.984 46.99C107.861 46.99 107.984 46.7433 107.923 46.62C107.777 46.5173 107.609 46.4537 107.433 46.435L106.452 46.25L104.86 45.9417L103.757 45.695L103.145 45.2633L102.839 45.2017ZM103.635 43.7833L103.574 43.5367V43.4133H104.309L106.024 43.105C106.986 42.9793 107.946 42.8354 108.903 42.6733C109.086 42.735 109.147 42.92 109.209 43.0433L109.393 43.66L109.515 44.0917C109.411 44.2319 109.287 44.3565 109.147 44.4617L108.719 44.8933V44.5233C108.579 44.3036 108.359 44.1484 108.106 44.0917L106.575 43.9683H104.982C104.672 43.9786 104.361 43.9369 104.064 43.845L103.819 43.7217L103.635 43.7833ZM109.331 44.955L109.821 44.3383L110.127 44.03H110.618C110.862 43.9067 112.271 43.9683 112.639 43.9067H125.134L129.911 43.845L135.485 43.7833L139.956 43.66H142.039C142.406 43.5983 142.651 43.5367 142.835 43.5983C142.958 43.5983 143.019 43.7217 143.019 43.845L143.386 44.8317L143.57 45.695C143.57 45.88 143.631 46.065 143.57 46.1267L143.08 46.435H142.958V46.25C142.857 46.0974 142.705 45.9876 142.529 45.9417C142.317 45.9288 142.106 45.9713 141.916 46.065C141.671 46.1883 140.875 46.435 140.385 46.4967C139.956 46.62 139.773 46.6817 138.976 46.6817H135.669L131.565 46.4967L126.971 46.25L122.561 46.0033L117.906 45.7567L113.19 45.3867C112.13 45.2828 111.068 45.2006 110.005 45.14C109.821 45.14 109.821 45.0167 109.699 44.955H109.331ZM107.923 47.6067L108.596 47.1133C108.841 46.9283 109.086 46.805 109.147 46.62V46.3733L110.985 46.4967L113.435 46.62L117.294 46.9283L122.5 47.2983L126.91 47.545C130.849 47.7015 134.79 47.8248 138.731 47.915L139.65 47.8533C139.834 47.8533 140.079 47.8533 140.079 48.1C140.079 48.3467 140.079 49.2717 139.956 49.58C139.87 49.9119 139.725 50.2253 139.528 50.505L139.099 50.7517C139.099 50.7517 139.221 50.5667 139.099 50.4433C139.099 50.32 138.854 50.1967 138.67 50.1967L137.139 50.505L135.301 50.6283L132.729 50.505L129.299 50.1967C124.924 49.7116 120.554 49.1771 116.191 48.5933L113.006 48.1617L110.373 47.73L109.393 47.6067H107.923ZM106.698 49.95L107.31 49.765C107.494 49.6417 107.861 49.5183 107.923 49.3333C108.045 49.21 108.106 49.1483 108.106 49.025L108.045 48.7783L109.025 48.84L110.985 49.1483L113.986 49.58L118.948 50.2583L123.48 50.875C124.092 50.875 127.645 51.3067 128.196 51.3683L131.442 51.6767L134.321 51.8H135.546C135.73 51.9233 135.853 52.0467 135.853 52.17L135.607 53.465L135.363 54.205C135.24 54.3283 135.179 54.5133 134.995 54.575L134.811 54.6983C134.811 54.6983 134.934 54.4517 134.811 54.3283C134.811 54.205 134.566 54.02 134.383 53.9583L133.403 54.1433L131.994 54.2667L130.769 54.3283C130.463 54.3283 129.911 54.3283 129.482 54.205L126.788 53.835C124.248 53.3828 121.716 52.8894 119.192 52.355L115.946 51.6767C114.802 51.4149 113.658 51.1477 112.516 50.875L110.066 50.2583L108.658 49.95C108.412 49.8883 108.167 49.8267 108.045 49.8883L107.31 50.0733H106.942C106.831 50.0612 106.725 50.0185 106.636 49.95H106.698ZM104.86 52.0467L105.411 51.985L106.269 51.7383C106.452 51.7383 106.514 51.6767 106.514 51.5533V51.06L106.636 50.8133L107.249 50.875L108.29 51.1217C110.947 51.748 113.601 52.3853 116.252 53.0333L120.05 53.8967C123.53 54.6157 127.021 55.2736 130.524 55.87C130.524 56.1167 130.279 56.6717 130.156 56.9183C130.034 57.165 129.85 57.5967 129.605 57.905L129.115 58.46L128.87 58.5833L128.992 58.2133C128.992 58.09 128.747 57.9667 128.564 57.905H127.584C124.144 57.6157 120.739 56.9962 117.416 56.055C116.314 55.7467 114.476 55.2533 113.312 54.8217L110.066 53.7117L107.249 52.725C107.015 52.6253 106.767 52.5629 106.514 52.54H105.779C105.57 52.4938 105.366 52.4319 105.166 52.355C105.044 52.355 104.921 52.355 104.86 52.2317V52.0467ZM102.655 53.8967L103.696 53.5883C104.003 53.465 104.431 53.28 104.738 53.3417C105.105 53.3417 105.84 53.5883 106.208 53.7733L108.474 54.575C111.234 55.5118 114.011 56.3958 116.804 57.2267L120.908 58.275L122.99 58.7067C123.357 58.7067 123.603 58.83 123.664 59.015V59.5083C123.541 59.6317 123.48 60.125 123.357 60.31C123.272 60.5738 123.149 60.8232 122.99 61.05C122.868 61.235 122.561 61.2967 122.561 61.2967C122.561 61.2967 122.745 61.1733 122.684 60.9883C122.682 60.9255 122.664 60.8641 122.632 60.8102C122.599 60.7562 122.554 60.7114 122.5 60.68L122.132 60.495L121.153 60.5567H117.722C114.321 59.6964 111.047 58.3903 107.984 56.6717L106.085 55.685L104.37 54.76C104.116 54.6443 103.848 54.5614 103.574 54.5133C103.363 54.4501 103.158 54.3675 102.961 54.2667L102.594 54.205L102.655 53.8967ZM100.327 55.5L101.246 55.2533C101.43 55.1917 101.859 55.0683 102.042 55.13L103.084 55.5617C104.744 56.4729 106.418 57.3569 108.106 58.2133L110.434 59.385L113.19 60.6183L114.783 61.235L116.007 61.5433C116.253 61.605 116.681 61.7283 116.743 61.8517L116.681 62.345L116.314 63.27C116.191 63.455 116.069 63.7633 115.885 63.8867L115.64 64.1333H115.518L115.701 63.8867C115.701 63.825 115.579 63.5167 115.456 63.455C115.333 63.3546 115.185 63.2906 115.028 63.27H114.048L112.455 63.0233L111.23 62.6533C109.721 61.9797 108.285 61.1532 106.942 60.1867L104.125 58.1517L102.655 57.0417C102.349 56.8567 101.92 56.425 101.736 56.425L100.879 56.055L100.389 55.8083V55.5H100.327ZM98 56.9183H98.6125L99.2862 56.7333H99.8375L100.879 57.35C102.987 59.0365 105.174 60.6211 107.433 62.0983L109.025 63.0233L109.944 63.5783C110.005 63.7017 110.189 63.825 110.066 64.0717L109.515 64.9967C109.39 65.1579 109.246 65.3029 109.086 65.4283C109.03 65.4767 108.968 65.5181 108.903 65.5517C108.903 65.5517 109.086 65.3667 109.086 65.2433C109.068 65.1377 109.025 65.0379 108.961 64.9522C108.898 64.8664 108.814 64.7971 108.719 64.75C108.535 64.6267 108.106 64.6267 107.8 64.5033C106.773 64.2175 105.752 63.9091 104.738 63.5783C104.431 63.3933 103.696 62.715 103.329 62.345L101.798 60.9267L100.144 59.385L98.8575 58.1517L98.245 57.535L98 57.2883V56.98V56.9183ZM95.3662 58.645L95.4888 58.3367C95.498 58.2754 95.498 58.213 95.4888 58.1517H96.1625L96.8975 58.0283C97.1425 58.0283 97.265 58.1517 97.3875 58.3983L98.1225 59.3233L100.083 61.1733L102.104 63.0233L103.329 64.1333L103.941 64.75V65.2433C103.801 65.4668 103.637 65.6736 103.451 65.86L102.961 66.23L103.084 65.86L102.655 65.49L101.43 65.1817C101.002 65.0444 100.591 64.8582 100.205 64.6267C99.7762 64.1936 99.3674 63.7409 98.98 63.27L97.8163 61.7283L96.7138 60.2483L95.795 59.0767L95.55 58.83L95.3662 58.645ZM92.7937 59.015H94.1413C94.2637 59.0767 94.3863 59.015 94.5088 59.2C94.6312 59.3233 94.6925 59.57 94.7538 59.755C95.3677 60.7423 96.0428 61.6898 96.775 62.5917L98 64.1333L98.735 64.9967L99.1637 65.6133L99.0413 65.9217C98.9288 66.0547 98.8059 66.1784 98.6738 66.2917C98.5651 66.4101 98.4416 66.5138 98.3062 66.6L98.3675 66.3533C98.3675 66.23 98.3675 66.1067 98.1838 65.9833C97.9362 65.8243 97.6683 65.6998 97.3875 65.6133L96.285 65.2433C96.0508 65.1484 95.8413 65.0007 95.6725 64.8117L94.9375 63.64C94.5147 62.8252 94.1063 62.0028 93.7125 61.1733V60.1867C93.6061 59.9758 93.4606 59.7874 93.2837 59.6317L93.1 59.5083L92.855 59.4467V59.1383V59.015H92.7937ZM92.6712 62.4683L93.0387 63.1467L93.59 63.9483L94.2025 65.1817C94.325 65.4283 94.5088 65.6133 94.4475 65.86C94.4475 66.1067 94.2637 66.415 94.2025 66.4767C94.1413 66.6617 94.1413 66.785 93.9575 66.8467C93.8494 66.9338 93.7241 66.9968 93.59 67.0317L93.7738 66.7233L93.59 66.2917C93.4722 66.1416 93.3266 66.0159 93.1612 65.9217C92.9775 65.86 92.5487 65.675 92.5487 65.5517V65.0583C92.658 64.784 92.6794 64.4822 92.61 64.195C92.61 63.9483 92.5488 63.8867 92.4875 63.825C92.4665 63.7522 92.4237 63.6876 92.365 63.64L92.5487 63.0233L92.6712 62.4683ZM81.4625 73.7533L82.4425 73.3833L83.8512 72.7667C85.1375 72.0875 86.3666 71.3038 87.5263 70.4233C88.5641 69.4531 89.5457 68.4236 90.4663 67.34L91.0788 66.415L91.9975 66.8467L93.0387 67.2783H93.7738C94.0188 67.2783 94.1413 67.2783 94.325 67.0933C94.4747 66.9055 94.5984 66.6981 94.6925 66.4767L94.815 66.1067L95.4275 66.2917L96.4075 66.6617L97.265 66.97C97.3875 67.0933 97.4487 67.155 97.4487 67.2783L97.2038 67.895L96.53 69.2517C95.6725 70.6397 94.7101 71.9592 93.6513 73.1983C93.2838 73.5683 92.7938 74.0617 92.4875 74.185L91.4463 74.6167L89.8538 75.665C88.8013 76.333 87.6949 76.9106 86.5462 77.3917L85.5663 77.885L85.015 78.0083C84.8925 78.0083 84.77 77.885 84.6475 77.7617L83.9125 76.405L82.8712 74.555C82.6875 74.3083 82.6263 74.2467 82.2588 74.0617L81.8913 74L81.585 73.9383C81.4625 73.9383 81.4625 73.7533 81.4625 73.7533ZM79.0125 74.4933L79.87 74.2467L80.6663 74C80.9112 73.9383 80.9725 73.9383 81.095 74L81.34 74.4933L82.1975 76.035L83.1162 77.6383L83.9737 79.1183L84.3413 79.7967L84.7087 80.5367L84.8313 80.9683L84.3413 81.8933L83.9125 82.6333C83.9125 82.6333 83.9125 82.14 83.79 81.8933C83.7433 81.7 83.6359 81.527 83.4837 81.4L82.8712 81.0917C82.7487 81.03 82.6263 80.9683 82.4425 80.5983L81.7075 78.7483L80.85 76.59L80.2375 75.2333C80.0774 75.02 79.8668 74.8505 79.625 74.74H79.3187H79.135L79.0125 74.4933ZM97.8775 67.155H98.3062C98.7484 66.8687 99.1243 66.4901 99.4087 66.045L99.5312 65.9217C99.5312 65.9217 99.6538 65.9217 99.6538 66.045C99.4861 66.7492 99.2395 67.4319 98.9187 68.08C98.3052 69.2857 97.6305 70.4589 96.8975 71.595C95.8687 72.8932 94.7643 74.1287 93.59 75.295C92.0686 76.4305 90.4725 77.4606 88.8125 78.3783L87.22 79.1183C86.7836 79.351 86.3336 79.557 85.8725 79.735H84.9538H84.6475L84.5863 79.55L85.75 79.0567L88.2612 77.8233L90.2212 76.59C91.6907 75.5441 93.0641 74.3677 94.325 73.075L95.795 71.6567L96.7138 70.6083L97.8163 68.7583L98.1225 68.0183C98.1225 67.8333 98.0612 67.71 98 67.71C97.919 67.687 97.8372 67.6665 97.755 67.6483L97.8163 67.34L97.8775 67.155ZM76.7462 74.925L77.175 74.8633C77.42 74.74 77.91 74.555 78.155 74.555H78.7675L78.9513 75.1717L79.8087 77.4533L80.7887 79.92L81.2788 81.1533C81.2788 81.3383 81.4625 81.77 81.4013 81.8933C81.4013 82.0167 81.1562 82.3867 80.9725 82.6333L80.36 83.5583V83.1883L80.4212 82.8183C80.3577 82.6326 80.2529 82.4639 80.115 82.325L79.5025 81.955C79.3187 81.77 79.2575 81.77 79.135 81.3383L78.645 79.18L78.0325 76.7133C78.0325 76.3433 77.91 75.9117 77.7875 75.7267C77.6038 75.5417 77.3587 75.295 77.175 75.2333H76.93H76.8075L76.7462 74.925ZM74.5413 75.11L75.1538 75.0483L75.95 74.8633C76.195 74.8633 76.44 74.925 76.5013 75.11L76.6237 75.9117L77.175 78.3783C77.175 78.625 77.7875 80.7217 77.7875 81.03L78.0325 82.2633V82.6333L77.4812 83.25L76.7462 84.1133V83.8667C76.8688 83.7433 77.0525 83.62 76.9912 83.435C76.9495 83.2043 76.8432 82.9904 76.685 82.8183L76.0725 82.4483C76.0113 82.2633 75.8888 82.14 75.8888 81.8317C75.7293 80.0447 75.5863 78.2563 75.46 76.4667C75.46 76.22 75.3988 75.9733 75.215 75.85C75.1064 75.6913 74.9586 75.5638 74.7862 75.48H74.5413V75.11ZM72.275 75.11H72.765L73.5612 75.0483C73.8675 75.0483 74.1737 75.11 74.1737 75.295L74.235 76.2817L74.4187 78.5017L74.6025 81.03L74.6637 82.51V82.88L74.0513 83.4967L73.3163 84.175C73.3163 84.175 73.3162 83.9283 73.4388 83.805C73.5612 83.7433 73.6225 83.5583 73.5612 83.435C73.3738 83.2132 73.169 83.007 72.9487 82.8183C72.8497 82.7455 72.7662 82.6533 72.703 82.5474C72.6399 82.4415 72.5985 82.324 72.5813 82.2017L72.7038 79.92L72.8875 77.4533C72.9487 76.96 73.01 76.3433 72.8875 76.22C72.8875 75.9733 72.7038 75.7267 72.5813 75.6033H72.275V75.11ZM70.0088 74.9867H71.6012C71.785 75.0483 71.9075 75.1717 71.9075 75.48L71.785 77.0833L71.54 79.735L71.4788 81.215L71.3562 82.2633L71.2337 82.88V83.0033L70.6212 83.3733C70.4987 83.435 70.4987 83.3117 70.4375 83.1883L70.0088 83.0033C69.7627 82.8448 69.5538 82.6344 69.3962 82.3867C69.2738 82.2017 69.2125 82.0167 69.2738 81.6467L69.7638 79.6733L70.2538 77.5767L70.4987 76.2817C70.4987 76.035 70.4375 75.7883 70.315 75.665L70.07 75.48H69.8862L70.0088 74.9867ZM67.7425 74.6167H68.845C69.1512 74.74 69.4575 74.8017 69.5188 74.925C69.5188 75.0483 69.6413 75.1717 69.5188 75.48C69.1158 77.1208 68.7278 78.7653 68.355 80.4133C68.2328 81.1272 68.0483 81.8288 67.8037 82.51L67.4362 82.7567L67.2525 82.8183C67.2525 82.8183 67.375 82.6333 67.3138 82.5717C67.291 82.5056 67.2502 82.4474 67.196 82.4038C67.1418 82.3601 67.0765 82.3328 67.0075 82.325C66.8237 82.325 66.64 82.4483 66.5175 82.3867C66.395 82.3867 66.2113 82.2633 66.0888 81.955C65.905 81.585 65.905 81.5233 65.9663 81.2767C66.5217 79.7699 67.0934 78.2692 67.6813 76.775L68.0487 75.7883C68.0153 75.6038 67.9303 75.4327 67.8037 75.295L67.62 75.1717H67.4975L67.7425 74.555V74.6167ZM65.4762 74L65.905 74.0617L66.64 74.1233C66.885 74.185 67.2525 74.4317 67.2525 74.555C67.3137 74.6783 67.2525 74.925 67.0687 75.295L66.0275 77.8233C65.5501 79.0124 65.0806 80.2047 64.6188 81.4L64.435 81.77L64.0675 81.8933C64.0675 81.8933 64.19 81.77 64.0675 81.6467C64.0675 81.585 63.8225 81.3383 63.7 81.3383L63.3325 81.4H62.8425C62.7251 81.1812 62.6228 80.9546 62.5363 80.7217C62.5363 80.5983 62.475 80.475 62.5363 80.29C63.188 79.0531 63.8826 77.8396 64.6188 76.6517L65.3538 75.4183C65.415 75.2333 65.4762 75.11 65.415 74.9867L65.2925 74.74H65.0475L65.4762 74ZM73.1325 46.25C84.28 46.25 91.875 53.1567 91.875 60.125C91.875 67.0317 84.3412 74.0617 73.1937 74.0617C62.1075 74.0617 54.5125 67.0317 54.5125 60.125C54.5125 53.1567 62.1075 46.1267 73.1937 46.1267L73.1325 46.25ZM80.605 59.385C83.3 57.8433 83.8512 56.3017 83.6675 54.5133C83.2387 51.3067 78.8288 48.9633 73.01 49.025C65.9662 49.1483 61.74 52.725 61.74 53.5883C61.74 54.5133 63.1488 54.8217 63.1488 55.2533V64.9967C63.1488 65.6133 61.8013 66.2917 61.8013 66.97C61.8013 67.6483 66.3337 71.04 73.8063 70.9783C80.4212 70.9783 84.2188 68.2033 84.2188 64.8117C84.2188 63.0233 83.2387 60.6183 80.605 59.4467V59.385ZM73.6225 69.375H73.4388C71.1113 69.375 68.5387 68.6967 68.5387 64.935C68.5387 61.235 71.05 60.4333 73.5 60.4333C75.8275 60.4333 78.3388 61.2967 78.3388 64.935C78.3388 68.265 76.0113 69.375 73.6225 69.375ZM73.1325 50.7517C75.7663 50.7517 77.5425 51.8617 77.5425 54.8217C77.5425 57.905 75.705 58.9533 73.1325 58.9533C70.6825 58.9533 68.6612 58.09 68.6612 54.8217C68.6612 51.985 70.6825 50.8133 73.1325 50.7517Z" fill="#8690B1"/>
</g>
<defs>
<clipPath id="clip0_178_25">
<rect width="147" height="148" fill="white"/>
</clipPath>
</defs>
</svg>
