<svg width="148" height="148" viewBox="0 0 148 148" fill="none" xmlns="http://www.w3.org/2000/svg">
<g clip-path="url(#clip0_178_29)">
<path d="M74 0C33.1335 0 0 33.1335 0 74C0 114.866 33.1335 148 74 148C114.866 148 148 114.866 148 74C148 33.1335 114.866 0 74 0ZM143.19 74C143.19 112.209 112.215 143.19 74 143.19C35.7852 143.19 4.81 112.209 4.81 74C4.81 35.7913 35.7913 4.81 74 4.81C112.209 4.81 143.19 35.7913 143.19 74Z" fill="#8690B1"/>
<path d="M74.0003 30.1488V32.5538C84.9874 32.5669 95.5209 36.9368 103.291 44.7053C111.06 52.4738 115.432 63.0067 115.446 73.9938H117.851C117.85 62.3659 113.23 51.2147 105.008 42.9925C96.7856 34.7703 85.6344 30.1504 74.0064 30.1488H74.0003ZM74.0003 115.446C63.0131 115.431 52.4803 111.06 44.7118 103.29C36.9433 95.5206 32.5733 84.9871 32.5603 74H30.1553C30.1569 85.6279 34.7768 96.7791 42.999 105.001C51.2212 113.223 62.3724 117.843 74.0003 117.845V115.44V115.446Z" fill="#8690B1"/>
<path d="M109.434 42.772C110.439 43.845 111.888 45.5716 112.702 46.62L127.669 37.185C126.752 36.0003 125.808 34.8365 124.838 33.6946L115.36 39.923L114.712 40.478L115.193 39.775L119.381 31.4746L116.421 28.5393L108.059 32.6956L107.356 33.1705L107.917 32.5291L114.188 23.1188C113.04 22.1485 111.868 21.2067 110.673 20.2945L101.17 35.1561C102.373 36.0688 103.964 37.4193 104.975 38.3381L113.917 33.7316L114.497 33.3123L114.071 33.8796L109.434 42.772ZM75.4616 23.9451L79.5501 14.8493L79.8091 14.0415L79.7351 14.8801L80.1668 27.0408C81.6036 27.1765 83.0836 27.3738 84.5451 27.6143L83.8791 9.60764C81.8499 9.38327 79.8138 9.22696 77.7741 9.13898L73.7411 19.0673L73.5931 19.8073L73.4513 19.0673L69.4244 9.13898C67.3895 9.22531 65.3544 9.38564 63.3194 9.60764L62.6473 27.6143C64.1088 27.3738 65.595 27.1826 67.0256 27.0408L67.4573 14.8801L67.3833 14.0415L67.6423 14.8431L71.7369 23.9451H75.4616ZM42.3774 38.3011C44.7393 35.8283 46.0774 32.9731 43.7156 30.2413C42.4268 28.7613 40.2684 28.4345 38.4739 29.1683L38.3013 29.2361L38.3568 29.082C38.5804 28.2681 38.558 27.4063 38.2924 26.6051C38.0268 25.804 37.5299 25.0994 36.8644 24.5803C36.4005 24.2184 35.8698 23.9516 35.3026 23.795C34.7355 23.6384 34.143 23.5951 33.5591 23.6676C31.3391 23.8896 29.6248 25.3943 24.9751 30.5496C23.5753 32.1036 21.5279 34.558 20.3008 36.1428L33.0781 48.1801C37.3146 43.5243 39.0413 41.7915 42.3774 38.3011ZM25.7089 35.3596C28.2804 32.2331 31.0123 29.3965 32.2518 28.268C32.6253 27.8867 33.0839 27.5993 33.5899 27.4293C34.4286 27.2011 35.2919 27.787 35.4893 28.6441C35.6804 29.5075 35.1378 30.3215 34.5334 30.9875C33.1768 32.5168 28.1818 37.703 28.1818 37.703L25.7089 35.3596ZM30.7101 40.071C30.7101 40.071 35.5694 34.9711 37.1543 33.337C37.7894 32.6895 38.1903 32.2948 38.6281 32.0851C39.1831 31.8138 39.7998 31.7583 40.3486 32.1221C40.6055 32.2886 40.8052 32.5297 40.921 32.813C41.0367 33.0963 41.063 33.4083 40.9961 33.707C40.8358 34.4408 40.2376 35.1315 39.7443 35.6618L33.3001 42.5068L30.7101 40.071Z" fill="#8690B1"/>
<path d="M74.0003 30.1488V73.9938H30.1553C30.1545 68.2361 31.288 62.5346 33.4912 57.215C35.6945 51.8955 38.9241 47.0621 42.9957 42.9911C47.0674 38.92 51.9012 35.691 57.221 33.4886C62.5409 31.2861 68.2425 30.1472 74.0003 30.1488ZM117.851 74C117.854 79.7593 116.721 85.4626 114.518 90.784C112.316 96.1053 109.086 100.94 105.013 105.013C100.941 109.085 96.1056 112.315 90.7843 114.518C85.4629 116.721 79.7596 117.854 74.0003 117.851V74H117.851Z" fill="#8690B1"/>
</g>
<defs>
<clipPath id="clip0_178_29">
<rect width="148" height="148" fill="white"/>
</clipPath>
</defs>
</svg>
