<svg width="148" height="148" viewBox="0 0 148 148" fill="none" xmlns="http://www.w3.org/2000/svg">
<path d="M74 41.8655C55.0868 41.8655 9.44117 81.0609 3.7185 86.0374C3.47284 86.288 3.17225 86.4782 2.84047 86.5927C2.50869 86.7072 2.15482 86.743 1.80683 86.6972C0.376167 86.5369 0.333 84.3539 0.333 84.3539C0.333 84.3539 0 79.365 0 74.3577C0 68.0369 4.93333 62.5115 4.93333 62.5115C4.93333 62.5115 56.0858 6.16669 74 6.16669C91.908 6.16669 143.067 62.5177 143.067 62.5177C143.067 62.5177 148 68.043 148 74.3577C148 79.3712 147.661 84.3477 147.661 84.3477C147.661 84.3477 147.618 86.5369 146.193 86.6972C145.845 86.743 145.491 86.7072 145.16 86.5927C144.828 86.4782 144.527 86.288 144.281 86.0374C138.553 81.0609 92.9132 41.8655 74 41.8655ZM74 93.7087C55.0868 93.7087 9.44117 132.904 3.7185 137.887C3.47284 138.137 3.17225 138.327 2.84047 138.442C2.50869 138.557 2.15482 138.592 1.80683 138.547C0.376167 138.38 0.333 136.203 0.333 136.203C0.333 136.203 0 131.221 0 126.213C0 119.892 4.93333 114.367 4.93333 114.367C4.93333 114.367 56.0858 58.016 74 58.016C91.908 58.016 143.067 114.367 143.067 114.367C143.067 114.367 148 119.892 148 126.207C148 131.221 147.661 136.197 147.661 136.197C147.661 136.197 147.618 138.38 146.193 138.54C145.846 138.587 145.492 138.552 145.16 138.439C144.829 138.325 144.528 138.136 144.281 137.887C138.553 132.904 92.9132 93.7087 74 93.7087Z" fill="#8690B1"/>
</svg>
