<svg width="148" height="148" viewBox="0 0 148 148" fill="none" xmlns="http://www.w3.org/2000/svg">
<path d="M117.109 42.2669L93.096 54.1561L107.733 59.8398C110.748 60.9997 114.335 62.496 115.654 66.1034C116.972 69.7108 115.012 73.0629 113.258 75.9048L105.235 88.5712C95.7514 103.596 86.2607 118.609 76.7624 133.611V119.692C80.3997 108.093 83.9377 96.4935 87.3764 84.8942C88.3469 81.5845 89.3097 78.2749 90.2649 74.9652C90.838 72.9701 90.4712 71.7754 88.5685 70.8243L73.9656 63.5515L59.4201 70.8127C57.5173 71.7638 57.1276 72.9586 57.7237 74.9536C58.6712 78.271 59.634 81.5807 60.6121 84.8826C64.0355 96.5283 67.5735 108.128 71.2261 119.68V133.6C61.7125 118.598 52.2218 103.584 42.754 88.5596L34.7305 75.8932C32.9653 73.0977 30.9823 69.792 32.3349 66.0918C33.6874 62.3916 37.2407 60.9997 40.2553 59.8282L54.8925 54.1445L30.8792 42.2553L38.364 54.9565L25.9848 59.7702C17.3118 46.0289 8.65014 32.2722 0 18.5C24.6437 27.3386 49.2875 36.2585 74 44.8071C98.7469 36.2585 123.356 27.3502 148 18.5C139.365 32.2567 130.707 45.998 122.027 59.7238L109.647 54.9101L117.132 42.2089" fill="#8690B1"/>
</svg>
