<svg width="147" height="148" viewBox="0 0 147 148" fill="none" xmlns="http://www.w3.org/2000/svg">
<path d="M132.165 96.3542C132.483 96.6748 133.611 97.6492 133.77 99.0983C133.77 100.714 132.484 101.842 131.687 102.49L73.414 148V146.224C73.414 145.256 73.5733 144.448 73.7325 143.64C73.9505 142.608 74.4512 141.657 75.178 140.896C78.3875 137.671 88.1814 127.823 90.4293 125.405C95.7213 119.917 100.86 113.3 103.267 107.164C104.229 104.42 104.872 101.842 104.872 99.0983C104.872 96.0335 104.388 92.9625 103.267 89.7373C98.1284 74.0802 78.8714 55.8453 74.7003 51.8123C74.3756 51.6458 73.7325 50.838 73.414 49.8698C73.0894 51.1648 72.1278 51.9665 71.4846 52.4537L13.2236 97.9637V0L71.4846 45.51C72.1278 46.0033 73.0894 46.9653 73.414 48.1C73.7325 46.805 74.7003 46.0033 75.3373 45.51L133.611 0.1665V1.9425C133.611 2.59 133.451 3.55817 133.286 4.52633C133.102 5.56966 132.598 6.52903 131.846 7.2705C128.631 10.6622 118.843 20.3438 116.595 22.7612C111.297 28.2495 106.164 34.8663 103.757 41.0022C102.79 43.7463 102.153 46.324 102.153 49.0682C102.153 52.1392 102.63 55.204 103.757 58.4292C108.89 74.0925 127.994 92.3273 132.165 96.3542ZM100.382 57.7817C99.4208 54.8772 98.7776 51.8062 98.7776 48.9017C98.7776 46.1575 99.58 43.5798 100.548 40.8357C105.203 29.3718 127.192 9.84817 131.681 6.13583C127.994 9.03417 111.775 22.9153 107.61 27.2752C100.707 34.0585 95.4089 41.6435 95.4089 49.062C95.4089 57.1342 101.026 65.3667 107.445 72.9517C111.456 77.7925 115.309 81.992 119.162 85.3775C123.174 89.0898 125.905 91.5133 128.796 93.7703C125.587 90.7055 105.681 72.9517 100.382 57.7817ZM99.4208 75.2087C95.4089 70.3678 91.5563 66.1745 87.7036 62.7828C83.6918 59.0705 80.6415 56.3263 77.7505 54.0693C81.1193 56.9677 101.185 75.2087 106.324 90.2183C107.285 93.1228 107.928 96.1938 107.928 99.0983C107.928 101.842 107.126 104.42 106.164 107.164C101.35 118.628 79.5206 138.152 74.8656 141.864V142.031C78.7183 139.126 94.925 125.245 99.1023 120.885C106.005 114.102 111.297 106.517 111.297 99.0983C111.297 91.0262 105.681 82.7937 99.4208 75.2087ZM52.2338 48.9017C52.2338 40.996 46.7764 32.7635 39.555 25.345C34.9 20.6583 30.245 16.465 25.9085 13.0733C21.4128 9.361 17.8848 6.9375 14.6753 4.6805C18.3686 7.585 40.9944 25.1785 46.9356 40.1882C48.0565 43.0927 48.6996 45.9972 48.6996 48.9017C48.6996 51.8062 48.0565 54.7107 46.9356 57.6213C40.9944 72.631 18.3748 90.2183 14.6753 93.1167C17.8848 90.8597 21.4128 88.4362 25.9085 84.73C30.245 81.3383 34.9 77.145 39.555 72.4583C46.7764 65.0337 52.2338 56.9677 52.2338 48.9017Z" fill="#8690B1"/>
</svg>
