<svg width="148" height="148" viewBox="0 0 148 148" fill="none" xmlns="http://www.w3.org/2000/svg">
<path d="M70.9849 3.64027C71.5332 3.90456 71.7385 4.10277 72.2867 4.23492C72.7665 4.36706 73.4516 4.69742 73.5885 4.30099C73.7945 3.90456 73.5201 3.37599 73.1778 2.91349C72.6296 2.05456 72.3552 1.85634 71.6016 0.667059C71.4647 0.402775 71.3278 0.138489 71.0534 0.138489C71.0534 0.138489 70.9849 0.99742 70.7111 1.52599C70.5052 1.98849 69.957 2.31884 70.0254 2.6492C70.0945 2.97956 70.4367 3.37599 70.9849 3.64027Z" fill="#8690B1"/>
<path d="M128.266 60.2632C127.649 61.056 127.375 62.6416 126.484 63.9631C125.251 65.8131 123.47 68.0596 122.579 68.0596C122.099 68.0596 121.962 67.0027 121.962 67.0027C121.962 67.0027 121.345 65.2187 122.373 62.9721C123.127 61.3864 123.538 60.9239 124.497 59.7346C125.388 58.6114 125.936 58.0168 126.553 56.8275C127.101 55.7703 127.238 55.5721 127.58 53.9203C127.649 53.5239 127.512 52.665 127.101 52.7311C126.553 52.7311 125.045 55.9025 123.47 57.6864C121.962 59.3382 119.153 61.4525 119.153 61.4525C119.153 61.4525 118.879 61.6507 118.879 61.1221C118.81 60.6596 118.742 59.2721 119.016 58.0168C119.29 56.7614 119.701 55.5061 120.866 53.59C122.167 51.4096 123.812 49.89 124.634 49.0971C124.977 48.7668 126.005 48.1721 125.457 47.8418C124.977 47.5775 123.538 48.7668 122.442 49.5596C121.072 50.5507 120.592 50.815 119.222 52.4007C117.851 53.9864 117.508 54.6471 117.508 54.6471C117.508 54.6471 116.207 56.6953 115.864 58.6775C115.522 60.6596 115.522 61.7826 115.522 61.7826C115.522 61.7826 115.522 63.5666 115.727 64.6242C115.864 65.7471 116.344 67.4652 116.344 67.4652C116.344 67.4652 117.029 69.3811 117.303 70.5701C117.577 71.7596 118.057 75.2617 118.057 75.2617C118.057 75.2617 118.399 77.7721 118.194 80.1506C117.988 82.5291 117.782 83.9166 117.508 84.6436C117.234 85.3701 116.48 87.2867 115.247 88.6076C114.082 89.8631 113.808 90.0617 113.808 90.0617C113.808 90.0617 112.575 91.0527 111.547 91.5811C110.52 92.1096 109.012 92.7701 108.327 92.9687C107.642 93.1006 106.682 93.1666 106.614 93.1666H105.723L105.449 92.9687L105.312 92.4402C105.312 92.4402 104.627 89.8631 103.805 88.2117C103.12 86.8242 101.68 84.9076 101.68 84.9076C101.68 84.9076 99.2138 81.6701 97.2954 79.8867C95.1031 77.7721 92.6365 76.1867 91.1287 75.0631C90.5805 74.6666 89.3472 73.9402 89.3472 73.9402C89.3472 73.9402 84.3454 69.1166 82.5638 65.2846C81.3305 62.6416 80.5085 60.7257 80.8507 57.8186C80.9198 57.1578 81.1936 55.9025 81.3305 55.9025L82.2216 56.1668C82.29 56.2328 83.112 56.9596 83.8656 57.2239C84.2769 57.3561 85.0305 57.4882 85.0305 57.4882C85.0305 57.4882 85.6471 57.5543 85.99 57.6203C86.3323 57.7525 86.9489 57.9507 87.3603 58.1489C87.7716 58.3471 88.3882 58.7436 88.3882 58.7436L89.5531 59.6025L90.7865 60.5275C90.7865 60.5275 91.4716 60.99 91.6769 61.0561C91.8823 61.1221 92.0198 61.1882 92.0882 61.1882H92.362C92.362 61.1882 92.6365 61.1221 92.7049 60.8578C92.7734 60.5275 92.362 60.7918 91.7454 60.1311C91.0602 59.5364 90.7865 59.0078 90.7865 59.0078C90.7865 59.0078 90.6489 58.4793 90.1007 57.8846C89.5531 57.29 88.8674 56.7614 88.8674 56.7614C88.8674 56.7614 88.3882 56.4311 87.7031 56.2328C87.0174 56.0346 86.812 56.0346 86.7436 55.7703C86.6751 55.5061 87.5656 55.6382 87.5656 55.6382C87.5656 55.6382 88.5936 55.7703 89.4156 56.1668C90.2382 56.5632 90.7174 57.0257 90.7174 57.0257L91.2656 57.4882L91.6085 57.8186L91.9507 58.0168C91.9507 58.0168 92.2936 58.3471 92.362 57.8846C92.4305 57.4882 92.2936 57.1578 92.2251 57.0918L91.8823 56.7614L90.512 55.6382C90.1007 55.2418 89.8269 54.9775 89.4156 54.7132C89.0049 54.4489 88.3882 54.0525 87.634 53.7882C86.9489 53.5239 86.5382 53.59 85.8531 53.2596C85.3734 53.0614 84.962 52.9293 84.6882 52.5328C84.6198 52.4668 84.2769 52.2025 84.8936 52.3346C85.5103 52.4668 85.9216 52.665 86.6067 52.7971C87.7031 53.0614 88.3882 53.0614 89.4156 53.3918C89.8269 53.5239 90.3751 53.7882 90.3751 53.7882L91.6769 54.3168C91.6769 54.3168 93.4585 55.2418 94.6918 55.3078C95.9251 55.3739 96.9531 55.1096 97.3638 54.9114C97.7751 54.7793 98.5287 54.3168 98.7341 54.1186C98.94 53.9203 99.0769 53.7221 99.0769 53.7221L99.2138 53.3918V53.1275C98.8716 52.7311 98.1864 53.7882 97.09 53.9864C95.9251 54.1846 95.9936 54.3168 95.24 54.1846C94.4174 54.0525 93.9382 53.8543 93.3216 53.2596C92.2251 52.2685 91.8138 51.3436 90.3751 50.7489C89.7585 50.4846 88.662 50.2203 88.662 50.2203C88.662 50.2203 87.1549 49.7578 86.3323 49.2953C85.7156 48.965 84.4138 48.7668 84.8251 48.2382C85.0305 47.9739 86.6751 48.8989 87.9085 49.031C88.7989 49.1632 89.4156 49.0971 90.1007 49.0971C90.7865 49.0971 91.7454 48.8989 91.8823 48.8989C92.0198 48.8328 92.5674 48.8989 93.0471 49.031C93.5269 49.1632 93.8007 49.3614 94.2805 49.5596C94.7603 49.7578 95.3085 50.0882 95.4454 50.0882L95.7198 50.1543L95.8567 50.0221L95.9251 49.89L95.8567 49.7578L95.6507 49.6257L95.24 49.3614C95.24 49.3614 94.6233 49.0311 94.0751 48.5025C93.5269 47.9739 93.0471 47.3793 92.2251 47.115C91.4031 46.8507 90.4436 46.7185 90.4436 46.7185L89.484 46.6525L89.0733 46.5864C89.0733 46.5864 88.3882 46.3882 88.9364 46.2561C89.484 46.1239 89.7585 46.0578 89.8954 46.0578C89.9638 45.9918 90.9234 45.9257 91.4716 46.1239C92.0198 46.3221 92.9102 46.7846 92.9787 46.7846C93.0471 46.8507 93.8698 47.4453 94.7602 47.6435C95.6507 47.8418 96.8156 47.9078 96.8156 47.9078L97.3638 47.7757L97.6382 47.7096L97.8436 47.5775L97.7751 47.2471C97.7751 47.2471 97.7751 46.9828 97.3638 46.9168C96.9531 46.8507 96.1305 46.7186 95.3769 46.19C94.6234 45.6614 94.0751 45.1328 94.0751 45.1328C94.0751 45.1328 93.5269 44.6703 92.4305 44.406C91.4031 44.1418 91.0602 44.1418 91.0602 44.1418L90.7174 44.0096L89.9638 43.6793C89.9638 43.6793 89.6216 43.4811 89.3472 43.1507C89.0733 42.8203 88.662 42.2257 89.8269 42.5561C90.9918 42.8864 91.2656 43.0846 91.2656 43.0846C91.2656 43.0846 91.8823 43.6793 92.4305 43.7453C92.7733 43.8114 93.0471 43.8775 93.2531 43.6132C93.5954 43.2828 92.6365 42.8864 91.9507 42.4239C91.4031 42.0935 90.8549 41.2346 90.8549 41.2346C90.8549 41.2346 90.4436 40.9043 91.0602 41.0364C91.6769 41.1685 92.7734 41.8293 92.7734 41.8293C92.7734 41.8293 93.3216 42.0935 93.5954 42.1596C93.8007 42.2257 94.3489 42.556 94.6234 42.6882C94.8287 42.7543 95.4454 42.8864 95.8567 43.0846C96.4049 43.415 96.6787 43.9436 96.9531 44.1418C97.2269 44.34 97.4323 44.6703 97.7751 44.7364C98.1174 44.8025 98.1865 44.9346 98.3918 44.8025C98.5972 44.6703 98.6656 44.6043 98.6656 44.6043C98.6656 44.6043 98.7341 44.4721 98.3918 44.2739C98.0489 44.0757 97.6382 43.5471 97.6382 43.5471L97.5007 43.2828L97.4323 43.0185L97.09 42.49L96.4734 41.631C96.4734 41.631 95.5138 40.3757 94.6234 39.9132C93.8007 39.4507 93.1841 39.1864 93.1841 39.1864C93.1841 39.1864 92.7733 38.9882 92.5674 38.856C92.2251 38.5918 92.0882 38.3935 91.8138 38.0632C91.4716 37.6668 91.3341 37.4025 90.9233 37.006C90.1698 36.2793 87.84 35.8828 88.7305 35.3543C89.2103 35.09 89.8269 35.2221 90.1007 35.2882C90.3751 35.3543 90.9918 35.6185 91.6085 35.8168C92.0198 35.9489 92.2936 35.9489 92.7049 36.081C93.1156 36.2132 93.5954 36.2793 93.8007 36.4114C94.0067 36.5435 94.212 36.8078 94.3489 36.8739C94.4174 36.94 94.9656 37.7989 95.9251 38.2614C96.884 38.7239 97.3638 39.0543 98.3233 39.1203C99.0769 39.1864 100.31 38.9221 100.31 38.9221C100.31 38.9221 100.653 38.79 100.379 38.4596C100.036 38.1293 100.036 38.0632 99.762 37.9971C98.6656 37.6007 97.7751 37.7328 96.9531 36.94C96.6103 36.6096 96.4734 36.5435 96.1989 36.015C95.9251 35.4864 96.062 35.3543 95.8567 35.0239C95.7198 34.6935 95.3769 34.231 95.3769 34.231C95.3769 34.231 94.3489 33.0418 93.2531 32.4471C92.0882 31.8525 91.2656 31.2578 91.1287 31.1257C90.9234 30.9935 90.512 30.465 90.512 30.465L90.1698 29.9364L89.9638 29.54C89.8269 28.8132 91.1972 29.7382 91.9507 30.0025C93.1841 30.3989 93.8007 30.9275 95.034 31.3239C95.7198 31.5221 96.1305 31.5221 96.8156 31.7864C97.9805 32.2489 98.3233 33.3721 99.5567 33.5043C100.242 33.5703 101.612 33.8346 101.338 33.24C101.064 32.5793 99.6936 32.5793 99.0085 31.7864C98.6656 31.456 98.6656 31.1257 98.3233 30.7953C97.7751 30.1346 96.4734 29.54 96.4734 29.54C96.4734 29.54 96.062 29.2096 95.5823 28.2846C95.1716 27.3596 94.1436 26.6989 92.2936 25.84C91.0602 25.2453 88.5936 25.1132 89.5531 24.5185C90.1007 24.1221 90.5805 24.1882 91.334 24.3864C92.0882 24.6507 92.362 24.981 92.9787 25.2453C93.5954 25.5096 93.8698 25.5757 94.0067 25.6418C94.1436 25.7078 94.6234 25.906 94.8287 25.906C94.9656 25.9721 95.9936 26.1043 96.2674 26.1703L97.6382 26.5007L98.7341 26.8971C98.7341 26.8971 99.2823 27.0953 99.6251 27.0953C99.9674 27.0953 100.516 26.9632 100.516 26.9632L100.927 26.6989L100.995 26.5668C100.995 26.5668 101.201 26.2364 100.653 26.1703C100.173 26.1043 99.8989 26.1043 99.8305 26.1043L99.3507 25.9721L99.1454 25.906C99.1454 25.906 98.1864 25.1793 97.3638 24.8489C96.4734 24.5185 96.3364 24.4525 96.3364 24.4525L95.9936 24.3864L95.5823 24.3203C95.5823 24.3203 95.24 24.3203 94.6918 23.8578C94.1436 23.3953 93.9382 23.131 93.4585 22.6685L92.8418 22.0739C92.8418 22.0739 92.2936 21.6775 92.2936 21.3471C92.362 20.8185 93.5269 21.9418 93.5269 21.9418L94.3489 22.4703C94.3489 22.4703 95.034 22.9328 96.2674 22.9989C97.5007 23.065 99.0085 22.6685 99.0085 22.6685C99.0085 22.6685 99.2138 22.5364 99.8989 22.7346C100.584 22.9328 101.132 23.3293 101.132 23.3293L101.68 23.7918L102.503 24.6507L102.64 24.5846C102.708 24.5185 103.051 24.1882 102.434 23.4614C101.817 22.7346 100.79 22.0739 100.79 22.0739C100.79 22.0739 99.4198 21.281 98.0489 21.0168C96.6787 20.7525 96.062 20.7525 96.062 20.7525C96.062 20.7525 95.034 20.7525 94.4174 20.0918C93.8007 19.431 93.39 18.7703 93.39 18.7703L93.1841 17.8453C93.1841 17.8453 92.8418 17.4489 92.1567 17.1846C91.54 16.9203 90.8549 16.5239 90.8549 16.5239C90.8549 16.5239 89.8269 16.1935 89.7585 15.731C89.5531 14.8721 91.4716 15.731 92.4989 15.9293C93.4585 16.1275 93.8698 16.4578 94.8287 16.656C95.6507 16.8543 96.1305 16.9203 97.0216 16.8543C97.5007 16.8543 97.7751 16.7882 98.2549 16.7221C98.734 16.7221 99.0769 16.656 99.5567 16.7221C100.242 16.8543 100.516 17.1846 101.201 17.4489C101.612 17.6471 101.817 17.8453 102.297 17.9114C102.708 17.9775 103.53 18.2418 103.394 17.8453L103.188 17.581C102.845 17.1185 102.434 17.1185 102.023 16.7882C101.132 16.1275 100.722 15.5989 99.6936 15.1364C99.0085 14.806 98.5972 14.6739 97.8436 14.5418C97.2954 14.4757 96.884 14.6078 96.3364 14.4757C95.7198 14.2775 95.5138 14.0132 94.8971 13.6828C93.9382 13.1543 93.39 12.6918 92.362 12.2953C91.6769 12.031 90.512 11.7668 90.512 11.7668L90.0323 11.7007L89.8269 11.6346C88.8674 11.3043 91.54 10.5775 92.7734 10.2471C93.39 10.115 93.6638 9.98283 94.2805 10.0489C94.8287 10.115 95.4454 10.8418 96.062 10.5114C96.9531 10.0489 95.034 8.79352 94.4174 8.59533C93.5954 8.26498 92.1567 8.52928 92.1567 8.52928L89.0049 8.46318L88.1138 8.33102C88.1138 8.33102 87.5656 8.33102 87.1549 7.86852C86.7436 7.40602 85.1674 5.55605 83.3865 5.29176C81.5365 5.02748 80.9882 5.29176 80.8507 5.15962C79.2751 2.78105 77.6305 2.25248 76.3971 1.12926C76.0549 0.798908 75.5067 0.0721204 75.3698 0.138192C75.2323 0.204263 75.0269 1.19533 74.6841 2.05426C74.2733 3.04533 74.5471 3.50783 74.7531 3.90426C75.0269 4.30069 75.3698 4.56498 74.6841 4.96141C73.9989 5.35783 73.1085 5.22569 73.1085 5.22569C73.1085 5.22569 72.3549 5.09355 71.7382 4.76319C71.1216 4.49891 69.8198 3.97033 69.8198 3.97033C69.8198 3.97033 68.5865 3.63998 67.7638 3.70605C66.9418 3.77212 66.8734 3.83819 66.2567 3.90426C65.9138 3.90426 65.7769 3.90426 65.4341 3.97033C65.1603 4.03641 64.8174 3.83819 64.8174 4.16855C64.8174 4.49891 65.5031 4.49891 65.9823 4.69712C66.462 4.89533 67.5585 4.89533 67.3531 5.15962C67.0787 5.42391 66.0507 5.48998 65.9823 5.42391C65.9138 5.42391 65.2287 5.29176 64.6805 5.29176C63.79 5.35783 63.7216 5.35783 62.4198 5.95248C62.2138 6.01855 62.2823 6.48102 62.6936 6.34893C63.1734 6.21678 63.8585 6.08462 64.612 6.08462C65.4341 6.08462 65.9138 6.34893 66.7365 6.54713C67.4216 6.74533 67.49 6.87748 68.5174 7.00963C68.7234 7.00963 69.1341 6.87748 69.1341 7.14178C69.1341 7.27393 68.8603 7.47213 68.8603 7.47213C68.8603 7.47213 68.2436 7.60428 68.312 7.80248C68.4489 8.06678 68.9972 7.80248 69.2716 7.80248C69.5454 7.80248 69.9567 7.86852 69.8882 8.13283L69.7507 8.33102C68.9972 8.52928 68.5865 8.66143 67.9007 8.92568C66.1882 9.58643 65.5031 10.3793 63.8585 11.1721C62.2823 11.8989 59.7473 12.8239 59.7473 12.8239C59.7473 12.8239 58.9936 13.2203 57.8973 13.4846C56.801 13.7489 56.7325 13.6828 55.9788 13.815C55.2251 13.881 54.8825 14.0132 54.2658 14.3435C53.8547 14.5418 53.6491 14.74 53.3066 15.0703L52.3473 16.4578L51.7991 17.2507C51.6621 17.515 51.5251 17.6471 51.4566 17.9114C51.3195 18.2418 51.251 18.3739 51.1825 18.7043C50.9769 19.4971 51.1825 19.9596 51.3195 20.7525C51.3881 20.9507 51.3881 21.0828 51.4566 21.281C51.5251 21.4793 51.7991 21.6775 51.7991 21.6775L52.0732 21.7435C52.0732 21.7435 53.0325 21.6775 53.6491 21.5453C54.2658 21.4132 55.1566 21.215 55.1566 21.215L56.3214 20.8846L57.0751 20.6203C57.0751 20.6203 57.5547 20.6203 57.6232 20.8846C57.6917 21.0828 57.4862 21.4132 57.4862 21.4132C57.4862 21.4132 57.0751 21.6114 56.7325 21.7435C56.3899 21.8757 55.5676 22.0739 55.4991 22.14L54.6084 22.4043L53.8547 22.4703C53.8547 22.4703 53.7176 22.5364 53.5806 22.7346C53.4436 22.9328 53.4436 22.9328 53.4436 23.065C53.5806 23.1971 53.6491 23.3293 53.7862 23.4614C54.0603 23.6596 54.1973 23.7918 54.5399 23.8578C55.0195 24.056 55.2936 23.99 55.7732 23.99C56.4584 23.99 56.8695 23.8578 57.4862 23.5935C58.0343 23.2632 58.2399 23.2632 58.9936 22.9989C59.1991 22.9328 59.6103 22.8668 59.7473 22.8668C61.0491 22.7346 61.8031 22.9328 63.1049 23.131C64.4067 23.3293 65.0234 23.7257 66.3251 23.9239C67.6954 24.1221 68.5174 24.5185 69.9567 24.1882C70.6418 24.056 71.0531 23.7257 71.3954 24.3864C71.7382 24.981 71.6698 25.3114 71.6698 25.3114C71.6698 25.3114 71.6698 25.7078 71.19 26.9632C70.7103 28.2185 69.2031 31.3239 69.2031 31.3239L68.1751 33.306C68.1751 33.306 67.3531 34.8918 65.4341 36.94C63.5156 38.9882 63.3787 39.1203 63.3787 39.1203C63.3787 39.1203 62.3507 39.8471 61.3232 41.1025C60.2954 42.3578 60.2954 42.8203 59.3362 43.7453C58.7195 44.34 58.3769 44.6703 57.6232 45.1328C56.8695 45.5953 55.9788 45.4632 53.5806 47.0489C51.5251 48.4364 50.4288 49.5596 50.2917 49.4936C50.1547 49.4275 49.4695 48.8989 49.1954 48.7668C48.9899 48.6346 45.0158 46.0578 45.0158 46.0578L43.3714 45.0007L42.6176 44.5382L42.4806 44.2739L42.0695 43.7453C42.0695 43.7453 41.4529 43.0185 40.6991 42.4239C39.9454 41.7632 39.1232 41.2346 37.8899 40.9703C36.7251 40.64 35.9714 40.4418 34.8066 40.8382C34.0529 41.1025 33.6417 41.3668 33.0936 41.8953C32.4084 42.556 32.2714 43.0846 31.7232 43.8775C31.1751 44.6703 30.6269 45.3971 30.3529 45.7936C30.0788 46.19 29.5306 47.2471 29.5306 47.2471C29.5306 47.2471 28.1603 49.3614 27.4066 50.7489C26.5158 52.2686 26.1732 53.1935 25.351 54.6471C24.0491 56.9596 22.1991 59.3382 21.7195 60.3953C21.2399 61.4525 21.1714 61.5846 21.1714 61.5846C21.1714 61.5846 21.0343 62.1791 20.9658 62.5756C20.8973 62.9721 20.8973 63.6326 20.8288 63.8971C20.7603 64.2277 20.5547 64.5576 20.4862 64.6242C20.4176 64.6902 19.6639 66.2096 19.3899 67.2006C19.1158 68.1916 18.4991 71.2971 19.2529 71.6936C20.0066 72.0902 25.5566 69.7777 26.3103 67.5312C26.7899 66.0777 24.8029 65.3506 25.351 64.0291C25.5566 63.5666 25.6936 63.5006 26.0362 63.0381C26.5843 62.1791 26.3788 60.3953 27.4066 58.7436C28.1603 57.5543 29.6676 56.0346 31.7232 53.7882C33.0251 52.4007 34.2584 50.1543 34.2584 50.1543C34.2584 50.1543 34.5325 49.3614 35.0806 49.4936C35.6973 49.6257 36.2454 49.5596 36.2454 49.5596L36.5195 49.7578L37.0676 50.2864L37.8899 51.4757C37.8899 51.4757 39.2603 53.3918 39.7399 53.9203C40.2195 54.4489 40.6991 54.8453 41.3843 55.3739C42.1381 56.0346 42.4121 56.365 43.3714 57.0918C44.7417 58.1489 44.2621 58.5453 42.4806 57.6203C41.8639 57.29 40.9047 56.9596 40.151 56.7614C39.3288 56.5632 36.2454 55.7703 34.6695 55.5721C33.1621 55.3739 32.8881 55.44 32.8881 55.44C32.8881 55.44 32.1343 55.3739 31.2436 55.9025C30.3529 56.4311 29.8732 56.8275 29.8732 56.8275C29.8732 56.8275 28.8454 57.9507 28.7769 58.1489C28.7084 58.3471 28.2288 59.14 28.2288 59.14C28.2288 59.14 27.9547 59.5364 27.8862 59.9989C27.7491 60.4614 27.8176 60.9239 27.8176 60.9239L27.8862 61.9152L27.9547 62.8402C27.9547 62.8402 28.1603 65.1527 28.6399 67.4652C28.7769 68.1256 28.9139 69.1826 28.9139 69.1826L29.2566 71.5617C29.2566 71.5617 29.4621 74.0721 29.6676 74.9312C29.8732 75.7242 30.0103 75.7902 30.1473 76.3186C30.4214 77.3096 29.9417 77.7721 30.4214 78.9617C30.901 80.1506 31.3121 80.0186 31.7917 80.7451C32.1343 81.2742 32.2714 81.4062 32.5454 82.0666C32.8195 82.7277 33.7103 84.9076 34.7381 86.4937C35.8343 88.1451 37.2732 90.1936 38.2325 89.9951C39.1917 89.7971 39.8769 88.3437 39.8769 88.3437C39.8769 88.3437 40.9732 85.5027 40.2881 82.7277C39.6029 79.8867 36.451 81.2076 36.0399 79.1596C35.9714 78.6971 36.0399 77.9701 36.0399 77.9701C36.0399 77.9701 35.9714 77.1117 35.8343 76.8471C35.6973 76.5826 34.601 74.6006 34.1899 72.9492C33.8473 71.6936 33.9158 67.6631 33.6417 66.5402C32.8881 63.6326 32.8195 63.8971 33.2306 63.3686C33.7103 62.8402 34.1214 62.9721 34.1214 62.9721L34.7381 63.0381L35.2176 63.2367C35.2176 63.2367 35.7658 63.5666 36.1084 63.7652C36.3825 63.9631 37.3417 64.6902 37.3417 64.6902L39.6714 66.1436C39.6714 66.1436 40.9732 66.8701 41.5214 67.1346C42.0695 67.3992 42.5491 67.7291 42.5491 67.7291L43.1658 68.1256L44.1936 68.8527L44.3991 69.0506L44.5362 69.3152C44.5362 69.3152 45.0158 70.3721 47.0714 71.4951C48.7158 72.4201 50.1547 72.1562 50.7714 72.8826C50.9084 73.0152 52.0732 74.5346 52.6214 75.4596C53.3066 76.5166 54.1288 77.7721 54.4029 78.1686C54.6769 78.5652 56.3899 80.6131 56.3899 80.6131L58.651 82.9916L61.5973 85.6346L64.2698 87.8152L65.9823 89.1367C65.9823 89.1367 67.49 90.5242 69.2031 91.6471C70.8472 92.7041 70.9156 92.8367 72.012 93.5631C72.834 94.0916 73.9305 94.8186 75.0269 95.6117C76.1234 96.4701 77.3567 98.0562 76.8769 98.5846C76.5341 98.7826 75.9174 97.9242 74.7531 96.9326C73.7936 96.1402 73.3138 95.7437 72.3549 95.0826C71.1216 94.1576 70.5049 93.6951 69.1341 92.9027C68.4489 92.5061 67.2156 91.7791 67.1472 91.9117C66.6674 93.2992 66.7365 94.6201 66.8049 96.3381C66.8734 97.5277 67.0787 98.7166 67.49 100.237C67.8323 101.69 68.1751 102.483 68.7234 103.87C69.2716 105.258 70.2989 107.438 70.2989 107.438L71.8751 110.478L73.3138 112.79L74.0674 113.979L74.3418 114.376C74.3418 114.376 74.6841 115.169 74.3418 115.697C73.9989 116.226 73.5882 117.349 72.9716 117.415C72.3549 117.547 70.9156 117.613 70.9156 117.613L62.762 117.481L58.5139 117.151C58.5139 117.151 58.0343 116.887 55.5676 116.887C54.1288 116.887 52.9639 117.481 52.1417 117.547C51.4566 117.613 48.0991 117.349 45.8381 118.208C43.7139 119.067 42.7547 119.265 42.001 120.587C41.4529 121.578 44.6732 123.163 47.3454 123.758C51.6621 124.683 50.4288 122.899 52.0732 121.776C52.2788 121.644 52.3473 121.512 52.5529 121.445C53.6491 121.115 54.2658 121.974 55.3621 121.974C56.5954 121.974 57.2806 121.578 58.5139 121.379C64.7489 120.587 74.4787 123.428 74.4787 123.428C74.4787 123.428 76.8769 124.154 77.9734 123.956C79.2751 123.692 79.0007 123.229 79.412 122.503C79.7549 121.908 79.6174 121.776 79.6865 121.115C79.6865 120.719 79.6174 120.52 79.5489 120.124C79.2751 119.001 78.5216 117.415 78.5216 117.415C78.5216 117.415 77.9734 116.226 77.7674 115.631C77.4936 114.772 77.2198 114.244 77.0823 113.319C76.6716 110.874 76.74 111.072 76.74 109.685C76.74 107.174 77.0138 105.787 77.6989 103.342C78.7269 99.7742 80.6454 98.2541 82.084 94.8187C82.4954 93.8937 82.4954 92.5721 82.9751 92.4402C83.5234 92.3742 83.4549 94.0916 83.1805 95.0826C82.29 98.5187 80.0971 99.9721 79.0698 103.474C78.3156 106.183 77.9049 107.769 78.1103 110.544C78.1787 112.063 78.7954 114.442 78.7954 114.442C78.7954 114.442 79.6174 117.085 80.0287 118.076C80.44 119.067 81.262 120.719 81.262 120.719L83.112 123.89L84.0716 125.41C84.0716 125.41 84.7567 126.004 84.4138 126.995C84.0716 127.987 83.3864 128.581 82.5638 129.44C80.234 132.083 74.8216 135.981 73.4507 136.906C71.5323 138.294 71.6007 138.69 71.4638 139.087C70.7103 141.201 68.5174 141.267 66.1198 143.778C65.5716 144.306 64.1323 145.76 64.4067 147.015C64.5436 147.478 70.4365 148.469 73.862 147.081C76.534 145.958 74.2049 144.703 74.9585 143.447C75.5067 142.522 76.8769 142.522 77.4936 141.729C78.5216 140.408 77.8365 140.474 78.7269 139.417C81.6734 135.981 83.5918 133.999 88.8674 130.894C89.3472 130.629 90.2382 130.233 90.2382 130.233C90.2382 130.233 90.9918 129.903 91.2656 129.506C91.6085 128.978 91.54 128.515 91.54 127.92C91.54 127.524 91.4716 127.326 91.4716 126.929C91.4716 126.467 91.54 126.203 91.4031 125.74C91.2656 125.013 90.7865 124.419 90.512 124.022C90.2382 123.692 89.7585 123.097 89.484 121.842C89.1418 120.587 89.1418 119.529 89.69 118.142C90.2382 116.754 91.4716 115.631 91.4716 115.631L94.5549 113.649C94.5549 113.649 97.2269 111.799 98.0489 111.072C98.94 110.345 100.653 108.826 101.886 107.108C103.325 105.192 104.079 104.003 104.695 101.69C104.901 100.831 105.107 99.5096 105.107 99.5096C105.107 99.5096 105.107 98.5846 105.655 98.5187C106.203 98.4527 106.34 98.6506 106.34 98.6506C106.34 98.6506 106.82 98.9152 106.957 100.237C107.025 101.558 106.614 103.078 106.614 103.078C106.614 103.078 106.203 104.597 106.066 105.522C105.997 106.117 105.997 106.447 105.997 107.108C105.997 108.231 106.477 109.156 106.477 109.156C106.477 109.156 106.751 109.354 106.751 108.892C106.751 108.363 106.888 107.57 107.094 106.778C107.299 106.117 107.436 106.249 107.847 105.126C108.395 103.672 107.916 103.804 108.19 102.945C108.327 102.549 108.67 102.153 109.08 102.153C109.492 102.153 109.56 102.681 109.56 102.681C109.56 102.681 109.972 104.399 109.629 105.985C109.286 107.57 108.053 109.751 108.053 109.751L107.094 111.337C107.094 111.337 106.408 112.46 106.134 113.187C105.86 113.979 105.792 114.31 105.929 115.037C106.134 115.829 106.751 116.887 107.094 116.688C107.367 116.49 106.682 115.829 107.505 114.244C108.327 112.658 109.423 111.667 109.423 111.667C109.423 111.667 110.93 109.949 111.616 108.628C112.232 107.438 112.849 105.522 112.849 105.522C112.849 105.522 113.329 103.804 113.192 102.351C113.123 100.963 112.849 100.237 112.849 100.237L112.232 99.1791L111.89 98.3867L112.027 97.9242C112.164 97.8576 112.644 98.1881 113.055 98.7166C113.466 99.2451 113.877 99.9062 114.082 100.831C114.288 101.492 114.357 102.087 114.357 102.681C114.357 103.21 114.151 105.39 114.973 106.778C115.316 107.438 116.138 108.958 116.207 108.297C116.344 106.778 115.658 106.051 115.727 104.663C115.795 103.078 116.207 103.474 116.344 102.681C116.48 101.822 116.686 101.624 116.549 100.501C116.412 99.4436 115.932 98.0562 115.932 98.0562L115.453 96.9992L115.247 96.6027C115.247 96.6027 115.384 96.4041 115.59 96.4041L117.234 95.8756C117.234 95.8756 119.358 94.9506 120.18 94.2902C121.072 93.6951 122.099 92.6381 122.099 92.6381C122.099 92.6381 123.47 90.9867 124.155 89.7971C125.799 86.8242 125.799 83.0576 125.73 81.3402C125.662 79.6881 125.182 77.5076 125.182 77.5076C125.182 77.5076 124.634 74.8652 124.772 73.1471C124.908 71.4291 125.045 70.6367 125.045 70.6367C125.045 70.6367 124.977 68.9187 126.484 67.0686C127.992 65.2187 128.677 64.0291 128.951 62.6416C129.225 61.4525 128.814 59.5364 128.266 60.2632ZM82.9067 48.3703C82.7007 48.3703 82.4269 48.1061 82.4269 48.1061C82.4269 48.1061 82.3585 48.04 82.5638 47.9078C82.7698 47.7757 83.0436 47.8418 83.0436 47.8418L83.2489 47.9078L83.5918 48.3703C83.5233 48.5685 83.112 48.4364 82.9067 48.3703ZM83.7287 46.19C83.5233 46.1239 83.1805 45.9257 83.1805 45.9257C83.1805 45.9257 83.112 45.7935 83.3174 45.6614C83.5233 45.5293 83.8656 45.5953 83.8656 45.5953L84.0716 45.7275C84.14 45.7935 84.4823 46.1239 84.4823 46.2561C84.4823 46.4543 84.0031 46.2561 83.7287 46.19ZM84.4823 43.9436C84.2085 43.8775 83.7971 43.6132 83.7971 43.6132C83.7971 43.6132 83.7287 43.481 84.0031 43.3489C84.2769 43.2168 84.6882 43.2828 84.6882 43.2828L84.962 43.415C85.0989 43.5471 85.4418 43.8775 85.4418 44.0757C85.3734 44.2739 84.7567 44.0096 84.4823 43.9436ZM85.0989 41.8953C84.8251 41.8293 84.4138 41.565 84.4138 41.565C84.4138 41.565 84.3454 41.4328 84.6198 41.3007C84.8936 41.1685 85.3049 41.2346 85.3049 41.2346L85.5787 41.3668C85.7156 41.4989 86.0585 41.8293 86.0585 42.0275C85.99 42.1596 85.3734 41.8953 85.0989 41.8953ZM85.7156 39.4507C85.3734 39.3846 84.962 39.0543 84.962 39.0543C84.962 39.0543 84.8936 38.9221 85.1674 38.7239C85.4418 38.5257 85.9216 38.6578 85.9216 38.6578L86.1954 38.79C86.3323 38.9221 86.7436 39.3185 86.7436 39.5168C86.7436 39.781 85.99 39.4507 85.7156 39.4507ZM86.1269 36.8078C85.7156 36.7418 85.1674 36.3453 85.1674 36.3453C85.1674 36.3453 85.0305 36.1471 85.4418 35.9489C85.784 35.7507 86.3323 35.8168 86.3323 35.8168L86.6751 36.015C86.812 36.1471 87.2918 36.6757 87.3603 36.94C87.3603 37.2043 86.5382 36.8739 86.1269 36.8078ZM86.4007 34.165C85.9216 34.0989 85.2365 33.5703 85.2365 33.5703C85.2365 33.5703 85.0989 33.3721 85.5102 33.1078C85.9216 32.8435 86.6067 32.9757 86.6067 32.9757C86.6067 32.9757 86.812 33.0418 87.0174 33.1739C87.2234 33.3721 87.7716 33.9668 87.84 34.2971C87.9085 34.6275 86.8805 34.231 86.4007 34.165ZM86.812 31.1257C86.2638 31.0596 85.5102 30.465 85.5102 30.465C85.5102 30.465 85.3734 30.2007 85.8531 29.9364C86.3323 29.606 87.0864 29.8043 87.0864 29.8043C87.0864 29.8043 87.3602 29.8703 87.5656 30.0685C87.7716 30.2668 88.4567 30.9935 88.5251 31.3239C88.5251 31.7203 87.3602 31.1918 86.812 31.1257ZM86.5382 18.8364C86.1269 18.7703 85.5787 18.3739 85.5787 18.3739C85.5787 18.3739 85.4418 18.2418 85.8531 18.0435C86.2638 17.8453 86.812 17.9775 86.812 17.9775C86.812 17.9775 87.0174 18.0435 87.1549 18.1757C87.2918 18.3078 87.84 18.7703 87.84 19.0346C87.84 19.2328 86.9489 18.9025 86.5382 18.8364ZM88.0454 21.8096C88.1138 22.0739 87.1549 21.7435 86.6751 21.6775C86.2638 21.6114 85.6471 21.1489 85.6471 21.1489C85.6471 21.1489 85.5102 20.9507 85.9216 20.7525C86.3323 20.4882 86.8805 20.6203 86.8805 20.6203C86.8805 20.6203 87.0864 20.6864 87.2918 20.8185C87.4972 21.0168 87.9769 21.5453 88.0454 21.8096ZM86.0585 26.6989C86.4698 26.4346 87.1549 26.5668 87.1549 26.5668C87.1549 26.5668 87.3602 26.6328 87.5656 26.765C87.7716 26.9632 88.3198 27.5578 88.3882 27.8882C88.4567 28.2185 87.4287 27.8221 86.9489 27.69C86.4698 27.6239 85.784 27.0953 85.784 27.0953C85.784 27.0953 85.6472 26.9632 86.0585 26.6989ZM86.9489 24.4525C86.4698 24.3864 85.784 23.8578 85.784 23.8578C85.784 23.8578 85.6472 23.6596 86.0585 23.3953C86.4698 23.131 87.1549 23.2632 87.1549 23.2632C87.1549 23.2632 87.3602 23.3293 87.5656 23.4614C87.7716 23.6596 88.3198 24.2543 88.3882 24.5846C88.4567 24.981 87.4287 24.5846 86.9489 24.4525ZM87.84 14.5418C88.3882 14.6739 88.5251 15.0043 88.2507 15.0043C87.9769 15.0703 87.84 15.0703 87.634 15.0703C87.0174 15.0703 87.0864 14.806 86.2638 15.2025C85.4418 15.5989 86.0585 15.4007 84.8936 15.7971C83.7971 16.1935 84.0716 15.1364 84.0716 15.1364C84.0716 15.1364 84.14 14.9382 84.2769 14.4096C84.4138 13.881 85.0989 14.4096 85.5787 14.4096C86.4698 14.4096 87.2234 14.4096 87.84 14.5418ZM84.7567 10.4453L85.0989 10.6435C85.2365 10.7757 85.7156 11.3043 85.784 11.5685C85.8531 11.8328 84.962 11.5025 84.6198 11.4364C84.2085 11.3703 83.6602 10.9739 83.6602 10.9739C83.6602 10.9739 83.5234 10.7757 83.9341 10.5775C84.2769 10.3132 84.7567 10.4453 84.7567 10.4453ZM82.29 7.27393C82.6323 7.07567 83.1805 7.14178 83.1805 7.14178L83.5234 7.33998C83.6602 7.47213 84.14 8.00068 84.2085 8.26498C84.2769 8.52928 83.3865 8.19893 83.0436 8.13283C82.6323 8.06678 82.084 7.67033 82.084 7.67033C82.084 7.67033 81.9472 7.47213 82.29 7.27393ZM81.6049 50.0882C81.8102 49.9561 82.084 50.0221 82.084 50.0221L82.29 50.0882L82.6323 50.5507C82.6323 50.6828 82.2216 50.4846 82.0156 50.4846C81.8102 50.4846 81.5365 50.2203 81.5365 50.2203C81.5365 50.2203 81.3989 50.1543 81.6049 50.0882ZM54.1288 18.6382C53.9232 18.7703 53.7862 18.8364 53.5121 19.0346C53.1695 19.2989 52.8269 19.9596 52.6214 19.7614C52.3473 19.5632 52.4843 18.8364 52.4843 18.8364C52.4843 18.8364 52.6899 18.3078 52.9639 17.7793C53.3066 17.2507 53.7176 17.2507 53.7176 17.2507C54.1288 17.2507 54.8825 17.515 54.8825 18.1096C54.951 18.7043 54.4714 18.44 54.1288 18.6382ZM59.7473 20.6864C59.7473 20.6864 59.4732 20.7525 59.4047 20.29C59.3362 19.8275 59.7473 19.7614 59.7473 19.7614C59.7473 19.7614 60.5695 19.365 60.5695 19.8935C60.6381 20.356 59.7473 20.6864 59.7473 20.6864ZM67.0787 11.7007C67.0787 11.7007 66.1882 13.0882 64.9549 13.6168C63.7216 14.1453 62.8989 14.4096 60.5695 14.6078C60.2269 14.6078 60.3639 14.4096 60.3639 14.4096C60.3639 14.4096 63.0365 13.6828 64.5436 12.89C65.3656 12.4275 66.3251 11.8328 66.5989 11.5685C67.5585 10.7757 67.0787 11.7007 67.0787 11.7007ZM21.0343 68.9186C21.0343 69.2492 20.6232 69.8437 20.4862 69.8437C20.3491 69.8437 20.0751 69.2492 20.1436 68.9186C20.2121 68.5881 20.2806 67.6631 20.8288 67.7951C21.2399 67.8617 21.0343 68.5881 21.0343 68.9186ZM22.8158 61.4525C22.8158 61.4525 22.1991 62.7076 21.9936 62.1791C21.7881 61.7166 22.1991 60.8578 22.1991 60.8578C22.7473 60.3953 22.9529 59.7346 23.2269 59.9989C23.4325 60.2632 22.8158 61.4525 22.8158 61.4525ZM31.3121 48.5686C30.6954 49.2293 28.7769 52.7311 28.3658 52.1364C27.9547 51.6739 30.2158 48.3703 30.6954 47.7096C31.1751 46.9828 31.5862 47.115 31.5862 47.115L31.7232 47.2471C31.6547 47.2471 31.9288 47.9078 31.3121 48.5686ZM36.451 43.3489C36.451 43.3489 35.0806 43.6132 35.2862 43.1507C35.5603 42.6882 36.5195 42.49 36.5195 42.49C37.2732 42.6221 37.4103 42.6882 37.3417 43.0185C37.4103 43.3489 36.451 43.3489 36.451 43.3489ZM42.001 52.5989C41.3843 53.1935 41.1788 52.4007 40.2881 51.4096C39.3973 50.4846 39.6029 49.6918 39.6029 49.6918H39.7399L39.8769 49.7578L40.2195 49.89L40.4251 50.0882L41.1103 50.7489C41.3843 51.1453 42.1381 52.4668 42.001 52.5989ZM31.3806 72.3541C31.1751 72.3541 30.9695 71.9576 30.9695 71.9576C30.9695 71.9576 30.4214 71.1652 30.2158 70.5701C30.0103 70.0416 29.9417 69.1826 29.9417 69.1826C29.9417 69.1826 29.8047 68.0596 29.8047 67.6631C29.8732 67.1346 29.8732 66.6721 29.9417 66.4076C30.0103 66.1436 30.2843 66.2096 30.2843 66.2096C30.6954 66.2096 30.6954 66.5402 30.6954 66.5402V66.7381C30.6954 66.7381 30.6954 67.9277 30.7639 68.8527C30.7639 69.1166 31.5176 72.0902 31.5176 72.0902C31.5176 72.0902 31.6547 72.3541 31.3806 72.3541ZM31.2436 58.4793C30.7639 59.2061 30.4214 59.2061 30.4214 59.2061C30.4214 59.14 30.2843 58.8757 30.6954 58.0828C31.1066 57.29 31.5176 57.3561 31.5176 57.3561L31.6547 57.4882C31.6547 57.4882 31.7232 57.7525 31.2436 58.4793ZM36.1084 86.1631C36.2454 85.8992 37.1362 86.5596 37.1362 86.5596C37.4788 86.6256 37.8214 87.2201 37.8214 87.2201C37.8214 87.2201 37.9584 87.6826 37.5473 87.8152C37.1362 88.0131 36.8621 87.6166 36.8621 87.6166C36.8621 87.6166 35.9714 86.4277 36.1084 86.1631ZM42.5491 65.9451C41.5899 65.7471 39.5343 64.2277 38.7121 63.8312C37.8899 63.4346 36.5195 63.3027 37.1362 62.7742C37.2047 62.7076 37.2732 62.5756 37.4103 62.5756C37.5473 62.5756 38.1639 62.7742 38.1639 62.7742L39.6714 63.3686C39.7399 63.3686 40.4936 63.6992 41.1103 64.0291C41.6584 64.3596 42.6176 64.9541 42.6176 64.9541L43.0288 65.2846C43.0288 65.4166 43.5084 66.1436 42.5491 65.9451ZM50.9084 52.7971C50.9084 52.7971 49.7436 54.3168 49.0584 55.2418C48.1676 56.4971 47.0714 58.4132 46.8658 58.215C46.6603 58.0168 47.8251 55.9025 48.4417 54.7793C49.1269 53.3918 50.1547 52.665 50.5658 52.5328C51.4566 52.1364 50.9084 52.7971 50.9084 52.7971ZM47.2084 118.935C47.2084 118.935 47.2084 119.199 46.7288 119.529C46.2491 119.86 46.0436 119.662 45.9751 119.662C45.9066 119.662 45.4269 119.397 45.4269 119.133C45.4954 118.869 46.2491 118.67 46.2491 118.67C47.551 118.604 47.2084 118.935 47.2084 118.935ZM57.8288 118.538C57.3491 118.472 57.2806 118.34 57.3491 118.274C57.3491 118.208 57.4862 118.076 58.0343 118.076C58.5825 118.076 58.5825 118.34 58.5825 118.34C58.5825 118.538 58.3769 118.604 57.8288 118.538ZM70.0251 119.199C68.9972 119.463 68.5865 119.331 67.6954 119.397C66.9418 119.463 66.5989 119.529 65.8454 119.529C64.5436 119.529 64.4067 119.595 62.5567 119.067C62.2138 118.935 61.8031 118.538 61.94 118.406C62.0769 118.208 62.3507 118.274 62.3507 118.274C62.3507 118.274 64.6805 118.67 66.1882 118.737C67.2841 118.803 67.8323 118.869 68.9287 118.803C69.5454 118.803 69.2031 118.737 70.162 118.737C70.5049 118.67 70.2989 119.133 70.0251 119.199ZM76.534 117.349C76.4656 117.415 76.0549 117.547 75.712 117.613C75.3007 117.679 75.5067 117.349 75.5067 117.349C75.5067 117.349 75.7805 116.953 76.1234 116.754C76.5341 116.556 76.74 116.754 76.74 116.754C76.8769 117.019 76.6031 117.283 76.534 117.349ZM81.6049 104.663C81.1251 105.654 80.9882 105.985 80.9198 106.91C80.7823 107.901 81.3989 110.676 80.44 109.619C80.0972 109.156 79.7549 106.976 80.0287 105.919C80.5085 103.54 82.4954 102.879 81.6049 104.663ZM67.7638 145.033C67.3531 145.297 68.1751 146.09 66.8734 146.024C66.1198 145.958 66.5305 145.297 66.5989 145.231L67.0787 144.57C67.4216 144.108 67.6269 144.042 67.9698 143.844C68.312 143.645 68.5864 144.174 68.5864 144.174C68.5864 144.174 68.7234 144.372 68.7234 144.637C68.7234 144.835 68.1067 144.769 67.7638 145.033ZM74.9585 138.36L74.3418 138.822C74.2733 138.822 73.862 139.153 73.7251 138.954C73.5882 138.756 73.7936 138.492 73.7936 138.426C73.7936 138.36 74.2049 137.897 74.5472 137.765C74.89 137.567 75.0954 137.765 75.0954 137.765C75.3007 138.228 74.9585 138.36 74.9585 138.36ZM78.1787 22.6025C78.1787 22.6025 77.9049 23.4614 77.3567 23.6596C76.6716 23.8578 74.0674 23.9239 73.9989 23.7257C73.9305 23.5275 77.0138 23.2632 78.1787 22.14C78.4531 21.8757 78.1787 22.6025 78.1787 22.6025ZM77.2198 20.4221C77.4251 20.0918 77.2882 20.9507 77.2882 20.9507C77.2882 20.9507 77.0823 21.8096 76.6031 22.0739C75.9865 22.4043 74.4787 22.8007 74.3418 22.6025C74.3418 22.4703 76.3287 21.8757 77.2198 20.4221ZM72.9716 10.5114C72.9716 10.5114 73.2454 10.5114 73.6567 10.7096C74.0674 10.9739 74.3418 11.7668 74.3418 11.7668C74.3418 11.7668 74.4102 11.8989 74.0674 11.8989C73.862 11.8989 73.862 11.5685 73.6567 11.4364C73.3823 11.2382 73.1769 11.1721 72.834 11.04C72.4918 10.9078 72.012 11.106 71.9436 10.7757C71.9436 10.3793 72.9716 10.5114 72.9716 10.5114ZM69.8198 12.6918C69.8198 12.6918 69.9567 12.2953 70.5733 11.965C71.1216 11.6346 71.8751 11.6346 71.8751 11.6346C71.8751 11.6346 72.2864 11.6346 72.7656 11.965C73.2454 12.2953 73.6567 13.4185 73.6567 13.4185C73.6567 13.4185 73.7936 14.1453 73.4507 14.4096C73.1085 14.6739 72.5603 14.2114 72.2865 13.815C71.9436 13.4185 71.7382 13.2864 71.2585 13.1543C70.7103 12.956 69.8882 13.5507 69.7507 13.1543C69.7507 13.0221 69.8198 12.6918 69.8198 12.6918ZM69.6138 21.8096C69.2031 21.8757 69.4769 21.4793 69.4769 21.4793C69.4769 21.4793 70.6418 21.0168 71.3954 20.6203C72.6287 20.0257 74.9585 17.6471 74.3418 18.7703C74.0674 19.2989 73.2454 19.9596 73.2454 19.9596C73.2454 19.9596 72.2864 21.281 72.0805 21.4793C71.19 22.14 70.0936 21.7435 69.6138 21.8096ZM59.9529 47.4453L60.0214 47.3132C60.0214 47.3132 62.0769 45.9918 65.2972 46.3882C67.2156 46.6525 69.0656 48.3043 68.7918 48.5025C68.5174 48.7007 68.1067 48.5025 67.9698 48.5025L67.2841 48.1721L66.2567 47.9078C66.2567 47.9078 64.4067 47.5114 63.0365 47.5775C61.6658 47.6436 60.4325 48.1061 60.4325 48.1061C60.4325 48.1061 59.8843 48.3703 59.7473 48.04C59.6788 47.6435 59.9529 47.4453 59.9529 47.4453ZM65.0234 84.6436C60.2954 81.1416 54.5399 74.0061 55.2251 73.3451C55.8417 72.8166 58.1714 76.1201 61.6658 79.7541C65.3656 83.5867 69.6823 87.2201 69.8198 87.6826C70.0936 88.4756 66.8049 85.9652 65.0234 84.6436ZM75.7805 35.2882C73.7936 38.5918 71.0531 41.1025 71.0531 41.1025C70.0936 41.7632 70.7103 40.5739 70.7103 40.5739C70.7103 40.5739 73.3823 37.006 74.6156 34.4953C75.5067 32.7114 76.0549 30.3328 76.4656 29.8703C77.4251 28.7471 76.9454 33.306 75.7805 35.2882ZM81.262 71.4951C79.2067 69.1166 77.6989 66.5402 77.2198 63.3027C77.0823 62.5756 77.0823 61.5186 77.7674 61.6507C78.384 61.7166 78.3156 62.8402 78.3156 63.1041C78.5216 65.0201 79.3436 66.9367 80.8507 69.2492C82.9751 72.4867 86.4007 74.9971 86.2638 75.1951C85.9216 75.5256 82.4954 72.9492 81.262 71.4951ZM81.8787 133.272C80.7138 134.329 78.7269 135.783 78.7269 135.783H78.4531V135.453L78.5216 135.32L78.6585 135.122L78.7954 134.924L78.9323 134.726L79.3436 134.263L80.3031 133.404L81.262 132.545L82.7698 131.092C82.7698 131.092 83.3174 130.497 83.5234 130.365C83.7287 130.233 83.8656 130.101 84.0716 129.969C84.3454 129.837 84.6882 129.638 84.8251 129.77V130.035C84.8936 130.233 83.112 132.149 81.8787 133.272ZM86.1269 84.3791C85.2365 84.9742 84.8936 84.9076 84.3454 85.5027C83.7287 86.2291 83.5233 88.6742 82.9067 87.6826C82.29 86.6916 82.7007 85.3041 83.7287 84.2471C84.962 82.8596 87.634 83.3221 86.1269 84.3791ZM89.3472 127.854C89.7585 127.722 89.9638 127.788 89.9638 127.788L90.1007 128.053C90.1007 128.119 89.5531 128.845 89.2787 128.845C88.9364 128.779 89.0733 128.383 89.0733 128.383C89.0733 128.383 88.9364 127.987 89.3472 127.854ZM101.064 100.963C100.447 100.567 101.407 99.3777 101.407 98.3867C101.407 97.5937 101.27 96.9992 101.27 96.3381C101.27 95.6777 101.955 95.4791 101.955 95.4791C102.092 95.4791 102.366 95.6117 102.708 96.2721C103.051 96.9326 102.16 101.624 101.064 100.963ZM122.03 82.0666C121.894 84.8416 121.757 86.8242 120.044 88.9381C117.988 91.5152 114.425 94.1576 115.179 92.0436C115.658 90.7881 118.81 89.2027 120.044 85.7006C120.729 83.5867 120.866 81.6041 120.866 81.6041L120.729 77.5742C120.729 77.5742 120.66 77.2437 120.66 76.7812C120.866 76.2527 121.14 76.6492 121.14 76.6492L121.277 76.8471C121.277 76.9791 122.099 80.0846 122.03 82.0666Z" fill="#8690B1"/>
</svg>
