<svg width="148" height="148" viewBox="0 0 148 148" fill="none" xmlns="http://www.w3.org/2000/svg">
<path d="M38.7851 18.5H54.8608V130.563H38.7851V18.5ZM107.7 18.5V32.0213H120.163V130.563H135.739V32.0213H148V18.5H107.7ZM0 130.563H15.5761V79.7227H28.8417V66.3872H15.5761V32.0213H32.8816V18.5H0V130.563ZM109.765 123.222C109.768 125.677 109.769 128.124 109.769 130.563H95.1998C95.1868 126.323 95.1769 122.063 95.1708 117.781C95.1584 113.507 95.1387 109.225 95.0925 104.957C95 96.4306 94.8045 87.9373 94.3593 79.7227H77.2233V130.563H63.2336V18.5H96.1044C98.095 22.3551 99.7828 26.3589 101.154 30.4752C102.572 34.7294 103.746 39.0611 104.669 43.4493C105.624 47.9106 106.384 52.5106 106.994 57.1911C107.604 61.8702 108.068 66.658 108.427 71.4877C108.786 76.3156 109.041 81.2267 109.226 86.1428C109.412 91.0545 109.53 96.0354 109.608 100.979C109.686 105.91 109.725 110.92 109.745 115.833C109.756 118.302 109.762 120.765 109.765 123.222ZM93.3664 66.3872C92.1146 53.5738 89.9674 41.7145 86.2488 32.0213H77.2233V66.3872H93.3664Z" fill="#8690B1"/>
</svg>
