<svg width="148" height="148" viewBox="0 0 148 148" fill="none" xmlns="http://www.w3.org/2000/svg">
<path fill-rule="evenodd" clip-rule="evenodd" d="M67.8333 58.3983C71.5333 59.385 78.3783 62.4067 85.1 62.4067C89.6017 62.4067 94.9667 59.4467 94.9667 57.9667C94.9667 57.5967 94.9667 57.165 93.98 57.165C92.9317 57.165 93.4867 57.2883 90.8967 57.72C88.43 58.09 85.3467 57.9667 82.88 57.9667C76.961 57.7376 71.0666 57.078 65.2433 55.9933C62.53 55.5 60.0017 55.3767 57.72 55.3767C45.88 55.3767 41.07 60.0633 41.0083 64.8117C40.9467 67.34 42.7967 69.93 45.5717 69.93C50.505 69.93 53.4033 64.75 53.5883 62.9C53.5883 62.9 53.7117 62.5917 53.465 62.2833C53.28 62.2833 52.91 62.2833 52.7867 62.5917C52.1083 64.195 49.4567 65.9833 47.545 66.2917C45.7567 66.6617 44.585 65.675 44.4617 64.2567C44.2767 60.6183 48.4083 56.6717 57.5967 56.6717C60.8919 56.8606 64.1579 57.3981 67.34 58.275C65.7983 58.645 60.6183 62.5917 56.5483 68.8817C55.5 69.005 50.875 69.375 49.395 71.1017C49.2518 71.2844 49.1469 71.4941 49.0867 71.7183C49.1483 72.0883 49.4567 72.335 49.8883 71.965C50.8133 70.855 54.6983 70.4233 55.6233 70.3617C50.0117 78.3167 44.77 83.4967 40.2067 83.4967L38.665 83.435C36.815 83.0033 35.705 81.03 35.705 79.2417C35.705 76.8983 37.925 74.37 39.22 73.9383C39.6517 73.7533 39.8367 73.5067 39.8367 73.3217C39.8367 73.0133 39.6517 72.8283 39.1583 72.8283C34.7183 73.9383 32.375 77.5767 32.375 80.5367C32.4367 85.3467 36.1367 88.1217 40.2683 88.1217C46.1267 88.1217 49.0867 85.5933 58.5833 70.2383C62.2833 69.8067 64.195 69.6217 66.1067 69.2517C66.1067 69.2517 66.7233 70.6083 68.08 70.6083C68.3267 70.67 68.3267 70.4233 68.45 69.93C67.8333 69.93 67.0933 69.4367 67.0933 68.9433C67.71 68.635 68.2033 68.3267 68.5733 67.9567C69.19 67.34 69.8067 66.1683 69.8067 65.3667C69.8067 64.6267 69.2517 63.8867 68.3883 63.7633C66.9083 63.5167 65.675 64.75 65.5517 66.8467C65.5517 67.34 65.7367 67.9567 65.7367 67.9567C65.7367 67.9567 62.4067 68.5733 59.57 68.6967C63.085 62.715 66.3533 60.6183 67.2783 59.755L67.9567 59.015C68.0089 58.9177 68.0309 58.8071 68.0199 58.6973C68.0089 58.5874 67.9654 58.4833 67.895 58.3983H67.8333ZM74 101.812C33.115 101.812 0 89.355 0 73.8767C0 58.46 33.115 45.88 74 45.88C114.885 45.88 148 58.46 148 73.8767C148 89.2933 114.885 101.873 74 101.873V101.812ZM74 98.975C113.343 98.975 145.163 87.875 145.163 73.8767C145.163 60.0017 113.343 48.7167 74 48.7167C34.78 48.7167 2.89833 60.0017 2.89833 73.8767C2.89833 87.8133 34.78 98.975 74 98.975ZM142.943 73.8767C142.943 86.6417 112.11 97.0017 74 97.0017C35.9517 97.0017 5.18 86.6417 5.18 73.8767C5.18 61.1733 35.9517 50.8133 74 50.8133C112.048 50.8133 142.943 61.1733 142.943 73.8767ZM92.0683 78.5017C91.1433 79.365 89.9717 80.475 87.32 80.475C85.84 80.475 84.6067 79.2417 84.8533 77.7C85.1 76.4667 85.47 75.85 86.4567 75.48C86.8883 76.7133 87.69 77.3917 89.0467 77.3917C90.65 77.3917 91.5133 75.9117 91.575 74.6783C91.575 73.63 90.9583 72.2733 88.985 72.2117C87.2583 72.0883 85.9017 72.89 84.0517 75.11C84.0517 75.11 84.4833 71.8417 80.9067 71.965C80.5367 71.965 80.105 71.965 79.735 72.15C77.8233 72.7667 75.2333 75.9117 73.26 78.3167C73.3833 77.885 73.3833 77.3917 73.3833 76.8983C73.3833 75.5417 72.8283 73.7533 71.9033 72.7667C71.6567 72.5817 71.4717 72.5817 71.2867 72.5817C70.67 72.5817 70.1767 73.1367 70.1767 73.9383C70.6083 74.37 71.2867 75.6033 71.2867 76.7133C71.2867 77.885 70.9167 79.9817 70.4233 80.7833C68.5733 83.8667 66.3533 85.9017 63.5783 85.47C62.0983 85.1 61.1117 83.6817 61.3583 81.5233C61.5433 80.29 62.2833 78.5633 63.0233 77.515C64.195 75.9117 66.1067 74.2467 69.005 73.815C69.005 73.815 69.19 73.1983 68.7583 72.9517C68.635 72.705 68.45 72.4583 67.7717 72.4583C63.7017 72.5817 61.235 75.5417 59.755 78.3783L58.09 81.7083C58.09 81.7083 57.72 82.7567 55.9317 84.0517C55.0067 84.7917 54.6983 85.0383 54.575 84.9767C54.6367 85.3467 54.8833 85.7783 55.315 86.21C55.4383 86.2717 55.9317 85.9633 56.1167 85.9017C58.3367 84.6067 58.5833 83.99 58.5833 83.99C59.0767 86.6417 61.3583 88.06 63.8867 88.06C67.4017 88.06 70.6083 84.915 72.4583 82.14C74.4317 79.18 77.0833 76.3433 77.0833 76.3433C78.1317 75.3567 79.2417 74.6783 79.92 74.6783C80.5367 74.6783 80.9683 75.295 80.7833 75.85C80.5983 76.8367 80.2283 77.7617 79.55 78.9333L74.37 87.8133H78.44L83.1267 79.0567C83.7433 81.4 84.9767 82.325 87.0117 82.3867C88.7383 82.3867 89.91 82.325 91.205 81.6467C90.9087 82.8401 91.0172 84.0982 91.5133 85.2233C91.945 86.3333 92.9317 87.69 95.2133 87.7517C98.05 87.7517 100.825 86.5183 101.627 85.7783C101.873 87.1967 102.552 87.875 104.34 87.875C107.917 87.8133 111.062 84.175 112.973 81.7083C113.291 81.3215 113.541 80.8836 113.713 80.4133C113.713 80.105 113.343 79.92 113.158 79.92C112.973 79.92 112.603 80.3517 112.418 80.5983C111.555 81.585 107.793 85.47 105.697 85.5317C106.128 85.5317 105.018 85.7783 104.895 84.915C104.895 84.2983 105.327 83.62 105.512 83.25L115.748 65.1817H111.987L105.82 75.5417C105.327 74.6167 104.587 72.335 101.812 72.335C97.125 72.2733 95.3367 75.4183 92.0683 78.5017ZM101.935 74.555C104.032 74.8017 104.217 76.775 103.168 78.6867L103.785 78.81C103.785 78.81 102.12 81.5233 100.455 83.1883C97.495 86.21 95.5833 85.1617 95.1517 84.8533C94.72 84.545 94.4117 83.3117 94.5967 82.14C94.72 80.9067 95.645 78.9333 96.4467 77.885C98.235 75.7883 100.332 74.37 101.997 74.555H101.935ZM66.9083 67.8333C66.719 67.2312 66.719 66.5855 66.9083 65.9833C67.155 65.2433 67.525 64.8733 68.265 64.75C68.635 64.75 68.7583 65.0583 68.82 65.3667C68.8817 65.9217 68.3883 66.785 68.1417 67.0317C67.4017 67.8333 66.9083 67.8333 66.9083 67.8333Z" fill="#8690B1"/>
</svg>
