<svg width="147" height="148" viewBox="0 0 147 148" fill="none" xmlns="http://www.w3.org/2000/svg">
<g clip-path="url(#clip0_178_49)">
<path d="M59.1148 59.0825C64.3627 57.4014 68.4101 56.212 70.149 55.8472C71.6503 55.53 72.3301 55.4665 73.8161 55.5141C76.1717 55.5776 78.0368 56.0058 84.2022 57.9248L85.2943 58.2631C88.5614 59.276 89.8556 59.6772 91.1761 59.8156C92.0422 59.9063 92.9199 59.8841 94.3734 59.8473L95.1568 59.828C100.01 59.717 109.779 59.3046 128.354 58.464L133.575 58.2238C145.652 57.6673 146.98 57.6061 147 57.7402C147.002 57.7568 146.985 57.7763 146.965 57.7983C146.952 57.813 146.938 57.8288 146.928 57.8455C146.106 59.2411 144.478 60.3672 142.802 60.6685C141.095 61.0016 135.135 61.5725 115.786 63.3015C110.396 63.7929 104.705 64.3165 103.14 64.491C94.9516 65.3944 93.2599 66.1875 90.936 70.1841C88.5963 74.2288 87.4901 75.8623 85.5773 78.0349C83.2216 80.7149 78.8906 83.998 75.1917 85.9011L73.5 86.7736L71.8083 85.9011C68.0622 83.9666 63.7784 80.7149 61.4227 78.0349C59.51 75.8623 58.4034 74.2288 56.0638 70.1841C53.7401 66.1875 52.0487 65.3944 43.8601 64.491C42.2952 64.3165 36.6043 63.7929 31.2138 63.3015C11.8649 61.5725 5.90529 61.0016 4.19803 60.6685C2.52239 60.3672 0.894177 59.2411 0.0721611 57.8455C0.0623715 57.8288 0.0482162 57.813 0.0350313 57.7983C0.0153254 57.7764 -0.00221315 57.7568 0.000227919 57.7402C0.0199825 57.6061 1.34822 57.6673 13.4254 58.2238L18.6465 58.464C41.6154 59.5107 48.0808 59.7645 52.5545 59.7963L56.8226 59.8121L59.1148 59.0825ZM86.8893 61.8739C85.1191 61.0174 80.9774 59.6377 77.6417 58.7971C75.2548 58.1944 73.3891 57.9407 72.5512 58.0834C69.8483 58.575 64.4424 60.1134 61.8019 61.1443C58.7038 62.3499 57.7237 63.2059 57.9292 64.5699C58.0873 65.696 59.2413 68.8996 60.1265 70.7237C61.7547 74.0543 63.8727 76.8293 66.6712 79.2879C69.4214 81.6985 73.0419 84.109 73.6899 83.9505C74.2111 83.8081 77.6099 81.556 79.1117 80.3344C80.9774 78.8279 83.3956 76.3218 84.5973 74.6253C86.5573 71.8811 88.992 66.3145 89.0391 64.4115C89.0869 63.2379 88.66 62.7458 86.8893 61.8739ZM61.359 67.6934C61.0589 66.7739 61.359 65.8218 62.102 65.3303C62.4658 65.0768 62.8768 64.9658 63.3668 64.9658C64.4895 64.9658 64.8056 65.1083 64.8056 65.5523C64.8056 65.8699 64.7578 65.9334 64.5367 65.8218C64.3787 65.7589 63.9677 65.6793 63.6038 65.6318C63.0508 65.5844 62.9087 65.6318 62.6079 65.9963C61.865 66.9638 62.4187 68.4549 63.5408 68.4549C63.9836 68.4549 64.0148 68.4075 64.0148 67.9154C64.0148 67.5824 63.9199 67.3443 63.7778 67.2814C63.3037 67.1069 63.5567 66.8689 64.2519 66.8689H64.9636V67.8044C64.9636 68.7084 64.9477 68.7405 64.4736 68.915C63.0667 69.4065 61.7229 68.8829 61.359 67.6934ZM65.5467 65.0768C65.4836 65.1243 65.4995 65.2514 65.5939 65.3624C65.6735 65.4573 65.7678 66.3139 65.7837 67.2814L65.8315 69.0099L67.2225 69.0574C68.5185 69.1049 68.5976 69.0889 68.5976 68.7719C68.5976 68.4864 68.5026 68.4549 67.6335 68.4549H66.6847L66.7325 67.8518C66.7539 67.5854 66.7656 67.4399 66.8434 67.356C66.9365 67.2555 67.1245 67.2438 67.5385 67.2179C68.0604 67.1858 68.2815 67.1069 68.2815 66.9324C68.2815 66.7739 68.0757 66.7104 67.4914 66.7104H66.7006V66.1554V65.5998H67.6647C68.4873 65.5998 68.6135 65.5683 68.5345 65.3463C68.4867 65.2033 68.4395 65.0608 68.4395 65.0294C68.4395 64.9184 65.6576 64.9658 65.5467 65.0768ZM69.1996 65.4092C69.1047 65.3772 69.0735 65.2507 69.1366 65.1552C69.1996 65.0442 69.4214 64.9652 69.6425 64.9652C69.9267 64.9652 70.2587 65.2662 71.0016 66.2337L71.9975 67.5028L72.0453 66.2183C72.0925 65.0127 72.1084 64.9492 72.4404 64.9967C72.7724 65.0442 72.7883 65.1077 72.7883 67.0267C72.7883 68.9298 72.7724 69.0093 72.4404 69.0568C72.1874 69.0889 71.8873 68.8348 71.1756 67.9628L70.2587 66.8047L70.1796 67.9147C70.1006 68.8983 70.0694 69.0093 69.7533 69.0568C69.3895 69.1043 69.3895 69.0889 69.3895 67.2962C69.3895 66.0277 69.3264 65.4407 69.1996 65.4092ZM73.5 65.1878C73.5 65.3149 73.579 65.4734 73.658 65.5208C73.753 65.5844 73.8161 66.362 73.8161 67.361V69.0895H75.1599C76.3928 69.0895 76.5037 69.058 76.5037 68.7725C76.5037 68.487 76.3928 68.4549 75.634 68.4549H74.7648V67.821V67.1865H75.5549C76.1558 67.1865 76.3457 67.1229 76.3457 66.9484C76.3457 66.7739 76.1558 66.7104 75.5549 66.7104H74.7648V66.1554V65.6004H75.6499C76.3928 65.6004 76.519 65.5529 76.4719 65.3149C76.4247 65.0929 76.203 65.0454 74.9541 64.9979C73.753 64.9658 73.5 64.9979 73.5 65.1878ZM77.137 65.6947C77.216 65.4567 77.4531 65.2033 77.643 65.1237C78.0699 64.9652 79.2079 64.9177 79.5717 65.0602C79.7138 65.1077 79.8247 65.2822 79.8247 65.4407C79.8247 65.6947 79.7297 65.7262 78.9549 65.6473C78.1489 65.5677 78.0858 65.5837 78.0858 65.8847C78.0858 66.1387 78.3069 66.3447 78.8759 66.6302C80.0776 67.2333 80.3618 68.1367 79.5558 68.7713C79.2079 69.0408 78.9549 69.0889 78.1807 69.0568C77.2638 69.0093 77.216 68.9933 77.1689 68.5814C77.1211 68.1688 77.137 68.1528 77.5958 68.3113C77.8488 68.4068 78.2597 68.4543 78.5127 68.4223C79.2238 68.3433 79.0817 67.8673 78.1648 67.3758C77.2479 66.8683 76.9 66.3133 77.137 65.6947ZM80.5193 65.1564C80.4562 65.2514 80.4874 65.3784 80.5823 65.4098C80.7091 65.4419 80.7722 66.0284 80.7722 67.2814V69.0895H81.2463H81.7204V67.028V64.9658H81.1832C80.8831 64.9658 80.5823 65.0454 80.5193 65.1564ZM83.6951 67.3301C82.478 66.6956 82.2091 65.7126 83.1261 65.2051C83.553 64.9671 84.6598 64.8875 85.102 65.062C85.2447 65.1101 85.3549 65.284 85.3549 65.4431C85.3549 65.6966 85.26 65.7287 84.4858 65.6491C83.6951 65.5696 83.6161 65.5856 83.6161 65.8711C83.6161 66.0617 83.8531 66.3151 84.2959 66.5531C85.3078 67.1081 85.513 67.3462 85.513 67.9172C85.513 68.7257 84.9127 69.1222 83.711 69.0587C82.7941 69.0112 82.7469 68.9958 82.6991 68.5832C82.652 68.1707 82.6679 68.1546 83.1261 68.3137C83.8378 68.5672 84.4858 68.4401 84.4858 68.0597C84.4858 67.8537 84.2328 67.6157 83.6951 67.3301ZM4.60582 62.7138C4.63744 62.7927 5.19072 63.3323 5.83884 63.9348C10.518 68.2169 13.9325 69.5175 22.5952 70.263C26.5472 70.6114 31.9377 70.945 38.4822 71.2306C41.6122 71.373 44.5525 71.5636 45.0267 71.6585C45.6116 71.7695 46.0384 71.9755 46.4494 72.3406C46.7656 72.6261 46.9711 72.9116 46.9236 72.9591C46.8288 73.054 35.4313 72.8641 28.9975 72.6575C26.9741 72.594 26.0414 72.61 26.152 72.721C26.5156 73.0861 34.4196 75.3061 38.7826 76.2737L41.0115 76.7651L47.1766 76.7812C53.8162 76.7966 53.8162 76.7972 54.6516 77.6821L54.6695 77.7012L55.0331 78.0978L54.3534 78.1927C53.5788 78.2877 49.2316 78.6053 48.6625 78.6053C48.4412 78.6053 48.3621 78.6682 48.457 78.7477C48.6309 78.9383 54.2427 80.4762 56.7404 81.0473C59.0641 81.5548 63.0636 82.3003 63.1426 82.2208C63.1745 82.1893 62.8107 81.8403 62.3207 81.4598C60.2813 79.8263 57.9734 77.0192 54.9857 72.5786C53.4365 70.263 51.8557 68.5339 50.765 67.9314C49.2949 67.1384 45.9594 66.5519 38.8774 65.8378C20.5086 64.0297 5.49107 62.5867 4.81133 62.5867C4.66906 62.5867 4.57421 62.6503 4.60582 62.7138ZM121.874 64.4898C126.348 64.0458 132.544 63.4433 135.626 63.1578C141.792 62.5707 142.472 62.5232 142.393 62.7138C142.377 62.7927 141.808 63.3323 141.16 63.9348C136.48 68.2169 133.05 69.5175 124.403 70.263C120.435 70.6114 115.061 70.945 108.516 71.2306C105.386 71.373 102.446 71.5636 101.971 71.6585C101.387 71.7695 100.96 71.9755 100.549 72.3406C100.233 72.6261 100.027 72.9116 100.075 72.9591C100.169 73.054 111.884 72.8481 118.08 72.6575C120.04 72.594 120.957 72.61 120.846 72.721C120.483 73.0861 112.563 75.3061 108.216 76.2737L105.987 76.7651L99.8216 76.7812C93.1821 76.7966 93.1821 76.7972 92.3466 77.6821L92.3289 77.7012L91.965 78.0978L92.6449 78.1927C93.4197 78.2877 97.7666 78.6053 98.3357 78.6053C98.5574 78.6053 98.6364 78.6682 98.5415 78.7477C98.3675 78.9383 92.7558 80.4762 90.258 81.0473C87.9342 81.5548 83.9346 82.3003 83.8555 82.2208C83.8243 82.1893 84.1875 81.8403 84.6775 81.4598C86.7171 79.8263 89.025 77.0192 92.0128 72.5786C93.5618 70.263 95.1427 68.5339 96.2336 67.9314C97.7507 67.1069 101.055 66.5359 108.911 65.7743C110.575 65.6059 113.484 65.3186 116.525 65.0189C118.34 64.8394 120.202 64.6557 121.874 64.4898Z" fill="#8690B1"/>
</g>
<defs>
<clipPath id="clip0_178_49">
<rect width="147" height="148" fill="white"/>
</clipPath>
</defs>
</svg>
