<svg width="148" height="148" viewBox="0 0 148 148" fill="none" xmlns="http://www.w3.org/2000/svg">
<path fill-rule="evenodd" clip-rule="evenodd" d="M106.683 123.21H101.01C96.8164 123.21 97.5564 123.95 96.5698 119.88L93.3631 106.128C90.0948 98.2967 92.0681 94.0417 82.0164 94.1034L65.3664 94.2884C55.3764 94.4117 56.1164 101.318 54.2664 105.882L49.9498 119.078C48.6548 123.087 49.3331 122.47 45.0164 122.655C43.1048 122.717 40.8231 122.778 38.6648 122.655C35.7048 122.593 36.5681 122.408 36.3214 118.832C35.3348 104.217 35.0881 90.7117 34.2864 78.7484C32.8064 54.8217 31.6348 38.1717 31.3264 30.525C31.2648 27.6884 30.5864 27.8734 33.4231 27.8117L37.1231 27.6267C40.4531 27.3184 39.7748 26.8867 40.5148 30.4017L47.9764 68.5734C50.8748 77.0834 51.6764 86.4567 65.4281 86.4567H81.0298C94.5964 86.4567 97.5564 70.7934 98.0498 68.5734L106.375 30.525C106.991 27.935 106.251 27.8117 108.841 27.6884H111.801C114.638 27.6267 114.268 27.195 114.145 29.97C114.021 37.6167 113.22 55.0684 111.986 80.0434C111.37 91.76 111.123 105.018 110.136 119.263L109.89 122.963L106.683 123.148V123.21ZM141.956 38.7267C142.45 26.8867 143.005 22.2617 117.906 21.275C87.3814 20.0417 56.0548 18.8084 25.5914 21.46C5.42642 23.1867 5.54976 28.7984 5.91976 40.7C6.28976 52.1084 6.47476 63.5167 7.15309 74.925C7.76976 84.7917 8.87976 94.535 10.1131 104.402C11.7164 118.215 12.8881 128.328 32.6831 128.452L115.316 128.575C137.085 128.698 137.825 116.612 138.133 106.19C138.441 95.7067 139.366 85.2234 139.983 74.8634C140.785 62.8384 141.401 50.8134 141.895 38.7884L141.956 38.7267ZM143.991 106.375C143.621 119.448 142.758 134.618 115.255 134.433L32.6831 134.31C7.70809 134.187 6.28976 121.977 4.31642 105.08C3.08309 95.2134 1.97309 85.285 1.35642 75.295C0.678089 63.825 0.431423 52.355 0.123089 40.8234C-0.308577 25.16 -0.61691 17.8834 25.0981 15.6634C55.7464 13.0117 87.3814 14.1834 118.153 15.4167C149.11 16.65 148.493 23.1867 147.753 39.035C147.26 50.875 146.705 62.6534 145.903 74.4934C145.286 85.1 144.3 95.7684 144.053 106.375H143.991Z" fill="#8690B1"/>
</svg>
