<svg width="148" height="148" viewBox="0 0 148 148" fill="none" xmlns="http://www.w3.org/2000/svg">
<g clip-path="url(#clip0_178_53)">
<path fill-rule="evenodd" clip-rule="evenodd" d="M89.4788 82.695C90.5888 88.5533 87.5671 93.3633 85.0388 98.1116C82.2021 102.428 77.5771 106.19 71.9654 105.635C59.7213 105.464 47.5599 103.596 35.8288 100.085C35.2774 99.9557 34.7939 99.626 34.4721 99.16C34.2255 98.4817 34.5955 97.865 35.0888 97.4333C45.4488 89.0466 57.7821 85.1 69.9921 81.03C74.5555 79.735 79.3654 78.3167 84.4838 78.995C86.6421 79.2417 88.7388 80.7216 89.4788 82.695ZM132.275 57.7817C138.072 62.5917 143.375 69.1283 141.525 77.0216C138.627 88.6766 125.985 94.905 115.872 98.79C110.322 100.64 104.834 102.49 98.8521 103.107C98.4204 103.045 97.8654 103.107 97.7421 102.552L97.8654 101.935C106.051 92.3523 113.011 81.7877 118.585 70.485C121.237 65.5517 123.642 60.5567 125.924 55.5617C126.209 55.2494 126.57 55.0158 126.972 54.8833C129.069 55.0683 130.549 56.7333 132.275 57.8433V57.7817ZM50.3204 45.4483L50.1354 46.065C37.8021 60.1867 29.6621 76.4666 21.9538 92.685C20.4738 94.1033 18.9938 92.1917 17.6371 91.575C10.7921 87.0733 4.56378 79.7966 6.35212 71.1633C9.25045 59.8783 20.8438 53.8967 30.5254 49.765C36.2604 47.6066 42.2421 45.88 48.4705 44.8933C49.0871 44.8933 50.0121 44.8317 50.3204 45.3867V45.4483ZM111.617 47.6683C112.295 48.0383 113.159 48.1617 113.59 48.9017C113.96 49.7033 113.22 50.1966 112.789 50.7516C103.058 57.7872 92.1603 63.0481 80.5988 66.2917C74.8021 67.71 68.9438 70.2383 62.5304 68.82C61.7552 68.6189 61.0283 68.2642 60.3927 67.777C59.7571 67.2897 59.2259 66.6798 58.8304 65.9833C57.2271 61.605 59.4471 56.98 61.2971 53.1567C63.7638 48.285 68.1421 42.6733 74.2471 42.55C87.4438 42.4267 99.8388 44.4 111.617 47.6683ZM127.835 48.0383C137.825 53.465 149.11 63.085 147.939 75.85C146.582 87.69 135.544 95.9533 125.677 100.948C96.8788 114.7 56.4254 115.132 26.7021 103.107C16.6504 98.9133 5.36545 91.6983 1.17212 80.9067C-2.09622 72.0266 1.85045 62.7767 8.51045 56.61C22.3238 44.03 39.9604 39.7133 58.1521 37.2467C77.8854 34.78 98.6671 36.9383 116.304 42.9817C120.25 44.4617 124.135 46.065 127.897 48.0383H127.835Z" fill="#8690B1"/>
</g>
<defs>
<clipPath id="clip0_178_53">
<rect width="148" height="148" fill="white"/>
</clipPath>
</defs>
</svg>
