<svg width="148" height="148" viewBox="0 0 148 148" fill="none" xmlns="http://www.w3.org/2000/svg">
<path fill-rule="evenodd" clip-rule="evenodd" d="M74 37.74C33.1335 37.74 0 54.4455 0 75.0483C0 91.7292 21.719 105.851 51.689 110.63L74 57.3253L96.311 110.618C126.275 105.851 148 91.7292 148 75.0483C148 54.4517 114.866 37.74 74 37.74ZM107.978 92.5L74 56.24L40.145 92.3952C23.4765 88.1217 12.4875 80.6353 12.4875 71.4408C12.4875 56.8443 39.8243 43.1667 73.9383 43.1667C108.052 43.1667 136.037 56.8443 136.037 71.4408C136.037 80.7032 124.875 88.2388 107.978 92.5Z" fill="#8690B1"/>
</svg>
