<svg width="148" height="148" viewBox="0 0 148 148" fill="none" xmlns="http://www.w3.org/2000/svg">
<g clip-path="url(#clip0_178_57)">
<path fill-rule="evenodd" clip-rule="evenodd" d="M92.4071 104.957V110.612C92.4071 112.073 92.2529 113.232 91.5068 114.201C90.3104 115.779 88.1089 116.68 81.9669 116.68H81.9053C75.8003 116.68 73.5803 115.779 72.3839 114.201C71.6439 113.232 71.4836 112.079 71.4836 110.612V104.957H75.7139V110.451C75.7139 111.925 75.8928 112.795 76.4354 113.553C77.3543 114.842 78.9268 115.304 81.7634 115.304H82.1273C85.0873 115.304 86.5426 114.842 87.4553 113.553C87.9979 112.788 88.1829 111.888 88.1829 110.457V104.957H92.4071ZM134.439 106.387C136.024 106.387 136.721 106.535 137.214 106.893C137.67 107.238 137.831 107.763 137.831 108.577V108.786C137.831 109.526 137.658 110.124 137.115 110.494C136.585 110.864 135.845 110.945 134.495 110.945H126.108V106.387H134.433H134.439ZM136.499 112.295C138.084 112.246 139.434 112.005 140.47 111.444C140.968 111.169 141.381 110.761 141.662 110.266C141.943 109.771 142.081 109.207 142.061 108.638C142.061 107.121 141.377 106.147 140.143 105.604C139.046 105.123 137.695 104.957 134.994 104.957H121.89V116.31H126.114V112.375H131.664L138.003 116.31H143.153L136.499 112.295ZM62.6159 114.793V111.093H66.8278V116.303H54.5931C52.2991 116.303 50.4923 116.038 49.1294 115.489C46.8478 114.577 45.8179 112.899 45.8179 110.612C45.8179 108.447 46.9526 106.949 48.3894 106.141C49.9188 105.284 51.6516 104.957 54.5129 104.957H66.3899V106.474H55.8326C53.5694 106.474 52.3423 106.813 51.4049 107.578C50.5663 108.256 50.1223 109.273 50.1223 110.63C50.1223 112.036 50.5909 113.078 51.4789 113.757C52.4224 114.472 53.6928 114.786 55.8696 114.786L62.6159 114.793ZM18.4256 104.957V110.488C18.4256 112.283 18.0186 113.368 17.1676 114.238C15.6814 115.761 12.8324 116.31 8.79943 116.31H0.301758V114.786H8.12726C10.5261 114.786 12.1479 114.386 13.1223 113.417C13.8623 112.69 14.1953 111.666 14.1953 110.155V104.957H18.4256ZM111.314 113.886H98.7958L96.7176 116.31H94.2756L104.118 104.957H108.28L118.141 116.31H113.392L111.314 113.886ZM100.054 112.425H110.056L105.049 106.609L100.054 112.425ZM37.4004 113.886H24.8821L22.8039 116.31H20.3496L30.1978 104.957H34.3603L44.2208 116.31H39.4724L37.4004 113.886ZM26.1401 112.425H36.1301L31.1289 106.609L26.1401 112.425ZM15.8788 47.5944L16.4399 47.6067C17.2611 47.5651 18.0651 47.3552 18.8018 46.99C19.5849 46.6139 19.6774 46.509 19.6219 46.2747L19.5726 46.0404L18.8141 46.028L17.5623 46.0219C16.0206 46.0219 15.1141 46.8975 15.0894 47.1689L15.0771 47.3169L15.1634 47.4217C15.2744 47.5574 15.4471 47.5759 15.8726 47.5944" fill="#8690B1"/>
<path fill-rule="evenodd" clip-rule="evenodd" d="M7.41196 59.0396C7.22669 58.6669 7.08594 58.2736 6.99263 57.868C6.91863 57.3561 7.07279 56.8505 7.07279 56.8443C7.25728 56.182 7.58341 55.5676 8.02863 55.0436C8.33079 54.7476 9.15713 54.3715 9.77996 54.8093C10.335 55.1978 10.9948 56.536 10.409 58.4661C10.3535 58.682 9.71213 59.9338 9.17563 60.1003H9.05229C8.60123 60.0218 8.16849 59.8609 7.77579 59.6255L7.63396 59.5453C7.56351 59.3752 7.4895 59.2066 7.41196 59.0396ZM8.46029 49.5738C8.14669 49.9909 7.68148 50.2678 7.16529 50.3446C7.08782 50.3657 7.00966 50.3842 6.93096 50.4001C7.05429 50.098 7.33179 49.6478 7.80046 49.5985C7.80663 49.5985 8.04713 49.58 8.46646 49.5738M115.526 80.1543C112.924 79.9508 109.674 79.7041 108.194 79.2108C106.775 78.736 104.987 77.7616 102.545 74.1603C101.404 72.4583 100.535 71.9156 99.1041 71.003L98.8575 70.8426L98.4875 71.336C98.506 71.3483 99.6776 72.2918 100.337 73.4573C100.899 74.4625 101.299 75.3011 101.645 76.0411C101.916 76.6023 102.15 77.0895 102.397 77.5211C103.045 78.6681 103.717 79.4821 104.568 80.1666C105.801 81.1656 106.621 81.3445 107.848 81.5418C109.051 81.7453 112.961 81.7268 116.636 81.6651H116.87C119.96 81.6651 121.403 82.6518 122.513 83.5953C123.074 84.0701 123.894 85.0753 124.677 86.0435C125.319 86.8328 125.929 87.579 126.422 88.0785C126.663 88.3128 126.891 88.5533 127.119 88.7938C128.143 89.8791 129.197 90.9891 131.356 92.0806C132.231 92.5185 133.434 93.499 133.471 94.3315C132.484 95.275 131.208 95.6265 127.798 94.7015L126.7 94.4363L127.52 95.2503C128.515 96.2395 129.86 96.7958 131.263 96.7981H131.387C131.025 96.9412 130.64 97.0144 130.252 97.014H130.085C127.693 96.8783 125.269 94.5041 123.487 92.7713C122.754 92.0193 121.976 91.3129 121.156 90.6561C120.227 89.8373 119.244 89.0813 118.215 88.393C115.914 86.7896 111.875 86.506 109.23 86.506C107.818 86.506 106.806 86.5923 106.689 86.5985L100.929 86.9006C90.736 87.6406 85.9506 79.217 84.3905 76.4358C83.9431 75.6032 83.4274 74.809 82.8488 74.0616C82.2568 73.2723 79.1488 69.2516 75.9976 67.9135L75.677 68.4253C76.4046 69.0605 78.1806 70.8488 78.415 72.1438C77.7613 71.9958 76.3861 71.817 74.0058 72.1623C60.9695 74.0185 55.5736 71.299 54.6055 70.7193C55.0125 68.5671 54.1121 66.4581 53.5571 65.3913C58.8543 67.007 64.0405 67.4263 68.2276 66.5753L68.166 65.9648C67.8823 65.9648 56.9056 65.9031 49.2713 59.7981L48.8396 60.2298C48.8951 60.2915 53.6311 66.3101 52.5211 70.1643C52.5088 70.2013 52.3115 71.1386 51.1645 71.9095C50.0483 72.6495 47.8221 73.3401 43.5425 72.4768C42.7531 72.3165 41.8158 72.0636 32.8371 69.56L28.8165 68.45C25.468 67.4386 24.3641 69.2208 23.8893 69.9731L23.84 70.0471V70.1396C23.8215 71.1818 22.5758 72.5076 21.8296 73.0195C20.8183 72.816 20.1338 72.3843 19.7946 71.743C19.1656 70.5898 19.7946 69.0913 19.7946 69.0728L19.2581 68.7768C17.9076 70.7131 18.0371 72.0636 18.3886 72.853C18.6508 73.4352 19.0914 73.919 19.6466 74.2343L19.1348 74.4316C18.5798 74.0555 16.4831 72.3966 17.9385 69.8313C20.2941 65.712 22.6991 64.1826 27.4906 63.7448C29.5565 63.5413 31.2276 63.4056 32.4856 63.5783C33.9225 63.7756 35.1558 64.2505 36.457 64.75C38.2145 65.4283 40.2001 66.1868 43.154 66.4766L43.265 65.8723C33.9163 63.1158 32.7323 58.0715 32.5966 56.5915C32.5905 56.5298 32.5905 56.4928 32.572 56.4496L32.387 56.5113L31.9861 56.4558C31.4373 58.3551 31.6531 59.9585 31.9923 61.1486C31.0901 60.5696 30.1856 59.994 29.279 59.422C25.3693 57.0293 22.3168 56.5976 22.1873 56.5853C21.102 56.4373 20.5593 55.056 20.5223 54.9943L20.3866 54.7661C18.5366 51.5841 16.6435 51.4793 16.5633 51.4793L15.9343 51.4608L16.3043 51.9726C17.2293 53.2306 17.2663 55.0745 17.2663 55.13C17.7596 58.6326 13.8808 59.7426 13.7081 59.792L13.6156 59.8166L13.554 59.8968C12.8448 60.7971 12.333 61.4631 11.9506 61.9565C10.964 63.2515 10.9578 63.2515 10.6556 63.3008C10.335 63.3501 9.54563 63.0356 9.05846 62.8013C9.04613 62.7211 9.10163 62.641 9.09546 62.641C9.41969 62.3835 9.73243 62.1119 10.0328 61.827C12.9126 58.8793 13.2456 57.3623 12.8941 55.4383C12.1541 51.4793 9.21263 51.8986 9.21263 51.8986C8.78784 51.9341 8.37847 52.0743 8.02118 52.3067C7.66388 52.5392 7.36981 52.8566 7.16529 53.2306C6.71513 53.9275 5.79013 55.9686 5.74696 56.055C5.22279 57.2266 4.70479 57.4301 4.51363 57.4733C4.39646 57.4918 4.19296 57.4856 4.11896 57.4856C3.37896 57.4548 2.76229 56.7333 2.73763 56.7025C2.70063 56.6716 2.67596 56.6285 2.63896 56.5915C1.97296 55.8885 2.44163 54.945 2.46629 54.8895C3.50846 52.4351 5.54346 52.1021 5.75929 52.0713C6.06763 52.0343 7.05429 51.8863 7.07279 51.8863C9.92796 51.4053 11.26 48.5193 11.3216 48.396L11.5066 47.9643H11.0441C9.23113 47.9458 8.29996 48.063 8.24446 48.0691C6.59179 48.359 5.84563 49.987 5.64213 50.5605C5.37079 50.5975 5.05013 50.5851 4.90829 50.3755C4.74796 50.1473 4.81579 49.7588 4.92679 49.5923C5.90113 48.063 9.16946 47.027 11.7718 46.4226C11.7965 46.4165 14.4975 45.6086 20.2818 45.8245L20.2633 45.8676C19.8316 46.694 17.7596 48.8708 14.2755 48.1061L13.8993 48.0198L13.9055 48.4021C13.9055 48.5995 14.0535 50.2891 18.0865 50.8811C18.1235 50.8811 21.6261 51.5718 27.466 56.277L27.9346 55.8946C27.8113 55.6603 24.95 50.061 20.0043 48.5563C19.9666 48.5461 19.9296 48.5337 19.8933 48.5193C20.325 48.1431 23.0815 45.843 26.5163 45.7505C26.652 45.7381 39.5156 44.6158 46.5888 54.3776L47.113 54.057C47.0266 53.9028 45.374 50.7023 43.8446 48.655C46.2188 49.358 52.9528 51.393 62.1596 54.5996C62.2398 54.6305 70.1825 57.4548 75.2145 59.4466L76.1703 59.829C83.8355 62.8506 99.7825 69.1406 110.272 74.8695C112.202 75.9301 131.898 86.2223 132.114 86.3333C137.664 88.8246 141.488 87.3755 141.648 87.3138C141.993 87.1781 142.394 86.9623 142.832 86.7341C143.893 86.1668 145.218 85.4515 145.792 86.0126C146.316 86.543 146.18 87.2028 146.051 87.5481L146.045 87.5728C145.81 88.3745 144.596 89.6695 142.789 90.465C141.031 91.2481 137.319 91.4516 135.191 91.1063C135.148 91.1001 131.047 90.65 127.458 86.8945C126.829 86.2346 126.126 85.5378 125.405 84.804C124.788 84.1873 124.147 83.546 123.536 82.917C122.345 81.5883 120.726 80.718 118.961 80.4565C118.122 80.3393 116.864 80.2468 115.52 80.1481M147.815 85.1061C147.087 83.4966 145.286 83.5028 144.441 83.7186C143.84 83.9013 143.27 84.1759 142.752 84.5326C142.086 84.9396 141.315 85.4021 140.396 85.6735C136.758 86.7711 133.773 85.5193 133.736 85.507C130.616 84.1503 123.802 80.4503 116.593 76.516C110.327 73.112 103.852 69.5846 99.3693 67.377C99.2521 67.3276 88.0103 62.1168 71.9893 55.759C71.6686 55.6233 39.8486 42.0998 18.7895 43.2345C18.3085 43.2468 7.25779 43.5983 3.67496 48.6488C3.64413 48.6796 2.93496 49.4936 3.36663 50.4125C3.28029 50.4865 1.40563 52.1761 0.418959 53.7178C-0.160708 54.6736 -0.154541 55.5863 0.474459 56.2585C0.61367 56.3648 0.738097 56.4893 0.844459 56.6285C0.949292 56.795 1.04179 56.9861 1.14046 57.1835C1.32546 57.5535 1.51046 57.9235 1.75713 58.2071C2.74379 59.3788 3.83529 59.8721 4.95146 59.681C5.15623 59.6548 5.35464 59.5922 5.53729 59.496C6.21563 60.014 7.06663 60.0756 7.31329 60.0818C7.34286 60.2712 7.38405 60.4586 7.43663 60.643C7.50446 60.9081 7.59079 61.198 7.67096 61.4323L7.46746 61.79C7.26385 62.0944 7.18036 62.4635 7.23313 62.826C7.26618 63.0692 7.39216 63.2902 7.58463 63.4426C7.65863 63.492 9.31746 64.6143 10.9701 64.7068C11.3105 64.7512 11.6565 64.6996 11.9692 64.558C12.2819 64.4164 12.5488 64.1903 12.74 63.9051C12.895 63.7012 13.0451 63.4935 13.1901 63.2823C13.7883 62.4436 14.3001 61.7221 14.96 61.124C17.1923 59.0766 20.362 58.497 20.4483 58.4785C21.3425 58.3058 24.4813 58.0776 29.3715 61.79C28.132 61.9318 26.7938 62.1785 25.5975 62.3943L24.7588 62.5485C19.2766 63.529 16.4523 69.2393 16.3351 69.4798C15.6383 70.9413 15.515 72.2548 15.9898 73.408C16.7483 75.2333 18.7031 75.9363 18.7895 75.9671L18.9683 76.0288L19.03 75.961C20.3866 75.7328 23.6981 74.7893 25.4495 70.929C25.4741 70.8611 26.1586 69.227 27.7866 69.7696C28.1196 69.8745 29.1063 70.2136 30.4383 70.6761C34.4466 72.0575 41.1498 74.3576 43.0738 74.8695C43.3883 74.9496 50.6958 76.8058 53.7606 73.4018C58.6385 74.9805 63.171 75.5231 73.9133 74.1295C75.825 73.8828 77.3543 73.9321 77.3543 73.9321C79.858 74.1233 82.1828 75.8068 82.8981 76.9353C83.225 77.4656 83.5641 78.0515 83.9218 78.662C86.629 83.3486 90.6373 90.2676 100.855 90.2676C101.552 90.2676 102.274 90.2368 103.014 90.169L108.928 89.6325C112.362 89.429 115.341 89.2501 118.301 90.8165L118.714 91.0323C119.769 91.575 120.527 91.9696 122.457 93.8073L123.136 94.461C125.282 96.533 127.483 98.6666 130.092 98.6666C130.847 98.6562 131.592 98.4838 132.275 98.161C133.656 97.5196 135.13 95.1948 135.191 95.09L135.253 94.9975L135.235 94.8865C135.13 93.9919 134.758 93.1496 134.168 92.4691C138.207 93.1721 144.589 92.9378 147.241 88.2943C147.981 87.135 148.185 85.9448 147.815 85.1061Z" fill="#8690B1"/>
</g>
<defs>
<clipPath id="clip0_178_57">
<rect width="148" height="148" fill="white"/>
</clipPath>
</defs>
</svg>
