<svg width="147" height="148" viewBox="0 0 147 148" fill="none" xmlns="http://www.w3.org/2000/svg">
<path fill-rule="evenodd" clip-rule="evenodd" d="M25.4494 44.4H37.4605V76.1337C37.4605 81.5974 35.1391 93.0427 18.473 93.0427C1.813 93.0427 0 82.3744 0 76.3927V70.5344H11.6252V76.2447C11.6252 79.7597 13.9527 83.0157 18.3444 83.0157C22.7237 83.0157 25.4371 80.5429 25.4371 76.3804V44.4H25.4494ZM56.0621 57.6645C65.4946 57.6645 73.7634 61.3029 73.7634 78.0824H51.4071C51.4071 83.4104 53.606 85.6242 57.477 85.6242C61.3602 85.6242 62.6526 82.51 62.6526 82.51H73.6409C73.6409 87.32 67.0565 93.8197 57.1034 93.6902C45.7415 93.6902 40.1861 85.2419 40.1861 76.5222C40.1861 67.8087 45.0984 57.6645 56.0744 57.6645H56.0621ZM91.973 57.6645C101.406 57.6645 109.674 61.3029 109.674 78.0824H87.318C87.318 83.4104 89.5169 85.6242 93.394 85.6242C94.462 85.6614 95.518 85.3873 96.435 84.8348C97.3521 84.2824 98.0911 83.4751 98.5635 82.51H109.54C109.54 87.32 102.943 93.8197 92.9959 93.6902C81.6279 93.6902 76.0725 85.2419 76.0725 76.5222C76.0725 67.8087 80.9725 57.6645 91.9546 57.6645H91.973ZM111.732 103.834V58.9657H122.849V60.7849C122.849 63.5167 124.264 61.9565 124.393 61.568C124.534 61.1795 127.247 58.053 132.802 58.053C138.358 58.053 147 61.9627 147 75.7575C147 86.4074 141.837 94.2082 132.913 94.2082C128.013 94.2082 125.171 92.2595 124.521 91.4764C123.878 90.6994 122.978 90.5699 122.978 91.4764V103.834H111.732ZM62.7751 71.3237C62.7751 68.0739 60.9744 64.9474 56.8339 64.9474C52.8343 64.9474 51.4071 67.8087 51.4071 71.3237H62.7751ZM98.6921 71.3237C98.6921 68.0739 96.8852 64.9474 92.7509 64.9474C88.7451 64.9474 87.3241 67.8087 87.3241 71.3237H98.6921ZM122.714 76.1337C122.592 82.769 124.007 86.2779 129.434 86.2779C134.86 86.2779 135.638 80.2962 135.638 75.739C135.638 71.188 134.597 66.7727 128.919 66.7727C125.416 66.7727 122.831 69.4984 122.714 76.1337Z" fill="#8690B1"/>
</svg>
