<svg width="148" height="148" viewBox="0 0 148 148" fill="none" xmlns="http://www.w3.org/2000/svg">
<path d="M63.9668 89.0467C63.9668 88.8 63.9668 88.7383 63.8435 88.5533L48.5502 73.4018C47.7485 72.6618 47.249 72.4152 47.8718 71.9897L69.6648 59.0458C70.1582 58.6758 70.5898 58.6142 70.5282 59.4775V86.1607C70.5282 87.9428 71.2743 89.17 73.1983 89.2255C74.9867 89.2872 76.849 89.2255 78.6435 89.2255H94.9913C97.532 89.2255 98.1487 88.3067 99.8877 87.3262L131.091 67.266C132.145 66.6493 132.33 66.2238 132.33 67.821V88.3683C132.33 89.1083 132.145 90.3355 133.138 89.7805L145.213 82.6025C147.069 81.4987 147.692 80.8265 148 78.9827V59.3542C148 57.0848 147.63 55.796 144.966 55.796H135.679C134.255 55.8577 133.755 55.796 132.146 56.906L86.9438 85.8523C86.0188 86.469 85.9572 86.284 85.9572 85.2973V59.422C85.9572 56.0488 85.0198 55.7405 81.8008 55.7405H61.1178C59.2 55.8022 58.7683 56.0488 56.7827 57.3377L16.2245 81.3877C16.1628 81.4493 15.6695 81.5048 15.7312 81.0177V56.2893C15.7312 55.6788 15.3612 55.2533 14.8 55.6788L2.72567 62.789C1.30117 63.6523 0 65.4283 0 67.1427V86.7157C0 89.1083 2.294 89.2255 4.15017 89.2255H16.5883C17.8895 89.2255 18.8823 89.1638 19.9985 88.5533C25.2587 85.3652 30.5867 82.2325 35.8468 79.106C36.4018 78.7977 36.4635 78.6743 36.963 79.2293L46.7495 88.8617C47.3045 89.2933 47.5512 89.2933 48.5995 89.2933H63.0295C63.5907 89.2317 63.6523 89.2933 63.9607 89.0467H63.9668Z" fill="#8690B1"/>
</svg>
