<svg width="148" height="148" viewBox="0 0 148 148" fill="none" xmlns="http://www.w3.org/2000/svg">
<g clip-path="url(#clip0_178_65)">
<path d="M31.5946 55.5004C27.9444 55.4679 24.4971 57.3126 24.4971 57.3126C24.4971 57.3126 21.0239 59.416 19.7553 62.5678C19.6896 62.874 12.8088 76.2192 12.8088 76.2192C4.08699 73.6971 -0.129846 78.8073 0.00304442 80.7797C2.11021 86.0659 12.4141 82.3057 13.4431 81.0818C14.0124 80.7762 14.3793 81.1422 14.3793 81.1422C14.3793 81.1422 16.9029 82.822 17.1881 82.9543C17.473 83.0866 18.9097 82.8939 18.9097 82.8939C20.027 82.809 22.0209 80.6195 22.2621 80.5985C22.6347 80.5996 23.0841 83.0241 24.6179 82.9845C26.4583 83.3402 28.4536 81.263 28.4536 81.263C28.7162 80.8914 28.816 81.1724 28.816 81.1724C28.7737 83.4507 30.624 83.0486 31.1718 82.9845C32.9901 82.2444 37.4438 77.8566 36.9404 79.1488C36.7655 79.499 35.4001 82.0482 35.4001 82.0482C35.2473 82.7272 35.7323 82.6825 35.7323 82.6825L38.9338 82.6523C39.4813 82.325 42.2821 76.2933 41.954 77.1253C42.9635 75.2986 45.2461 74.6487 45.2461 74.6487C45.4653 74.5836 45.3669 74.8903 45.3669 74.8903L41.6218 82.3201C41.5564 82.5166 41.9238 82.7127 41.9238 82.7127L45.1856 82.6523C45.6238 82.6099 48.3569 77.0044 48.3569 77.0044C49.1007 75.5822 51.7395 74.7695 51.7395 74.7695C52.2212 74.6831 51.8906 75.1621 51.8906 75.1621L49.3234 80.5381C48.9332 82.9788 50.984 83.1219 51.8604 83.0147C52.7368 82.8858 54.1618 82.3923 56.9645 80.2965C57.5343 79.8604 57.6592 80.2992 57.6592 80.3871C57.6832 83.3886 60.9814 83.0449 60.9814 83.0449C61.9674 83.2887 65.9697 83.1943 69.3173 76.5212C68.0933 81.0529 70.5887 82.2869 70.6764 82.4409C70.7642 82.5942 72.1057 83.0625 72.6093 82.9543C77.7146 83.4069 79.8579 75.4641 79.8579 75.4641C81.0065 74.6023 81.2984 74.355 81.7606 74.105C82.9002 74.2173 83.2061 74.2494 83.754 74.3164C84.192 74.4712 83.795 74.8801 83.6634 75.0111C78.4518 79.0721 80.7394 82.2037 80.9149 82.1388C83.1957 85.2343 87.9297 79.8384 88.8279 79.7529C89.9706 84.3135 93.4462 82.328 93.5999 82.3503C93.2938 83.2476 92.4023 85.4669 91.6367 86.9108C90.0387 89.1632 87.5292 86.639 87.5292 86.639L86.895 86.6088C86.5887 87.0022 86.7742 87.4544 86.7742 87.4544C87.432 88.508 88.2742 89.9659 90.8817 90.3237C93.5109 90.4406 95.0194 87.545 95.0194 87.545C95.0194 87.545 98.7053 80.7442 98.9457 79.9341C100.062 78.9293 102 77.4785 103.446 76.4306C104.388 76.2362 101.089 81.6144 100.848 82.3805C100.783 82.8186 100.939 82.8335 100.939 82.8335C100.939 82.8335 103.447 82.9583 103.929 82.8939C104.411 82.8296 106.752 77.2687 107.584 76.2192C108.306 75.0162 110.634 73.8936 110.634 73.8936C111.138 73.7855 110.966 74.3768 110.966 74.3768L107.886 80.5985C107.143 83.2033 109.235 83.2168 109.607 83.1959C110.615 83.1326 114.379 80.9609 114.379 80.9609C114.904 80.5678 114.893 81.2026 114.893 81.2026C114.849 82.0352 115.748 83.3992 116.493 83.2261C119.166 83.4743 123.209 79.0339 123.319 79.4508C123.341 79.5384 121.809 82.5617 121.809 82.5617C121.875 82.8029 122.141 82.9241 122.141 82.9241C122.141 82.9241 124.729 82.9526 125.342 82.9543C125.956 82.9562 128.746 76.2881 129.359 75.9172C130.607 74.6281 131.973 74.5056 132.017 74.5279C132.477 74.5073 129.413 79.4019 129.239 80.3871C128.562 83.2119 130.567 83.1657 130.567 83.1657C132.167 83.4115 136.089 80.6293 136.155 80.8703C136.614 80.4119 136.668 80.9609 136.668 80.9609V81.1724C136.933 83.4522 138.269 83.1959 138.269 83.1959C139.803 83.5945 145.789 78.575 145.789 78.575L144.883 77.5783L141.138 80.2965C140.832 80.4493 140.655 80.1153 140.655 80.1153L144.853 72.0211C145.05 71.8245 144.763 71.5982 144.763 71.5982H140.987C140.724 71.8823 140.564 72.0815 140.564 72.0815L137.152 78.726L133.407 80.5683C133.012 80.6766 133.104 80.2663 133.104 80.2663C133.104 80.2663 136.225 74.1432 136.487 73.2896C136.662 72.8957 136.578 72.2627 136.578 72.2627C135.546 69.8714 131.379 72.9673 130.809 72.9875C130.787 73.0094 131.323 71.9003 131.323 71.9003C131.476 71.5719 131.172 71.568 131.172 71.568L127.668 71.5378C127.668 71.5378 127.678 71.289 127.547 71.5076C127.416 71.7264 125.161 75.9474 125.161 75.9474L119.513 80.2059C119.031 80.2925 119.151 79.9643 119.151 79.9643L123.289 71.9607L123.319 71.6284L119.332 71.5378L116.04 77.8803C115.865 78.077 112.416 80.0247 112.416 80.0247C111.89 80.177 111.872 79.7227 111.872 79.7227L114.923 73.803C115.614 71.4937 113.091 70.8148 111.842 71.266C110.998 71.5702 110.211 71.8399 110.211 71.8399C110.211 71.8399 109.962 71.9047 110.181 71.5982C110.553 71.0734 114.409 63.4436 114.409 63.4436C114.497 63.2245 114.288 63.0812 114.288 63.0812L110.785 63.051C110.5 63.1812 110.453 63.3832 110.453 63.3832L105.469 72.8365L101.362 75.9172C101.099 76.0919 101.09 75.7964 101.09 75.7964L103.144 71.9003V71.5076L99.4591 71.4774L98.8551 71.9607C98.4383 71.0831 96.3237 71.0933 96.2577 71.115C91.8319 70.971 89.3414 77.2461 89.3414 77.2461C86.8787 79.381 85.7409 80.0453 84.9318 80.1757C84.2589 80.2135 84.056 79.6622 84.056 79.6622C83.1183 76.7895 89.0092 74.0748 89.0092 74.0748C89.2063 73.9655 90.0552 71.4173 89.9454 71.417C89.8359 71.4168 82.7022 71.4088 82.6365 71.3868C82.2419 71.2327 80.3366 73.0257 79.7673 73.4406C78.0988 68.55 71.6338 72.2488 70.7368 74.4373C70.3515 74.5401 70.1789 74.4684 69.9817 74.4675C70.0466 72.8027 69.8255 71.7646 68.7736 71.2358C68.2036 70.9276 65.8742 71.2358 65.8742 71.2358L69.8307 63.353C70.0276 63.1124 69.6495 62.8698 69.6495 62.8698H66.0856C65.9322 62.9571 65.7534 63.1718 65.7534 63.1718C65.7534 63.1718 59.0195 76.2136 58.6257 76.9138C58.2318 77.6137 53.3101 80.2361 53.3101 80.2361C53.3533 79.7544 56.5233 74.2423 56.6323 73.1688C56.7616 70.3868 53.5819 71.266 53.5819 71.266C53.5819 71.266 51.7812 72.4613 50.1388 73.2896C49.7859 70.2429 47.1186 71.2962 47.1186 71.2962L44.0984 73.2594L44.642 71.8399L44.7628 71.2962L41.1385 71.2056C40.7228 71.5113 39.9909 73.1688 39.9909 73.1688L38.8432 75.2829L33.6786 79.179C33.1749 79.4623 33.437 78.7864 33.437 78.7864C33.437 78.7864 36.9238 71.9474 37.0008 71.9003C37.2853 71.7254 37.0612 71.2962 37.0612 71.2962L33.5578 71.266C33.5578 71.266 32.9644 72.2739 32.8329 72.3835C31.1661 70.0341 25.6653 70.9876 22.7152 77.9407C22.338 78.4055 22.0464 78.7309 21.8393 78.8166C18.3803 82.8603 16.4029 78.8468 16.4029 78.8468L22.5943 67.0377C22.5943 67.0377 25.4115 60.7351 27.1851 58.9435C31.6745 55.9106 32.9537 58.7623 32.9537 58.7623C33.3416 59.6611 34.5245 62.9058 28.4234 64.4705C27.623 64.5496 27.8797 64.9235 27.8797 64.9235C29.6555 66.4402 31.8362 66.2826 31.8362 66.2826C33.9836 66.7047 39.8028 63.5026 37.6955 58.3696C36.0507 56.2207 33.7847 55.5199 31.5946 55.5004ZM123.742 63.504C120.543 63.6264 120.356 67.9194 123.621 68.3666C126.798 68.4632 127.401 63.646 123.742 63.504ZM145.518 63.504C142.056 63.5164 142.314 68.4012 145.578 68.3666C148.842 68.113 148.563 63.6219 145.518 63.504ZM31.2322 72.6553C32.2562 72.6787 32.0772 73.9056 31.8966 74.1352C32.0065 74.5081 30.1147 77.6991 30.1147 77.6991C27.9259 80.4318 26.8831 79.9341 26.8831 79.9341C26.8831 79.9341 26.133 79.8298 26.7019 78.3636C27.3145 77.3355 28.5046 74.6604 29.7523 73.1084C30.4093 72.7705 30.8909 72.6475 31.2322 72.6553ZM65.5722 72.9573C66.6459 73.092 66.1158 74.0748 66.1158 74.0748L63.156 79.9039C62.2148 81.0627 61.3439 80.6589 61.3439 80.6589C60.8619 80.3066 61.6761 78.9676 61.6761 78.9676L64.4547 73.5312C65.0018 72.9629 65.5722 72.9573 65.5722 72.9573ZM96.3785 72.9875C97.2165 72.8389 97.5564 73.5312 97.5564 73.5312C97.5564 73.5312 97.6052 73.6426 97.496 74.256C97.2557 75.1976 94.657 79.6925 94.657 79.6925C93.5626 80.7851 92.6032 80.5683 92.6032 80.5683C92.0555 80.4133 92.271 79.6018 92.271 79.6018C92.271 79.6018 94.3754 75.2865 95.3818 73.4708C95.776 73.1816 96.0992 73.0371 96.3785 72.9875ZM76.2336 73.0177C76.6964 72.9396 77.136 73.1304 77.049 74.105C76.5024 75.2647 74.3457 79.525 73.908 80.1153C73.8207 80.6192 71.6182 81.4406 72.1865 79.6018C72.1865 79.6018 75.2757 73.8241 75.2973 73.5614C75.3081 73.43 75.7708 73.0959 76.2336 73.0177ZM6.67775 77.7595C8.48362 77.7165 10.1208 78.3031 10.1208 78.3031C10.1208 78.3032 9.69834 79.7109 5.71128 80.3569C3.82701 80.2425 2.84254 80.2511 2.84206 79.5716C3.76129 78.2036 5.27318 77.793 6.67775 77.7595Z" fill="#8690B1"/>
</g>
<defs>
<clipPath id="clip0_178_65">
<rect width="148" height="148" fill="white"/>
</clipPath>
</defs>
</svg>
