<svg width="148" height="148" viewBox="0 0 148 148" fill="none" xmlns="http://www.w3.org/2000/svg">
<path fill-rule="evenodd" clip-rule="evenodd" d="M74 109.193C33.1335 109.193 0 93.3633 0 73.8396C0 54.3098 33.1335 38.48 74 38.48C114.866 38.48 148 54.3098 148 73.8396C148 93.3633 114.866 109.193 74 109.193ZM74 106.406V106.387C92.8453 106.387 110.575 103.063 123.925 97.0263C137.492 90.8905 144.972 82.6518 144.972 73.8211C144.972 64.9966 137.498 56.758 123.925 50.616C110.575 44.585 92.8453 41.255 74 41.255C55.1547 41.255 37.4255 44.585 24.0747 50.616C10.508 56.758 3.02783 65.009 3.02783 73.8335C3.02783 82.6641 10.5018 90.9028 24.0747 97.0386C37.4255 103.082 55.1547 106.406 74 106.406ZM4.76067 73.8396C4.76067 56.8381 35.8222 43.0063 74 43.0063C112.184 43.0063 143.239 56.8381 143.239 73.8396C143.239 90.8411 112.178 104.673 74 104.673C35.816 104.673 4.76067 90.8411 4.76067 73.8396ZM38.0483 66.5013L42.4513 53.3355H37.518L31.8817 70.2198H42.0752L43.3208 66.5013H38.0483ZM50.4803 67.2845L56.536 67.2968L56.6593 70.2321H61.3398L60.6122 53.3355H55.8083L43.66 70.2198H48.3343L50.4803 67.2845ZM69.1962 53.317L63.5598 70.2198H68.265L71.0832 61.5926L73.1367 70.226H78.2858L83.9222 53.317H79.3095L76.0412 62.7951L74.0247 53.317H69.1962ZM88.06 53.317L82.4237 70.226H90.7055C95.3922 70.226 98.6543 67.3153 100.492 61.7715C102.064 57.0108 99.4313 53.3231 94.72 53.3231H88.06V53.317ZM54.02 91.9943L51.023 85.0691C53.5575 84.6375 55.5308 82.621 56.3078 80.2961C57.5165 76.6825 55.5062 75.0915 52.1762 75.0915H44.5233L38.887 91.9881H43.7093L45.88 85.4946H46.25L48.544 91.9943H54.0138H54.02ZM74.3885 84.0886C75.7452 78.033 72.4275 74.5303 67.8025 74.5303C63.1775 74.5303 59.3233 77.8973 58.1332 83.0095C56.8875 88.3375 59.6748 92.5493 64.565 92.5493C69.7573 92.5493 73.1613 89.5708 74.3885 84.0886ZM82.3188 84.7115L82.1955 75.0915H77.4225L77.7062 91.9881H82.1893L94.6152 75.0915H89.3057L82.3188 84.7115ZM100.548 78.81H105.764L107.01 75.0853H96.9585L91.3283 91.9943H101.38L102.613 88.2696H97.3902L98.3645 85.359H103.316L104.55 81.6343H99.604L100.548 78.81ZM24.3152 81.3136L22.9708 85.4021H34.2312L35.5755 81.4185H28.6812L36.4943 78.6126L37.0863 76.7318L24.3152 81.3136ZM116.427 63.6523L117.777 59.5638H106.511L105.16 63.5536H112.067L104.254 66.3533L103.655 68.2403L116.427 63.6523ZM120.743 91.9943H120.725L117.728 85.0691C120.275 84.6375 122.236 82.621 123.019 80.2961C124.221 76.6825 122.223 75.0915 118.887 75.0915H111.24L105.604 91.9881H110.433L112.597 85.4946H112.967L115.267 91.9943H120.743ZM56.4805 58.5401V63.9236H52.8237L56.4312 58.5401H56.4805ZM88.8185 66.4951L91.9697 57.0416H92.6788C95.5032 57.0416 96.0705 58.7436 95.0592 61.7715C93.9615 65.0645 91.7785 66.5013 89.1577 66.5013H88.8185V66.4951ZM46.8235 82.6518L46.842 82.6641L48.2357 78.4523H49.3087C50.7517 78.4523 51.6273 78.7052 51.0045 80.549C50.3878 82.3805 48.692 82.6518 47.2552 82.6518H46.8235ZM63.603 83.2438C64.158 80.5675 65.342 78.7853 67.2722 78.7853C69.2085 78.7853 69.4305 81.0238 69.005 83.3548C68.4808 86.2716 67.0502 88.2882 65.12 88.2882C63.196 88.2882 63.0048 86.1483 63.603 83.2438ZM113.547 82.6518V82.6641L114.953 78.4523H116.026C117.456 78.4523 118.338 78.7052 117.728 80.549C117.111 82.3805 115.409 82.6518 113.972 82.6518H113.547Z" fill="#8690B1"/>
</svg>
