<svg width="147" height="148" viewBox="0 0 147 148" fill="none" xmlns="http://www.w3.org/2000/svg">
<g clip-path="url(#clip0_178_69)">
<path fill-rule="evenodd" clip-rule="evenodd" d="M73.5 127.052C97.8408 127.052 119.425 118.493 132.802 105.314L120.748 105.37C109.35 115.021 92.6958 121.095 73.8063 121.095C38.5753 121.095 11.074 99.9555 11.074 73.8829C11.074 43.8142 38.5753 26.677 73.8063 26.677C76.0419 26.677 77.8365 27.7254 76.4951 29.674C69.1696 38.5479 48.3324 67.0995 44.5288 73.2847C37.0318 85.4762 37.2094 100.504 55.5844 101.553H132.833C136.777 101.553 137.782 99.6904 139.203 97.7479C144.3 90.8503 147.036 82.4737 147 73.8767C146.988 51.467 131.32 34.669 108.278 26.4119L104.725 31.7769C123.872 38.887 136.532 53.2677 136.532 73.8767C136.532 77.4534 136.012 80.9437 135.026 84.2984C134.168 87.2029 132.49 89.6634 129.329 89.6634H67.6568C59.7555 89.6634 62.8119 81.4617 65.7396 77.4842C69.9781 69.8314 93.2103 37.9374 98.8146 31.9989C100.236 29.822 104.229 25.308 98.7289 23.5752C90.4574 21.6434 81.9911 20.6852 73.5 20.72C32.9158 20.72 0.0245077 41.7052 7.68669e-06 73.8829C-0.0183673 106.363 32.9096 127.052 73.5 127.052Z" fill="#8690B1"/>
</g>
<defs>
<clipPath id="clip0_178_69">
<rect width="147" height="148" fill="white"/>
</clipPath>
</defs>
</svg>
