<svg width="148" height="148" viewBox="0 0 148 148" fill="none" xmlns="http://www.w3.org/2000/svg">
<g clip-path="url(#clip0_178_71)">
<path fill-rule="evenodd" clip-rule="evenodd" d="M73.5066 17.76C67.2166 17.76 61.6666 18.685 51.6149 29.8467L16.7732 68.8817L16.5882 69.0667C13.3303 72.6653 11.5278 77.3474 11.5316 82.2017C11.397 84.8243 11.8224 87.4455 12.7793 89.891C13.7362 92.3365 15.2028 94.5502 17.0816 96.385C31.6349 109.643 56.5482 115.748 73.4449 115.748C89.5399 115.748 114.022 110.63 129.87 96.2617C131.889 94.519 133.508 92.3602 134.615 89.9334C135.722 87.5066 136.291 84.869 136.283 82.2017C136.407 77.6383 134.433 72.5817 131.227 69.005L95.4599 29.9083C86.0866 19.6717 80.6599 17.76 73.5066 17.76ZM73.4449 117.537C56.1782 117.537 30.7716 111.308 15.8482 97.68C13.7865 95.6812 12.1711 93.2686 11.1082 90.6009C10.0454 87.9332 9.55918 85.0707 9.68158 82.2017C9.69752 76.8208 11.746 71.6446 15.4166 67.71L50.3199 28.675C59.8782 17.945 65.6133 15.9717 73.5066 15.9717C81.0299 15.9717 87.0116 18.0067 96.7549 28.7367L132.522 67.7717C136.098 71.7183 138.195 77.2067 138.072 82.2017C138.076 85.1256 137.451 88.0161 136.237 90.6765C135.024 93.3368 133.252 95.7045 131.042 97.6183C114.823 112.295 89.8483 117.537 73.4449 117.537Z" fill="#8690B1"/>
<path fill-rule="evenodd" clip-rule="evenodd" d="M80.475 44.4617H74.4317V45.7567C76.2817 45.9417 77.7 46.3117 78.0083 46.435C78.995 46.9283 78.8717 46.0033 79.4883 45.8183C79.735 45.7567 82.2017 49.1483 81.4617 49.1483H80.845C78.995 48.1617 76.6517 47.4217 74.4317 47.2983V51.9233H80.475C83.99 51.9233 84.1133 44.5233 80.475 44.5233M66.8467 52.0467H70.6083V47.73C68.8817 48.3467 67.525 49.7033 66.9083 52.0467M66.5383 54.8833C66.5383 59.3233 68.265 61.6667 70.5467 62.6533V54.6367H66.5383V54.945M80.66 54.76H74.4933V63.3933C77.3917 63.2083 80.29 61.975 81.77 60.7417C82.2633 60.31 82.5717 60.6183 82.3867 61.1117C81.3383 63.3933 78.07 64.8117 74.4317 64.8733V66.9083H80.66C86.3333 66.9083 86.3333 54.76 80.66 54.76ZM70.6083 45.9417V44.4617H66.9083L62.2217 52.0467H63.64C64.75 48.1 67.6483 46.4967 70.6083 45.9417Z" fill="#8690B1"/>
<path fill-rule="evenodd" clip-rule="evenodd" d="M123.21 85.4084C119.017 89.9717 111.617 90.5884 111.617 90.5884L109.089 87.2584L109.705 86.5184C111 87.3817 112.295 87.6284 114.33 87.5051C115.995 87.4434 118.77 86.0251 118.77 86.0251C118.77 86.0251 122.655 83.6201 121.237 81.4617C120.189 79.9201 117.167 81.5234 113.899 82.5717C110.815 83.4967 107.485 83.8051 105.635 80.7217C104.217 78.2551 105.142 73.3217 111 71.1634C114.269 69.9301 114.762 70.1767 115.749 69.6834L117.044 69.0667L119.51 71.3484L118.77 72.4584C118.77 72.4584 116.304 71.3484 112.604 72.7051C110.692 73.4451 107.732 75.4184 108.719 77.1451C109.767 78.9951 115.194 76.5284 115.194 76.5284C115.194 76.5284 121.977 73.6301 124.32 77.5767C126.17 80.6601 124.814 83.7434 123.21 85.4084ZM88.122 95.3367L85.2237 84.9151C84.607 83.3734 82.942 83.4351 82.942 83.4351L82.6953 82.1401C85.2237 82.0784 90.0337 80.5984 91.3287 80.2901L91.5753 81.5234C90.712 82.2634 90.2187 82.5717 90.4653 83.9901L92.747 92.8084C94.2887 97.7417 103.354 95.0284 101.75 89.9717L98.852 80.9684C98.852 80.9684 97.8037 79.5501 97.002 79.5501H96.3853L96.077 78.5634C97.927 78.1934 99.777 77.4534 101.504 76.5284L101.874 77.5767L101.504 78.1317C101.01 78.7484 101.134 79.9817 101.134 79.9817L104.279 91.0817C106.129 97.3717 90.712 102.182 88.122 95.3984V95.3367ZM80.722 86.8884C79.242 84.4834 75.6653 84.4834 75.6653 84.4834V98.4201C75.6653 98.4201 75.7887 99.7767 77.022 99.9001L78.3787 100.023V101.503C73.692 101.935 72.027 101.935 67.2787 101.503C67.2491 101.01 67.2491 100.516 67.2787 100.023L68.327 99.9001C70.0537 99.7767 69.992 98.3584 69.992 98.3584V84.6067C65.7987 84.6067 65.3053 86.0867 64.442 87.2584L63.4553 86.8267L65.0587 82.2634C71.472 83.1267 74.3087 83.0034 80.2287 82.4484L81.7703 86.3951C81.7703 86.3951 80.722 87.0117 80.722 86.8884ZM60.002 93.4867C56.9187 99.0984 51.5537 99.9001 46.4353 97.4334C40.762 94.7201 38.172 89.2317 41.7487 83.0034C44.5237 78.1934 49.5803 77.4534 54.637 79.7351C61.112 82.6951 62.6537 88.6151 60.002 93.4867ZM36.5687 74.8634L29.6004 84.3601C29.292 84.7917 29.1687 85.7784 29.662 86.3334C30.217 86.8267 32.5604 88.3684 33.0537 88.5534C33.6087 88.6767 34.287 88.8001 34.842 88.6151C35.4587 88.4917 36.9387 87.4434 36.9387 87.4434L37.8637 88.3067C37.8637 88.3067 34.7803 91.8217 34.7187 91.7601C29.7643 89.0018 25.0959 85.7586 20.782 82.0784C21.0089 81.6999 21.2778 81.3482 21.5837 81.0301L23.1253 81.7701C23.927 82.0784 24.5437 81.8934 25.037 81.4617C25.592 81.0301 31.512 72.8284 32.252 71.9034C32.9303 70.9167 32.3753 69.9301 32.3753 69.9301L31.142 68.5734L32.067 67.5251C34.3487 69.4367 38.2337 72.2734 40.4537 73.6917L39.7137 74.6784C38.1103 73.5684 36.877 74.3701 36.5687 74.8634ZM45.0787 67.5867C45.0787 67.5251 49.2103 66.7851 50.6287 64.9351L53.157 60.8034C52.5403 58.5834 52.1087 56.1784 52.1087 53.5267C52.1087 37.7401 64.9353 32.2517 73.6303 32.0667C78.872 32.0051 83.2503 33.7934 83.9287 34.1634C86.0253 35.2117 85.7787 32.8684 87.012 32.4984C87.937 32.1284 92.9937 40.2684 91.452 40.2684C91.2053 40.2684 90.342 40.3917 90.157 40.2684C78.0703 32.6834 58.0903 32.3751 57.9053 53.1567L62.962 45.0167C63.5787 44.1534 62.4687 43.5367 61.9753 42.9817C61.7903 42.7967 61.7287 42.0567 62.0987 42.0567H82.2637C88.7387 43.4751 89.232 51.2451 84.1137 52.8484C84.1137 52.8484 83.9903 53.4651 84.1137 53.5267C93.3637 56.6101 89.8487 68.6967 81.0303 68.7584H67.4637V67.7101C67.4637 67.7101 70.4853 67.2167 70.547 65.9217V64.4417C66.477 63.4551 62.962 60.4951 63.147 54.9451L63.2087 54.6984H60.4953L58.2753 58.1517C60.0637 69.0051 67.957 73.2601 75.912 73.2601C81.9005 73.2282 87.6618 70.9633 92.0687 66.9084C93.1787 65.7984 93.9187 66.7234 93.3637 67.7101C91.4715 70.5694 88.8671 72.8864 85.8068 74.4327C82.7466 75.979 79.3363 76.7013 75.912 76.5284C71.5559 76.6003 67.2625 75.4844 63.4926 73.3007C59.7227 71.117 56.6186 67.9478 54.5137 64.1334L53.712 65.3667C53.712 65.3667 52.602 67.2784 55.377 67.5251V68.7584H45.0787V67.5251V67.5867ZM131.104 82.0784C131.227 76.2817 126.479 70.9784 126.417 71.1634L89.1087 29.4151C87.058 27.3161 84.6136 25.6421 81.9154 24.4887C79.2171 23.3353 76.3179 22.7253 73.3837 22.6934C70.4927 22.6348 67.6224 23.193 64.9641 24.3307C62.3058 25.4685 59.9204 27.1597 57.967 29.2917L20.782 71.1017C20.782 71.2251 15.8487 76.2817 15.8487 82.2017C15.787 85.9017 17.1437 90.5884 20.782 93.7951C33.732 105.142 56.5487 110.815 73.3837 110.815C90.342 110.815 112.48 103.97 126.17 93.7334C130.364 90.6501 131.165 85.7784 131.104 82.0784Z" fill="#8690B1"/>
<path fill-rule="evenodd" clip-rule="evenodd" d="M53.6504 82.0783C49.5187 80.0433 47.4837 82.695 46.0037 86.3333C44.4621 90.0333 44.5854 93.7333 47.2987 94.9666C50.0737 96.3233 52.9104 96.2 55.3154 89.7867C56.3021 87.135 57.1037 83.7433 53.5887 82.0783" fill="#8690B1"/>
<path fill-rule="evenodd" clip-rule="evenodd" d="M74 145.04C64.6709 145.04 55.4331 143.202 46.8142 139.632C38.1952 136.062 30.3638 130.83 23.7671 124.233C17.1705 117.636 11.9377 109.805 8.3676 101.186C4.7975 92.5669 2.96 83.3291 2.96 74C2.96 64.6709 4.7975 55.4331 8.3676 46.8142C11.9377 38.1952 17.1705 30.3638 23.7671 23.7671C30.3638 17.1705 38.1952 11.9377 46.8142 8.3676C55.4331 4.7975 64.6709 2.96 74 2.96C92.841 2.96 110.91 10.4446 124.233 23.7671C137.555 37.0897 145.04 55.159 145.04 74C145.04 92.841 137.555 110.91 124.233 124.233C110.91 137.555 92.841 145.04 74 145.04ZM74 0C54.374 0 35.5518 7.79641 21.6741 21.6741C7.79641 35.5518 0 54.374 0 74C0 93.626 7.79641 112.448 21.6741 126.326C35.5518 140.204 54.374 148 74 148C93.626 148 112.448 140.204 126.326 126.326C140.204 112.448 148 93.626 148 74C148 54.374 140.204 35.5518 126.326 21.6741C112.448 7.79641 93.626 0 74 0Z" fill="#8690B1"/>
</g>
<defs>
<clipPath id="clip0_178_71">
<rect width="148" height="148" fill="white"/>
</clipPath>
</defs>
</svg>
