<svg width="148" height="148" viewBox="0 0 148 148" fill="none" xmlns="http://www.w3.org/2000/svg">
<path fill-rule="evenodd" clip-rule="evenodd" d="M112.585 107.639H103.162C103.162 113.016 106.862 115.711 112.585 114.361V107.639ZM113.257 87.1165C113.257 85.7722 113.929 67.9443 118.301 54.1557C123.013 38.6773 132.09 29.6 131.418 28.5887C130.746 27.5835 123.346 29.267 117.629 33.3C111.573 37.3392 105.518 44.4 105.851 45.0783C106.19 45.4113 108.213 43.7217 111.913 42.3835C115.946 41.0392 117.629 41.0392 117.629 41.0392C117.629 41.0392 111.234 51.8 107.873 63.5722C105.185 73.3278 103.834 86.1113 103.495 87.1165H113.257ZM35.2177 87.1165C35.2177 85.7722 34.5455 67.9443 30.1733 54.1557C25.462 38.6773 16.3847 29.6 17.0568 28.5887C17.729 27.5835 25.129 29.267 30.8455 33.3C36.9012 37.3392 42.9568 44.4 42.6238 45.0783C42.2847 45.4113 40.262 43.7217 36.562 42.3835C32.529 41.0392 30.8455 41.0392 30.8455 41.0392C30.8455 41.0392 37.2342 51.8 40.6012 63.5722C43.2898 73.3278 44.6342 86.1113 44.9733 87.1165H35.2177ZM68.8568 18.5C72.5568 11.1 73.229 0 74.2342 0C75.2455 0.339167 75.9177 11.1 79.6177 18.5C82.9847 25.5608 90.7177 31.2835 90.3847 31.9557C89.7063 32.9608 85.6733 30.6113 83.6568 29.6C80.2898 27.9165 77.6012 26.9113 77.6012 26.9113C77.6012 26.9113 76.2568 44.4 80.6228 60.8835C83.9898 74 92.4012 86.1052 93.4125 87.4557H82.6455L81.6342 85.7722C78.6125 80.7278 76.5898 76.3557 74.5733 68.6165C72.5568 76.3557 70.5342 80.7278 67.5125 85.7722L66.5012 87.4557H55.7342C56.4125 86.4443 64.8177 74.3392 68.5177 60.8773C72.896 44.7392 71.5455 26.9113 71.5455 26.9113C71.5455 26.9113 68.8568 28.2557 65.4898 29.6C63.4733 30.6113 59.1012 32.6217 58.7682 31.9557C57.7568 31.2773 65.1568 25.5608 68.8568 18.5ZM35.8898 107.639H45.3125C45.3125 113.016 41.6125 115.711 35.8898 114.361V107.639ZM87.6898 112.011C83.3177 116.044 83.3177 123.111 83.3177 123.111H64.4847C64.4847 123.111 64.4847 116.044 60.1063 112.011C57.0847 109.316 53.3847 108.644 53.3847 108.644C51.029 108.311 51.029 107.972 51.029 107.639H96.1012C96.1012 107.639 96.1012 107.972 93.7455 108.644C94.4238 108.644 90.7238 109.323 87.6898 112.011ZM31.1847 89.8113H117.29V93.1722H31.1847V89.8113ZM31.1847 101.916H117.29V105.284H31.1847V101.916ZM35.2177 95.5278H112.918V98.8887H35.2177V95.5278ZM64.4847 134.544H84.329V148H64.4847V134.544ZM61.1115 125.8H87.3507V132.189H61.1115V125.8Z" fill="#8690B1"/>
</svg>
