<svg width="148" height="148" viewBox="0 0 148 148" fill="none" xmlns="http://www.w3.org/2000/svg">
<path fill-rule="evenodd" clip-rule="evenodd" d="M48.1493 73.0751C59.4837 77.7987 67.0378 84.4032 73.8828 99.2711C80.7278 84.4094 88.0477 76.8491 99.6102 72.1254L128.692 61.7284L128.877 62.4684C129.352 65.7737 129.586 69.7882 129.586 73.7904C129.586 114.86 102.441 123.124 73.8828 122.889C45.3188 123.124 18.4137 114.86 18.4137 73.7904C18.4137 70.7194 18.4137 67.6484 18.8823 65.0584L19.3078 63.3194L48.1493 73.0874V73.0751ZM122.433 44.5974L121.804 43.5676C111.654 28.4592 93.24 24.9196 73.8828 24.9196C54.5195 24.9196 35.6433 28.6936 25.7273 44.0362L24.6667 45.8862C41.6867 55.6234 61.0192 55.8084 73.8767 80.4011C85.6982 55.0561 105.234 54.6984 122.439 44.6036L122.433 44.5974ZM136.197 35.7791L134.544 33.8921C119.436 17.5997 94.6583 14.0601 73.8767 14.0601C52.8668 14.0601 27.3738 17.5997 12.506 34.8294L11.803 35.7914C4.477 44.5234 0 57.0294 0 73.7781C0 125.473 42.0135 133.737 73.8767 133.737C105.98 133.737 148 125.473 148 73.7904C148 57.0294 143.517 44.5234 136.197 35.7914V35.7791Z" fill="#8690B1"/>
</svg>
