<svg width="148" height="147" viewBox="0 0 148 147" fill="none" xmlns="http://www.w3.org/2000/svg">
<path d="M27.6397 85.7236H33.9471V75.2793H30.2876C28.7405 75.2793 27.6992 75.8495 26.6281 76.6011C25.4678 77.4825 21.2727 80.6442 21.2727 80.6442V75.3056H17.5537C15.4413 75.3056 14.3702 75.953 13.2099 76.7566C12.3769 77.2748 0 85.7236 0 85.7236H7.49756L14.9355 80.3851V85.7236H20.9752L27.6397 80.4629V85.7236ZM41.4149 85.7236H51.6199V83.0287H43.2595C42.486 83.0287 41.6529 82.614 41.6529 81.2922V81.1109C41.6529 79.9447 42.3372 79.4523 43.2298 79.4523H51.6199V76.7309H41.2066C36.9521 76.7309 35.2562 78.3375 35.2562 80.8255V81.6548C35.2562 84.5574 37.1008 85.7236 41.4149 85.7236ZM64.2049 85.7236V82.9766H59.3257V75.3056H52.9884V85.75H64.2049V85.7236ZM76.463 82.2251C76.463 82.7432 76.2249 83.0544 75.5108 83.0544H72.0896C71.4945 83.0544 71.1072 82.8988 71.1072 82.5105C71.1072 82.0958 71.3452 81.8624 72.0896 81.8624H76.463V82.2251ZM82.7702 82.2251V80.2552C82.7702 78.0006 81.0744 76.7309 77.4447 76.7309H66.1387V79.3224H75.213C76.1355 79.3224 76.463 79.5815 76.463 80.2038V80.3073H69.2332C66.1985 80.3073 65.1274 81.4214 65.1274 82.8731V83.1579C65.1144 83.4445 65.1681 83.7294 65.2859 83.997C65.4037 84.2641 65.5825 84.5078 65.8113 84.713C66.7042 85.4388 68.4 85.6722 70.691 85.6722H76.9686C81.0744 85.7236 82.7702 84.9207 82.7702 82.2251ZM90.4761 79.4523H94.4333V76.7309H86.3407C85.0315 76.7309 84.1984 77.3269 84.1984 78.3375V85.7236H90.5353V79.4523H90.4761ZM106.81 79.9447C106.81 80.333 106.602 80.5664 105.888 80.5664H101.395V80.2038C101.395 79.685 101.633 79.3745 102.377 79.3745H105.828C106.394 79.3745 106.81 79.5301 106.81 79.9447ZM112.79 79.7371V79.3745C112.79 77.8971 111.838 76.7566 107.405 76.7566H100.889C96.7834 76.7566 95.0875 77.9749 95.0875 80.6185V82.1736C95.0875 84.4282 96.7834 85.7236 100.443 85.7236H112.017V83.1064H102.645C101.722 83.1064 101.395 82.8731 101.395 82.2514V82.1736H108.655C111.213 82.1473 112.79 81.4214 112.79 79.7371ZM130.85 85.7236V80.6962C130.85 77.5602 129.124 76.7309 124.007 76.7309H113.98V85.7236H120.317V79.6593H122.013C123.917 79.6593 124.542 80.6185 124.542 81.6548V85.75H130.85V85.7236Z" fill="#8690B1"/>
<path d="M142.658 67.375C139.445 67.375 134.833 68.2043 129.835 69.7852C125.403 71.1976 121.155 73.0131 117.16 75.2021C120.991 73.9624 125.035 73.2966 129.12 73.2323C134.773 73.2323 138.879 75.1244 132.899 81.7847C150.542 71.755 150.037 67.375 142.658 67.375Z" fill="#8690B1"/>
</svg>
