<svg width="147" height="147" viewBox="0 0 147 147" fill="none" xmlns="http://www.w3.org/2000/svg">
<g clip-path="url(#clip0_178_85)">
<path fill-rule="evenodd" clip-rule="evenodd" d="M73.5 0C32.8729 0 0 32.8729 0 73.5C0 114.127 32.8729 147 73.5 147C114.127 147 147 114.127 147 73.5C147 32.8729 114.127 0 73.5 0ZM16.8744 40.9579C22.5597 31.1318 30.7011 22.952 40.5002 17.2203C50.2993 11.4886 61.4197 8.4018 72.7711 8.26262L63.8654 67.5159L16.5804 105.754C5.20625 85.6153 5.20625 60.9499 16.8744 40.9579ZM73.794 139.172C50.7334 139.319 29.2775 127.204 17.3154 107.212L73.5 84.0105L129.979 106.918C124.181 116.675 115.964 124.771 106.121 130.421C96.278 136.072 85.1432 139.086 73.794 139.172ZM130.708 105.313L82.8406 68.2448L74.3759 8.11563C85.687 8.25905 96.7651 11.3503 106.516 17.0841C116.267 22.818 124.354 30.9961 129.979 40.8109C141.653 60.8029 141.941 85.1742 130.708 105.313Z" fill="#8690B1"/>
</g>
<defs>
<clipPath id="clip0_178_85">
<rect width="147" height="147" fill="white"/>
</clipPath>
</defs>
</svg>
