<svg width="148" height="147" viewBox="0 0 148 147" fill="none" xmlns="http://www.w3.org/2000/svg">
<g clip-path="url(#clip0_178_87)">
<path fill-rule="evenodd" clip-rule="evenodd" d="M106.683 0H41.995L0 41.7725V105.35L41.6867 147H105.943L148 105.228V41.405L106.683 0ZM135.235 99.5312L100.208 134.321H47.7917L12.765 99.715V47.4688L47.7917 12.8625H100.887L135.235 47.1625V99.5312ZM42.55 56.7788L33.67 38.7712L20.35 51.1438V95.3662L33.1767 108.229V65.17L44.2767 89.67L56.8567 56.9625V125.562H71.04V21.1313H55.9933L42.55 56.7788ZM80.9067 21.07V125.562H97.0017L127.65 95.305V73.255H104.093V85.995H112.85C115.193 85.6275 115.317 88.3225 113.652 90.2825C111.987 92.3037 95.0283 108.841 95.0283 108.841V37.73L114.823 58.31V63.3325H127.65V51.6338L97.3717 21.0088H80.9067V21.07Z" fill="#8690B1"/>
</g>
<defs>
<clipPath id="clip0_178_87">
<rect width="148" height="147" fill="white"/>
</clipPath>
</defs>
</svg>
