<svg width="148" height="147" viewBox="0 0 148 147" fill="none" xmlns="http://www.w3.org/2000/svg">
<path fill-rule="evenodd" clip-rule="evenodd" d="M74 102.802C66.637 102.802 59.5755 99.8968 54.3691 94.7256C49.1626 89.5543 46.2377 82.5405 46.2377 75.2273C46.2377 67.914 49.1626 60.9002 54.3691 55.729C59.5755 50.5577 66.637 47.6525 74 47.6525C81.363 47.6525 88.4245 50.5577 93.6309 55.729C98.8374 60.9002 101.762 67.914 101.762 75.2273C101.762 82.5405 98.8374 89.5543 93.6309 94.7256C88.4245 99.8968 81.363 102.802 74 102.802ZM148 57.8629H101.318C98.3872 53.2681 94.3335 49.4845 89.5344 46.864C84.7354 44.2435 79.347 42.8713 73.8705 42.875C68.3953 42.8734 63.0086 44.2466 58.2109 46.867C53.4132 49.4873 49.3603 53.2698 46.4288 57.8629H0L4.72367 62.5608H43.9313C43.2012 64.2712 42.6234 66.042 42.2047 67.8528H10.0393L14.7692 72.5568H41.4708C41.3269 74.3179 41.329 76.0879 41.477 77.8488H20.0848L24.8085 82.5466H42.217C42.6487 84.3841 43.2283 86.1481 43.956 87.8448H30.1242L34.8478 92.5426H46.4658C49.4017 97.1187 53.452 100.885 58.2421 103.495C63.0322 106.104 68.4074 107.471 73.8705 107.469C79.3347 107.472 84.7114 106.106 89.5028 103.497C94.2942 100.888 98.3454 97.12 101.281 92.5426H113.152L117.876 87.8448H103.791C104.524 86.1318 105.105 84.3592 105.53 82.5466H123.191L127.915 77.8488H106.27C106.425 76.0882 106.427 74.3177 106.276 72.5568H133.231L137.961 67.8528H105.542C105.124 66.042 104.546 64.2712 103.816 62.5608H143.276L148 57.8629Z" fill="#8690B1"/>
<path fill-rule="evenodd" clip-rule="evenodd" d="M59.7243 79.233L55.9503 67.9079H51.6768V82.4547H54.8033V71.6747L58.0901 82.4547H61.3214L64.6206 71.6747V82.4547H67.7471V67.9079H63.4613L59.7243 79.233ZM86.9008 78.5654L81.0301 67.9079H77.5829V82.4609H80.4813V72.2627L86.3458 82.5405L89.8361 82.4609V67.9079H86.9378L86.9008 78.5654ZM71.1511 82.4486H74.1234V67.9017H71.1511V82.4486ZM93.2216 82.4486H96.1939V67.9017H93.2216V82.4486Z" fill="#8690B1"/>
</svg>
