<svg width="147" height="147" viewBox="0 0 147 147" fill="none" xmlns="http://www.w3.org/2000/svg">
<path d="M105.987 65.17H110.06L120.742 82.2771H116.148L114.25 79.2207H101.798L99.8988 82.2771H95.305L105.987 65.17ZM112.296 75.9868L108.027 69.1145L103.745 75.9868H112.296ZM21.0639 55.4496C28.6895 33.1424 49.7718 18.1606 73.5123 18.1606C97.2527 18.1606 118.329 33.1424 125.961 55.4496L126.022 55.6334H142.719V53.6305L135.773 52.822C131.492 52.3197 130.579 50.4333 129.415 48.0445L129.133 47.4626C119.101 26.0741 97.265 12.25 73.5123 12.25C49.7534 12.25 27.9178 26.0741 17.885 47.4688L17.6033 48.0445C16.4456 50.4333 15.533 52.3197 11.2455 52.822L4.29975 53.6305V55.6334H20.9965L21.0639 55.4496ZM126.022 91.8321L125.961 92.0159C118.323 114.311 97.2466 129.299 73.5123 129.299H73.5C49.7595 129.299 28.6834 114.305 21.0578 91.9975L20.9965 91.8138H4.29362V93.8227L11.2394 94.6312C15.5269 95.1335 16.4395 97.02 17.5971 99.4087L17.8727 99.9845C27.9116 121.379 49.7411 135.203 73.4939 135.203H73.5061C97.2528 135.203 119.088 121.385 129.121 100.003L129.409 99.421C130.567 97.0322 131.479 95.1457 135.767 94.6435L142.712 93.835V91.8321H126.016M29.645 82.2771H33.4303V65.17H29.645V82.2771ZM21.2721 82.2771V65.17H17.4869V77.9161L4.86938 65.17H0V82.2771H3.78525V69.4391L16.4885 82.2771H21.266M85.7071 78.7185C85.4464 78.7404 85.1848 78.7506 84.9231 78.7491H69.7025V82.2771H85.1681C85.2906 82.2771 86.1849 82.271 86.3931 82.2526C89.5475 81.9709 90.9869 79.3432 90.9869 77.0219C90.9869 74.6699 89.4862 72.1403 86.6259 71.8585C86.2127 71.8177 85.7976 71.7993 85.3825 71.8034H75.2763C74.9007 71.8116 74.5253 71.7829 74.1554 71.7176C73.353 71.5032 73.0651 70.805 73.0651 70.2231C73.0636 69.8873 73.1725 69.5604 73.375 69.2925C73.5775 69.0247 73.8625 68.8309 74.186 68.7409C74.5337 68.6642 74.8904 68.6374 75.2456 68.6613H89.8354V65.17H75.0129C74.3759 65.17 73.9226 65.1945 73.5245 65.2496C72.3155 65.3982 71.2049 65.9906 70.4081 66.9119C69.6113 67.8332 69.1852 69.0176 69.2125 70.2354C69.2125 72.3485 70.5416 74.823 73.4632 75.2456C73.9839 75.3191 74.7373 75.313 75.0557 75.313H84.9048C85.0885 75.313 85.5295 75.3253 85.6214 75.3375C86.7239 75.4906 87.122 76.3175 87.122 77.0525C87.1294 77.4539 86.9905 77.8442 86.7313 78.1508C86.4721 78.4573 86.1103 78.6591 85.7132 78.7185M57.3116 78.7185C57.0509 78.7404 56.7893 78.7506 56.5276 78.7491H41.3009V82.2771H56.7665C56.889 82.2771 57.7833 82.271 57.9915 82.2526C61.1459 81.9709 62.5853 79.3432 62.5853 77.0219C62.5853 74.6699 61.0846 72.1403 58.2242 71.8585C57.8111 71.8177 57.396 71.7993 56.9809 71.8034H46.8746C46.4991 71.8116 46.1237 71.7829 45.7537 71.7176C44.9514 71.5032 44.6635 70.805 44.6635 70.2231C44.662 69.8873 44.7708 69.5604 44.9734 69.2925C45.1759 69.0247 45.4609 68.8309 45.7844 68.7409C46.132 68.6642 46.4888 68.6374 46.844 68.6613H61.4338V65.17H46.6113C45.9743 65.17 45.521 65.1945 45.1229 65.2496C43.9139 65.3982 42.8032 65.9906 42.0064 66.9119C41.2096 67.8332 40.7836 69.0176 40.8109 70.2354C40.8109 72.3485 42.14 74.823 45.0616 75.2456C45.5822 75.3191 46.3356 75.313 46.6541 75.313H56.5031C56.6869 75.313 57.1279 75.3253 57.2197 75.3375C58.3223 75.4906 58.7204 76.3175 58.7204 77.0525C58.7278 77.4539 58.5889 77.8442 58.3297 78.1508C58.0705 78.4573 57.7086 78.6591 57.3116 78.7185ZM146.982 82.2771V65.17H143.196V77.9161L130.585 65.17H125.71V82.2771H129.501V69.4391L142.204 82.2771H146.982Z" fill="#8690B1"/>
</svg>
