<svg width="148" height="147" viewBox="0 0 148 147" fill="none" xmlns="http://www.w3.org/2000/svg">
<path d="M111 74.1125C110.383 87.5875 108.533 101.063 102.983 113.925C99.8999 120.663 96.1999 127.4 90.6499 132.3C80.1666 142.713 67.2166 142.713 56.7332 132.3C48.7166 124.338 44.3999 115.15 41.3166 104.738C34.5332 80.2375 35.1499 55.7375 45.0166 31.85C48.7166 23.8875 53.0332 17.15 59.8166 12.25C69.0666 5.51252 79.5499 5.51252 88.1832 12.25C95.5832 17.7625 99.8999 25.725 103.6 34.3C108.533 45.9375 110.383 58.1875 111 70.4375V74.1125ZM92.4999 61.25C92.4999 49 90.6499 40.425 86.9499 33.075C85.0999 30.0125 83.2499 27.5625 80.7832 25.1125C77.0832 21.4375 72.1499 21.4375 67.8332 25.1125C64.7499 27.5625 62.2832 30.625 61.0499 33.6875C53.0332 50.8375 53.6499 67.9875 60.4332 85.1375C61.6666 88.2 64.1332 91.2625 66.5999 93.7125C70.9166 97.3875 76.4666 97.3875 80.1666 93.7125C82.6332 91.875 84.4832 88.8125 85.7166 86.3625C91.2666 77.7875 92.4999 68.6 92.4999 61.25ZM64.7499 114.538C64.7499 119.438 69.0666 123.725 73.9999 123.725C78.9332 123.725 83.2499 119.438 83.2499 114.538C83.2499 109.638 78.9332 105.35 73.9999 105.35C69.0666 105.35 64.7499 109.638 64.7499 114.538Z" fill="#8690B1"/>
</svg>
