<svg width="148" height="147" viewBox="0 0 148 147" fill="none" xmlns="http://www.w3.org/2000/svg">
<path d="M141.402 6.8845C120.247 3.13455 98.8012 1.23872 77.312 1.21887C56.592 1.21887 35.0703 3.03187 13.2403 6.8845C12.9135 15.8392 12.5435 29.6817 13.1663 41.4295C14.5538 67.6077 20.1901 87.9305 30.9016 105.387C41.5761 122.788 58.1151 137.751 77.312 146.639C96.515 137.757 113.048 122.788 123.728 105.387C134.44 87.9305 140.07 67.6077 141.464 41.4234C142.087 29.6756 141.717 15.8392 141.39 6.87837L141.402 6.8845ZM139.009 41.2886C137.647 67.0259 132.127 86.9689 121.65 104.045C111.012 121.256 95.6263 135.073 77.3181 143.858C59.0122 135.073 43.6283 121.255 32.9921 104.045C22.5088 86.9689 16.9958 67.0259 15.633 41.2886C15.1828 32.879 15.1828 22.3072 15.633 9.02825C36.0064 5.53012 56.6425 3.75974 77.3181 3.73625C97.7545 3.73625 118.493 5.5125 139.003 9.02212C139.453 22.3011 139.46 32.8729 139.009 41.2825V41.2886ZM69.8811 35.0534C78.2555 34.4041 87.8755 34.5879 90.2126 34.643C90.5613 34.6522 90.9065 34.7141 91.2363 34.8267L92.9445 35.4086C88.7388 35.6353 78.5885 36.5662 74.4815 37.289L75.9245 37.5217C76.0264 37.5377 76.1299 37.5418 76.2328 37.534C80.0984 37.3217 83.9676 37.1787 87.8385 37.1052C88.3958 37.0794 88.9514 37.1843 89.4603 37.4115C90.9773 38.0056 94.0298 39.4266 95.2878 40.082C95.8361 40.3892 96.4529 40.5555 97.0823 40.5659C98.4513 40.6271 100.536 40.768 102.083 40.9334C102.504 40.981 102.911 41.1056 103.286 41.3009C106.468 42.9362 110.254 45.2637 112.85 47.0522C113.001 47.1566 113.171 47.2296 113.35 47.2666L114.639 47.5239C114.639 47.5239 110.519 43.2119 108.898 41.748C108.665 41.5389 108.41 41.3541 108.139 41.1967C102.003 37.6014 96.4903 34.6736 93.3823 33.3322C92.8872 33.1191 92.36 32.9887 91.8221 32.9464C82.9144 32.2762 73.9671 32.3111 65.065 33.0505C64.8283 33.0664 64.5982 33.1352 64.3921 33.2519C64.186 33.3686 64.0092 33.53 63.8748 33.7242C63.5911 34.153 63.1225 34.9247 62.6908 35.6352C62.4853 35.979 62.2297 36.2907 61.9323 36.5601C60.2343 38.0806 58.4883 39.5472 56.6968 40.9579C56.111 41.3744 54.1685 42.6851 53.8108 42.9179C53.7047 42.9784 53.614 43.0622 53.5456 43.1629L52.8488 44.0816C58.6948 40.7251 66.1318 36.505 68.6786 35.3535C69.0583 35.1821 69.4653 35.0846 69.8811 35.0534ZM64.3435 47.6647L57.6958 49.7962C56.9735 50.0264 56.2262 50.1703 55.4696 50.225C53.9896 50.3414 49.6113 50.4822 49.6113 50.4822L49.71 50.2679C49.7532 50.1677 49.8323 50.0869 49.932 50.0412L52.004 49.1409C52.1589 49.0726 52.2944 48.9674 52.3986 48.8346L55.6053 44.8044C55.7764 44.5813 55.9902 44.394 56.2343 44.2531C58.3495 43.1139 62.1111 41.3989 64.7443 40.4985C65.0174 40.4108 65.3021 40.3633 65.5891 40.3576L68.6231 40.3147C68.7896 40.3147 68.8945 40.4985 68.8081 40.6455L65.2623 46.8991C65.0688 47.264 64.7389 47.5389 64.3435 47.6647ZM87.4068 48.4487C87.4763 48.8629 87.4024 49.2883 87.1971 49.6554C86.5681 50.7762 85.2793 52.7852 84.5578 53.8694C84.4081 54.1178 84.3617 54.4144 84.4283 54.6962C84.749 56.546 86.118 63.0262 86.118 63.0262L85.2546 62.2177C85.0919 62.0669 84.9709 61.8771 84.9031 61.6665C84.1 59.1723 83.3394 56.6647 82.6215 54.145C82.5792 53.9954 82.5734 53.8379 82.6045 53.6856C82.6356 53.5333 82.7027 53.3906 82.8003 53.2691C83.6945 52.1544 85.0018 50.372 85.7603 49.245C85.9761 48.9265 86.044 48.5712 85.9206 48.314C85.6826 47.8277 85.4318 47.3477 85.1683 46.8746C85.0912 46.7349 84.9632 46.6297 84.8106 46.5806L83.7808 46.2437C83.6018 46.1856 83.4081 46.1899 83.232 46.256C80.9873 47.089 77.9656 48.2895 76.1156 49.0735C75.8505 49.1899 75.7333 49.196 75.4065 49.147C74.8761 49.0674 73.3098 48.7795 72.5513 48.6325C72.5194 48.6253 72.4896 48.6108 72.4643 48.5901C72.4391 48.5694 72.419 48.5431 72.4058 48.5133C72.3927 48.4835 72.3867 48.4511 72.3884 48.4186C72.3901 48.3861 72.3994 48.3545 72.4156 48.3262L73.3221 46.7154C73.3805 46.609 73.4605 46.516 73.5571 46.4422C73.6538 46.3683 73.7649 46.3154 73.8833 46.2866C76.8001 45.6129 80.6543 44.8289 84.3235 44.1674C84.5416 44.1287 84.7665 44.1609 84.9648 44.2592L86.4818 45.0004C86.5577 45.037 86.6242 45.0902 86.6765 45.156C86.7289 45.2217 86.7656 45.2983 86.784 45.3801C86.9875 46.2682 87.2403 47.4504 87.4068 48.4487ZM52.0718 51.548L50.6288 51.6705C50.5714 51.6763 50.5181 51.7024 50.4785 51.744C50.4389 51.7856 50.4156 51.8399 50.413 51.8971L50.2773 53.6489C50.2757 53.67 50.2792 53.6911 50.2875 53.7106C50.2957 53.7302 50.3084 53.7475 50.3246 53.7612C50.3408 53.7749 50.3601 53.7846 50.3808 53.7896C50.4015 53.7946 50.4231 53.7946 50.4438 53.7897L51.893 53.459C51.9904 53.4323 52.0812 53.3858 52.1598 53.3226C52.2383 53.2593 52.3028 53.1807 52.3493 53.0915C52.4464 52.881 52.5002 52.6535 52.5076 52.4221C52.5151 52.1907 52.4759 51.9602 52.3925 51.744C52.3663 51.6808 52.3204 51.6277 52.2616 51.5924C52.2028 51.5571 52.1341 51.5416 52.0656 51.548H52.0718ZM46.8301 89.4679C46.8918 89.7557 47.1076 89.9762 47.5208 89.8966C48.6061 89.6884 51.4983 88.9656 51.4983 88.9656L50.1416 90.2519C50.0482 90.3398 49.9367 90.4067 49.8148 90.4479C49.0255 90.7112 47.1015 91.2686 46.4971 91.3972C46.0346 91.5014 45.7325 91.3176 45.6153 90.7725C45.6153 90.7725 44.7951 87.1955 44.4991 85.9827C44.4539 85.8054 44.4025 85.6297 44.345 85.456C44.0253 84.5054 43.6736 83.5657 43.2905 82.6385C43.257 82.5547 43.2403 82.4653 43.2411 82.3751C43.2473 81.5482 43.3953 79.6985 43.3953 79.6985C43.3953 79.6985 45.1651 81.4012 46.0223 82.0137C46.2196 82.1485 46.3306 82.1791 46.5711 82.1179C47.7428 81.8116 50.4561 80.8929 51.9361 80.3232C52.277 80.193 52.577 79.9753 52.8056 79.6924C54.3473 77.7936 56.2713 74.8352 57.3813 72.6057C57.5338 72.2995 57.5646 71.9474 57.4676 71.6196L57.221 70.805C57.1752 70.6766 57.1042 70.5585 57.0121 70.4576C56.92 70.3566 56.8086 70.2749 56.6845 70.217C54.0698 69.1941 52.004 68.4408 49.5805 67.5955L49.8703 67.4975C50.2133 67.3861 50.581 67.3733 50.931 67.4607C52.5158 67.8466 55.8643 68.6857 58.3926 69.3472C58.7441 69.4452 59.1943 69.7821 59.3793 70.1067L59.9343 71.0439C60.1193 71.3746 60.1378 71.7789 59.9651 72.1157C58.7565 74.5167 56.2035 79.1411 55.1551 80.8439C54.7975 81.4319 54.6001 81.6891 53.9588 81.9219C51.4961 82.808 49.0231 83.6655 46.5403 84.4944C46.1641 84.623 46.0346 84.8619 46.1086 85.2845L46.2628 86.2032C46.4478 87.3057 46.713 88.8982 46.8301 89.4679ZM55.2476 73.9287C54.1623 75.7662 52.8611 77.7079 51.8806 78.9206C51.7516 79.0826 51.5813 79.2074 51.3873 79.282C50.3081 79.6924 48.5198 80.311 47.2001 80.7214L55.2476 73.9287ZM40.2318 76.0602L38.0488 73.4387C38.4496 72.5567 39.609 71.7237 40.8731 71.5216L40.2318 76.0602ZM109.274 72.961C108.38 71.3379 103.946 65.1884 98.3958 59.2655C98.1957 59.051 97.9546 58.8782 97.6866 58.7571L96.7801 58.3529C96.7801 58.3529 98.3958 65.5804 99.1235 69.531C99.2112 70.0313 99.4474 70.4941 99.8018 70.8601C102.287 73.3714 103.921 75.3314 105.29 77.4077C105.888 78.3081 106.227 79.3555 106.301 80.4396C106.678 86.1787 106.499 94.0677 105.87 98.4655C105.746 99.3536 105.531 99.6721 104.963 100.138C99.5983 104.591 90.7183 112.418 86.9011 116.283C86.5966 116.572 86.3294 116.897 86.1056 117.251C85.6061 118.029 85.0696 119.174 85.0696 119.174C85.0696 119.174 84.1631 116.332 83.9596 114.783C83.8615 114.234 83.8615 113.672 83.9596 113.123C84.4221 109.803 86.6915 102.147 87.0615 101.001C87.0914 100.902 87.1059 100.799 87.1046 100.695V99.9784C86.2845 101.73 82.0726 111.444 81.1846 114.783C80.9935 115.487 81.0243 115.763 81.2031 116.289C81.7458 117.894 83.343 121.881 84.0706 123.517C84.0706 123.517 85.8035 120.191 86.8086 118.513C87.0889 118.048 87.4312 117.624 87.8261 117.251C90.8231 114.409 101.609 105.197 106.641 101.32C106.918 101.136 107.155 100.898 107.338 100.621C107.521 100.345 107.647 100.035 107.707 99.7089C109.742 91.7464 110.6 82.5834 109.601 73.941C109.558 73.5961 109.447 73.263 109.274 72.961ZM119.954 54.978C119.85 54.488 119.695 54.2797 119.301 53.9796C115.194 50.8559 107.818 46.4152 103.428 44.5287C102.864 44.2848 102.227 44.2694 101.652 44.4859C99.5551 45.2699 96.2128 46.7154 92.7348 48.3875C92.7348 48.3875 94.2641 48.5039 94.998 48.5896C95.368 48.6325 95.516 48.6264 95.8798 48.5284C96.9466 48.2282 98.8398 47.7444 100.332 47.4014C100.693 47.3175 101.067 47.3147 101.429 47.3931C101.791 47.4715 102.13 47.6292 102.423 47.8546C104.464 49.4165 107.751 52.1237 109.853 53.9367C110.22 54.2496 110.634 54.5019 111.081 54.684C114.287 56.0009 115.693 56.6562 116.409 57.036C116.914 57.2994 117.272 57.771 117.42 58.3345C118.252 61.6297 118.807 66.6767 119.097 70.315C119.152 70.9888 119.066 71.6665 118.844 72.3056C117.944 74.921 115.699 79.2636 114.441 81.34C114.323 81.5367 114.173 81.7127 113.997 81.8606C113.553 82.2526 112.764 82.9019 112.191 83.3551C112.135 83.3992 112.09 83.455 112.059 83.5187C112.028 83.5823 112.012 83.652 112.012 83.7226C111.999 85.1314 111.734 87.8631 111.734 87.8631C114.818 83.9125 117.741 78.792 120.337 73.3469C120.523 73.0012 120.638 72.6223 120.676 72.2321C121.286 66.395 120.923 59.4615 119.954 54.978ZM73.5811 111.359C74.5925 114.85 78.3603 123.976 79.088 125.642C79.1681 125.826 79.2113 126.022 79.2421 126.224L79.5135 128.368C78.3048 126.506 71.7435 114.158 69.1658 107.322C68.8575 106.52 68.802 106.122 69.1411 104.639C70.9295 96.7872 75.7826 83.4347 77.1455 80.2069L77.6696 83.3674C77.7486 83.6654 77.7422 83.9793 77.6511 84.2739C77.1763 86.1481 74.167 99.8069 73.3098 108.394C73.1419 109.389 73.2332 110.409 73.575 111.359H73.5811ZM73.242 126.181L71.3735 124.932C71.0791 124.74 70.8026 124.523 70.5471 124.282C67.5625 121.52 57.0976 108.345 53.9588 102.618C53.4346 101.657 53.2805 101.21 53.3298 100.229C53.3915 99.127 53.595 97.0016 53.8108 95.7521C53.8738 95.0226 54.2132 94.344 54.7605 93.8534C56.5426 92.1996 59.4163 89.2474 60.9148 87.6794C61.5746 86.9934 61.9015 86.5585 62.253 85.8909C63.6281 83.2449 67.84 73.8859 69.246 70.0394C69.4747 69.543 69.5353 68.9864 69.4186 68.453C69.1473 66.4379 67.5748 61.2316 67.5748 61.2316L67.4453 62.9711C67.433 63.0936 67.4391 63.2161 67.4576 63.3386C67.581 64.0859 68.062 67.0749 68.0435 68.6061C68.0691 69.0556 67.9619 69.5026 67.7351 69.8924C65.6261 74.1431 57.3751 85.4989 52.1643 91.6422C51.6705 92.1827 51.3487 92.8561 51.2393 93.5777C50.9741 94.8762 50.672 97.8408 50.4746 100.193C50.3698 101.454 50.45 101.889 51.2331 103.225C54.3781 108.578 65.0835 121.404 68.5738 124.374C68.8081 124.57 69.0548 124.742 69.3138 124.883C70.5471 125.562 73.9018 127.271 73.9018 127.271L73.3838 126.334C73.3499 126.271 73.3013 126.222 73.242 126.181ZM42.347 54.2797C42.4484 54.2084 42.5379 54.1215 42.6121 54.0225C43.1548 53.2691 44.7088 51.205 45.085 50.715C45.1392 50.6468 45.2013 50.5852 45.27 50.5312C45.8866 50.0412 46.1826 49.8207 46.8116 49.4226C48.2546 48.4855 51.0605 46.7827 52.633 45.8456L52.0348 46.599L51.9361 46.697C51.412 47.0951 49.2043 48.8224 48.6061 49.3124C48.5298 49.3679 48.4658 49.4384 48.4181 49.5196C48.3703 49.6007 48.3399 49.6907 48.3286 49.784C48.1493 50.7891 48.0074 51.8004 47.9031 52.8159C47.8846 53.0486 47.786 53.165 47.5516 53.263C46.9966 53.4957 46.3985 53.7285 45.8003 53.9612L44.3265 54.5431C44.1854 54.5917 44.054 54.6642 43.938 54.7575C43.8393 54.8371 42.532 56.0315 42.532 56.0315C42.532 56.0315 45.3686 55.3149 46.417 55.076C46.6636 55.0147 46.7685 55.0331 46.9966 55.1372C47.2125 55.2475 47.5701 55.3884 47.7551 55.4619C47.9979 55.5634 48.2695 55.5743 48.5198 55.4925C49.6915 55.223 51.6648 54.7452 52.7131 54.4635C53.1882 54.3487 53.6336 54.1358 54.0205 53.8387C54.5261 53.4835 55.7965 52.5035 55.7965 52.5035L55.7595 52.773C55.7467 52.8465 55.7124 52.9147 55.6608 52.969C55.3585 53.3349 55.0459 53.6924 54.7235 54.0409C54.3248 54.4961 53.8183 54.8455 53.2496 55.0576C50.2711 56.3316 45.1713 58.3039 41.348 59.6636C41.1368 59.7285 40.9486 59.8517 40.8053 60.0189L40.3366 60.5334C40.3366 60.5334 43.457 60.7661 44.4066 60.8764C44.6935 60.9049 44.9626 61.0278 45.1713 61.2255C45.9545 61.9176 48.5445 64.6432 49.3153 65.5926C49.3153 65.5926 41.9585 66.8482 38.5483 67.7119C38.3697 67.752 38.2064 67.8419 38.0775 67.971C37.9487 68.1001 37.8595 68.2631 37.8206 68.4407C37.537 69.4514 36.871 72.716 36.871 72.716C36.871 72.716 36.6366 72.6425 36.3036 72.4465C36.0803 72.3094 35.8822 72.1354 35.7178 71.932C34.7174 70.8229 33.7905 69.6506 32.9428 68.4224C32.7578 68.1345 32.6776 67.767 32.912 67.4791C33.6026 66.6032 34.9963 65.0169 35.761 64.1961C35.8784 64.057 35.9759 63.9024 36.0508 63.7367C36.3715 63.0875 36.8155 61.2255 36.8155 61.2255L36.0261 61.7339C35.8288 61.8564 35.7733 61.9176 35.6931 62.0952C35.5698 62.3586 35.3478 62.7812 35.1813 63.0752C35.1063 63.1899 35.0149 63.293 34.91 63.3815C33.9788 64.1101 33.0352 64.8227 32.0795 65.5191C32.0301 65.5559 31.9561 65.5375 31.913 65.4946C31.7098 65.2723 31.5164 65.0413 31.3333 64.8025C31.2726 64.7164 31.2403 64.6136 31.2408 64.5085C31.2408 64.3064 31.2593 63.9572 31.2778 63.7C31.3025 63.3937 31.3888 63.2467 31.7588 62.8547C32.1658 62.4199 32.616 61.9605 33.0846 61.4889C34.2378 60.4966 37.1546 58.0772 42.347 54.2797ZM71.4536 20.1451C71.4536 22.2889 72.5575 22.6686 74.7096 22.6564C77.6511 22.6319 80.5926 22.6441 83.528 22.6931V17.248C81.4355 17.2181 79.3429 17.2038 77.2503 17.2051V18.6812C78.829 18.6812 80.4076 18.6935 81.9863 18.7119V21.1864C79.2669 21.1572 76.5472 21.1552 73.8278 21.1802C73.4146 21.1802 73.0076 20.7637 73.0076 20.3472V15.7474C73.0076 15.3247 73.4146 14.9634 73.8278 14.9572C76.8618 14.9327 79.8958 14.9389 82.9236 14.9817V13.4995C80.087 13.4627 77.2503 13.4566 74.4136 13.475C72.4403 13.4872 71.4536 14.1487 71.4536 16.1455V20.1451ZM33.8123 15.778C30.7783 16.1026 27.7505 16.464 24.7226 16.8499V26.0374L26.2951 25.8291V22.9932C28.7988 22.6809 31.3086 22.3869 33.8185 22.1174C35.6253 21.9275 36.6428 21.1496 36.6428 19.2264V18.1851C36.6428 16.3047 35.6253 15.5881 33.8123 15.778ZM35.1011 19.7592C35.1011 20.1635 34.6941 20.5432 34.281 20.5922C31.617 20.8679 28.9591 21.1802 26.2951 21.511V18.13C28.9591 17.7992 31.617 17.493 34.281 17.2112C34.688 17.1684 35.1011 17.4869 35.1011 17.9034V19.7592ZM51.5538 14.2774V15.7535C48.2661 15.9604 44.981 16.2074 41.6995 16.4946V18.7547C44.6163 18.4975 47.5393 18.277 50.4623 18.081V19.5632C47.5393 19.7592 44.6163 19.9797 41.6995 20.237V22.7115C44.9811 22.4269 48.2661 22.1819 51.5538 21.9765V23.4526C47.7512 23.692 43.9522 23.984 40.1578 24.3285V15.1655C43.9521 14.8204 47.7512 14.5285 51.5538 14.2896V14.2774ZM98.809 15.5024V14.0324C95.0064 13.8301 91.2012 13.6811 87.3945 13.5852V22.7727C91.1993 22.8646 95.0041 23.0055 98.809 23.2076V21.7254C95.5218 21.553 92.2327 21.4203 88.9423 21.3272V18.8466C91.8653 18.9324 94.7945 19.0487 97.7175 19.1957V17.7135C94.7945 17.5665 91.8653 17.4562 88.9361 17.3705V15.1104C92.2291 15.2022 95.5221 15.337 98.809 15.5085V15.5024ZM55.4203 20.6902C55.4203 22.7727 56.6536 23.1586 58.6701 23.0667C60.5571 22.981 62.4503 22.9075 64.3435 22.8524C66.508 22.785 67.5871 22.3195 67.5871 20.2186V13.5852L66.0023 13.6281V20.5494C66.0023 20.9659 65.694 21.3334 65.2191 21.3456C62.7401 21.4191 60.2611 21.5171 57.7883 21.6335C57.6852 21.6419 57.5814 21.6292 57.4834 21.5963C57.3854 21.5633 57.2952 21.5108 57.2183 21.442C57.1415 21.3731 57.0797 21.2894 57.0367 21.1959C56.9936 21.1025 56.9703 21.0012 56.9681 20.8985V13.9772L55.4265 14.0569V20.6964L55.4203 20.6902ZM105.05 15.8821C104.581 15.8515 104.229 16.1884 104.229 16.6661V21.2109C104.229 21.6274 104.581 22.0684 105.05 22.1051C107.609 22.2766 110.168 22.4726 112.721 22.6992C113.134 22.7299 113.541 22.3501 113.541 21.9275V17.395C113.536 17.1709 113.45 16.956 113.3 16.7887C113.15 16.6215 112.945 16.5129 112.721 16.4824C110.168 16.2619 107.603 16.0597 105.05 15.8821ZM105.925 23.6425C103.779 23.4955 102.682 23.0729 102.682 20.8862V16.7886C102.682 14.7306 103.681 14.308 105.925 14.4611C107.899 14.602 109.872 14.7551 111.845 14.9205C113.794 15.0859 115.083 15.6494 115.083 17.7502V21.8479C115.083 23.912 113.973 24.2795 111.845 24.1019C109.872 23.9365 107.899 23.7834 105.925 23.6425ZM117.944 15.484C121.94 15.8821 125.936 16.3415 129.92 16.856V18.3321C128.193 18.1116 126.466 17.9034 124.74 17.6951V25.3942L123.167 25.2105V17.5297C121.427 17.3346 119.686 17.1508 117.944 16.9785V15.4962V15.484Z" fill="#8690B1"/>
</svg>
