<svg width="148" height="147" viewBox="0 0 148 147" fill="none" xmlns="http://www.w3.org/2000/svg">
<g clip-path="url(#clip0_178_103)">
<path fill-rule="evenodd" clip-rule="evenodd" d="M18.5123 10.7249L24.8702 93.0265C26.0172 116.577 48.5748 136.165 76.0597 150.069C103.544 136.165 126.102 116.577 127.261 93.0265L133.613 10.731C110.186 5.47575 96.015 3.0625 76.0597 3.0625C56.0982 3.0625 41.9333 5.47575 18.5123 10.7249ZM20.979 12.7155C30.9567 10.3022 52.3612 5.33487 76.0782 5.33487L76.0597 5.32875C99.7767 5.32875 121.175 10.3022 131.159 12.7155L130.092 26.7846C104.556 20.5188 89.3673 19.5204 76.0658 19.5204C62.7582 19.5204 47.5758 20.5188 22.0335 26.7846L20.979 12.7155ZM22.237 29.3081C47.841 22.7299 63.4427 22.1112 74.9003 21.952V49.8942H54.3653L54.3592 49.9249V52.2952C53.7549 52.1515 53.1366 52.0735 52.5153 52.0625C52.8977 49.49 54.8278 48.1915 55.019 47.9894C55.2163 47.7934 55.4075 47.334 54.9573 47.334C51.3128 47.6586 49.58 51.4622 49.3272 52.4239C49.0003 52.4851 46.99 52.9445 46.3487 53.1405C46.7372 49.1102 49.4505 47.2421 49.839 46.991C50.2213 46.7337 50.357 46.3479 49.839 46.3479C45.3867 46.4336 42.9323 53.0548 42.6795 54.1328C41.8347 54.4513 39.8428 55.4006 39.2015 55.7804C38.8747 50.6844 43.1852 47.2115 43.438 46.9604C43.6908 46.7031 43.9067 46.256 43.3085 46.3846C37.7893 47.138 36.1367 55.958 36.0318 57.0115C35.9023 58.016 34.9835 57.6301 34.7677 57.5138C34.4974 57.3515 34.1887 57.2632 33.8729 57.2579C33.5571 57.2526 33.2456 57.3304 32.9699 57.4835C32.6943 57.6366 32.4643 57.8594 32.3035 58.1294C32.1427 58.3994 32.0567 58.7068 32.0543 59.0205C32.0543 59.192 32.0852 59.3084 32.1345 59.4554C31.7991 59.5967 31.5106 59.8292 31.3023 60.126C31.0939 60.4229 30.9741 60.7722 30.9567 61.1336C30.9567 62.1075 31.7583 62.8854 32.7512 62.8854C33.1334 62.8988 33.5084 62.7797 33.8118 62.5485C34.1448 62.916 34.632 63.1488 35.1623 63.1488C36.1552 63.1488 37.3083 62.4015 37.3762 60.4293C43.9498 56.2153 48.7167 55.0515 51.5595 55.0515C53.3787 55.0699 53.9645 55.4312 54.3468 55.7681V64.1655C52.3735 64.9801 50.0487 67.4791 49.7588 67.8466C49.1082 67.7467 48.4483 67.72 47.7917 67.767C48.0877 65.8376 49.5307 63.8654 49.6725 63.7245C49.8328 63.5775 49.9747 63.2284 49.6293 63.2284C46.8913 63.4734 45.4607 67.6139 45.2633 68.3244C45.0167 68.3672 43.8018 68.5755 43.3085 68.7164C43.6045 65.6968 45.0598 64.0185 45.3497 63.8286C45.6395 63.6326 45.7382 63.3386 45.3497 63.3386C42.0073 63.4121 40.6137 69.5861 40.4163 70.3946C39.7812 70.6396 38.7267 71.4175 38.2395 71.6931C37.999 67.8773 39.7812 64.8515 39.9785 64.6616C40.1697 64.4656 40.3177 64.1349 39.8798 64.2267C35.8407 65.3538 35.9455 72.765 35.8715 73.5551C35.7728 74.2962 35.2363 73.941 35.0637 73.8552C34.8566 73.7331 34.6199 73.6696 34.3792 73.6715C34.2029 73.6691 34.0279 73.7013 33.8642 73.7662C33.7005 73.8311 33.5514 73.9276 33.4253 74.0499C33.2993 74.1723 33.1988 74.3182 33.1296 74.4792C33.0605 74.6403 33.0241 74.8133 33.0225 74.9884C33.0225 75.1109 33.041 75.1966 33.0842 75.2946C32.8311 75.3999 32.6133 75.5743 32.4561 75.7977C32.2989 76.021 32.2087 76.2841 32.1962 76.5564C32.1962 77.2852 32.8005 77.8671 33.5343 77.8671C33.8427 77.8671 34.1078 77.7875 34.336 77.616C34.5827 77.9039 34.9465 78.0693 35.3473 78.0693C36.0935 78.0693 36.963 77.5119 37.0062 76.0296C40.5335 71.7972 46.5953 69.8128 48.729 69.8128C52.3427 69.8128 53.5513 70.7927 54.3407 71.393V80.9725H26.2577L22.237 29.3081ZM77.2128 33.4915L129.451 33.7916L128.187 50.0719H97.7478V49.3798H77.2128V33.4915ZM56.684 84.5127V52.1666H95.4415V84.5127C95.4415 93.3083 87.9182 103.384 76.0597 103.384C64.2012 103.384 56.684 93.3083 56.684 84.5127ZM97.6985 80.9051L97.7478 65.2741L127.021 65.1945L125.763 80.9847L97.6985 80.9051ZM89.0282 102.036L89.3735 101.375H89.3858C95.0283 97.1119 97.7478 90.552 97.7478 85.9276V83.1591L125.677 83.0673L124.653 96.4136C121.163 118.843 97.4518 136.294 77.2067 146.792V105.632C80.2916 105.517 83.3175 104.758 86.0867 103.402L86.0312 103.966C85.3405 105.92 85.3837 106.74 85.3405 107.157C85.248 108.039 84.1442 108.125 83.9222 108.027C83.6812 107.887 83.4076 107.813 83.1287 107.811C82.8498 107.81 82.5754 107.881 82.333 108.018C82.0907 108.156 81.8888 108.354 81.7478 108.593C81.6068 108.832 81.5315 109.103 81.5295 109.38C81.5295 109.527 81.548 109.631 81.585 109.76C81.0177 110.005 80.7648 110.458 80.7648 111.107C80.7648 111.977 81.3383 112.682 82.2202 112.682C82.584 112.682 82.8183 112.718 83.0897 112.516C83.2413 112.683 83.4268 112.817 83.6341 112.908C83.8413 112.998 84.0656 113.045 84.2922 113.043C85.174 113.043 85.6118 112.816 85.6735 111.052C91.5688 107.99 100.523 105.656 104.507 105.871C108.996 106.097 112.258 110.52 112.597 110.801C112.949 111.089 113.245 111.089 113.183 110.636C112.893 108.817 112.332 106.079 107.947 103.733C108.231 102.526 110.359 102.306 110.772 102.141C111.068 102.012 111.166 101.632 110.772 101.632C107.836 101.258 105.74 102.526 105.339 103.041C104.356 102.884 103.361 102.819 102.367 102.845C102.687 101.387 103.551 100.334 104.839 99.2556C104.698 99.3659 105.179 98.7962 104.79 98.7962C101.553 99.0841 99.5423 102.367 99.3142 103.225C99.0182 103.28 95.5032 103.849 94.9297 104.021C95.4477 100.677 99.3142 98.3981 99.6657 98.1715C100.011 97.951 100.122 97.608 99.6657 97.608C94.794 97.7734 91.2358 103.941 91.0632 105.252C90.3047 105.546 89.1515 105.938 88.578 106.275C88.3683 104.051 88.4115 103.366 89.0282 102.036ZM27.4972 96.6341L58.1147 96.6035C61.4385 101.295 66.9823 105.27 74.9003 105.632V112.234L33.4727 112.247C30.4942 107.359 28.379 102.153 27.4972 96.6341ZM74.9003 128.202V146.767C65.6688 141.977 55.7035 135.755 47.286 128.257H47.2798L74.9003 128.202ZM72.2795 7.7175C71.6998 7.7175 69.7573 7.84 69.7635 10.731C69.782 13.622 71.8417 13.671 72.2733 13.671H80.2592C80.3736 13.6694 80.4872 13.6904 80.5933 13.7327C80.6995 13.7751 80.7961 13.838 80.8776 13.9178C80.9591 13.9976 81.0238 14.0927 81.068 14.1975C81.1121 14.3023 81.1348 14.4149 81.1348 14.5285C81.1348 14.9879 80.7525 15.2941 80.2592 15.2941H70.0533V17.4195H81.4123C82.14 17.4195 84.027 17.5236 84.027 14.4611C84.027 11.3925 81.8995 11.5273 81.4123 11.5273H73.445L73.4573 11.5518C73.3434 11.5526 73.2305 11.531 73.1251 11.4882C73.0196 11.4455 72.9237 11.3825 72.8429 11.3028C72.7621 11.2231 72.6979 11.1283 72.6541 11.0238C72.6104 10.9194 72.5878 10.8074 72.5878 10.6943C72.5878 10.2226 72.9887 9.84288 73.4697 9.84288H83.6693V7.7175H72.2795ZM64.2443 7.938L53.8905 8.61175L54.168 18.4056L56.647 18.2893L56.5792 14.3692L63.4858 13.9282C64.8363 13.8364 65.6503 14.7429 65.6503 16.17V17.6094L68.154 17.493V15.8515C68.1602 14.3141 67.6668 13.2484 67.1427 12.8441C67.5568 12.2071 67.7891 11.4704 67.8148 10.7126C67.8148 8.477 66.526 7.90737 64.9288 7.90737C64.7068 7.90737 64.4787 7.91962 64.2443 7.938ZM56.4805 10.6391L63.973 10.2533C64.5465 10.2778 64.787 10.4737 64.8055 10.9944C64.8302 11.5089 64.4108 11.7539 63.899 11.7906H63.9175L56.5113 12.1949L56.4805 10.6391ZM85.9818 10.7126L85.766 14.9266C85.7228 15.925 86.3395 17.5971 88.2512 17.7319L98.8085 18.522L98.9195 16.317L90.1012 15.68C89.2748 15.6494 88.3683 15.3983 88.43 13.916L88.5163 11.7784C88.5472 10.927 88.837 10.143 90.2122 10.2533L99.2525 10.9699L99.234 10.9454L99.3388 8.74038L88.763 7.938C88.6112 7.92513 88.459 7.919 88.3067 7.91962C87.3755 7.91962 86.099 8.23812 85.9818 10.7126ZM100.899 18.9936L103.285 19.3121L103.569 14.9879L111.962 16.5375L111.672 20.6535L114.053 21.0884L114.657 11.0556L112.301 10.6269L112.054 14.5346L103.662 12.985L103.877 9.29162L101.516 8.918L100.899 18.9936ZM49.0867 9.38963L40.737 10.731C38.1717 11.123 38.2087 12.4644 38.2087 13.3893V13.4076L38.3197 17.8789C38.3875 20.433 40.6322 20.6474 42.0073 20.3962L49.7403 19.1896C52.4475 18.8037 52.5215 17.4869 52.4845 16.4946L52.3858 11.7233C52.3858 10.0695 50.5482 9.359 49.4443 9.359C49.3244 9.359 49.2048 9.36925 49.0867 9.38963ZM40.737 14.4917C40.737 13.7445 40.7 13.0401 42.0382 12.789L48.4392 11.7233C49.1237 11.6191 49.8513 12.1153 49.8513 12.789L49.9192 15.6984C49.9192 16.1639 49.7033 16.8989 48.655 17.0826L42.3218 18.0749C41.4585 18.2157 40.8788 18.2525 40.8048 17.15L40.737 14.4917ZM116.297 21.4069L127.594 23.7956L127.78 21.7805L118.807 19.8879L118.943 17.8789L127.94 19.747L128.088 17.7257L119.085 15.8392L119.159 13.9895L128.23 15.8637L128.378 13.8486L116.877 11.4721L116.297 21.4069ZM33.4357 12.2867L23.125 14.553L23.8527 24.402L26.344 23.8324L26.0172 19.943L34.6628 18.032C36.297 17.6768 36.7287 16.7151 36.6547 14.4489C36.5992 12.6849 35.4768 12.1765 34.3668 12.1765C34.0532 12.1781 33.7408 12.2151 33.4357 12.2867ZM25.8075 16.2251V16.2006C25.8075 16.2006 32.0235 14.8225 32.7512 14.6816C33.4727 14.5346 33.7317 14.8899 33.7502 15.141C33.7995 15.4595 33.6947 15.9556 33.0718 16.0965L25.8753 17.6767L25.8075 16.2251ZM23.8342 24.402L23.8527 24.4204V24.402H23.8342ZM42.8152 37.7055C41.384 38.2949 39.9843 38.9573 38.6218 39.69C38.0422 33.3078 42.809 29.547 43.0927 29.2591C43.3887 28.9713 43.5983 28.4812 42.9632 28.6221C36.8088 29.4735 35.2178 39.8983 35.113 41.0742C34.9712 42.1768 33.9598 41.7603 33.7193 41.6316C33.4188 41.4505 33.0752 41.352 32.7238 41.3459C32.3723 41.3399 32.0255 41.4267 31.7188 41.5973C31.4122 41.768 31.1566 42.0165 30.9783 42.3173C30.8 42.6182 30.7053 42.9607 30.7038 43.3099C30.7038 43.4691 30.7347 43.5978 30.7778 43.7631C30.405 43.919 30.0843 44.1767 29.8529 44.5062C29.6215 44.8358 29.4889 45.2238 29.4705 45.6251C29.4693 45.9897 29.5703 46.3475 29.7621 46.6584C29.9538 46.9693 30.2289 47.2211 30.5565 47.3857C30.884 47.5503 31.2512 47.6212 31.617 47.5904C31.9828 47.5597 32.3328 47.4285 32.6278 47.2115C32.8163 47.4208 33.0473 47.5879 33.3056 47.702C33.5639 47.816 33.8437 47.8743 34.1263 47.873C35.224 47.873 36.5067 47.0584 36.5807 44.8534V44.884C43.8882 40.1984 51.7753 38.2139 55.9748 38.2139C60.1682 38.2139 63.492 40.8415 63.9237 41.1906C64.3492 41.5459 64.7192 41.5459 64.6575 40.9824C64.2998 38.7039 61.1795 36.6459 60.1065 36.0824C60.4518 34.594 62.3327 32.9586 62.6287 32.6769C62.9185 32.3951 63.1343 32.0338 62.6287 32.0338C59.5207 32.2542 57.35 34.594 56.8382 35.2249C56.3387 35.084 54.3098 35.084 53.5822 35.1514C53.5822 32.3155 56.4805 29.9023 56.6963 29.6879C56.9122 29.4735 57.1218 29.1244 56.6223 29.1244C52.5647 29.4796 50.3323 34.6552 50.0425 35.7149C49.6787 35.7884 47.3662 36.1436 46.6447 36.3641C46.8024 34.9323 47.2489 33.5468 47.9578 32.2903C48.6666 31.0338 49.6231 29.932 50.7702 29.0509C51.1957 28.7507 51.3437 28.3342 50.7702 28.3342C45.4175 28.4812 43.031 36.064 42.8152 37.7055ZM77.5952 57.477C77.5952 59.0205 78.4215 60.1169 79.587 60.1169C80.1235 60.1169 80.5305 59.8903 80.8758 59.388L80.9622 60.0373H81.585V57.232H79.8028V58.0956H80.7648C80.6538 58.7939 80.29 59.1797 79.7288 59.1797C79.0012 59.1797 78.5325 58.4815 78.5325 57.428C78.5325 56.3561 78.9888 55.6824 79.7412 55.6824C80.2098 55.6824 80.512 55.9335 80.6847 56.4909H81.5973C81.4617 55.3945 80.7648 54.7514 79.735 54.7514C78.4523 54.7514 77.5952 55.8294 77.5952 57.477ZM58.5772 56.3316C58.5772 56.9686 58.8362 57.3606 59.4158 57.6179L60.7417 58.2181C61.0192 58.3468 61.1302 58.4692 61.1302 58.6652C61.1302 59.0205 60.7848 59.2716 60.3162 59.2716C59.7365 59.2716 59.459 59.0205 59.3542 58.4202L59.3357 58.4019H58.4723C58.497 58.8735 58.5587 59.1185 58.7313 59.3635C59.0273 59.8596 59.5392 60.1108 60.2607 60.1108C60.7848 60.1108 61.1117 60.0005 61.4138 59.7432C61.589 59.5909 61.7284 59.4023 61.8222 59.1906C61.9159 58.979 61.9618 58.7494 61.9565 58.5182C61.9565 57.8139 61.6913 57.4892 61.0808 57.2136L59.7118 56.595C59.5207 56.5092 59.4158 56.3684 59.4158 56.2091C59.4158 55.86 59.7242 55.615 60.1558 55.615C60.643 55.615 60.8835 55.8478 60.9698 56.4174H61.8332C61.79 55.3516 61.1918 54.7636 60.162 54.7636C59.1938 54.7636 58.5772 55.3822 58.5772 56.3316ZM90.5945 54.8678V55.8049H91.908V60.0373H92.796V55.8049H94.0725V54.8678H90.5945ZM88.541 54.8678H86.6355V60.0373H87.5297V57.9915H88.3437C89.1638 57.9915 89.059 58.4631 89.0775 59.2226C89.0606 59.4992 89.1005 59.7764 89.1947 60.0373H90.1752C90.0333 59.8841 90.0148 59.7494 89.984 58.9103C89.9532 57.9119 89.9038 57.771 89.4783 57.5566C89.947 57.2565 90.095 56.9503 90.095 56.3561C90.1072 56.1369 90.0736 55.9176 89.9961 55.712C89.9186 55.5064 89.799 55.3191 89.6448 55.1617C89.392 54.929 89.1577 54.8678 88.5472 54.8678H88.541ZM87.5482 55.8049H88.3807C89.0158 55.8049 89.1947 55.9457 89.1947 56.448C89.1947 56.9502 89.0035 57.1217 88.3807 57.1217H87.5482V55.8049ZM83.62 54.8678L82.0537 60.0373H82.991L83.2993 58.9531H84.8657L85.1617 60.0311H86.1422L84.6252 54.8678H83.62ZM84.0948 56.0499L84.6437 58.065H83.5707L84.0948 56.0499ZM74.2405 54.8678V55.8049H75.5478V60.0373H76.4297V55.8049H77.7185V54.8678H74.2405ZM70.3493 54.8678V55.8049H71.6443V60.0373H72.5262V55.8049H73.815V54.8678H70.3493ZM68.9927 54.8678V58.0344C68.9927 58.8858 68.7707 59.1981 68.1232 59.1981C67.525 59.1981 67.2722 58.8735 67.2722 58.0344V54.8678H66.378V58.0589C66.378 59.2533 66.7357 60.1353 68.117 60.1353C69.5045 60.1353 69.8622 59.2349 69.8622 58.0589V54.8678H69.8807H68.9927ZM62.3018 54.8678V55.8049H63.5968V60.0373H64.4848V55.8049H65.7675V54.8678H62.3018ZM79.7843 57.232H79.8028V57.2014L79.7843 57.232ZM71.5148 62.5853C71.0893 62.8364 70.6823 63.259 70.8982 63.9021C70.4295 63.9327 69.227 64.2145 69.1962 64.5759C69.153 64.9189 69.3318 65.3109 69.264 65.4579C69.19 65.5988 68.7892 65.5987 68.5795 65.7396C67.9628 66.346 66.9083 66.9156 66.6555 67.1667C66.4027 67.4118 66.23 67.6567 65.9032 68.0487C65.5825 68.3979 65.5517 68.8083 65.6873 69.0104C66.0882 69.5739 66.415 69.1758 66.6308 69.5004C66.8467 69.8189 66.8467 69.8863 66.8097 70.0639C66.7665 70.2415 67.2043 70.6396 67.8518 70.1006C68.5055 69.5677 68.968 68.9981 69.4798 69.6045C69.9855 70.2109 69.5107 70.5661 69.2948 70.952C68.8693 71.3807 67.8518 72.6915 67.377 73.0835C66.9083 73.4694 66.5445 74.3942 66.3657 75.2456C66.193 76.1031 65.9648 76.2808 65.786 76.4951C64.9165 76.1766 63.9422 75.7846 63.4057 75.362C63.0418 75.0802 62.2463 74.725 61.7283 75.4355C61.4755 75.7172 60.1867 77.4506 59.8475 78.204C59.5145 78.9696 59.0273 78.6695 59.0273 80.0844C59.0273 80.5866 58.6265 80.801 58.4107 81.5727C58.3798 81.7871 57.794 83.0979 58.3798 83.3429C58.9533 83.6001 59.644 83.2694 59.792 82.9264C59.9153 82.5527 59.9585 81.4564 59.9955 81.0644L60.0078 81.0031C60.1867 80.4641 60.7663 79.8271 60.8342 79.5086C60.9082 79.2024 60.8033 78.9696 61.0192 78.6328C61.2288 78.3204 61.8332 77.7079 62.049 77.4935C62.2587 77.2853 63.0295 76.9729 63.418 77.8304C63.825 78.6756 64.5033 80.5621 65.8847 81.1195C65.3297 81.4135 64.0347 81.8729 63.344 82.0076C62.6595 82.1546 62.1168 82.2649 62.4005 83.9309C62.6965 85.5969 62.7705 86.3074 62.6595 86.8464C62.5613 87.3104 62.5902 87.7922 62.7431 88.2414C62.896 88.6906 63.1674 89.0909 63.529 89.4005L64.4232 90.6439C64.787 90.9624 65.6627 91.3176 65.7305 90.6071C65.8107 89.8844 66.0327 89.1861 65.305 89.1188C65.046 89.082 64.3615 88.5124 64.4355 87.8754C64.4911 87.2816 64.3503 86.686 64.0347 86.1787C63.7435 85.6745 63.6512 85.0808 63.7757 84.5127C63.9298 83.9738 64.3307 83.6614 65.231 83.839C65.9525 84.0962 69.2825 84.9721 70.2877 83.8696C70.9722 84.3657 75.0607 85.8603 77.4472 85.6091C77.885 86.3564 78.7915 87.9918 79.3712 88.4511C79.846 88.8737 80.0187 90.2212 79.2232 90.9317C78.7545 91.287 77.5273 92.5304 76.516 92.8183C75.4985 93.1 75.0977 93.2837 74.6352 93.7493C74.1542 94.2025 73.8767 94.2025 73.5807 94.8027C73.2908 95.3969 72.6433 96.4626 73.6917 96.4626C74.74 96.4626 75.036 95.9726 75.0977 95.6847C75.1717 95.3969 75.0977 94.8027 75.4985 94.6986C75.8993 94.5884 77.1265 94.521 77.959 93.5226C78.7792 92.5365 80.438 91.9975 81.0917 91.8873C81.7453 91.7831 81.8193 91.1523 81.7453 90.8276C81.6713 90.5091 81.6405 89.6945 82.0352 89.2719C82.6148 89.4128 84.4587 89.8047 85.3343 90.9746C85.4762 91.2931 85.507 91.4769 85.6488 91.6851C85.396 92.1016 84.8903 92.4997 84.7115 92.9285C84.5265 93.3511 84.3045 94.0616 83.4782 94.7109C82.6457 95.3479 81.9242 95.7399 81.5295 96.3034C81.1058 96.8637 80.9039 97.5589 80.9622 98.2572C81.0362 99.0413 81.252 98.6493 81.6097 98.6493C81.9612 98.6493 82.806 98.2634 82.8307 97.7244C82.8615 97.1976 82.6148 96.9465 83.3733 96.6341C84.138 96.3095 85.47 95.2499 85.7598 94.5761C86.0497 93.9024 86.913 92.5855 87.5975 92.1996C88.2882 91.8076 88.1463 91.238 87.8257 90.6684C87.4988 90.1049 86.3765 88.5736 86.5923 87.5814C86.8082 86.5891 87.9983 85.9827 88.3622 84.4638C88.726 82.9386 88.5163 82.222 88.2943 81.6891C88.911 81.5176 89.2687 81.6585 90.0703 82.0076C90.8597 82.3629 92.6665 82.2955 92.8947 81.7994C93.0703 81.2452 93.0703 80.6508 92.8947 80.0966C93.3942 79.6801 93.7518 78.7552 93.462 78.3204C93.1783 77.9039 93.0365 77.3343 93.1783 76.7708C92.6665 76.6973 92.13 76.2685 92.4877 75.95C92.8515 75.6376 93.573 74.8842 93.2462 73.941C93.3572 73.3224 93.3942 72.5751 92.352 72.618C92.3027 72.226 91.982 70.952 90.354 72.1219C90.095 72.2995 89.8113 71.9136 90.1752 71.8034C90.5328 71.6931 92.4137 71.0867 92.6973 70.462C92.9995 69.8189 92.8823 69.4881 92.7775 69.2493C92.9255 68.9552 93.0797 68.3917 92.9255 68.1835C92.7837 67.9753 92.1978 68.012 91.8032 68.9675C91.4147 69.9291 91.5195 69.9291 90.4712 70.1006C89.429 70.2783 88.6397 70.1006 87.9552 71.2399C87.7393 71.5216 87.6222 71.8401 87.1165 72.1219C86.9006 72.2393 86.7118 72.4002 86.5621 72.5943C86.4124 72.7884 86.3051 73.0113 86.247 73.2489C86.1792 73.647 86.5368 74.3514 86.4628 74.8475C86.395 75.3498 86.1052 76.4155 87.4495 77.5486C88.0847 78.2591 89.0775 79.1901 88.3437 79.8884C87.6222 80.605 86.9747 79.8516 86.4258 79.4964C85.352 78.9563 84.1638 78.6791 82.9602 78.6879C81.807 78.7552 78.0022 77.8304 77.0895 77.0893C76.2015 76.342 76.7565 75.9622 77.2067 75.7418C77.5228 75.6305 77.7835 75.4023 77.9343 75.1048C78.107 74.7495 78.403 74.676 78.7298 74.676C79.0567 74.676 79.3712 74.6025 79.6733 73.9287C79.8953 73.4326 80.0988 73.4388 80.327 73.4449C80.4072 73.4449 80.4873 73.451 80.5737 73.4265C80.9005 73.353 81.1163 72.6854 80.5367 72.471C79.957 72.2627 79.6425 72.0484 79.661 71.834C79.698 71.6257 80.0927 71.1602 80.6415 71.1296C81.1842 71.0929 81.215 70.7376 81.1842 70.4559C81.1533 70.168 81.1842 69.9904 81.548 69.8189C81.9057 69.6413 81.8687 69.2125 81.252 69.0349C80.6353 68.8572 79.735 68.6429 79.735 68.3611C79.735 68.0794 80.1358 67.5832 80.5305 67.4424C80.9313 67.2954 81.1163 66.6951 80.2098 66.7257C79.3095 66.7686 78.8038 66.8727 78.6312 66.3031C78.4462 65.7396 78.4153 65.4211 79.3588 65.0659C79.7412 64.9556 79.8522 64.4228 79.1307 64.4595C78.403 64.4901 77.5767 64.8515 77.3238 64.6004C77.0648 64.3493 77.145 64.141 77.2868 64.0369C77.4348 63.9266 77.4718 63.5714 77.108 63.5714C76.7503 63.5714 75.3382 64.1043 74.9805 63.7123C74.6167 63.3203 74.037 63.1059 73.5683 63.3938C73.0935 63.6816 73.0935 64.1104 73.3525 64.3615C73.404 64.4094 73.4343 64.4757 73.4366 64.5458C73.4389 64.6158 73.4131 64.684 73.3648 64.7351C73.3166 64.7863 73.2498 64.8163 73.1793 64.8186C73.1088 64.8209 73.0402 64.7953 72.9887 64.7474C72.6988 64.4963 72.8098 64.3309 72.8098 64.2145C72.8098 64.0981 72.6002 63.7551 72.3412 63.6081C72.0883 63.4795 72.0883 63.0875 72.1685 62.8364C72.2178 62.6587 72.0883 62.4811 71.854 62.4811C71.7337 62.4856 71.6167 62.5215 71.5148 62.5853ZM89.3982 117.526C88.8 117.753 87.4372 118.213 86.9808 118.482C86.6848 115.334 90.2245 112.51 90.0765 112.669C90.2553 112.486 90.3725 112.185 89.9655 112.277C86.0312 112.822 84.4525 118.445 84.3785 119.192C84.2922 119.903 83.4103 119.964 83.2562 119.903C83.0554 119.788 82.828 119.727 82.5963 119.725C82.404 119.725 82.2141 119.769 82.0412 119.852C81.8683 119.936 81.7169 120.058 81.5985 120.209C81.4802 120.359 81.398 120.535 81.3583 120.722C81.3185 120.908 81.3222 121.102 81.3692 121.287C80.9128 121.483 80.7155 121.851 80.7155 122.365C80.7155 123.064 81.1595 123.615 81.8687 123.615C82.1647 123.615 82.3558 123.658 82.5655 123.486C82.6859 123.62 82.8332 123.727 82.9978 123.801C83.1624 123.875 83.3407 123.914 83.5213 123.915C84.2305 123.915 84.5882 123.731 84.6375 122.322H84.619C89.3303 119.872 96.2123 118.219 99.4067 118.384C103.002 118.562 105.678 121.116 105.956 121.336C106.233 121.569 106.455 121.569 106.412 121.208C106.178 119.756 105.191 118.225 102.656 116.761C102.891 115.799 104.377 115.34 104.691 115.205C104.932 115.095 105.018 114.789 104.691 114.789C102.354 114.482 100.535 115.652 100.221 116.063C99.4358 115.938 98.6411 115.885 97.8465 115.903C98.1117 114.74 100.011 113.68 101.053 112.829C100.936 112.914 101.331 112.461 101.016 112.461C98.1795 112.4 95.7313 115.395 95.5402 116.075C95.312 116.118 93.0118 116.571 92.5432 116.706C92.9687 114.035 96.348 112.277 96.6317 112.1C96.903 111.916 97.0017 111.634 96.6317 111.634C92.7405 111.763 89.5277 116.479 89.3982 117.526ZM86.0558 128.833C85.6365 128.986 85.0383 129.195 84.73 129.385C84.3045 127.045 85.9695 125.164 85.7537 125.379C85.8832 125.25 85.9757 125.036 85.692 125.103C83.2685 125.52 83.0033 129.464 82.9602 129.972C82.8985 130.456 82.2942 130.505 82.1893 130.456C82.0543 130.379 81.9011 130.339 81.7453 130.34C81.5152 130.338 81.2937 130.427 81.1286 130.586C80.9636 130.745 80.8684 130.963 80.8635 131.191C80.8635 131.283 80.8882 131.332 80.9128 131.406C80.5922 131.534 80.4503 131.792 80.4503 132.147C80.4503 132.618 80.7587 132.992 81.2458 132.992C81.437 132.992 81.5727 133.023 81.7392 132.913C81.8222 133.002 81.9234 133.073 82.0361 133.12C82.1488 133.168 82.2704 133.191 82.3928 133.188C82.8677 133.188 83.3363 132.992 83.3672 132.024H83.3363C86.6232 130.052 90.872 128.895 93.0427 129.005C95.497 129.14 97.1867 130.267 97.3717 130.413C97.569 130.579 97.7232 130.579 97.6923 130.328C97.532 129.336 96.7365 128.564 94.868 127.682C94.9359 127.434 95.0571 127.204 95.2232 127.007C95.3893 126.811 95.5963 126.652 95.83 126.542C95.9903 126.463 96.052 126.255 95.83 126.255C94.2205 126.046 93.4188 127.026 93.1907 127.302C92.7642 127.259 92.3345 127.259 91.908 127.302C92.0807 126.506 93.0303 125.562 93.7457 124.993C93.6408 125.072 93.943 124.742 93.7148 124.742C91.7847 124.699 89.8607 127.247 89.7312 127.706C89.3673 127.823 88.467 127.964 88.1093 128.147C88.2819 126.965 88.8435 125.873 89.7065 125.042C89.8977 124.907 89.9655 124.729 89.7065 124.729C87.0363 124.815 86.1422 128.123 86.0558 128.833Z" fill="#8690B1"/>
</g>
<defs>
<clipPath id="clip0_178_103">
<rect width="148" height="147" fill="white"/>
</clipPath>
</defs>
</svg>
