<svg width="147" height="147" viewBox="0 0 147 147" fill="none" xmlns="http://www.w3.org/2000/svg">
<g clip-path="url(#clip0_178_106)">
<path d="M64.0853 50.7492C71.6564 36.612 79.6232 21.7375 83.379 14.7376C84.732 12.2123 85.5399 10.7113 85.5816 10.6403C85.7378 10.9019 96.1294 30.303 106.159 49.0267C110.773 57.6418 115.31 66.1133 118.739 72.5114C119.118 73.2127 119.147 73.7309 118.763 74.4475C106.024 98.223 80.232 146.493 79.9894 146.967C80.7881 146.967 81.5789 146.968 82.3635 146.969C85.2116 146.972 87.9783 146.975 90.7443 146.938C91.0291 146.934 91.4107 146.55 91.5737 146.248C98.403 133.496 105.226 120.742 112.05 107.987C118.078 96.7193 124.107 85.4505 130.14 74.1842C130.415 73.6691 130.397 73.293 130.128 72.7926C117.267 48.7742 104.422 24.747 91.5853 0.713826C91.3072 0.195745 91.0022 0.00331487 90.413 0.00923583C87.2512 0.0388406 84.0865 0.0536433 80.9247 0.000354762C80.1548 -0.0114871 79.8057 0.272717 79.4621 0.915142C66.6939 24.8298 53.9104 48.7357 41.1093 72.6266C40.76 73.2807 40.7866 73.7548 41.1271 74.3881C43.9215 79.5987 47.7118 86.6712 51.4893 93.7192C58.6735 107.124 65.8113 120.443 65.9626 120.699C66.4385 119.811 66.9077 118.932 67.3726 118.059C68.6043 115.748 69.8091 113.489 71.0518 111.249C71.4659 110.503 71.4451 109.952 71.0457 109.209C67.8852 103.331 64.7351 97.4481 61.5844 91.5639C58.5297 85.8584 55.4746 80.1524 52.4094 74.4506C52.0246 73.737 52.0512 73.2189 52.4272 72.5145C55.6268 66.5426 59.7925 58.7644 64.0853 50.7492ZM64.7223 7.55801C66.885 3.51358 68.3483 0.777073 68.7513 0.0239764C67.974 0.0239764 67.2047 0.0232027 66.4428 0.0224358C63.5536 0.019528 60.7614 0.0167176 57.969 0.0565418C57.6848 0.0595023 57.3029 0.447326 57.1401 0.749296C50.282 13.5547 43.4298 26.3627 36.5772 39.1715C30.5768 50.3872 24.5762 61.6034 18.571 72.8189C18.2957 73.3371 18.3194 73.7101 18.5858 74.2105C31.4461 98.2291 44.2917 122.256 57.1253 146.29C57.4006 146.81 57.7115 146.997 58.2976 146.991C61.4595 146.961 64.6243 146.947 67.786 147C68.5614 147.012 68.9081 146.721 69.2486 146.082C82.0168 122.167 94.8003 98.2615 107.605 74.3673C107.954 73.7132 107.924 73.2397 107.584 72.6058C105.343 68.4267 102.457 63.0416 99.4492 57.4315C91.6 42.7864 82.9258 26.603 82.7481 26.3012C82.2863 27.163 81.8318 28.0168 81.3804 28.8638C80.1352 31.1995 78.9182 33.4841 77.6619 35.748C77.2479 36.4941 77.2742 37.0477 77.6742 37.7878C80.7869 43.5771 83.8898 49.3723 86.9922 55.1675C90.0945 60.9626 93.1974 66.7576 96.3101 72.547C96.6978 73.263 96.6654 73.7811 96.2893 74.4831C92.5285 81.4999 87.4332 91.0126 82.3659 100.473C72.7736 118.382 63.2811 136.104 63.1322 136.354C62.9785 136.094 52.8935 117.266 43.0066 98.8073C38.2378 89.904 33.5149 81.0864 29.9748 74.48C29.5988 73.7781 29.5692 73.2599 29.9541 72.5439C38.7184 56.1904 56.6239 22.7035 64.7223 7.55801Z" fill="#8690B1"/>
</g>
<defs>
<clipPath id="clip0_178_106">
<rect width="147" height="147" fill="white"/>
</clipPath>
</defs>
</svg>
