<svg width="148" height="147" viewBox="0 0 148 147" fill="none" xmlns="http://www.w3.org/2000/svg">
<path d="M105.432 0C112.495 0 118.209 5.67237 118.209 12.6914V134.091C118.209 141.118 112.495 146.787 105.431 146.787H40.5324C33.4635 146.787 27.75 141.118 27.75 134.091V12.6914C27.75 5.67237 33.4635 0 40.5324 0H105.432ZM40.3559 4.15254C35.7123 4.15254 31.9308 7.91059 31.9308 12.5203V133.92C31.9308 138.532 35.7127 142.288 40.3559 142.288H105.255C109.966 142.288 113.747 138.532 113.747 133.92V12.5203C113.747 7.91059 109.966 4.15254 105.255 4.15254H40.3559ZM35.4272 119.599H110.251V133.92C110.251 136.622 108.038 138.815 105.255 138.815H40.3559C37.6443 138.815 35.4272 136.622 35.4272 133.92V119.599ZM35.6036 27.0152V12.6914C35.6036 9.99849 37.8207 7.80097 40.5324 7.80097H105.431C108.215 7.80097 110.428 9.99849 110.428 12.6914V27.0152H35.6036ZM35.6036 30.4921H110.423V116.298H35.6036V30.4921ZM94.6489 19.9986V23.047C95.8639 23.6824 97.8585 23.9681 99.4326 23.9681C103 23.9681 105.001 22.2639 105.073 19.7125C105.145 17.5175 103.645 16.4515 101.147 15.9566C98.6479 15.4587 97.5048 15.3146 97.5048 14.1145C97.5048 13.4007 98.3623 12.833 99.7905 12.833C100.716 12.833 101.572 12.9746 102.434 13.2611C103.073 13.5423 103.717 13.8981 104.003 14.394V11.6263C103.146 11.2027 101.785 10.7746 99.7905 10.7746C96.8664 10.7746 94.8617 12.4099 94.794 14.538C94.794 16.6633 96.2222 17.8709 98.8615 18.2268C100.929 18.5054 102.289 18.7172 102.289 20.0688C102.289 21.2008 101.219 21.9823 99.4326 21.9823C98.295 21.9823 97.2201 21.7709 96.0043 21.1315C95.5792 20.9197 94.9349 20.4222 94.6489 19.9986ZM50.3129 14.8914C50.3129 16.1683 49.243 16.6633 47.6017 16.6633H44.6044V13.0448H47.6017C49.243 13.0448 50.3129 13.5423 50.3129 14.8914ZM52.1671 20.5638C51.5278 19.3596 51.0291 18.4385 50.0997 18.0104C52.0993 17.5868 53.0969 16.452 53.0969 14.7498C53.0969 13.1195 52.3803 11.8447 51.0295 11.3472C50.1728 10.9914 49.0971 10.9914 47.4562 10.9914H40.8906C41.5345 11.4149 41.8882 12.6914 41.8882 13.8288V20.9894C41.8882 22.0521 41.5341 23.4008 40.8906 23.7571H45.5965C44.9577 23.4008 44.6044 22.0521 44.6044 20.9894V18.7168H46.5991C47.6017 18.7168 48.1723 19.0726 48.5988 19.8566C49.3103 20.9894 49.8145 22.5495 50.6712 23.7571H54.4523C53.3147 22.9777 52.7386 21.7705 52.1671 20.5638ZM62.1654 24.1105C63.9469 24.1105 65.4528 23.6122 66.5908 22.6172C67.9512 21.4869 68.8756 19.7819 68.8756 17.3726C68.8756 15.0355 67.9512 13.2611 66.5908 12.1238C65.4528 11.2027 63.9469 10.7053 62.1654 10.7053C60.3786 10.7053 58.8823 11.2027 57.7351 12.1238C56.3842 13.2611 55.4544 15.0355 55.4544 17.3726C55.4544 19.7819 56.3842 21.4869 57.7351 22.6172C58.8823 23.6122 60.4513 24.1105 62.1654 24.1105ZM59.4538 20.7777C58.6699 20.0684 58.3116 18.9356 58.3116 17.3726C58.3116 15.8818 58.6699 14.7498 59.4538 13.9704C60.093 13.3305 61.0228 12.9078 62.1654 12.9078C63.3076 12.9078 64.2374 13.3305 64.8767 13.9704C65.666 14.7494 66.0916 15.8818 66.0916 17.3726C66.0916 18.936 65.6656 20.0684 64.8767 20.7777C64.237 21.4172 63.3076 21.8403 62.1654 21.8403C61.0228 21.8403 60.093 21.4172 59.4538 20.7777ZM80.729 20.4911C80.012 21.4167 78.5161 21.6987 76.8747 21.6987H74.3759V13.8288C74.3759 12.7637 74.73 11.4145 75.3011 10.9914H70.6629C71.3013 11.4149 71.6646 12.7641 71.6646 13.8288V20.9894C71.6646 22.1264 71.3013 23.329 70.6629 23.7571H80.2975L80.729 20.4911ZM92.3633 20.4911C91.6471 21.4167 90.1508 21.7705 88.5094 21.6987H85.9387V13.8288C85.9387 12.7637 86.2924 11.4145 86.9404 10.9914H82.2976C82.9364 11.4149 83.2993 12.7641 83.2993 13.8288V20.9894C83.2993 22.1264 82.9364 23.4008 82.2976 23.824H91.8603L92.3633 20.4911ZM67.6607 102.611V83.5338C69.5153 83.4661 71.3017 83.3938 73.0886 83.2493C72.4443 81.7586 71.8005 80.2728 71.0162 78.8543C69.9459 78.9934 68.8087 78.9934 67.6607 79.0661V75.0983C65.1618 75.6651 62.451 76.0887 59.667 76.3727V102.611C59.667 108.42 56.9507 109.983 55.3098 111.046H72.0137C70.4501 109.983 67.6607 108.42 67.6607 102.611ZM106.501 110.979C105.146 109.699 103.426 107.714 102.575 103.818C101.005 96.6525 97.718 86.3704 90.7947 78.7098C97.578 75.0261 101.717 69.2071 101.717 62.0514C101.785 56.9417 99.1462 51.5555 94.4353 48.3647C92.436 47.0828 90.0823 46.1617 87.2941 45.5941C88.2958 47.7227 88.9355 49.9925 89.0801 52.2647C92.0046 54.5299 93.5787 58.0069 93.5787 62.1901C93.5787 67.5091 90.867 73.7467 81.3728 76.9395C82.1517 78.4257 82.936 79.9888 83.5803 81.4749C84.0837 81.3358 84.582 81.1955 85.0858 81.0514C89.5112 86.1586 93.0749 94.1709 94.1447 101.615C94.9345 107.006 93.0071 109.699 91.7245 110.979H106.501ZM53.1692 70.4869V40.7061H64.5184C68.6624 40.7759 71.7328 41.6272 74.1589 43.3247C77.3685 45.5941 79.0876 49.2114 79.0876 53.5391C79.0876 60.8393 74.0134 70.1306 53.1692 70.4869ZM89.8653 102.395C88.4363 101.12 86.728 99.1332 85.9383 95.234C84.3692 88.0733 81.2265 78.003 74.9474 70.8374C75.2283 70.6983 75.4461 70.6256 75.7267 70.4865C82.8687 66.8692 87.2259 60.8393 87.2259 53.4648C87.2941 48.2899 84.6506 42.9713 79.9438 39.7801C76.23 37.299 71.234 36.3082 64.8767 36.3082H40.8179C42.4593 37.3708 45.1709 38.9293 45.1709 44.7432V93.9596C45.1709 99.8408 42.4593 101.332 40.8179 102.395L57.5223 102.395C55.9532 101.332 53.1692 99.8408 53.1692 93.9596V74.882C59.0232 74.882 64.5184 74.1706 69.157 72.9681C73.3741 78.0034 76.5164 85.8036 77.514 92.9642C78.2255 98.36 76.3713 101.121 75.0878 102.395H89.8653ZM67.6607 66.2351V49.4277H76.6569C76.0185 47.5811 74.8704 46.0924 73.3064 44.955H55.3094C56.9507 46.0197 59.6666 47.5109 59.6666 53.3946V68.2163C62.6642 67.7932 65.375 67.1586 67.6607 66.2351ZM84.0113 129.416C84.0113 126.935 85.4399 125.089 87.9379 125.089C89.724 125.089 90.867 125.517 91.6467 126.368V123.742C91.0075 123.386 89.8653 123.03 88.0107 123.03C86.0787 123.03 84.5101 123.598 83.3675 124.593C82.0844 125.656 81.2269 127.291 81.2269 129.416C81.2269 133.384 84.0117 135.726 88.0111 135.726C89.8653 135.726 91.0079 135.37 91.6471 135.091L92.0782 132.322C91.3658 133.172 89.7244 133.668 87.9383 133.668C85.4399 133.668 84.0113 131.821 84.0113 129.416ZM49.8819 127.003C49.8819 128.209 48.8847 128.705 47.3157 128.705H44.4594V125.305H47.3157C48.8847 125.305 49.8819 125.728 49.8819 127.003ZM51.6687 132.393C51.0972 131.259 50.598 130.335 49.7414 129.984C51.6006 129.628 52.5254 128.493 52.5981 126.935C52.5981 125.305 51.8857 124.097 50.598 123.598C49.8141 123.314 48.7434 123.314 47.1702 123.314H40.9588C41.5345 123.67 41.8886 124.877 41.8886 126.006V132.821C41.8886 133.812 41.5345 135.091 40.9588 135.514H45.3842C44.8177 135.09 44.4594 133.811 44.4594 132.821V130.619H46.314C47.3157 130.619 47.8822 131.042 48.3182 131.753C48.9571 132.821 49.4562 134.302 50.2401 135.441L53.8858 135.514C52.7386 134.668 52.2444 133.596 51.6687 132.393ZM61.1679 135.799C62.877 135.799 64.3052 135.303 65.375 134.379C66.6581 133.317 67.5929 131.682 67.5929 129.416C67.5929 127.147 66.6585 125.517 65.375 124.377C64.3052 123.53 62.877 123.03 61.1679 123.03C59.5215 123.03 58.0933 123.53 57.0235 124.377C55.74 125.517 54.8102 127.147 54.8102 129.416C54.8102 131.682 55.74 133.317 57.0235 134.379C58.0938 135.303 59.5219 135.799 61.1679 135.799ZM58.5921 132.61C57.8805 131.965 57.5223 130.902 57.5223 129.416C57.5223 127.926 57.8805 126.868 58.5921 126.151C59.2364 125.517 60.093 125.161 61.236 125.161C62.3059 125.161 63.1626 125.517 63.8068 126.151C64.5184 126.868 64.8771 127.926 64.8771 129.416C64.8771 130.902 64.5188 131.965 63.8068 132.61C63.1626 133.244 62.3059 133.668 61.236 133.668C60.093 133.668 59.2364 133.245 58.5921 132.61ZM77.1552 123.314C77.4462 123.53 77.5863 123.741 77.514 124.021C77.514 124.309 77.368 124.732 77.0875 125.161L74.6568 128.632L72.2311 125.088C71.9456 124.665 71.665 124.242 71.7328 123.882C71.8005 123.67 71.8783 123.458 72.1592 123.314H67.2342C68.0867 123.67 68.5173 124.309 69.157 125.232L73.1609 130.83V132.821C73.1609 133.812 72.8026 135.091 72.2311 135.442H76.6565C76.085 135.091 75.7267 133.812 75.7267 132.821V130.83L79.3723 125.727C79.9438 125.021 80.7286 123.741 81.5852 123.313L77.1552 123.314ZM100.861 133.528H97.718V130.196H102.434L102.715 128.349H97.718V125.305H100.502C102.076 125.305 103.359 125.372 104.003 126.007V123.314H94.2221C94.7936 123.742 95.1473 125.021 95.1473 126.007V132.822C95.1473 133.88 94.7936 135.091 94.2221 135.514H104.075L104.501 132.532C103.785 133.456 102.435 133.528 100.861 133.528Z" fill="#8690B1"/>
</svg>
