<svg width="148" height="147" viewBox="0 0 148 147" fill="none" xmlns="http://www.w3.org/2000/svg">
<g clip-path="url(#clip0_178_110)">
<path d="M48.9695 6.51093C76.7935 5.53705 104.642 6.5048 132.411 8.27493C135.334 8.52605 138.294 8.50768 141.173 9.12018C142.734 9.48768 144.417 10.0818 145.324 11.4906C146.156 13.0218 146.175 14.7981 146.391 16.4886C147.05 24.7634 147.248 33.0751 147.87 41.3561C146.668 41.4969 145.465 41.3132 144.257 41.2764C122.84 40.1739 101.398 39.2613 79.9508 39.2307C68.8385 39.2674 57.7138 39.1572 46.6138 39.6901C43.919 40.0882 40.8788 40.9763 39.3187 43.3651C47.7177 44.8473 56.1043 46.4459 64.4972 47.9527C92.3273 53.1283 120.176 58.1814 148 63.3509C147.975 68.5939 147.988 73.8369 148 79.0738C132.349 76.5013 116.729 73.7267 101.09 71.0746C67.4448 65.3171 33.8118 59.4738 0.160333 53.7653C0.222 47.9466 0.474833 42.1339 0.598167 36.3091C0.807833 31.7031 0.678333 27.0297 1.72667 22.5033C2.43583 19.3061 3.74317 16.0966 6.179 13.8181C10.3847 9.67755 16.4712 8.5138 22.1322 7.93193C31.0553 7.11118 40.0155 6.84168 48.9695 6.51093ZM0 61.4216C48.1987 70.2538 96.385 79.2392 144.577 88.1266C145.626 88.3777 146.754 88.4022 147.766 88.7819L147.889 89.0576C147.624 96.9098 147.47 104.768 147.186 112.62C147.001 117.465 146.489 122.543 143.979 126.806C141.285 131.216 136.271 133.66 131.313 134.585C123.999 135.944 116.531 136.036 109.125 136.441C77.2622 137.874 45.3373 137.084 13.5235 134.909C10.9828 134.726 8.399 134.683 5.92617 133.984C4.64967 133.586 3.33 132.943 2.60233 131.761C1.8315 130.224 1.78217 128.466 1.591 126.788C0.912667 117.625 0.542667 108.449 0.0616667 99.2741C16.4712 100.315 32.9115 100.891 49.3518 101.252C65.2248 101.51 81.0978 101.51 96.9708 101.663C100.399 101.804 104.099 101.154 106.696 98.7657C107.078 98.3369 107.695 97.9327 107.627 97.2896C100.473 96.2238 93.3633 94.8947 86.2223 93.7248C57.4857 88.8493 28.749 84.0167 0.0123333 79.1044C-0.0185 73.2122 0.0246667 67.3199 0 61.4216Z" fill="#8690B1"/>
</g>
<defs>
<clipPath id="clip0_178_110">
<rect width="148" height="147" fill="white"/>
</clipPath>
</defs>
</svg>
