<svg width="148" height="147" viewBox="0 0 148 147" fill="none" xmlns="http://www.w3.org/2000/svg">
<g clip-path="url(#clip0_178_112)">
<path fill-rule="evenodd" clip-rule="evenodd" d="M141.032 73.5C141.032 91.1578 133.969 108.092 121.399 120.578C108.828 133.064 91.7779 140.079 74 140.079C56.2221 140.079 39.1723 133.064 26.6015 120.578C14.0306 108.092 6.96833 91.1578 6.96833 73.5C6.96833 55.8422 14.0306 38.9076 26.6015 26.4217C39.1723 13.9358 56.2221 6.92125 74 6.92125C91.7779 6.92125 108.828 13.9358 121.399 26.4217C133.969 38.9076 141.032 55.8422 141.032 73.5ZM135.112 73.5C135.372 65.3708 133.984 57.2725 131.032 49.6862C128.079 42.1 123.622 35.1805 117.924 29.3387C112.227 23.4969 105.405 18.8521 97.8649 15.68C90.3247 12.5079 82.2195 10.8733 74.0308 10.8733C65.8422 10.8733 57.737 12.5079 50.1968 15.68C42.6565 18.8521 35.835 23.4969 30.1375 29.3387C24.4399 35.1805 19.9824 42.1 17.0299 49.6862C14.0773 57.2725 12.6899 65.3708 12.95 73.5C12.95 89.5983 19.3885 105.037 30.8492 116.421C42.3098 127.804 57.8538 134.199 74.0617 134.199C90.2695 134.199 105.813 127.804 117.274 116.421C128.735 105.037 135.173 89.5983 135.173 73.5H135.112ZM120.497 102.533C121.175 103.206 121.175 104.37 120.497 104.982C115.896 109.297 110.094 112.135 103.847 113.129C103.637 113.155 103.425 113.136 103.223 113.074C103.022 113.012 102.836 112.908 102.678 112.769C102.521 112.63 102.395 112.459 102.309 112.267C102.223 112.076 102.18 111.868 102.182 111.659V109.209C102.182 108.535 101.627 108.106 100.948 108.106H50.3817C49.8883 108.106 49.5183 108.106 49.1483 108.351L42.7967 112.026C42.4218 112.239 41.995 112.345 41.5633 112.333H34.78C34.2867 112.333 34.04 112.21 33.7317 111.72C30.8128 106.903 27.4697 102.353 23.7417 98.1225C22.3233 96.53 23.2483 94.4475 25.4067 94.4475H40.8233C41.1933 94.4475 41.5633 94.57 41.9333 94.6925L51.6767 99.2862C54.02 100.389 55.8083 98.6738 55.5617 96.7138C52.2933 74.6025 32.9917 69.5188 22.1383 67.62C21.8537 67.5826 21.5794 67.4891 21.3316 67.345C21.0838 67.201 20.8674 67.0092 20.6951 66.7811C20.5228 66.5529 20.3981 66.2929 20.3282 66.0163C20.2584 65.7396 20.2448 65.4519 20.2883 65.17C21.1931 58.9988 23.22 53.0423 26.27 47.5913C26.825 46.7337 27.8733 46.4275 28.86 46.6725C33.5467 47.8975 39.6517 49.735 46.0033 53.1038C49.2717 54.8188 51.5533 55.2475 52.9717 54.0225C47.0088 48.6374 40.4266 43.9705 33.3617 40.1188C32.56 39.7513 32.1283 39.0775 32.8683 38.1587C36.7659 33.5063 41.4896 29.6033 46.805 26.6437C47.73 26.1537 48.5933 26.3375 49.5183 26.8275C54.6367 29.7063 61.1117 33.9325 67.2783 39.7512C69.19 41.5887 71.4717 43.1813 74.37 42.9363C69.9803 35.9225 64.4595 29.6733 58.0283 24.4387C56.98 23.52 56.7333 22.2337 58.645 21.6825C64.918 19.8214 71.4767 19.0953 78.0083 19.5387C79.2417 19.6613 80.105 20.0288 80.9683 20.825C94.165 32.6463 96.6317 40.425 99.345 48.3262C102.182 56.5337 102.367 62.72 102.428 68.9675C102.428 74.8475 101.503 82.8712 97.8033 96.1625C97.4333 97.3875 97.8033 99.5925 99.53 99.5925H101.01C101.627 99.5925 102.182 98.8575 102.182 98.1838V95.9175C102.182 94.9987 102.983 94.325 103.908 94.4475C110.128 95.4319 115.907 98.2485 120.497 102.533ZM90.7117 86.5462C90.7117 84.7512 89.9937 83.0297 88.7158 81.7605C87.4379 80.4912 85.7047 79.7781 83.8975 79.7781C82.0903 79.7781 80.3571 80.4912 79.0792 81.7605C77.8012 83.0297 77.0833 84.7512 77.0833 86.5462C77.0833 88.3331 77.798 90.0469 79.0701 91.3104C80.3422 92.5739 82.0676 93.2837 83.8667 93.2837C85.6657 93.2837 87.3911 92.5739 88.6632 91.3104C89.9353 90.0469 90.65 88.3331 90.65 86.5462H90.7117ZM74 144.06C64.6709 144.06 55.4331 142.235 46.8142 138.689C38.1952 135.143 30.3638 129.946 23.7671 123.393C17.1705 116.841 11.9377 109.063 8.3676 100.502C4.7975 91.9414 2.96 82.7661 2.96 73.5C2.96 64.2339 4.7975 55.0586 8.3676 46.4979C11.9377 37.9371 17.1705 30.1586 23.7671 23.6065C30.3638 17.0544 38.1952 11.857 46.8142 8.31106C55.4331 4.76509 64.6709 2.94 74 2.94C92.841 2.94 110.91 10.374 124.233 23.6065C137.555 36.8391 145.04 54.7863 145.04 73.5C145.04 92.2137 137.555 110.161 124.233 123.393C110.91 136.626 92.841 144.06 74 144.06ZM74 0C54.374 0 35.5518 7.74373 21.6741 21.5277C7.79641 35.3116 0 54.0066 0 73.5C0 92.9934 7.79641 111.688 21.6741 125.472C35.5518 139.256 54.374 147 74 147C93.626 147 112.448 139.256 126.326 125.472C140.204 111.688 148 92.9934 148 73.5C148 54.0066 140.204 35.3116 126.326 21.5277C112.448 7.74373 93.626 0 74 0Z" fill="#8690B1"/>
</g>
<defs>
<clipPath id="clip0_178_112">
<rect width="148" height="147" fill="white"/>
</clipPath>
</defs>
</svg>
