<svg width="147" height="147" viewBox="0 0 147 147" fill="none" xmlns="http://www.w3.org/2000/svg">
<path fill-rule="evenodd" clip-rule="evenodd" d="M104.309 16.0475C119.438 25.97 141.488 56.595 147 73.3775C141.426 90.65 119.438 120.785 104.309 130.708V16.0475ZM71.9688 38.0363C50.4087 38.0363 34.9125 53.5325 34.9125 73.3775C34.9008 78.1876 35.8611 82.9505 37.7356 87.3802C39.6101 91.81 42.3603 95.8154 45.8211 99.1561C49.2818 102.497 53.3819 105.104 57.8751 106.821C62.3683 108.538 67.1621 109.329 71.9688 109.148C79.7475 109.148 90.0987 105.718 97.8775 100.083V134.566C89.2463 140.016 79.1682 142.728 68.9675 142.345C50.6762 142.345 33.134 135.079 20.2001 122.145C7.2662 109.211 0 91.6689 0 73.3775C0 55.0862 7.2662 37.5441 20.2001 24.6101C33.134 11.6762 50.6762 4.41003 68.9675 4.41003C80.605 4.41003 90.0987 7.47253 97.8775 12.1888V46.6725C90.2721 41.3212 81.2639 38.3185 71.9688 38.0363Z" fill="#8690B1"/>
</svg>
