<svg width="148" height="147" viewBox="0 0 148 147" fill="none" xmlns="http://www.w3.org/2000/svg">
<g clip-path="url(#clip0_178_116)">
<path fill-rule="evenodd" clip-rule="evenodd" d="M147.568 60.6314C143.325 45.0678 123.049 37.2216 123.049 37.2216C117.641 35.2555 119.806 38.3425 119.806 38.3425C119.806 38.3425 143.134 49.0123 143.134 63.8593C143.134 82.2465 117.709 87.7468 117.709 87.7468C140.834 80.4396 140.896 64.8454 140.896 64.8454C140.495 49.2573 119.806 38.3425 119.806 38.3425C111.826 33.8468 107.497 32.7259 107.497 32.7259C97.0876 29.2591 100.467 33.2894 100.467 33.2894C100.467 33.2894 131.874 43.12 131.874 64.8025C131.874 86.9566 88.0904 94.0678 88.0904 94.0678C129.265 86.485 129.271 64.9863 129.271 64.9863C129.271 45.6251 100.467 33.2894 100.467 33.2894C96.1379 30.9435 88.7995 29.0631 88.7995 29.0631C82.0039 27.6238 85.8581 30.5699 85.8581 30.5699C113.448 46.5868 113.448 64.288 113.448 64.288C113.448 83.9554 95.2931 88.8676 95.2931 88.8676C90.0144 90.9073 79.8147 92.5426 79.8147 92.5426C78.1559 93.0204 77.0027 94.1535 77.0027 95.4765C77.0027 96.0094 77.1322 96.5361 77.5269 96.9526C78.5197 98.0123 81.8744 100.493 81.8744 100.493C83.0769 101.614 83.786 103.004 83.786 104.511C83.786 108.204 79.5064 111.199 74.1969 111.267H73.8022C68.4989 111.206 64.2192 108.204 64.2192 104.511C64.2192 103.004 64.9222 101.614 66.1247 100.493C66.1247 100.493 69.4732 98.0123 70.4722 96.9526C70.8318 96.546 71.0196 96.0172 70.9964 95.4765C70.9964 94.1535 69.8432 93.0265 68.1905 92.5365C68.1905 92.5365 57.9785 90.9073 52.706 88.8676C52.706 88.8676 34.5514 83.9554 34.5514 64.288C34.5514 64.288 34.5514 46.5868 62.1349 30.5699C62.1349 30.5699 65.9952 27.6238 59.1996 29.0631C59.1996 29.0631 51.8612 30.9435 47.5322 33.2894C47.5322 33.2894 18.7339 45.6251 18.7339 64.9863C18.7339 64.9863 18.7339 86.485 59.9087 94.0678C59.9087 94.0678 16.1254 86.9566 16.1254 64.8025C16.1254 43.12 47.5322 33.2894 47.5322 33.2894C47.5322 33.2894 50.9116 29.2591 40.5022 32.7259C40.5022 32.7259 36.1732 33.8468 28.1936 38.3425C28.1936 38.3425 7.49822 49.2573 7.09738 64.8454C7.09738 64.8454 7.15905 80.4396 30.284 87.7529C30.284 87.7529 4.86505 82.2465 4.86505 63.8593C4.86505 49.0123 28.1936 38.3425 28.1936 38.3425C28.1936 38.3425 30.3519 35.2555 24.9499 37.2216C24.9499 37.2216 4.66772 45.0616 0.425049 60.6314C0.425049 60.6314 -0.857618 66.493 1.02322 70.7744C3.30488 76.0174 9.25572 84.7026 24.4072 89.572C24.4072 89.572 31.3015 92.3834 58.8912 97.8591L60.5192 98.2266C60.5192 98.2266 61.7032 98.7473 60.8584 99.6783L57.0535 102.925C57.0535 102.925 51.4789 107.181 59.44 110.765C59.44 110.765 64.287 112.406 67.7157 116.05C67.7157 116.05 69.9172 118.127 73.6419 118.231V118.243H73.8885L73.9194 118.249H74.2771C78.0572 118.17 80.2834 116.05 80.2834 116.05C83.7121 112.406 88.5591 110.765 88.5591 110.765C96.5141 107.181 90.9394 102.925 90.9394 102.925L87.1469 99.6783C86.2959 98.7473 87.4799 98.2328 87.4799 98.2328L89.1017 97.8652C116.691 92.3834 123.592 89.572 123.592 89.572C138.743 84.7026 144.688 76.0174 146.976 70.7683C148.857 66.493 147.568 60.6314 147.568 60.6314Z" fill="#8690B1"/>
</g>
<defs>
<clipPath id="clip0_178_116">
<rect width="148" height="147" fill="white"/>
</clipPath>
</defs>
</svg>
