<svg width="148" height="147" viewBox="0 0 148 147" fill="none" xmlns="http://www.w3.org/2000/svg">
<path fill-rule="evenodd" clip-rule="evenodd" d="M23.5567 61.6481L9.3425 63.5714C9.12667 63.6816 9.01567 63.798 9.01567 64.0185C9.01567 64.2451 9.13283 64.4718 9.361 64.4718L37.6845 68.3183C39.1583 68.5449 40.5212 69.6658 40.9837 71.1358L45.9787 87.9795C46.0958 88.2123 46.324 88.4328 46.5522 88.4328C46.7742 88.4328 47.0085 88.3225 47.1195 87.9856L52.1207 71.1541C52.577 69.6841 53.8288 68.5633 55.3027 68.4469L83.7433 64.4901C83.9653 64.4901 84.0825 64.2635 84.0825 64.043C84.0825 63.8164 83.9592 63.7061 83.731 63.5898L55.2903 59.7433C54.5646 59.6183 53.8861 59.3016 53.3262 58.8263C52.7663 58.351 52.3456 57.7347 52.1083 57.0421L46.99 39.9779C46.99 39.7513 46.7557 39.5246 46.5398 39.5246C46.3055 39.5246 46.0773 39.7513 45.9602 39.9779L40.848 57.0299C40.6091 57.7227 40.1882 58.3396 39.6287 58.8166C39.0693 59.2937 38.3917 59.6136 37.666 59.7433L23.5628 61.6665V61.6481H23.5567ZM51.8802 99.1576L58.1332 100.291C58.5585 100.349 58.9574 100.53 59.2806 100.811C59.6038 101.092 59.8373 101.46 59.9523 101.871L61.8948 109.331C61.8948 109.442 62.0182 109.552 62.3512 109.552C62.5978 109.552 62.5978 109.442 62.5978 109.221L64.5218 101.871C64.6375 101.462 64.8705 101.095 65.1924 100.816C65.5144 100.536 65.9114 100.356 66.3348 100.297L78.8532 98.147C78.9642 98.147 79.0752 98.0306 79.0752 97.9204C79.0752 97.8101 78.9642 97.6938 78.8532 97.5835L66.341 95.5623C65.4345 95.3356 64.75 94.7783 64.528 93.8656L62.5917 86.5279C62.5917 86.2951 62.3635 86.1788 62.3635 86.1788C62.0305 86.1788 61.9133 86.2829 61.9133 86.5218L59.977 93.8718C59.755 94.7721 59.0705 95.3356 58.164 95.5623L45.6518 97.5896C45.5285 97.7121 45.4237 97.8224 45.4237 97.9388C45.4237 98.049 45.5285 98.1593 45.6457 98.1593L51.8987 99.176L51.8802 99.1576ZM89.2995 93.7309L82.5902 94.7538C82.4853 94.864 82.3805 94.9804 82.3805 95.0906C82.3805 95.207 82.4915 95.3173 82.6025 95.3173L95.9102 97.5774C96.3426 97.6887 96.7432 97.8982 97.0803 98.1894C97.4174 98.4807 97.6818 98.8456 97.8527 99.2556L100.011 106.943C100.011 107.169 100.116 107.39 100.467 107.39C100.578 107.39 100.695 107.169 100.806 106.943L102.854 99.2556C102.998 98.8498 103.238 98.4841 103.553 98.189C103.869 97.8939 104.25 97.6779 104.667 97.559L117.981 95.305C118.209 95.305 118.332 95.1886 118.332 95.0784C118.332 94.9681 118.209 94.8518 117.981 94.7415L104.673 92.5978C104.255 92.4797 103.872 92.2632 103.557 91.9668C103.241 91.6704 103.002 91.3027 102.86 90.895L100.806 83.104C100.689 82.9876 100.578 82.8774 100.461 82.8774C100.116 82.8774 100.116 82.9999 100.011 83.1101L97.8465 90.9073C97.6743 91.3177 97.4097 91.6836 97.073 91.9766C96.7362 92.2697 96.3363 92.4822 95.904 92.5978L89.3057 93.7309H89.2995ZM98.0562 79.7291L104.315 78.7124C104.426 78.6021 104.537 78.4858 104.537 78.3755C104.537 78.253 104.426 78.1489 104.315 78.1489L91.8093 75.999C91.403 75.9222 91.0266 75.7332 90.7234 75.4537C90.4202 75.1742 90.2024 74.8155 90.095 74.4188L88.1587 67.081C88.0538 66.9646 87.9305 66.8544 87.7085 66.8544C87.5975 66.8544 87.4803 66.9646 87.3632 67.081L85.433 74.4188C85.3176 74.8305 85.0831 75.1997 84.7587 75.4805C84.4343 75.7614 84.0341 75.9416 83.6077 75.999L71.2127 78.1489C70.9968 78.1489 70.9968 78.253 70.9968 78.3755C70.9968 78.4858 70.9968 78.6021 71.225 78.7124L83.6262 80.7459C84.5327 80.9725 85.2172 81.5421 85.4515 82.4425L87.3755 89.7803C87.3755 89.9885 87.6098 90.1049 87.7147 90.1049C87.9428 90.1049 88.0662 89.9885 88.171 89.7619L90.1135 82.4241C90.2163 82.0139 90.4296 81.6393 90.7305 81.3403C91.0314 81.0414 91.4087 80.8296 91.8217 80.7275L98.0685 79.7046L98.0623 79.7291H98.0562ZM102.718 54.4206L96.4652 55.4435C96.348 55.4435 96.348 55.5599 96.348 55.664C96.348 55.7804 96.348 55.8906 96.4652 56.007L108.983 58.0344C109.884 58.261 110.568 58.8306 110.79 59.731L112.727 67.0749C112.727 67.3015 112.936 67.4118 113.06 67.4118C113.282 67.4118 113.393 67.2954 113.51 67.0749L115.44 59.7249C115.544 59.3161 115.758 58.943 116.059 58.6454C116.36 58.3477 116.736 58.1366 117.148 58.0344L129.654 56.007C129.771 55.8845 129.888 55.7804 129.888 55.664C129.888 55.5538 129.765 55.4435 129.654 55.4435L117.148 53.2875C116.742 53.21 116.366 53.0208 116.063 52.7414C115.76 52.462 115.542 52.1037 115.434 51.7073L113.497 44.247C113.393 44.1368 113.282 44.0204 113.047 44.0204C112.943 44.0204 112.714 44.1245 112.714 44.2286L110.778 51.695C110.663 52.1051 110.431 52.473 110.109 52.7537C109.787 53.0344 109.389 53.2157 108.965 53.2753L102.7 54.4023L102.718 54.4145V54.4206ZM114.669 77.1321L108.41 78.1489C108.305 78.1489 108.194 78.2591 108.194 78.3755C108.194 78.4858 108.305 78.6021 108.422 78.7124L120.941 80.7459C121.841 80.9725 122.525 81.5421 122.754 82.4425L124.684 89.7803C124.684 89.9885 124.807 90.1049 125.035 90.1049C125.257 90.1049 125.368 89.9885 125.368 89.7619L127.428 82.4241C127.55 82.0226 127.771 81.6573 128.07 81.3612C128.369 81.0651 128.738 80.8474 129.142 80.7275L141.648 78.694C141.759 78.5899 141.87 78.4674 141.87 78.3571C141.87 78.2408 141.753 78.1305 141.636 78.1305L129.124 75.9868C128.445 75.8765 127.533 75.1966 127.416 74.4065L125.368 67.0688C125.368 66.9524 125.257 66.836 125.035 66.836C124.912 66.836 124.684 66.9524 124.684 67.0688L122.754 74.4065C122.64 74.8169 122.407 75.1853 122.085 75.4661C121.763 75.7469 121.365 75.9279 120.941 75.9868L114.681 77.1199L114.669 77.1321ZM74.8572 112.829H77.4718L79.2848 112.712L80.9992 112.596L82.695 112.486L84.5142 112.382L86.2285 112.271L87.9305 112.045L89.6387 111.824L91.3468 111.598L93.055 111.377L94.7632 111.034L96.4713 110.697L98.0623 110.354L99.7705 110.017L101.355 109.68L102.952 109.227L104.543 108.78L106.134 108.327L107.602 107.867L109.193 107.42L110.667 106.857L112.147 106.404L113.627 105.834L114.984 105.283L116.464 104.603L117.82 104.033L119.183 103.359L120.441 102.802L121.699 102.116L122.951 101.442L124.209 100.652L125.455 99.9784L126.589 99.3046L127.724 98.5023L128.865 97.7121L129.888 96.9281L130.918 96.138L131.825 95.3418L132.855 94.5578L133.761 93.7615L134.563 92.8611L135.469 92.0649L136.271 91.2809L136.943 90.3805L137.732 89.474L138.423 88.6778L138.978 87.7774L139.669 86.877L140.242 85.9766L140.699 85.0701L141.149 84.1698L141.611 83.3735L142.061 82.4731L142.407 81.5666L142.746 80.6663L143.085 79.7598L143.196 78.8594L143.418 77.959L143.646 77.0525L143.77 76.146L143.874 75.2456V71.7238L143.788 70.8234L143.683 69.9108L143.449 69.0104L143.227 68.11L143.104 67.2035L142.764 66.3031L142.419 65.3905L142.08 64.4901L141.624 63.5836L141.173 62.6833L140.717 61.887L140.144 60.9866L139.693 60.0863L139.003 59.1798L138.448 58.2794L137.757 57.4831L136.955 56.5828L136.277 55.6824L135.475 54.8923L134.569 53.9919L133.767 53.1956L132.861 52.4055L131.831 51.6154L130.924 50.8253L129.895 50.029L128.877 49.245L127.736 48.4488L126.602 47.6525L125.467 46.9788L124.209 46.305L122.951 45.5149L121.705 44.8411L120.454 44.1613L119.202 43.5978L117.845 42.924L116.482 42.3605L115.002 41.6806L113.646 41.1171L112.165 40.5536L110.679 40.1004L109.199 39.5369L107.608 39.0898L106.128 38.5201L104.537 38.0669L102.946 37.73L101.349 37.2829L99.7582 36.9338L98.05 36.603L96.4652 36.2661L94.757 35.9293L93.0427 35.5863L91.3345 35.3658L89.6263 35.1391L87.9182 34.9064L86.2162 34.6798L84.508 34.5695L82.695 34.4531L80.9807 34.3368L79.2787 34.2326L77.4595 34.1163H70.411L68.6967 34.2388L67.1118 34.3368L65.1817 34.4593L63.4673 34.5695L61.7592 34.6798L60.0633 34.8941L58.238 35.1208L56.5545 35.3351L54.9635 35.5618L53.2615 35.8925L51.5472 36.2355L49.9562 36.5724L48.3652 36.9093L46.6632 37.2523L45.0722 37.6994L43.5922 38.0363L41.884 38.4895L40.293 39.0591L38.813 39.5063L37.333 40.0698L35.853 40.523L34.3545 41.0926L32.8868 41.6684L31.524 42.3483L30.155 42.9118L28.9032 43.5916L27.5342 44.1551L26.1652 44.8411L24.9072 45.5149L23.6615 46.305L22.5145 46.9788L21.3798 47.6525L20.2452 48.4549L19.1105 49.2511L18.0868 50.0474L17.0755 50.8436L16.0395 51.6215L15.133 52.4116L14.2265 53.2018L13.3138 53.998L12.5122 54.8984L11.7105 55.6824L10.9212 56.5889L10.2428 57.4893L9.55217 58.2794L8.87383 59.1798L8.31267 60.0863L7.73917 60.9866L7.28283 61.887L6.7155 62.6833L6.25917 63.5898L5.91383 64.4901L5.57467 65.3905L5.22933 66.2909L4.89633 67.2035L4.67433 68.1039L4.44617 69.0043L4.32283 69.9108L4.1995 70.8111L4.0885 71.7238L3.96517 72.6241V74.3208L4.0885 75.2211L4.1995 76.1215L4.3105 77.0219L4.4215 77.9284L4.64967 78.8288L4.87783 79.7291L5.21083 80.6295L5.56233 81.5421L5.9015 82.4425L6.24067 83.349L6.697 84.1453L7.2705 85.0395L7.72683 85.946L8.29417 86.8525L8.8615 87.7529L9.546 88.6594L10.2367 89.4495L10.915 90.3499L11.7105 91.1461L12.5122 92.0404L13.3138 92.8366L14.2142 93.7493L15.133 94.5394L16.0395 95.3356L17.0632 96.1319L18.0868 96.9159L19.1105 97.706L20.2513 98.4961L21.386 99.2924L22.5207 99.9661L23.6553 100.64L24.9133 101.436L26.1713 102.11L27.528 102.79L28.897 103.359L30.155 104.033L31.5117 104.597L32.8745 105.27L34.3545 105.834L35.8345 106.404L37.3145 106.851L38.7945 107.42L40.2745 107.867L41.8778 108.321L43.586 108.774L45.0598 109.221L46.6508 109.674L48.3528 110.011L49.95 110.348L51.5472 110.691L53.2553 111.028L54.9573 111.377L56.5298 111.604L58.2318 111.83L60.0448 112.057L61.7468 112.284L63.4612 112.406L65.1693 112.516L67.0995 112.62L68.6905 112.737L70.3987 112.859H74.8387L74.8572 112.829ZM73.0318 30.135H77.5828L79.4082 30.2514L81.3445 30.3616L83.0465 30.4719L84.8718 30.5944L86.691 30.7169L88.3992 30.9374L90.2183 31.1701L91.9203 31.3906L93.7395 31.7336L95.5587 31.9603L97.1435 32.2971L98.8517 32.6401L100.554 32.977L102.262 33.4303L103.976 33.8774L105.567 34.3368L107.269 34.7839L108.86 35.2371L110.457 35.8006L112.054 36.2539L113.528 36.8235L115.132 37.387L116.599 38.0608L118.085 38.6365L119.442 39.3103L120.928 39.9963L122.303 40.67L123.66 41.356L125.035 42.1523L126.287 42.826L127.533 43.6223L128.902 44.4185L130.043 45.2025L131.177 45.9988L132.318 46.893L133.453 47.6893L134.476 48.5958L135.488 49.392L136.524 50.2924L137.43 51.1928L138.343 52.2156L139.249 53.116L140.051 54.0286L140.84 55.0454L141.642 55.9458L142.32 56.9686L143.104 57.9915L143.677 59.0083L144.232 59.9086L144.806 60.9315L145.262 61.9421L145.712 63.0753L146.175 64.092L146.52 65.1149L146.859 66.1316L147.198 67.2648L147.537 68.2815L147.648 69.2983L147.772 70.4314L147.883 71.4543V72.5813L148 73.4816L147.877 74.4984V75.6315L147.778 76.6483L147.655 77.7814L147.544 78.7981L147.204 79.8088L146.865 80.9419L146.526 81.9586L146.181 82.9693L145.731 83.9921L145.274 85.0028L144.806 86.1298L144.232 87.0363L143.671 88.053L143.104 89.0698L142.308 90.0865L141.63 91.1155L140.828 92.0159L140.033 93.0326L139.237 93.933L138.324 94.8334L137.418 95.7338L136.505 96.7566L135.475 97.5468L134.458 98.4594L133.447 99.3598L132.306 100.156L131.171 101.056L130.036 101.847L128.902 102.643L127.539 103.439L126.281 104.223L125.035 104.897L123.666 105.693L122.31 106.373L120.934 107.047L119.454 107.72L118.098 108.406L116.618 108.976L115.138 109.546L113.547 110.219L112.079 110.771L110.488 111.224L108.897 111.794L107.294 112.247L105.586 112.694L104.001 113.147L102.286 113.594L100.578 113.937L98.8702 114.384L97.162 114.734L95.571 115.07L93.7457 115.291L91.9327 115.622L90.2245 115.848L88.4053 116.081L86.6972 116.308L84.8842 116.424L83.0527 116.528L81.3507 116.651L79.4205 116.761L77.589 116.859H70.3L68.5857 116.749L66.7727 116.626L64.9535 116.51L63.1405 116.406L61.309 116.283L59.496 116.069L57.7817 115.842L55.9687 115.616L54.2605 115.279L52.5523 115.052L50.7332 114.715L49.025 114.378L47.3168 113.931L45.6148 113.588L44.0238 113.141L42.3157 112.676L40.7185 112.222L39.1275 111.775L37.5303 111.206L35.9455 110.752L34.3545 110.189L32.8745 109.509L31.3883 108.939L29.9145 108.376L28.4345 107.702L27.0655 107.028L25.7088 106.355L24.4508 105.675L22.977 104.878L21.719 104.205L20.3623 103.415L19.2277 102.618L17.9697 101.834L16.835 101.038L15.6942 100.144L14.6828 99.3475L13.5482 98.441L12.5183 97.5406L11.4885 96.7444L10.582 95.844L9.6755 94.8273L8.769 93.9269L7.85017 93.0204L7.05467 91.9975L6.37633 91.0971L5.698 90.0743L5.01967 89.0636L4.329 88.0591L3.7555 87.0363L3.19433 86.1359L2.738 85.0028L2.28783 83.9921L1.8315 82.9693L1.48 81.9586L1.14083 80.9419L0.789333 79.8088L0.567333 78.7859L0.339167 77.7753L0.234333 76.6483L0.111 75.6254L0 74.5045V72.5874L0.123333 71.4543L0.234333 70.4314L0.339167 69.3044L0.567333 68.2815L0.7955 67.2648L1.147 66.1316L1.48 65.1149L1.8315 64.0981L2.28783 63.0753L2.738 61.9483L3.19433 60.9315L3.76167 59.9148L4.329 58.9041L5.00733 57.9976L5.68567 56.9748L6.364 55.958L7.05467 55.0576L7.85017 54.0409L8.76283 53.1405L9.6755 52.2279L10.5882 51.2111L11.4947 50.3108L12.5183 49.4104L13.542 48.6141L14.6767 47.7076L15.688 46.9114L16.8288 46.011L17.9635 45.2148L19.2215 44.4369L20.3562 43.6406L21.7128 42.8566L22.977 42.1706L24.4508 41.3744L25.7088 40.7006L27.0655 40.0146L28.4345 39.3409L29.9145 38.661L31.3945 38.0975L32.8683 37.4238L34.3483 36.8541L35.9332 36.2845L37.5303 35.8313L39.1213 35.2678L40.7123 34.8145L42.3095 34.3674L44.0177 33.9141L45.621 33.467L47.3292 33.0138L49.0373 32.6708L50.7332 32.3339L52.5585 31.997L54.2667 31.7643L55.9687 31.4335L57.7817 31.2069L59.496 30.9803L61.309 30.7536L63.1405 30.6434L64.9535 30.5209L66.7665 30.4168L68.5795 30.3004L70.2938 30.1779H73.0195V30.2024L73.0318 30.135Z" fill="#8690B1"/>
</svg>
