<svg width="148" height="148" viewBox="0 0 148 148" fill="none" xmlns="http://www.w3.org/2000/svg">
<g clip-path="url(#clip0_178_122)">
<path d="M58.7313 14.3992L73.9877 33.0595L89.2502 14.3992C89.2502 14.3992 113.997 14.9172 139.324 26.0912L141.488 27.0778C134.809 37.1418 121.57 42.0998 121.57 42.0998C120.675 33.226 114.447 31.0553 94.7138 31.0553L74 148L53.1382 31.0368C33.5282 31.0492 27.3183 33.226 26.4118 42.0998C26.4118 42.0998 13.1658 37.1418 6.4935 27.0717C31.0985 15.6202 55.8268 14.4917 58.4908 14.4053L58.7313 14.3992ZM74 0C95.756 0.0925 121.021 3.76167 148 14.4793C148 14.4793 147.155 17.1187 143.856 23.0757C119.171 12.2778 95.0653 8.843 74 9.00333L70.4603 9.0095C50.2522 9.25 27.4417 12.876 4.144 23.0757C1.2025 17.7292 0 14.4793 0 14.4793C26.9792 3.76167 52.244 0.0925 74 0Z" fill="#8690B1"/>
</g>
<defs>
<clipPath id="clip0_178_122">
<rect width="148" height="148" fill="white"/>
</clipPath>
</defs>
</svg>
