<svg width="147" height="148" viewBox="0 0 147 148" fill="none" xmlns="http://www.w3.org/2000/svg">
<path fill-rule="evenodd" clip-rule="evenodd" d="M68.894 117.413C61.1888 112.548 55.5048 95.7807 55.5048 75.85L55.5109 73.6794H55.5231C34.0979 70.2877 18.6077 61.0007 18.2096 49.9994L18.1484 50.135C12.8993 56.6964 9.90413 64.2875 9.90413 72.372C9.90413 96.1692 35.8435 115.662 68.747 117.389L68.8879 117.407L68.894 117.413ZM0 74.1049C0 47.4834 32.9035 25.9 73.5 25.9C114.096 25.9 147 47.4895 147 74.111C147 100.726 114.096 122.316 73.5 122.316C32.9035 122.316 0 100.72 0 74.1049ZM73.5 32.8499C81.3339 32.8499 88.004 44.8194 90.4663 61.5249L90.4785 61.494C105.73 59.1014 116.399 53.5884 116.399 47.175C116.399 38.5664 97.1915 31.6165 73.5 31.6165C49.8085 31.6165 30.6005 38.5664 30.6005 47.175C30.6005 53.5884 41.2702 59.1075 56.5215 61.494L56.5276 61.5249C58.996 44.8317 65.66 32.8499 73.5 32.8499ZM78.2408 117.376C111.144 115.65 137.09 96.163 137.09 72.3597C137.09 64.2814 134.089 56.6902 128.845 50.1227L128.778 49.9994C128.386 60.9822 112.896 70.2815 91.4646 73.6794V73.667C91.483 74.3885 91.4952 75.11 91.4952 75.8315C91.4952 95.7745 85.8174 112.542 78.1182 117.395L78.2591 117.376H78.2408ZM73.5 62.7705C77.0096 62.7705 80.4212 62.6164 83.692 62.3204L83.6859 62.3265C82.0628 51.6212 78.1121 44.0547 73.5 44.0547C68.8818 44.0547 64.9434 51.615 63.3141 62.3142C66.5788 62.604 69.9904 62.7459 73.5 62.7459V62.7705ZM73.5 102.41C79.3984 102.41 84.2126 90.0457 84.4638 74.5304L84.5005 74.5365C77.182 75.2087 69.818 75.2087 62.4995 74.5365L62.5363 74.5242C62.7874 90.0334 67.5955 102.398 73.5 102.398V102.41Z" fill="#8690B1"/>
</svg>
