<svg width="148" height="148" viewBox="0 0 148 148" fill="none" xmlns="http://www.w3.org/2000/svg">
<g clip-path="url(#clip0_178_126)">
<path fill-rule="evenodd" clip-rule="evenodd" d="M49.6602 92.315C43.2777 92.315 36.9075 92.4137 32.005 92.4137C31.4685 92.4137 30.2783 91.0508 28.8107 90.3602C27.1703 89.5893 25.4437 89.5462 24.1918 89.5462C24.0315 89.5462 24.0068 89.5277 23.9267 89.3242C22.8968 86.1977 21.534 79.2355 21.534 74.2343C21.534 67.34 22.4405 63.4427 23.1312 60.0078C23.1497 59.8968 23.1312 59.792 23.3963 59.792C23.1188 59.792 31.1663 59.7612 48.6365 59.7612C48.8585 59.7612 48.8832 59.6995 49.025 59.4467C51.7383 54.5565 59.385 40.9467 61.0623 37.9682C61.124 37.8448 61.2967 37.666 60.9513 37.666L33.5035 37.7153C33.1767 37.5427 32.8128 37.2775 32.4243 37.0678C31.6843 37.1912 30.118 37.5242 29.193 37.7585C28.3913 38.8068 26.2145 41.921 24.9072 43.8943C19.951 51.5864 17.0917 60.4405 16.613 69.5785C16.3355 75.0175 16.3787 79.7535 18.7652 89.6078C17.1803 89.9532 16.243 90.3602 15.5092 90.8412C15.207 90.0395 12.9315 82.6087 12.9315 72.7358C12.9315 66.7788 13.7455 56.5483 20.3068 44.5295C24.346 37.1295 30.6668 29.3348 40.8788 22.6317C47.5154 18.3904 54.935 15.523 62.6989 14.199C70.4628 12.875 78.4134 13.1213 86.0805 14.9233C81.585 15.1207 75.9857 15.3735 66.6863 19.684C62.9 21.4353 58.682 25.049 57.6398 26.0357C57.165 26.6338 57.4302 27.0162 57.72 26.9422C62.7643 25.3388 84.7177 19.9122 101.849 33.6823C107.09 37.8942 108.607 39.7195 111.678 44.104C114.262 47.7855 115.335 50.246 116.821 54.4208C119.103 60.8157 120.312 71.4038 117.123 79.4575C112.498 91.094 106.104 94.683 100.054 97.9575C95.1208 96.7057 86.8575 88.6828 84.7238 78.7668C83.4905 73.0133 83.1822 65.4345 87.1905 63.5845C89.281 62.6102 91.4455 62.7767 94.2513 62.7828C94.313 62.7828 94.942 62.8815 95.0345 62.2217C94.9728 60.865 91.6058 59.2 88.9357 58.3182C89.2625 58.2442 90.8967 57.868 91.8217 57.8002C96.385 57.4857 97.865 58.4477 98.5063 59.0088C99.0737 59.5083 99.7273 60.8588 100.079 61.5495C100.288 61.9565 100.295 62.0058 100.597 61.5495C101.287 60.1682 101.849 58.7622 102.151 57.9297C102.601 56.6655 102.73 55.3088 102.73 54.797C102.73 49.432 99.5362 48.5687 94.3623 47.6437C93.98 47.5512 93.5792 47.2613 93.5792 47.2058C93.3078 46.7927 93.1722 45.9972 93.0242 45.4792C92.7158 44.4802 92.2102 44.2027 91.2975 43.8142C89.4851 43.1957 87.5824 42.8831 85.6673 42.8892C83.0588 42.8645 81.2273 42.6425 80.4503 41.8408C79.9693 41.3475 79.5253 40.7432 79.8275 39.0535C80.1235 37.3762 80.5305 36.0627 80.734 35.4522C80.845 35.0883 80.7957 34.9465 80.3887 35.1068C78.9457 35.7975 76.1892 37.3022 74.222 38.6033C73.2353 39.2447 71.3052 40.9467 70.6577 41.9888C70.3185 42.5438 69.819 44.0978 68.7028 44.77C63.6585 48.5933 62.493 49.7342 58.0962 55.019C57.9852 55.1238 58.0098 55.944 58.1578 55.9255C58.6244 55.8343 59.0891 55.7336 59.5515 55.6233C57.609 57.535 55.1115 60.0017 52.6572 64.3738C51.61 66.237 50.6229 68.1332 49.6972 70.0595C49.5985 70.3432 49.58 71.151 49.7712 71.1325C50.9243 70.8303 51.4855 70.7317 51.4855 70.781C48.5563 76.4667 46.9592 82.1893 45.4052 89.2378C45.3003 89.688 45.3188 90.6562 45.5408 90.5513C47.1072 89.9778 48.4823 89.4722 49.6725 89.0837C49.9068 88.9542 50.1658 88.911 50.0795 89.2995C49.8143 92.7528 49.8513 92.315 49.6602 92.315ZM25.1107 109.545C31.9557 118.795 42.8275 126.195 51.9788 129.87C55.6603 127.391 56.684 126.602 56.684 126.602C54.58 122.484 52.7647 118.225 51.2512 113.855C51.1278 113.485 49.543 112.486 48.0137 111.419C48.1493 112.69 48.3097 113.824 48.4762 114.959C42.2293 112.893 39.4358 111.123 38.1655 110.426C35.7975 109.131 35.6988 108.157 31.3513 108.2C26.9298 108.243 29.2547 108.237 28.712 108.237C28.1693 108.237 27.6945 108.521 27.1518 108.848C26.603 109.144 26.3132 109.378 25.1107 109.545ZM45.6518 56.6347H38.4183C38.3443 56.6347 38.2827 56.573 38.2827 56.5607C38.2457 56.462 34.854 41.7052 34.7677 41.3907C34.7245 41.2242 34.78 41.2303 34.9218 41.2303L39.6702 41.218L42.3527 52.8113C42.4452 52.8853 43.0002 52.8668 43.1605 52.8113C43.5428 52.096 46.8605 46.1267 49.5307 41.3537C49.617 41.1995 49.6602 41.1687 49.876 41.1687H54.3715C54.5257 41.1687 54.4763 41.2303 54.427 41.3228L45.806 56.5483C45.8183 56.5545 45.7628 56.6408 45.6518 56.6408V56.6347ZM74 148C33.1335 148 0 114.866 0 74C0 33.1335 33.1335 0 74 0C114.866 0 148 33.1335 148 74C148 114.866 114.866 148 74 148ZM74 140.742C110.858 140.742 140.742 110.858 140.742 74C140.742 37.1418 110.858 7.25817 74 7.25817C37.1418 7.25817 7.25817 37.1418 7.25817 74C7.25817 110.858 37.1418 140.742 74 140.742Z" fill="#8690B1"/>
</g>
<defs>
<clipPath id="clip0_178_126">
<rect width="148" height="148" fill="white"/>
</clipPath>
</defs>
</svg>
