<svg width="129" height="67" viewBox="0 0 129 67" fill="none" xmlns="http://www.w3.org/2000/svg">
<path d="M61.0176 2.58887L61.0483 6.17065L67.0438 6.10974C68.082 6.10974 68.7208 5.4214 68.7147 4.33712C68.7024 3.25893 68.039 2.53405 67.0622 2.53405L61.0176 2.59496V2.58887ZM57.9154 1.47413C57.8656 0.96985 57.6717 0.490142 57.3564 0.0913718H57.9031V0.0852801L67.3448 0C70.0047 0 71.737 1.76043 71.7616 4.47113C71.7739 6.19502 71.0244 7.55951 69.6976 8.21129L69.3781 8.36967L71.9889 11.9271L68.5365 11.9636L66.2637 8.65597L61.0729 8.7047L61.0975 12.0245L58.0014 12.055L57.9154 1.47413ZM83.943 6.03055C82.266 6.03055 81.0865 6.82244 80.6074 8.26611C79.9071 10.3494 81.1725 12.3352 83.8263 13.322C84.5941 13.6083 85.3436 13.7484 86.05 13.7484C87.7147 13.7484 88.9003 12.9565 89.3856 11.5068C90.0798 9.42958 88.8082 7.44986 86.1421 6.45695C85.4406 6.18582 84.6958 6.04141 83.943 6.03055ZM86.4739 16.5261C85.3374 16.5261 84.1641 16.3008 82.9847 15.8683C78.7092 14.2845 76.4486 10.6113 77.6096 7.14528C78.4205 4.72088 80.6442 3.27112 83.5437 3.27112C84.6801 3.27112 85.835 3.48432 86.9837 3.91681C88.9863 4.65388 90.6388 5.91481 91.6401 7.44986C92.1532 8.19991 92.4864 9.05648 92.6142 9.95395C92.742 10.8514 92.6609 11.766 92.3772 12.6276C91.5602 15.0642 89.3549 16.5261 86.48 16.5261H86.4739ZM33.227 16.6114L37.4964 14.0774L33.0858 11.1291L33.227 16.6114ZM30.4443 11.4641V11.4519C30.4048 11.2207 30.3145 11.0009 30.1796 10.8083C30.0448 10.6156 29.8688 10.4548 29.6642 10.3372L33.5403 8.059L44.444 15.3261L41.7411 16.9282L39.7938 15.6246L33.2885 19.4805L33.3499 21.911L30.647 23.513L30.4443 11.4641ZM104.565 30.5304L109.203 24.0491L100.756 26.0958L100.621 25.9557L101.727 16.8612L96.1367 22.4349L93.8515 20.2297L101.149 12.92C101.503 12.5121 101.705 11.9959 101.721 11.458L102.052 11.7748L104.798 14.4124L103.895 22.3313L111.267 20.6257L113.877 23.1415L106.838 32.7233L104.565 30.5304ZM14.4359 26.5831L14.4236 26.571C14.038 26.2788 13.5746 26.1052 13.0906 26.0715L22.0899 15.9901L23.8407 17.7201L17.3537 24.9872L19.4362 27.0522L23.9451 22.0024L25.6958 23.7384L21.1869 28.7822L23.8898 31.4563L21.7582 33.832L14.4359 26.5831ZM5.14162 42.689C4.6705 42.4984 4.15222 42.4538 3.65504 42.5611L5.32591 39.1133L13.4223 43.4869L17.3845 35.3731L19.5529 36.5488L14.184 47.5743L5.14162 42.689ZM109.074 36.366L117.864 31.4502C118.313 31.1688 118.663 30.7558 118.865 30.2685L125.008 42.4514L122.889 43.6331L118.448 34.8249L116.648 35.83L119.732 41.9519L117.612 43.1336L114.529 37.0117L112.649 38.0716L117.293 47.2819L115.174 48.4637L109.074 36.366ZM2.73974 57.077L6.97835 60.3786L7.71551 55.3592L2.73974 57.077ZM1.35144 59.4283L1.33301 59.4161C1.13228 59.3012 0.907309 59.2342 0.675935 59.2205C0.444561 59.2067 0.213137 59.2466 0 59.3369L0.688007 54.7927L12.9923 50.5287L12.5254 53.7023L10.314 54.4638L9.18981 62.1146L11.0695 63.5766L10.6027 66.7624L1.35144 59.4283ZM122.68 53.9155C122.497 53.9163 122.314 53.9326 122.134 53.9643C120.057 54.3298 119.019 56.4618 119.492 59.3857C119.91 62.0233 121.31 63.6619 123.135 63.6619C123.32 63.6613 123.505 63.645 123.688 63.6131C125.764 63.2477 126.796 61.1096 126.323 58.1796C125.905 55.5846 124.48 53.9155 122.68 53.9155ZM123.307 67C120.211 67 117.661 64.1187 116.973 59.8364C116.212 55.1338 118.159 51.2718 121.605 50.6566C121.906 50.6018 122.213 50.5774 122.502 50.5774C125.555 50.5774 128.154 53.5135 128.835 57.7288C129.597 62.4375 127.656 66.3056 124.228 66.9147C123.924 66.9705 123.616 66.999 123.307 67Z" fill="#8690B1"/>
</svg>
