<svg width="148" height="148" viewBox="0 0 148 148" fill="none" xmlns="http://www.w3.org/2000/svg">
<g clip-path="url(#clip0_178_128)">
<path d="M74 139.243C63.6395 139.228 53.4329 136.736 44.2311 131.975C35.0292 127.214 27.0988 120.323 21.1009 111.875C15.103 103.427 11.2114 93.6679 9.75066 83.4109C8.2899 73.1539 9.30226 62.6963 12.7033 52.91L50.7517 126.91C51.3067 127.958 51.8 128.76 53.1567 128.76C54.5133 128.76 55.0067 127.958 55.5 126.91L73.1983 87.505C73.5067 86.95 73.7533 86.7034 74 86.7034C74.2467 86.7034 74.555 87.2584 74.8017 87.505L92.8083 126.91C93.3017 127.958 93.8567 128.76 95.1517 128.76C96.4467 128.76 97.0017 127.958 97.5567 126.91L135.667 52.6017C138.114 59.4671 139.325 66.7119 139.243 74C139.083 91.2538 132.157 107.755 119.956 119.956C107.755 132.157 91.2538 139.083 74 139.243ZM74 57.0417C73.445 57.0417 73.445 56.5484 73.1983 56.3017L52.8483 12.3334C66.5176 7.39791 81.4824 7.39791 95.1517 12.3334L74.8017 56.1784C74.555 56.5484 74.555 57.1034 74 57.0417ZM52.6017 104.833C52.0467 104.833 52.0467 104.34 51.8 104.032L18.5 39.8984C24.4824 30.3531 32.7478 22.448 42.55 16.8967L66.1067 67.8334C66.6 68.9434 67.155 69.19 67.9567 69.19H80.29C81.0917 69.19 81.6467 69.19 82.14 67.8334L105.327 17.0817C115.172 22.537 123.486 30.3838 129.5 39.8984L96.2 103.847C96.2 104.402 95.7067 104.648 95.3983 104.648C95.09 104.648 94.905 104.155 94.6583 103.847L81.8933 75.85C81.7809 75.4543 81.5356 75.1095 81.1986 74.8736C80.8616 74.6377 80.4536 74.5252 80.0433 74.555H67.8333C67.4231 74.5252 67.0151 74.6377 66.6781 74.8736C66.3411 75.1095 66.0957 75.4543 65.9833 75.85L53.28 103.908C53.28 103.908 53.095 104.833 52.6017 104.833ZM74 148C88.6358 148 102.943 143.66 115.112 135.529C127.281 127.398 136.766 115.84 142.367 102.319C147.968 88.7969 149.433 73.9179 146.578 59.5634C143.723 45.2088 136.675 32.0232 126.326 21.6741C115.977 11.325 102.791 4.27723 88.4367 1.42192C74.0821 -1.43338 59.2032 0.0320632 45.6814 5.63295C32.1597 11.2338 20.6025 20.7186 12.4712 32.8878C4.34002 45.0571 0 59.3642 0 74C0 93.6261 7.79641 112.448 21.6741 126.326C35.5518 140.204 54.374 148 74 148Z" fill="#8690B1"/>
</g>
<defs>
<clipPath id="clip0_178_128">
<rect width="148" height="148" fill="white"/>
</clipPath>
</defs>
</svg>
