<svg width="148" height="148" viewBox="0 0 148 148" fill="none" xmlns="http://www.w3.org/2000/svg">
<g clip-path="url(#clip0_178_130)">
<path d="M67.118 79.55H84.915V73.6176H82.9663C82.9663 75.887 81.3013 77.5643 78.773 77.5643H76.0288V68.6966H78.9765V66.748H67.118V68.6966H70.1088V77.5643H67.118V79.55ZM93.4558 79.5623L100.387 79.5685L106.258 68.6966L109.206 68.7028V66.7295H100.344V68.6966H102.903L98.6235 76.6085L94.2883 68.7028L97.3963 68.6966V66.7295H84.5388V68.7028H87.4803L93.462 79.5623H93.4558ZM31.6905 66.7295H18.833V68.7028H21.7745L27.75 79.5623L34.6752 79.5685L40.552 68.6966L43.4997 68.7028V66.7295H34.6382V68.6966H37.1973L32.9177 76.6085L28.5825 68.7028L31.6905 68.6966V66.7295ZM45.214 73.1551C45.214 76.9353 48.2603 79.9446 54.3592 79.9446C60.4642 79.9446 63.4488 76.9353 63.4488 73.1613C63.4488 69.375 60.2545 66.4581 54.3037 66.4581C48.3467 66.4581 45.214 69.4551 45.214 73.1551ZM57.5042 73.1551C57.461 75.4861 56.499 77.9158 54.2543 77.8726C52.0158 77.8356 51.1278 75.4368 51.171 73.0441C51.208 70.6576 52.392 68.4191 54.4147 68.45C56.4312 68.4808 57.5473 70.7131 57.498 73.186L57.5042 73.1551ZM110.908 73.1551C110.908 76.9353 113.954 79.9446 120.053 79.9446C126.158 79.9446 129.142 76.9353 129.142 73.1613C129.142 69.375 125.948 66.4581 119.997 66.4581C114.046 66.4581 110.908 69.4551 110.908 73.1551ZM120.133 68.4808C122.168 68.524 123.241 70.7131 123.198 73.186C123.161 75.517 122.192 77.9466 119.954 77.9096C117.709 77.8665 116.821 75.4676 116.865 73.075C116.902 70.6885 118.098 68.45 120.133 68.4808Z" fill="#8690B1"/>
<path d="M134.31 32.3565L126.866 39.7997C135.314 52.8586 138.629 68.5819 136.173 83.9397C133.716 99.2974 125.663 113.203 113.564 122.975C101.465 132.748 86.1772 137.697 70.6465 136.869C55.1157 136.04 40.4412 129.492 29.4509 118.488C18.4606 107.483 11.9325 92.7996 11.1244 77.2677C10.3163 61.7358 15.2856 46.4545 25.0745 34.3686C34.8634 22.2827 48.7793 14.2476 64.1402 11.8117C79.5012 9.37592 95.2201 12.7117 108.268 21.1764L115.717 13.7332C100.666 3.30561 82.2583 -1.11552 64.1128 1.33871C45.9672 3.79294 29.3957 12.945 17.655 26.9964C5.91435 41.0477 -0.146478 58.9821 0.663689 77.2749C1.47386 95.5677 9.09643 112.896 22.0333 125.854C34.9703 138.813 52.286 146.464 70.5774 147.305C88.8689 148.145 106.813 142.114 120.884 130.397C134.955 118.679 144.134 102.123 146.619 83.9814C149.103 65.8399 144.712 47.4253 134.31 32.3565Z" fill="#8690B1"/>
<path d="M110.877 3.58289V5.64255C115.305 8.04755 119.492 10.8719 123.377 14.0786L112.955 24.5311C116.894 27.6238 120.448 31.1764 123.543 35.1131L133.965 24.6667C137.153 28.5517 139.977 32.7142 142.401 37.1172H144.405V3.58289H110.877Z" fill="#8690B1"/>
</g>
<defs>
<clipPath id="clip0_178_130">
<rect width="148" height="148" fill="white"/>
</clipPath>
</defs>
</svg>
